<svg xmlns="http://www.w3.org/2000/svg" viewBox="0 0 512 512"><g data-name="Asian Old Man"><path style="fill:#c4ced3" d="M128 149.333h256v277.333H128z"/><path style="fill:#a2b2ba" d="M256 149.333h128v277.333H256z"/><path style="fill:#e0e5e8" d="M128 192h21.333v106.667H128z"/><path style="fill:#a2b2ba" d="M149.333 298.667h21.333v106.667h-21.333z"/><path style="fill:#607a8a" d="M170.667 192H192v192h-21.333zM320 192h21.333v192H320z"/><path style="fill:#c4ced3" d="M362.667 277.333H384V384h-21.333z"/><rect x="341.333" y="192" width="42.667" height="64" rx="21.333" ry="21.333" style="fill:#cb7956"/><rect x="128" y="192" width="42.667" height="64" rx="21.333" ry="21.333" style="fill:#e29971"/><path d="M192 277.333v64a21.333 21.333 0 0 1-21.333 21.334h-64A85.333 85.333 0 0 0 21.333 448v42.667h469.334V448a85.333 85.333 0 0 0-85.334-85.333h-64A21.333 21.333 0 0 1 320 341.333v-64z" style="fill:#e29971"/><path d="M341.333 362.667A21.334 21.334 0 0 1 320 341.333v-64h-64v85.334h21.333V384h-42.666v21.333a21.333 21.333 0 1 0 42.666 0h85.334v-42.666z" style="fill:#cb7956"/><path d="M170.667 490.667h320V448a85.333 85.333 0 0 0-85.334-85.333h-64L320 341.333l-21.333 21.334z" style="fill:#e8a8ab"/><path style="fill:#e08a8e" d="M256 405.333 277.333 384 384 490.667h-42.667L256 405.333z"/><path style="fill:#d7686d" d="m341.333 362.667-128 128h64l128-128h-64z"/><path d="m192 341.333 21.333 21.334 128 128h-320V448a85.333 85.333 0 0 1 85.334-85.333h64z" style="fill:#f1cacc"/><path style="fill:#e8a8ab" d="m170.667 362.667 128 128h-64l-128-128h64z"/><path d="M64 490.667H42.667V448a64.07 64.07 0 0 1 64-64v21.333A42.716 42.716 0 0 0 64 448z" style="fill:#f7dfe0"/><rect x="149.333" y="42.667" width="213.333" height="298.667" rx="106.667" ry="106.667" style="fill:#edbda4"/><path d="M320 64.483v84.85h-42.667v21.334H320v42.666a21.333 21.333 0 0 1 21.333 21.334A21.333 21.333 0 0 1 320 256h-64v64h21.333v19.184a106.69 106.69 0 0 0 85.334-104.517v-85.334c0-34.784-16.901-65.379-42.667-84.85zM213.333 277.333h21.333V320h-21.333z" style="fill:#e29971"/><path style="fill:#cb7956" d="M277.333 277.333h21.333V320h-21.333zM234.667 234.667V256h42.666v-64H320v-21.333h-64v64h-21.333z"/><path style="fill:#4c2c1a" d="M298.667 192H320v21.333h-21.333zM192 192h21.333v21.333H192z"/><path style="fill:#ce464d" d="M234.667 277.333h42.667v21.333h-42.667z"/><path style="fill:#e29971" d="M192 149.333h64v21.333h-64zM213.333 106.667h85.333V128h-85.333z"/><path style="fill:#f5d9cb" d="M192 128h128v21.333H192z"/><path style="fill:#e0e5e8" d="M192 277.333h21.333v149.333H192z"/><path style="fill:#c4ced3" d="M298.667 277.333H320v149.333h-21.333z"/><path style="fill:#e0e5e8" d="M213.333 256h85.333v21.333h-85.333z"/><path style="fill:#c4ced3" d="M256 256h42.667v21.333H256z"/><path d="M341.333 213.333v-128S298.667 106.667 256 106.667s-85.333-21.334-85.333-21.334v128L128 192v-42.667a128 128 0 0 1 128-128 128 128 0 0 1 128 128V192z" style="fill:#e0e5e8"/><path d="M256 21.333a128.318 128.318 0 0 0-27.266 2.978 42.49 42.49 0 0 1-.605 79.565 156.559 156.559 0 0 0 27.871 2.79c42.667 0 85.333-21.333 85.333-21.333v128L384 192v-42.667a128 128 0 0 0-128-128z" style="fill:#c4ced3"/><path style="fill:#e0e5e8" d="M341.333 106.667h21.333V192h-21.333z"/><path style="fill:#f2f4f5" d="M149.333 106.667h21.333V192h-21.333zM192 64h64v21.333h-64z"/><path style="fill:#e0e5e8" d="M277.333 64H320v21.333h-42.667z"/></g></svg>