<svg xmlns="http://www.w3.org/2000/svg" viewBox="0 0 512 512"><g data-name="Party Lady"><path d="M128 170.667c0 85.333-21.333 128-21.333 128S149.333 341.333 256 341.333V170.667" style="fill:#8f492b"/><path d="m124.875 338.208-15.083-15.083c.145-.156 18.208-18.844 18.208-45.792v-42.666h21.333v42.666c0 36-23.458 59.875-24.458 60.875zM167.542 338.208l-15.084-15.083c.146-.156 18.209-18.844 18.209-45.792v-42.666H192v42.666c0 36-23.458 59.875-24.458 60.875zM384 170.667c0 85.333 21.333 128 21.333 128S362.667 341.333 256 341.333V170.667" style="fill:#552a1f"/><rect x="341.333" y="192" width="42.667" height="64" rx="21.333" ry="21.333" style="fill:#cb7956"/><rect x="128" y="192" width="42.667" height="64" rx="21.333" ry="21.333" style="fill:#e29971"/><path d="M192 277.333v64a21.333 21.333 0 0 1-21.333 21.334h-64A85.333 85.333 0 0 0 21.333 448v42.667h469.334V448a85.333 85.333 0 0 0-85.334-85.333h-64A21.333 21.333 0 0 1 320 341.333v-64z" style="fill:#e29971"/><path style="fill:#cb7956" d="M405.333 448H448v42.667h-42.667z"/><path d="M64 490.667H42.667V448a64.07 64.07 0 0 1 64-64v21.333A42.716 42.716 0 0 0 64 448z" style="fill:#edbda4"/><rect x="149.333" y="405.333" width="85.333" height="42.667" rx="21.333" ry="21.333" style="fill:#edbda4"/><circle cx="213.333" cy="426.667" r="21.333" style="fill:#f5d9cb"/><path d="M341.333 362.667A21.333 21.333 0 0 1 320 341.333v-64h-85.333v128a21.333 21.333 0 1 0 42.666 0H384A21.333 21.333 0 0 0 405.333 384 21.333 21.333 0 0 0 384 362.667z" style="fill:#cb7956"/><path style="fill:#cb393f" d="M128 490.667H85.333l21.334-128h42.666l-21.333 128zM426.667 490.667H384l-21.333-128h42.666l21.334 128z"/><path d="M106.667 448C192 448 256 490.667 256 490.667S320 448 405.333 448v42.667H106.667z" style="fill:#cb393f"/><path style="fill:#d7686d" d="M128 469.333h64v21.333h-64z"/><path d="m292.77 489.542-9.54-19.084c1.832-.916 45.666-22.458 111.437-22.458v21.333c-60.771 0-101.5 20-101.896 20.209z" style="fill:#ab0008"/><rect x="149.333" y="42.667" width="213.333" height="298.667" rx="106.667" ry="106.667" style="fill:#edbda4"/><path d="M320 64.483v84.85h-42.667v21.334H320v42.666a21.333 21.333 0 0 1 21.333 21.334A21.333 21.333 0 0 1 320 256h-64v64h21.333v19.184a106.69 106.69 0 0 0 85.334-104.517v-85.334c0-34.784-16.901-65.379-42.667-84.85z" style="fill:#e29971"/><path style="fill:#cb7956" d="M234.667 234.667V256h42.666v-64H320v-21.333h-64v64h-21.333z"/><path style="fill:#4c2c1a" d="M298.667 192H320v21.333h-21.333zM192 192h21.333v21.333H192z"/><path style="fill:#ce464d" d="M234.667 277.333h42.667v21.333h-42.667z"/><path d="M149.333 234.667v-21.334l128-106.666 21.334-.205 64 85.538v42.667L384 213.333v-64a128 128 0 0 0-128-128 128 128 0 0 0-128 128v64z" style="fill:#552a1f"/><path d="M277.333 106.667h21.334V28.773A127.712 127.712 0 0 0 128 149.333v64l21.333 21.334v-21.334z" style="fill:#8f492b"/><path style="fill:#cb7956" d="M277.333 85.333h21.333v21.333h-21.333z"/><path style="fill:#552a1f" d="m145.875 231.865-14.417-15.73L256 101.979v-37.5h21.333v46.875L145.875 231.865z"/><path d="M149.333 170.667H128a128.14 128.14 0 0 1 128-128V64a106.792 106.792 0 0 0-106.667 106.667z" style="fill:#cb7956"/><path style="fill:#8f492b" d="M354.125 145.063 320 99.552V64h21.333v28.448l29.875 39.823-17.083 12.792z"/></g></svg>