<svg xmlns="http://www.w3.org/2000/svg" viewBox="0 0 512 512"><g data-name="Indian Woman"><path d="M106.667 213.333c0 24.89 21.333 149.334 149.333 149.334s149.333-124.445 149.333-149.334z" style="fill:#062d3c"/><path d="M256 362.667c128 0 149.333-124.445 149.333-149.334H256z" style="fill:#012334"/><rect x="341.333" y="192" width="42.667" height="64" rx="21.333" ry="21.333" style="fill:#361200"/><rect x="128" y="192" width="42.667" height="64" rx="21.333" ry="21.333" style="fill:#552a1f"/><path d="M192 277.333v64a21.333 21.333 0 0 1-21.333 21.334h-64A85.333 85.333 0 0 0 21.333 448v42.667h469.334V448a85.333 85.333 0 0 0-85.334-85.333h-64A21.333 21.333 0 0 1 320 341.333v-64z" style="fill:#552a1f"/><rect x="149.333" y="405.333" width="85.333" height="42.667" rx="21.333" ry="21.333" style="fill:#8f492b"/><circle cx="213.333" cy="426.667" r="21.333" style="fill:#cb7956"/><path d="M405.333 362.667h-64a85.333 85.333 0 1 1-170.666 0h-64A85.333 85.333 0 0 0 21.333 448v42.667h469.334V448a85.333 85.333 0 0 0-85.334-85.333z" style="fill:#edbda4"/><path style="fill:#e29971" d="M256 469.333h-42.667L192 490.667h42.667L256 469.333z"/><path style="fill:#f5d9cb" d="M106.667 362.667h42.667V384h-42.667zM64 490.667H42.667V448a64.07 64.07 0 0 1 64-64v21.333A42.722 42.722 0 0 0 64 448z"/><path d="M256 490.667v-21.334a106.792 106.792 0 0 0 106.667-106.666H384a128.14 128.14 0 0 1-128 128z" style="fill:#95daec"/><path d="m213.333 490.667 128-128h64A85.333 85.333 0 0 1 490.667 448v42.667z" style="fill:#c6262d"/><path style="fill:#ab0008" d="M256 490.667 362.667 384h64L320 490.667h-64z"/><path d="M341.333 362.667A21.334 21.334 0 0 1 320 341.333v-64h-85.333v128a21.333 21.333 0 1 0 42.666 0h85.334v-42.666z" style="fill:#361200"/><rect x="149.333" y="42.667" width="213.333" height="298.667" rx="106.667" ry="106.667" style="fill:#8f492b"/><path d="M320 64.483v84.85h-42.667v21.334H320v42.666a21.333 21.333 0 0 1 21.333 21.334A21.333 21.333 0 0 1 320 256h-64v64h21.333v19.184a106.69 106.69 0 0 0 85.334-104.517v-85.334c0-34.784-16.901-65.379-42.667-84.85z" style="fill:#552a1f"/><path style="fill:#361200" d="M234.667 234.667V256h42.666v-64H320v-21.333h-64v64h-21.333z"/><path style="fill:#290300" d="M298.667 192H320v21.333h-21.333zM192 192h21.333v21.333H192z"/><path style="fill:#c6262d" d="M234.667 277.333h42.667v21.333h-42.667z"/><path d="M256 21.333a149.333 149.333 0 0 0-149.333 149.334v64l42.666-21.334C170.667 192 170.667 128 170.667 128s0-21.333 21.333-21.333S213.333 128 256 128s42.667-21.333 64-21.333S341.333 128 341.333 128s0 64 21.334 85.333l42.666 21.334v-64A149.333 149.333 0 0 0 256 21.333z" style="fill:#133846"/><path d="M266.667 128c-38.563 0-49.938-7.854-59.084-14.167-6.041-4.166-10.395-7.166-26.25-7.166V85.333c22.5 0 30.938 5.813 38.355 10.938 7.416 5.104 15.062 10.396 46.979 10.396z" style="fill:#012334"/><path d="M256 21.333V128c42.667 0 42.667-21.333 64-21.333S341.333 128 341.333 128s0 64 21.334 85.333l42.666 21.334v-64A149.333 149.333 0 0 0 256 21.333z" style="fill:#062d3c"/><path style="fill:#224552" d="M277.333 42.667h21.333v42.667h-21.333z"/><circle cx="256" cy="42.667" r="21.333" style="fill:#e29971"/><circle cx="256" cy="85.333" r="21.333" style="fill:#e29971"/><circle cx="256" cy="128" r="21.333" style="fill:#e29971"/><circle cx="245.333" cy="117.333" r="10.667" style="fill:#edbda4"/><circle cx="245.333" cy="74.667" r="10.667" style="fill:#edbda4"/><circle cx="245.333" cy="32" r="10.667" style="fill:#f5d9cb"/><path style="fill:#72cee6" d="m213.333 490.667 128-128h64l-128 128h-64z"/><path style="fill:#caecf6" d="M320 384 213.333 490.667h21.334L341.333 384H320z"/><path d="M149.333 149.333H128A106.792 106.792 0 0 1 234.667 42.667V64a85.418 85.418 0 0 0-85.334 85.333z" style="fill:#607a8a"/><path d="M384 191.917h-21.333v-42.584A85.418 85.418 0 0 0 277.333 64V42.667A106.792 106.792 0 0 1 384 149.333z" style="fill:#224552"/><path style="fill:#607a8a" d="M128 170.667h21.333V192H128z"/><path style="fill:#224552" d="M384 170.667h21.333V192H384zM362.667 192H384v21.333h-21.333z"/></g></svg>