<svg xmlns="http://www.w3.org/2000/svg" viewBox="0 0 512 512"><g data-name="Old Business Man"><circle cx="288" cy="74.667" r="53.333" style="fill:#c4ced3"/><circle cx="224" cy="74.667" r="53.333" style="fill:#e0e5e8"/><circle cx="309.333" cy="138.667" r="74.667" style="fill:#c4ced3"/><circle cx="202.667" cy="138.667" r="74.667" style="fill:#e0e5e8"/><rect x="341.333" y="192" width="42.667" height="64" rx="21.333" ry="21.333" style="fill:#cb7956"/><rect x="128" y="192" width="42.667" height="64" rx="21.333" ry="21.333" style="fill:#e29971"/><path d="M192 277.333v64a21.333 21.333 0 0 1-21.333 21.334h-64A85.333 85.333 0 0 0 21.333 448v42.667h469.334V448a85.333 85.333 0 0 0-85.334-85.333h-64A21.333 21.333 0 0 1 320 341.333v-64z" style="fill:#e29971"/><path d="M341.333 362.667A21.334 21.334 0 0 1 320 341.333v-64h-64v85.334h21.333V384h-42.666v21.333a21.333 21.333 0 1 0 42.666 0h85.334v-42.666z" style="fill:#cb7956"/><path d="M256 384v106.667h234.667V448a85.333 85.333 0 0 0-85.334-85.333h-64L320 341.333z" style="fill:#95daec"/><path style="fill:#3ebcdd" d="M298.667 448v42.667H256v-64l21.333-21.334h64L298.667 448z"/><path d="M192 341.333 256 384v106.667H21.333V448a85.333 85.333 0 0 1 85.334-85.333h64z" style="fill:#caecf6"/><path style="fill:#95daec" d="M170.667 405.333H192v85.333h-21.333z"/><path style="fill:#ce464d" d="m213.333 405.333 21.334 21.334-21.334 64h85.334l-21.334-64 24.001-20L256 384l-42.667 21.333z"/><path style="fill:#d7686d" d="M234.667 384h42.667v21.333h-42.667zM234.667 448H256v42.667h-21.333z"/><path style="fill:#e8a8ab" d="M234.667 469.333H256v21.333h-21.333z"/><path style="fill:#ab0008" d="M234.667 426.667h42.667V448h-42.667z"/><path style="fill:#c6262d" d="M256 405.333h21.333v21.333H256z"/><path d="M170.667 341.333H192l-21.333 21.334v128H21.333V448a85.333 85.333 0 0 1 85.334-85.333h42.666z" style="fill:#345460"/><path d="M64 490.667H42.667V448a64.07 64.07 0 0 1 64-64v21.333A42.716 42.716 0 0 0 64 448z" style="fill:#607a8a"/><path d="m320 341.333 21.333 21.334v128h149.334V448a85.333 85.333 0 0 0-85.334-85.333h-42.666l-21.334-21.334z" style="fill:#224552"/><path d="M362.667 362.667S448 384 469.333 490.667H362.667z" style="fill:#062d3c"/><path style="fill:#e7f6fa" d="m192 341.333-21.333 21.334v64L256 384l-64-42.667z"/><path style="fill:#caecf6" d="m256 384 85.333 42.667v-64L320 341.333 256 384z"/><path d="M170.667 341.333s-64 21.334-85.334 85.334L128 448l-42.667 42.667h85.334V341.333z" style="fill:#4c6a74"/><path d="M341.333 341.333s64 21.334 85.334 85.334L384 448l42.667 42.667h-85.334V341.333zM149.333 384l21.334-21.333v128h-21.334V384z" style="fill:#345460"/><path style="fill:#4c6a74" d="M341.333 362.667 362.667 384v106.667h-21.334v-128z"/><rect x="149.333" y="42.667" width="213.333" height="298.667" rx="106.667" ry="106.667" style="fill:#edbda4"/><path d="M320 64.483v84.85h-42.667v21.334H320v42.666a21.333 21.333 0 0 1 21.333 21.334A21.333 21.333 0 0 1 320 256h-64v64h21.333v19.184a106.69 106.69 0 0 0 85.334-104.517v-85.334c0-34.784-16.901-65.379-42.667-84.85z" style="fill:#e29971"/><rect x="170.667" y="213.333" width="64" height="42.667" rx="21.333" ry="21.333" style="fill:#c4eaf5"/><rect x="277.333" y="213.333" width="64" height="42.667" rx="21.333" ry="21.333" style="fill:#c4eaf5"/><path style="fill:#e7f6fa" d="M192 234.667h21.333V256H192zM298.667 234.667H320V256h-21.333z"/><path style="fill:#cb7956" d="M234.667 234.667V256h42.666v-64H320v-21.333h-64v64h-21.333z"/><path style="fill:#4c2c1a" d="M298.667 192H320v21.333h-21.333zM192 192h21.333v21.333H192z"/><path style="fill:#ce464d" d="M234.667 277.333h42.667v21.333h-42.667z"/><path style="fill:#e29971" d="M192 149.333h64v21.333h-64zM213.333 106.667h85.333V128h-85.333z"/><path style="fill:#f5d9cb" d="M192 128h128v21.333H192z"/><path style="fill:#e29971" d="M213.333 277.333h21.333V320h-21.333z"/><path style="fill:#cb7956" d="M277.333 277.333h21.333V320h-21.333z"/><path style="fill:#e0e5e8" d="M149.333 85.333h21.333v128h-21.333z"/><path style="fill:#f2f4f5" d="M149.333 85.333h21.333v21.333h-21.333zM149.333 128h21.333v21.333h-21.333z"/><path style="fill:#c4ced3" d="M341.333 85.333h21.333v128h-21.333z"/><path style="fill:#a2b2ba" d="M341.333 85.333h21.333v21.333h-21.333zM341.333 128h21.333v21.333h-21.333z"/></g></svg>