<svg xmlns="http://www.w3.org/2000/svg" viewBox="0 0 512 512"><g data-name="Afro Male Farmer"><path d="M405.333 170.667c0-85.334-64-149.334-149.333-149.334s-149.333 64-149.333 149.334c0 64-21.334 42.666-21.334 85.333S128 298.667 128 341.333c0 63.792 42.414 68.447 127.595 68.477v.004l.405-.002.405.002v-.004c85.18-.03 127.595-4.685 127.595-68.477 0-42.666 42.667-42.666 42.667-85.333s-21.334-21.333-21.334-85.333z" style="fill:#062d3c"/><path d="M405.333 170.667c0-85.334-64-149.334-149.333-149.334a163.731 163.731 0 0 0-21.333 1.542v211.792h189c-5.865-15.953-18.334-15.025-18.334-64z" style="fill:#012334"/><path d="M256 234.667V384h116.576c7.56-9.952 11.424-23.633 11.424-42.667 0-42.666 42.667-42.666 42.667-85.333 0-10.016-1.2-16.439-3-21.333z" style="fill:#012334"/><rect x="341.333" y="192" width="42.667" height="64" rx="21.333" ry="21.333" style="fill:#361200"/><rect x="128" y="192" width="42.667" height="64" rx="21.333" ry="21.333" style="fill:#552a1f"/><path d="M192 277.333v64a21.333 21.333 0 0 1-21.333 21.334h-64A85.333 85.333 0 0 0 21.333 448v42.667h469.334V448a85.333 85.333 0 0 0-85.334-85.333h-64A21.333 21.333 0 0 1 320 341.333v-64z" style="fill:#552a1f"/><rect x="149.333" y="405.333" width="85.333" height="42.667" rx="21.333" ry="21.333" style="fill:#edbda4"/><circle cx="213.333" cy="426.667" r="21.333" style="fill:#f5d9cb"/><path d="M341.333 362.667A21.334 21.334 0 0 1 320 341.333v-64h-64V384h-21.333v21.333a21.333 21.333 0 1 0 42.666 0h85.334v-42.666z" style="fill:#361200"/><path d="M234.667 426.667v64h256V448a85.333 85.333 0 0 0-85.334-85.333h-64L320 341.333l-21.333 21.334z" style="fill:#086b47"/><path style="fill:#339773" d="M405.333 362.667H298.667L277.333 384v21.333h128v-42.666z"/><path style="fill:#004c33" d="m362.667 426.667-85.334 64H256v-85.334l42.667-42.666h64v64z"/><path style="fill:#088156" d="M320 405.333v-42.666h-21.333L277.333 384v21.333H320z"/><path d="m192 341.333 21.333 21.334 64 64v64h-256V448a85.333 85.333 0 0 1 85.334-85.333h64z" style="fill:#339773"/><path style="fill:#57a98c" d="M106.667 362.667h106.667v42.667H106.667z"/><path style="fill:#57a98c" d="m234.667 384-21.334-21.333H192v128h42.667V384z"/><path style="fill:#088156" d="M64 405.333h42.667V448H64z"/><path style="fill:#57a98c" d="M21.333 448h256v42.667h-256z"/><path style="fill:#088156" d="M234.667 384H192v42.667h85.333L234.667 384z"/><path style="fill:#086b47" d="m234.667 384-21.334-21.333H192v42.666h42.667V384z"/><path style="fill:#088156" d="M106.667 362.667h64V384h-64z"/><path style="fill:#57a98c" d="m192 341.333-21.333 21.334v42.666l64-21.333L192 341.333z"/><circle cx="245.333" cy="437.333" r="10.667" style="fill:#086b47"/><path style="fill:#086b47" d="m277.333 384 64 21.333v-42.666L320 341.333 277.333 384z"/><rect x="149.333" y="42.667" width="213.333" height="298.667" rx="106.667" ry="106.667" style="fill:#8f492b"/><path d="M320 64.483v84.85h-42.667v21.334H320v42.666a21.333 21.333 0 0 1 21.333 21.334A21.333 21.333 0 0 1 320 256h-64v64h21.333v19.184a106.69 106.69 0 0 0 85.334-104.517v-85.334c0-34.784-16.901-65.379-42.667-84.85z" style="fill:#552a1f"/><path style="fill:#361200" d="M234.667 234.667V256h42.666v-64H320v-21.333h-64v64h-21.333z"/><path style="fill:#290300" d="M298.667 192H320v21.333h-21.333zM192 192h21.333v21.333H192z"/><path style="fill:#c6262d" d="M234.667 277.333h42.667v21.333h-42.667z"/><path style="fill:#088156" d="M106.667 362.667h42.667v42.667h-42.667z"/><path style="fill:#088156" d="M149.333 405.333H192V448h-42.667z"/><path style="fill:#086b47" d="M106.667 362.667h42.667V384h-42.667z"/><path d="M64 490.667H42.667V448a64.07 64.07 0 0 1 64-64v21.333A42.709 42.709 0 0 0 64 448z" style="fill:#57a98c"/><path style="fill:#088156" d="M106.667 448h42.667v42.667h-42.667zM192 448h42.667v42.667H192zM21.333 448H64v42.667H21.333z"/><path style="fill:#339773" d="M277.333 448h213.333v42.667H277.333z"/><path style="fill:#00593b" d="M320 448h42.667v42.667H320zM405.333 448H448v42.667h-42.667zM362.667 405.333h42.667V448h-42.667z"/><path style="fill:#339773" d="M42.667 448H64v42.667H42.667zM405.333 405.333H448V448h-42.667z"/><path style="fill:#088156" d="M320 405.333h42.667V448H320z"/><path style="fill:#552a1f" d="m106.667 362.667-21.334 128h341.334l-21.334-128h-42.666V448H149.653l-.32-85.333h-42.666z"/><path style="fill:#8f492b" d="M106.667 362.667h42.667V384h-42.667zM149.333 448h213.333v21.333H149.333z"/><path style="fill:#290300" d="M128 384h21.333v64H128z"/><path style="fill:#cb7956" d="M362.667 362.667H384V448h-21.333z"/><path d="M234.667 106.667s0 42.666 42.666 42.666S320 192 320 192c0 42.667 42.667 42.667 42.667 42.667H384v-64a128 128 0 0 0-128-128 128 128 0 0 0-128 128V192l21.333 21.333V192C170.667 192 192 170.667 192 149.333v-42.666z" style="fill:#062d3c"/><path d="M256 42.667a128.253 128.253 0 0 0-21.333 1.919v62.08s0 42.667 42.666 42.667S320 192 320 192c0 42.667 42.667 42.667 42.667 42.667H384v-64a128 128 0 0 0-128-128z" style="fill:#012334"/><path style="fill:#552a1f" d="M192 85.333h42.667v21.333H192z"/><path d="M405.333 213.333h-10.666A53.396 53.396 0 0 1 341.333 160a32.035 32.035 0 0 0-32-32A53.396 53.396 0 0 1 256 74.667V64h21.333v10.667a32.035 32.035 0 0 0 32 32A53.396 53.396 0 0 1 362.667 160a32.035 32.035 0 0 0 32 32h10.666zM352 85.333A53.102 53.102 0 0 1 302.552 52l19.77-8A31.881 31.881 0 0 0 352 64z" style="fill:#062d3c"/><path d="M117.333 170.667v-21.334a32.035 32.035 0 0 0 32-32v-32h21.334v32a53.396 53.396 0 0 1-53.334 53.334z" style="fill:#224552"/><path style="fill:#361200" d="M213.333 42.667h21.333v42.667h-21.333z"/><path d="M362.667 362.667h-21.334V336a64.329 64.329 0 0 1 25.594-51.198A42.892 42.892 0 0 0 384 250.667v-16h21.333v16a64.329 64.329 0 0 1-25.593 51.198A42.892 42.892 0 0 0 362.667 336z" style="fill:#062d3c"/><path d="M170.667 362.667h-21.334V336a42.892 42.892 0 0 0-17.073-34.135 64.329 64.329 0 0 1-25.593-51.198v-37.334H128v37.334a42.892 42.892 0 0 0 17.073 34.135A64.329 64.329 0 0 1 170.667 336z" style="fill:#224552"/></g></svg>