<svg xmlns="http://www.w3.org/2000/svg" viewBox="0 0 512 512"><g data-name="Old Man"><rect x="341.333" y="192" width="42.667" height="64" rx="21.333" ry="21.333" style="fill:#cb7956"/><rect x="128" y="192" width="42.667" height="64" rx="21.333" ry="21.333" style="fill:#e29971"/><path d="M192 277.333v64a21.333 21.333 0 0 1-21.333 21.334h-64A85.333 85.333 0 0 0 21.333 448v42.667h469.334V448a85.333 85.333 0 0 0-85.334-85.333h-64A21.333 21.333 0 0 1 320 341.333v-64z" style="fill:#e29971"/><path d="M341.333 362.667A21.334 21.334 0 0 1 320 341.333v-64h-64v85.334h21.333V384h-42.666v21.333a21.333 21.333 0 1 0 42.666 0h85.334v-42.666z" style="fill:#cb7956"/><path d="M234.667 426.667v64h256V448a85.333 85.333 0 0 0-85.334-85.333h-64L320 341.333l-21.333 21.334z" style="fill:#224552"/><path style="fill:#062d3c" d="m362.667 426.667-85.334 64H256v-85.334l42.667-42.666h64v64z"/><path d="m192 341.333 21.333 21.334 64 64v64h-256V448a85.333 85.333 0 0 1 85.334-85.333h64z" style="fill:#345460"/><path d="M64 490.667H42.667V448a64.07 64.07 0 0 1 64-64v21.333A42.709 42.709 0 0 0 64 448z" style="fill:#607a8a"/><path style="fill:#224552" d="M234.667 384H192v42.667h85.333L234.667 384zM106.667 362.667h64V384h-64z"/><rect x="149.333" y="42.667" width="213.333" height="298.667" rx="106.667" ry="106.667" style="fill:#edbda4"/><path d="M320 64.483v84.85h-42.667v21.334H320v42.666a21.333 21.333 0 0 1 21.333 21.334A21.333 21.333 0 0 1 320 256h-64v64h21.333v19.184a106.69 106.69 0 0 0 85.334-104.517v-85.334c0-34.784-16.901-65.379-42.667-84.85z" style="fill:#e29971"/><path style="fill:#cb7956" d="M234.667 234.667V256h42.666v-64H320v-21.333h-64v64h-21.333z"/><path style="fill:#4c2c1a" d="M298.667 192H320v21.333h-21.333zM192 192h21.333v21.333H192z"/><path style="fill:#ce464d" d="M234.667 277.333h42.667v21.333h-42.667z"/><path style="fill:#e29971" d="M192 149.333h64v21.333h-64zM213.333 106.667h85.333V128h-85.333z"/><path style="fill:#f5d9cb" d="M192 128h128v21.333H192z"/><path style="fill:#e29971" d="M213.333 277.333h21.333V320h-21.333z"/><path style="fill:#cb7956" d="M277.333 277.333h21.333V320h-21.333z"/><path style="fill:#4c6a74" d="m192 341.333-21.333 21.334v42.666l64-21.333L192 341.333z"/><path d="M192 106.667h-21.333A85.431 85.431 0 0 1 256 21.333h21.333v21.334H256a64.07 64.07 0 0 0-64 64z" style="fill:#c4ced3"/><path d="M256 85.333h-21.333a64.07 64.07 0 0 1 64-64v21.334A42.709 42.709 0 0 0 256 85.333zM362.667 128h-21.334a42.709 42.709 0 0 0-42.666-42.667V64a64.07 64.07 0 0 1 64 64z" style="fill:#e0e5e8"/><rect x="128" y="106.667" width="42.667" height="85.333" rx="21.333" ry="21.333" style="fill:#e0e5e8"/><path style="fill:#e0e5e8" d="M149.333 149.333h21.333v64h-21.333z"/><rect x="341.333" y="106.667" width="42.667" height="85.333" rx="21.333" ry="21.333" transform="rotate(180 362.667 149.333)" style="fill:#e0e5e8"/><path transform="rotate(-180 352 181.333)" style="fill:#e0e5e8" d="M341.333 149.333h21.333v64h-21.333z"/><circle cx="245.333" cy="437.333" r="10.667" style="fill:#062d3c"/><path style="fill:#345460" d="m277.333 384 64 21.333v-42.666L320 341.333 277.333 384z"/><path style="fill:#4c6a74" d="M256 448h21.333v42.667H256z"/></g></svg>