<svg xmlns="http://www.w3.org/2000/svg" viewBox="0 0 512 512"><g data-name="Afro Young Man"><path style="fill:#c6262d" d="M298.667 341.333H384v21.333h-85.333z"/><path style="fill:#e08a8e" d="M128 341.333h256v64H128z"/><path style="fill:#c6262d" d="M277.333 341.333H384v64H277.333z"/><rect x="341.333" y="192" width="42.667" height="64" rx="21.333" ry="21.333" style="fill:#361200"/><rect x="128" y="192" width="42.667" height="64" rx="21.333" ry="21.333" style="fill:#552a1f"/><path d="M192 277.333v64a21.333 21.333 0 0 1-21.333 21.334h-64A85.333 85.333 0 0 0 21.333 448v42.667h469.334V448a85.333 85.333 0 0 0-85.334-85.333h-64A21.333 21.333 0 0 1 320 341.333v-64z" style="fill:#552a1f"/><rect x="149.333" y="405.333" width="85.333" height="42.667" rx="21.333" ry="21.333" style="fill:#8f492b"/><circle cx="213.333" cy="426.667" r="21.333" style="fill:#cb7956"/><path d="M341.333 362.667A21.334 21.334 0 0 1 320 341.333v-64h-64v85.334h21.333V384h-42.666v21.333a21.333 21.333 0 1 0 42.666 0h85.334v-42.666z" style="fill:#361200"/><rect x="149.333" y="42.667" width="213.333" height="298.667" rx="106.667" ry="106.667" style="fill:#8f492b"/><path d="M320 64.483v84.85h-42.667v21.334H320v42.666a21.333 21.333 0 0 1 21.333 21.334A21.333 21.333 0 0 1 320 256h-64v64h21.333v19.184a106.69 106.69 0 0 0 85.334-104.517v-85.334c0-34.784-16.901-65.379-42.667-84.85z" style="fill:#552a1f"/><path d="M170.667 85.333H192S213.333 128 256 128s64-42.667 64-42.667h21.333v128h21.334V192L384 170.667v-21.334a128 128 0 0 0-128-128 128 128 0 0 0-128 128v21.334L149.333 192v21.333h21.334v-128z" style="fill:#062d3c"/><path style="fill:#361200" d="M234.667 234.667V256h42.666v-64H320v-21.333h-64v64h-21.333z"/><path style="fill:#290300" d="M298.667 192H320v21.333h-21.333zM192 192h21.333v21.333H192z"/><path style="fill:#c6262d" d="M234.667 277.333h42.667v21.333h-42.667z"/><path d="M405.333 362.667h-64a85.333 85.333 0 1 1-170.666 0h-64A85.333 85.333 0 0 0 21.333 448v42.667h469.334V448a85.333 85.333 0 0 0-85.334-85.333z" style="fill:#caecf6"/><path d="M192 405.333v85.334H21.333V448a85.333 85.333 0 0 1 85.334-85.333h42.666z" style="fill:#c6262d"/><path d="M21.333 448v42.667h21.334v-98.57A84.623 84.623 0 0 0 21.333 448zM170.667 384l-21.334-21.333h-42.666A84.623 84.623 0 0 0 50.763 384z" style="fill:#cb393f"/><path d="M106.667 362.667a84.605 84.605 0 0 0-21.334 3.017v124.983H128v-128z" style="fill:#cb393f"/><path d="M106.667 362.667a84.605 84.605 0 0 0-21.334 3.017V384H128v-21.333z" style="fill:#ab0008"/><path d="M21.333 448v21.333H192v-42.666H24.35A84.605 84.605 0 0 0 21.333 448z" style="fill:#cb393f"/><path d="M42.667 426.667H24.35A84.605 84.605 0 0 0 21.333 448v21.333h21.334z" style="fill:#ab0008"/><path d="M64 490.667H42.667V448a64.07 64.07 0 0 1 64-64v21.333A42.716 42.716 0 0 0 64 448z" style="fill:#ce464d"/><path transform="rotate(-90 106.667 448)" style="fill:#ab0008" d="M85.333 426.667H128v42.667H85.333z"/><path d="M256 490.667v-21.334a106.792 106.792 0 0 0 106.667-106.666H384a128.14 128.14 0 0 1-128 128z" style="fill:#95daec"/><path d="M320 405.333v85.334h170.667V448a85.333 85.333 0 0 0-85.334-85.333h-42.666z" style="fill:#ab0008"/><path d="M469.333 490.667h21.334V448a84.623 84.623 0 0 0-21.334-55.904zM461.237 384a84.623 84.623 0 0 0-55.904-21.333h-42.666L341.333 384z" style="fill:#c6262d"/><path d="M320 426.667v42.666h170.667V448a84.605 84.605 0 0 0-3.017-21.333z" style="fill:#c6262d"/><path d="M426.667 490.667V365.684a84.605 84.605 0 0 0-21.334-3.017H384v128z" style="fill:#c6262d"/><path d="M426.667 365.684a84.605 84.605 0 0 0-21.334-3.017H384V384h42.667zM384 426.667h42.667v42.667H384z" style="fill:#95070c"/><path style="fill:#95070c" d="m405.333 426.667-64 64H320v-85.334l42.667-42.666h42.666v64z"/><path style="fill:#cb393f" d="m384 341.333 21.333 21.334v42.666l-64-21.333L384 341.333z"/><path style="fill:#ce464d" d="M128 341.333h21.333v21.333H128z"/><circle cx="160" cy="437.333" r="10.667" style="fill:#062d3c"/><circle cx="160" cy="480" r="10.667" style="fill:#062d3c"/><path style="fill:#d7686d" d="m128 341.333-21.333 21.334v42.666l64-21.333L128 341.333z"/><path style="fill:#cb393f" d="M192 405.333 170.667 384v106.667H192v-85.334z"/><path style="fill:#ab0008" d="M170.667 426.667H192v42.667h-21.333z"/><path d="M469.333 426.667v42.666h21.334V448a84.605 84.605 0 0 0-3.017-21.333z" style="fill:#95070c"/><path style="fill:#730005" d="M320 426.667h21.333v42.667H320z"/><path d="M256 21.333a128.253 128.253 0 0 0-27.185 2.957c21.754 6.993 48.518 27.19 48.518 61.043 0 17.934-7.7 31.866-18.023 42.262C299.656 125.368 320 85.333 320 85.333h21.333v128h21.334V192L384 170.667v-21.334a128 128 0 0 0-128-128z" style="fill:#012334"/><path style="fill:#224552" d="M149.333 85.333h21.333v21.333h-21.333zM149.333 128h21.333v21.333h-21.333z"/><path style="fill:#062d3c" d="M341.333 85.333h21.333v21.333h-21.333zM341.333 128h21.333v21.333h-21.333z"/><path d="M206.167 80.094 193.708 62.78A105.899 105.899 0 0 1 256 42.667V64a84.687 84.687 0 0 0-49.833 16.094z" style="fill:#345460"/></g></svg>