<svg xmlns="http://www.w3.org/2000/svg" viewBox="0 0 512 512"><g data-name="Afro Old Woman"><circle cx="256" cy="170.667" r="149.333" style="fill:#607a8a"/><path d="M256 21.333A149.333 149.333 0 0 0 256 320z" style="fill:#a2b2ba"/><circle cx="170.667" cy="234.667" r="85.333" style="fill:#a2b2ba"/><circle cx="341.333" cy="234.667" r="85.333" style="fill:#607a8a"/><path d="M341.333 320v-21.333a64.07 64.07 0 0 0 64-64h21.334A85.431 85.431 0 0 1 341.333 320z" style="fill:#345460"/><rect x="341.333" y="192" width="42.667" height="64" rx="21.333" ry="21.333" style="fill:#361200"/><rect x="128" y="192" width="42.667" height="64" rx="21.333" ry="21.333" style="fill:#552a1f"/><path d="M192 277.333v64a21.333 21.333 0 0 1-21.333 21.334h-64A85.333 85.333 0 0 0 21.333 448v42.667h469.334V448a85.333 85.333 0 0 0-85.334-85.333h-64A21.333 21.333 0 0 1 320 341.333v-64z" style="fill:#552a1f"/><rect x="149.333" y="405.333" width="85.333" height="42.667" rx="21.333" ry="21.333" style="fill:#8f492b"/><circle cx="213.333" cy="426.667" r="21.333" style="fill:#cb7956"/><path d="M341.333 362.667A21.334 21.334 0 0 1 320 341.333v-64h-85.333v128a21.333 21.333 0 1 0 42.666 0H384v-42.666z" style="fill:#361200"/><rect x="149.333" y="42.667" width="213.333" height="298.667" rx="106.667" ry="106.667" style="fill:#8f492b"/><path d="M320 64.483v84.85h-42.667v21.334H320v42.666a21.333 21.333 0 0 1 21.333 21.334A21.333 21.333 0 0 1 320 256h-64v64h21.333v19.184a106.69 106.69 0 0 0 85.334-104.517v-85.334c0-34.784-16.901-65.379-42.667-84.85z" style="fill:#552a1f"/><path d="m405.333 192-42.666 21.333v-42.666s-21.334 0-21.334-21.334V128a42.667 42.667 0 0 0-42.666-42.667h-85.334A42.667 42.667 0 0 0 170.667 128v21.333c0 21.334-21.334 21.334-21.334 21.334v42.666L106.667 192v-.003A149.333 149.333 0 0 1 256 42.667h.045a149.289 149.289 0 0 1 149.288 149.288z" style="fill:#607a8a"/><circle cx="256" cy="42.667" r="21.333" style="fill:#a2b2ba"/><path d="M213.333 85.333A42.666 42.666 0 0 0 170.667 128v21.333c0 21.334-21.334 21.334-21.334 21.334v42.666L106.667 192v-.003A149.333 149.333 0 0 1 256 42.667v42.666z" style="fill:#a2b2ba"/><path style="fill:#361200" d="M234.667 234.667V256h42.666v-64H320v-21.333h-64v64h-21.333z"/><path style="fill:#290300" d="M298.667 192H320v21.333h-21.333zM192 192h21.333v21.333H192z"/><path style="fill:#c6262d" d="M234.667 277.333h42.667v21.333h-42.667z"/><path style="fill:#552a1f" d="M192 149.333h64v21.333h-64zM213.333 106.667h85.333V128h-85.333z"/><path style="fill:#cb7956" d="M192 128h128v21.333H192z"/><path style="fill:#552a1f" d="M213.333 277.333h21.333V320h-21.333z"/><path style="fill:#361200" d="M277.333 277.333h21.333V320h-21.333z"/><path d="M405.333 362.667H384S384 448 256 448s-128-85.333-128-85.333h-21.333A85.333 85.333 0 0 0 21.333 448v42.667h469.334V448a85.333 85.333 0 0 0-85.334-85.333z" style="fill:#088156"/><path d="M64 490.667H42.667V448a64.07 64.07 0 0 1 64-64v21.333A42.709 42.709 0 0 0 64 448z" style="fill:#57a98c"/><path d="M268.281 490.667H256v-21.334h12.281a151.116 151.116 0 0 0 137.969-89.666l19.5 8.666a172.482 172.482 0 0 1-157.469 102.334z" style="fill:#004c33"/><path d="M149.333 298.667A42.709 42.709 0 0 1 106.667 256H128a21.361 21.361 0 0 0 21.333 21.333zM128 192h-21.333v-21.333A42.709 42.709 0 0 1 149.333 128v21.333A21.361 21.361 0 0 0 128 170.667z" style="fill:#c4ced3"/><path d="M405.333 192.802H384a21.361 21.361 0 0 0-21.333-21.333v-21.334a42.709 42.709 0 0 1 42.666 42.667z" style="fill:#345460"/><path d="M149.333 106.667H128A42.709 42.709 0 0 1 170.667 64h1.354a42.727 42.727 0 0 1 41.312-32v21.333A21.361 21.361 0 0 0 192 74.667v10.666h-21.333a21.361 21.361 0 0 0-21.334 21.334z" style="fill:#c4ced3"/><path d="M362.667 149.333V128a64 64 0 0 0-64-64H256v21.333h42.667A42.667 42.667 0 0 1 341.333 128v21.333c0 21.334 21.334 21.334 21.334 21.334z" style="fill:#345460"/><path d="M256 85.333h-21.333V74.667a21.361 21.361 0 0 0-21.334-21.334V32A42.709 42.709 0 0 1 256 74.667z" style="fill:#c4ced3"/></g></svg>