<svg xmlns="http://www.w3.org/2000/svg" viewBox="0 0 512 512"><g data-name="Afro Party Lady"><path d="M106.667 128c0-64 42.666-85.333 85.333-85.333 0 0 21.333-21.334 64-21.334C320 21.333 332.497 64 362.667 64c21.333 0 42.666 21.333 42.666 42.667s21.334 21.333 21.334 42.666-21.334 21.334-21.334 42.667c0 21.333 21.334 21.333 21.334 42.667S405.333 256 405.333 277.333s21.334 21.334 21.334 42.667h-320z" style="fill:#361200"/><path d="M106.667 149.333c0 21.334-21.334 21.334-21.334 42.667s21.334 21.333 21.334 42.667S85.333 256 85.333 277.333s21.334 21.334 21.334 42.667H256V149.333z" style="fill:#361200"/><path d="M426.667 234.667c0-21.334-21.334-21.334-21.334-42.667s21.334-21.333 21.334-42.667-21.334-21.333-21.334-42.666S384 64 362.667 64C332.497 64 320 21.333 256 21.333c-42.667 0-64 21.334-64 21.334C192 64 213.333 64 213.333 85.333S192 106.667 192 128v192h234.667c0-21.333-21.334-21.333-21.334-42.667s21.334-21.333 21.334-42.666z" style="fill:#290300"/><rect x="341.333" y="192" width="42.667" height="64" rx="21.333" ry="21.333" style="fill:#361200"/><rect x="128" y="192" width="42.667" height="64" rx="21.333" ry="21.333" style="fill:#552a1f"/><path d="M192 277.333v64a21.333 21.333 0 0 1-21.333 21.334h-64A85.333 85.333 0 0 0 21.333 448v42.667h469.334V448a85.333 85.333 0 0 0-85.334-85.333h-64A21.333 21.333 0 0 1 320 341.333v-64z" style="fill:#552a1f"/><path style="fill:#361200" d="M405.333 448H448v42.667h-42.667z"/><path d="M64 490.667H42.667V448a64.07 64.07 0 0 1 64-64v21.333A42.716 42.716 0 0 0 64 448z" style="fill:#8f492b"/><rect x="149.333" y="405.333" width="85.333" height="42.667" rx="21.333" ry="21.333" style="fill:#8f492b"/><circle cx="213.333" cy="426.667" r="21.333" style="fill:#cb7956"/><path d="M341.333 362.667A21.333 21.333 0 0 1 320 341.333v-64h-85.333v128a21.333 21.333 0 1 0 42.666 0H384A21.333 21.333 0 0 0 405.333 384 21.333 21.333 0 0 0 384 362.667z" style="fill:#361200"/><path d="M106.667 448C192 448 256 490.667 256 490.667S320 448 405.333 448v42.667H106.667z" style="fill:#95daec"/><path style="fill:#caecf6" d="M128 469.333h64v21.333h-64z"/><path d="m292.77 489.542-9.54-19.084c1.832-.916 45.666-22.458 111.437-22.458v21.333c-60.771 0-101.5 20-101.896 20.209z" style="fill:#3ebcdd"/><rect x="149.333" y="42.667" width="213.333" height="298.667" rx="106.667" ry="106.667" style="fill:#8f492b"/><path d="M320 64.483v84.85h-42.667v21.334H320v42.666a21.333 21.333 0 0 1 21.333 21.334A21.333 21.333 0 0 1 320 256h-64v64h21.333v19.184a106.69 106.69 0 0 0 85.334-104.517v-85.334c0-34.784-16.901-65.379-42.667-84.85z" style="fill:#552a1f"/><path d="M149.333 213.333v21.334h-42.666V192A149.333 149.333 0 0 1 256 42.667 149.333 149.333 0 0 1 405.333 192v42.667h-42.666s-21.334 0-21.334-21.334c0 0 0-21.333-21.333-21.333 0 0-21.333 0-21.333-21.333 0 0 0-21.334-21.334-21.334-42.666 0-42.666-42.666-64-42.666S192 128 192 128c0 21.333-21.333 21.333-21.333 42.667S149.333 192 149.333 213.333z" style="fill:#361200"/><path d="M426.667 341.333h-21.334v-10.666c0-8.594-5.875-10.542-10.791-10.667-23.354 0-31.875-19.135-31.875-32 0-15.083 7.979-23.052 13.791-28.875 5.23-5.23 7.542-7.792 7.542-13.792V224h21.333v21.333c0 15.084-7.979 23.052-13.791 28.875C386.312 279.438 384 282 384 288c.125 4.802 2.083 10.667 10.667 10.667 12.854 0 32 8.52 32 32z" style="fill:#361200"/><path d="M117.333 341.333h-10.666V320h10.666c1.521-.115 10.667-1.698 10.667-21.333 0-6-2.313-8.563-7.542-13.792-5.812-5.823-13.791-13.792-13.791-28.875 0-12.865 8.52-32 32-32v21.333c-8.584 0-10.542 5.865-10.667 10.792 0 5.875 2.313 8.438 7.542 13.667 5.812 5.823 13.791 13.791 13.791 28.875 0 33.75-20.937 42.666-32 42.666z" style="fill:#552a1f"/><path d="M256 42.667a148.628 148.628 0 0 0-60.507 12.881c6.045 9.83 17.84 13.91 17.84 29.785 0 19.718-18.017 21.418-20.777 38.375 1.24-6.216 5.525-17.041 20.777-17.041 21.334 0 21.334 42.666 64 42.666 21.334 0 21.334 21.334 21.334 21.334C298.667 192 320 192 320 192c21.333 0 21.333 21.333 21.333 21.333 0 21.334 21.334 21.334 21.334 21.334h42.666V192A149.333 149.333 0 0 0 256 42.667z" style="fill:#290300"/><path d="M405.333 213.333H384a32.035 32.035 0 0 1-32-32 10.68 10.68 0 0 0-10.667-10.666 32.035 32.035 0 0 1-32-32A10.68 10.68 0 0 0 298.667 128h-21.334a32.035 32.035 0 0 1-32-32 10.68 10.68 0 0 0-10.666-10.667h-21.334V64h21.334a32.035 32.035 0 0 1 32 32 10.68 10.68 0 0 0 10.666 10.667h21.334a32.035 32.035 0 0 1 32 32 10.68 10.68 0 0 0 10.666 10.666 32.035 32.035 0 0 1 32 32A10.68 10.68 0 0 0 384 192h21.333z" style="fill:#552a1f"/><path d="M405.333 170.667H384v-32A10.68 10.68 0 0 0 373.333 128a32.035 32.035 0 0 1-32-32 10.68 10.68 0 0 0-10.666-10.667h-21.334a32.035 32.035 0 0 1-32-32 10.68 10.68 0 0 0-10.666-10.666H256V21.333h10.667a32.035 32.035 0 0 1 32 32A10.68 10.68 0 0 0 309.333 64h21.334a32.035 32.035 0 0 1 32 32 10.68 10.68 0 0 0 10.666 10.667 32.035 32.035 0 0 1 32 32z" style="fill:#552a1f"/><path d="M128 213.333h-21.333V160a32.035 32.035 0 0 1 32-32 10.68 10.68 0 0 0 10.666-10.667 32.035 32.035 0 0 1 32-32H192v21.334h-10.667a10.68 10.68 0 0 0-10.666 10.666 32.035 32.035 0 0 1-32 32A10.68 10.68 0 0 0 128 160z" style="fill:#8f492b"/><path style="fill:#8f492b" d="M128 85.333h21.333v21.333H128z"/><path style="fill:#552a1f" d="M234.667 42.667H256V64h-21.333z"/><path style="fill:#361200" d="M234.667 234.667V256h42.666v-64H320v-21.333h-64v64h-21.333z"/><path style="fill:#290300" d="M298.667 192H320v21.333h-21.333zM192 192h21.333v21.333H192z"/><path style="fill:#c6262d" d="M234.667 277.333h42.667v21.333h-42.667z"/></g></svg>