<svg xmlns="http://www.w3.org/2000/svg" viewBox="0 0 512 512"><g data-name="Afro Sport Woman"><path d="M256.104 21.333c10.23 0 20.688 4.907 26.459 12.365a31.207 31.207 0 0 1 27.52-3.625 31.811 31.811 0 0 1 20.042 19.417c40.45-15.962 64.396 33.476 32.646 57.177H149.333c-31.75-23.701-7.804-73.14 32.646-57.177a31.811 31.811 0 0 1 20.042-19.417 31.207 31.207 0 0 1 27.52 3.625c5.772-7.458 16.23-12.365 26.459-12.365zM255.792 362.667a32.037 32.037 0 0 0 24.958-11.948 33.048 33.048 0 0 0 27.73 3.833 32.046 32.046 0 0 0 20.062-19.198 32.043 32.043 0 0 0 27.52-4.906 32.41 32.41 0 0 0 13.209-24.531 31.018 31.018 0 0 0 24.541-13.01 30.416 30.416 0 0 0 6.188-19.21 34.547 34.547 0 0 0-1.063-8.103 32.35 32.35 0 0 0 19.417-20.052 28.144 28.144 0 0 0 1.48-10.24 32.86 32.86 0 0 0-5.105-17.281s12.146-6.71 12.146-22.878c0-21.406-21.333-24.476-21.333-24.476s0-21.334-21.334-21.334H128c-21.333 0-21.333 21.334-21.333 21.334s-21.334 3.07-21.334 24.476c0 16.167 12.146 22.878 12.146 22.878a32.86 32.86 0 0 0-5.104 17.281 28.144 28.144 0 0 0 1.48 10.24 32.35 32.35 0 0 0 19.416 20.052 34.547 34.547 0 0 0-1.063 8.104 30.416 30.416 0 0 0 6.188 19.208 31.018 31.018 0 0 0 24.541 13.01 32.41 32.41 0 0 0 13.209 24.532 32.043 32.043 0 0 0 27.52 4.906 32.046 32.046 0 0 0 20.063 19.198 33.048 33.048 0 0 0 27.73-3.833 32.037 32.037 0 0 0 24.958 11.948z" style="fill:#133846"/><circle cx="362.667" cy="277.333" r="21.333" style="fill:#012334"/><circle cx="362.667" cy="234.667" r="42.667" style="fill:#012334"/><circle cx="341.333" cy="298.667" r="21.333" style="fill:#012334"/><circle cx="170.667" cy="298.667" r="21.333" style="fill:#012334"/><circle cx="160" cy="266.667" r="32" style="fill:#012334"/><rect x="341.333" y="192" width="42.667" height="64" rx="21.333" ry="21.333" style="fill:#361200"/><rect x="128" y="192" width="42.667" height="64" rx="21.333" ry="21.333" style="fill:#552a1f"/><path d="M192 277.333v64a21.333 21.333 0 0 1-21.333 21.334h-64A85.333 85.333 0 0 0 21.333 448v42.667h469.334V448a85.333 85.333 0 0 0-85.334-85.333h-64A21.333 21.333 0 0 1 320 341.333v-64z" style="fill:#552a1f"/><path style="fill:#361200" d="M384 448h42.667v42.667H384z"/><rect x="149.333" y="405.333" width="85.333" height="42.667" rx="21.333" ry="21.333" style="fill:#8f492b"/><circle cx="213.333" cy="426.667" r="21.333" style="fill:#cb7956"/><path d="M341.333 362.667A21.333 21.333 0 0 1 320 341.333v-64h-85.333v128a21.333 21.333 0 1 0 42.666 0H384A21.333 21.333 0 0 0 405.333 384 21.333 21.333 0 0 0 384 362.667z" style="fill:#361200"/><path d="M362.667 362.667h-21.334S341.333 448 256 448s-85.333-85.333-85.333-85.333h-21.334s0 85.333-42.666 128h298.666c-42.666-42.667-42.666-128-42.666-128z" style="fill:#086b47"/><path d="M266.667 490.667H256v-21.334h10.667a95.24 95.24 0 0 0 77-38.656l17.104 12.75a117.924 117.924 0 0 1-94.104 47.24z" style="fill:#004c33"/><path d="M64 490.667H42.667V448a64.07 64.07 0 0 1 64-64v21.333A42.709 42.709 0 0 0 64 448z" style="fill:#8f492b"/><rect x="149.333" y="42.667" width="213.333" height="298.667" rx="106.667" ry="106.667" style="fill:#8f492b"/><path d="M320 64.483v84.85h-42.667v21.334H320v42.666a21.333 21.333 0 0 1 21.333 21.334A21.333 21.333 0 0 1 320 256h-64v64h21.333v19.184a106.69 106.69 0 0 0 85.334-104.517v-85.334c0-34.784-16.901-65.379-42.667-84.85z" style="fill:#552a1f"/><path d="M128 192c21.333 0 42.667-21.333 42.667-42.667H128z" style="fill:#133846"/><circle cx="213.333" cy="106.667" r="21.333" style="fill:#062d3c"/><circle cx="256" cy="106.667" r="21.333" style="fill:#062d3c"/><circle cx="298.667" cy="106.667" r="21.333" style="fill:#012334"/><path d="M384 192c-21.333 0-42.667-21.333-42.667-42.667H384zM362.667 106.667a64 64 0 0 0-64-64h-85.334a64 64 0 0 0-64 64" style="fill:#133846"/><path style="fill:#012334" d="M320 85.333h21.333V128H320z"/><path style="fill:#361200" d="M234.667 234.667V256h42.666v-64H320v-21.333h-64v64h-21.333z"/><path style="fill:#290300" d="M298.667 192H320v21.333h-21.333zM192 192h21.333v21.333H192z"/><path style="fill:#c6262d" d="M234.667 277.333h42.667v21.333h-42.667z"/><path style="fill:#345460" d="M234.667 64h64v21.333h-64zM170.667 106.667H192V128h-21.333z"/><path style="fill:#552a1f" d="M192 149.333h42.667v21.333H192z"/><path style="fill:#012334" d="M256 85.333h21.333v21.333H256zM362.667 213.333V192A21.361 21.361 0 0 0 384 170.667h21.333a42.709 42.709 0 0 1-42.666 42.666z"/><path d="M149.333 213.333a42.709 42.709 0 0 1-42.666-42.666H128A21.361 21.361 0 0 0 149.333 192z" style="fill:#133846"/><path d="M128 234.667h-10.667a32 32 0 1 1 0-64V192a10.667 10.667 0 0 0 0 21.333H128z" style="fill:#345460"/><path d="M394.667 234.667v-21.334a10.667 10.667 0 0 0 0-21.333v-21.333a32 32 0 0 1 0 64z" style="fill:#012334"/><path style="fill:#57a98c" d="M149.333 106.667h213.333v42.667H149.333z"/><path style="fill:#339773" d="M256 106.667h106.667v42.667H256z"/><path d="M330.667 149.333a53.51 53.51 0 0 1-46.167-26.656l18.458-10.687c7.938 13.718 26.052 19.635 40.5 13.343l8.521 19.563a52.951 52.951 0 0 1-21.312 4.437z" style="fill:#088156"/><path style="fill:#00593b" d="M341.333 106.667h21.333v42.667h-21.333z"/><path style="fill:#80bea8" d="M170.667 106.667H192v42.667h-21.333z"/><circle cx="149.333" cy="106.667" r="21.333" style="fill:#133846"/><circle cx="181.333" cy="96" r="32" style="fill:#133846"/><path d="M181.333 128a32.035 32.035 0 0 1-32-32h21.334A10.667 10.667 0 1 0 192 96h21.333a32.035 32.035 0 0 1-32 32z" style="fill:#345460"/><circle cx="362.667" cy="106.667" r="21.333" style="fill:#133846"/><circle cx="330.667" cy="96" r="32" style="fill:#133846"/><path d="M330.667 128a32.035 32.035 0 0 1-32-32H320a10.667 10.667 0 1 0 10.667-10.667V64a32 32 0 0 1 0 64z" style="fill:#012334"/><path style="fill:#345460" d="M128 149.333h21.333v21.333H128z"/><path style="fill:#012334" d="M362.667 149.333H384v21.333h-21.333z"/><path style="fill:#062d3c" d="M192 85.333h64v21.333h-64z"/><path style="fill:#345460" d="M213.333 42.667h21.333V64h-21.333z"/></g></svg>