<svg xmlns="http://www.w3.org/2000/svg" viewBox="0 0 512 512"><g data-name="Female Muslim"><path d="M405.333 298.667H106.667v-128A149.333 149.333 0 0 1 256 21.333a149.333 149.333 0 0 1 149.333 149.334z" style="fill:#caecf6"/><path d="M256 21.333V64.1h.099A127.9 127.9 0 0 1 384 192h21.333v-21.333A149.333 149.333 0 0 0 256 21.333z" style="fill:#95daec"/><path d="M405.333 213.333H384a128.14 128.14 0 0 0-128-128V64c82.333 0 149.333 66.99 149.333 149.333z" style="fill:#caecf6"/><path d="M192 277.333v64a21.333 21.333 0 0 1-21.333 21.334h-64A85.333 85.333 0 0 0 21.333 448v42.667h469.334V448a85.333 85.333 0 0 0-85.334-85.333h-64A21.333 21.333 0 0 1 320 341.333v-64z" style="fill:#e29971"/><path d="M341.333 362.667A21.334 21.334 0 0 1 320 341.333v-64h-64V384h-21.333v21.333a21.333 21.333 0 1 0 42.666 0h85.334v-42.666z" style="fill:#cb7956"/><path style="fill:#caecf6" d="M170.667 320h170.667v64H170.667z"/><path d="M341.333 362.667a42.667 42.667 0 0 1-42.666 42.666h-64v85.334h256V448a85.333 85.333 0 0 0-85.334-85.333z" style="fill:#086b47"/><path d="M295.688 448h-18.355v-21.333h18.354a92.685 92.685 0 0 0 88.73-66.927l20.5 5.854A114.072 114.072 0 0 1 295.687 448zM426.667 448H448v42.667h-21.333z" style="fill:#004c33"/><path style="fill:#088156" d="M384 448h42.667v42.667H384z"/><path d="M170.667 362.667a42.667 42.667 0 0 0 42.666 42.666h64v85.334h-256V448a85.333 85.333 0 0 1 85.334-85.333z" style="fill:#339773"/><path d="M234.667 448h-18.355a114.072 114.072 0 0 1-109.229-82.406l20.5-5.854a92.685 92.685 0 0 0 88.73 66.927h18.354z" style="fill:#088156"/><circle cx="266.667" cy="458.667" r="10.667" style="fill:#088156"/><rect x="149.333" y="106.667" width="213.333" height="234.667" rx="106.667" ry="106.667" style="fill:#edbda4"/><path d="M320 149.333h-42.667v21.334H320v42.666a21.333 21.333 0 0 1 21.333 21.334A21.333 21.333 0 0 1 320 256h-64v64h21.333v19.184a106.69 106.69 0 0 0 85.334-104.517v-85.334zM170.98 250.573l-19.855-7.781c1.146-2.948 29.02-72.125 104.875-72.125V192c-61.063 0-84.063 56.177-85.02 58.573z" style="fill:#e29971"/><path style="fill:#cb7956" d="M234.667 234.667V256h42.666v-64H320v-21.333h-64v64h-21.333z"/><path style="fill:#4c2c1a" d="M298.667 192H320v21.333h-21.333zM192 192h21.333v21.333H192z"/><path style="fill:#ce464d" d="M234.667 277.333h42.667v21.333h-42.667z"/><path d="M64 490.667H42.667V448a64.07 64.07 0 0 1 64-64v21.333A42.716 42.716 0 0 0 64 448z" style="fill:#57a98c"/><path d="M149.333 256S170.667 170.667 256 170.667 362.667 256 362.667 256v-42.667A106.667 106.667 0 0 0 256 106.667a106.667 106.667 0 0 0-106.667 106.666z" style="fill:#345460"/><path d="M256 106.667v64c85.333 0 106.667 85.333 106.667 85.333v-42.667A106.667 106.667 0 0 0 256 106.667z" style="fill:#133846"/><path style="fill:#345460" d="M256 128h21.333v21.333H256z"/><path d="M106.667 192v104.57c0 81.835 64.95 150.603 146.78 151.417Q254.72 448 256 448V341.333a106.667 106.667 0 0 1-106.667-106.666V192z" style="fill:#caecf6"/><path d="M256 426.667c-82.333 0-149.333-66.99-149.333-149.334v-64C106.667 130.99 173.667 64 256 64v21.333a128.14 128.14 0 0 0-128 128v64a128.14 128.14 0 0 0 128 128z" style="fill:#e7f6fa"/><path d="M405.333 192v104.57c0 81.835-64.95 150.603-146.78 151.417Q257.28 448 256 448V341.333a106.667 106.667 0 0 0 106.667-106.666V192z" style="fill:#95daec"/><path d="M256 426.667v-21.334a128.14 128.14 0 0 0 128-128h21.333c0 82.344-67 149.334-149.333 149.334z" style="fill:#caecf6"/><path d="M256 448v-21.333a128.14 128.14 0 0 0 128-128v-21.334h21.333v21.334C405.333 381.01 338.333 448 256 448z" style="fill:#72cee6"/><path d="M256 384a128.14 128.14 0 0 1-128-128v-42.667a128.14 128.14 0 0 1 128-128v21.334a106.792 106.792 0 0 0-106.667 106.666V256A106.792 106.792 0 0 0 256 362.667z" style="fill:#95daec"/><path d="M256 384v-21.333A106.792 106.792 0 0 0 362.667 256v-42.667A106.792 106.792 0 0 0 256 106.667V85.333a128.14 128.14 0 0 1 128 128V256a128.14 128.14 0 0 1-128 128z" style="fill:#3ebcdd"/><path d="M362.667 213.333h-21.334A85.424 85.424 0 0 0 256 128v-21.333a106.792 106.792 0 0 1 106.667 106.666z" style="fill:#062d3c"/><path d="M171.625 212.073 154.75 199.01A127.227 127.227 0 0 1 256 149.333v21.334a106.01 106.01 0 0 0-84.375 41.406z" style="fill:#133846"/></g></svg>