<svg xmlns="http://www.w3.org/2000/svg" viewBox="0 0 512 512"><g data-name="Young Woman"><path d="M298.667 42.667s0-21.334-42.667-21.334c-64 0-149.333 42.667-149.333 149.334v64c0 21.333-21.334 42.666-21.334 85.333 0 85.333 85.334 106.667 85.334 106.667h128z" style="fill:#8f492b"/><path d="M213.333 405.333h-42.666s-64-21.333-64-85.333c0-42.667 21.333-64 21.333-106.667h85.333z" style="fill:#552a1f"/><path d="M176.563 404.208c-1.98-.99-48.563-25.083-48.563-94.875 0-22.416 5.438-34.593 10.708-46.354 5.459-12.229 10.625-23.77 10.625-49.646h21.334c0 30.427-6.625 45.26-12.48 58.355-4.75 10.614-8.854 19.78-8.854 37.645 0 56.094 35.334 75.052 36.834 75.823z" style="fill:#8f492b"/><path d="M277.333 42.667c42.667 0 128 0 128 128v64c0 21.333 21.334 42.666 21.334 85.333 0 64-64 106.667-64 106.667h-85.334z" style="fill:#552a1f"/><path d="M298.667 405.333h42.666s64-21.333 64-85.333c0-42.667-21.333-64-21.333-106.667h-85.333z" style="fill:#361200"/><rect x="341.333" y="192" width="42.667" height="64" rx="21.333" ry="21.333" style="fill:#cb7956"/><rect x="128" y="192" width="42.667" height="64" rx="21.333" ry="21.333" style="fill:#e29971"/><path d="M192 277.333v64a21.333 21.333 0 0 1-21.333 21.334h-64A85.333 85.333 0 0 0 21.333 448v42.667h469.334V448a85.333 85.333 0 0 0-85.334-85.333h-64A21.333 21.333 0 0 1 320 341.333v-64z" style="fill:#e29971"/><rect x="149.333" y="405.333" width="85.333" height="42.667" rx="21.333" ry="21.333" style="fill:#edbda4"/><circle cx="213.333" cy="426.667" r="21.333" style="fill:#f5d9cb"/><path d="M341.333 362.667A21.334 21.334 0 0 1 320 341.333v-64h-85.333v128a21.333 21.333 0 1 0 42.666 0h85.334v-42.666z" style="fill:#cb7956"/><path d="M405.333 362.667h-64a85.333 85.333 0 1 1-170.666 0h-64A85.333 85.333 0 0 0 21.333 448v42.667h469.334V448a85.333 85.333 0 0 0-85.334-85.333z" style="fill:#caecf6"/><path d="M64 490.667H42.667V448a64.07 64.07 0 0 1 64-64v21.333A42.716 42.716 0 0 0 64 448z" style="fill:#e7f6fa"/><path d="M256 490.667v-21.334a106.792 106.792 0 0 0 106.667-106.666H384a128.14 128.14 0 0 1-128 128z" style="fill:#95daec"/><rect x="149.333" y="42.667" width="213.333" height="298.667" rx="106.667" ry="106.667" style="fill:#edbda4"/><path d="M320 64.483v84.85h-42.667v21.334H320v42.666a21.333 21.333 0 0 1 21.333 21.334A21.333 21.333 0 0 1 320 256h-64v64h21.333v19.184a106.69 106.69 0 0 0 85.334-104.517v-85.334c0-34.784-16.901-65.379-42.667-84.85z" style="fill:#e29971"/><path style="fill:#cb7956" d="M234.667 234.667V256h42.666v-64H320v-21.333h-64v64h-21.333z"/><path style="fill:#4c2c1a" d="M298.667 192H320v21.333h-21.333zM192 192h21.333v21.333H192z"/><path style="fill:#ce464d" d="M234.667 277.333h42.667v21.333h-42.667z"/><path d="M149.333 234.667v-21.334h21.334a106.667 106.667 0 0 0 106.666-106.666l21.334-.205V128a64 64 0 0 0 64 64v42.667L384 213.333v-64a128 128 0 0 0-128-128 128 128 0 0 0-128 128v64z" style="fill:#552a1f"/><path d="M170.667 213.333a106.667 106.667 0 0 0 106.666-106.666l21.334-.205V28.773A127.712 127.712 0 0 0 128 149.333v64l21.333 21.334v-21.334z" style="fill:#8f492b"/><path style="fill:#cb7956" d="M277.333 85.333h21.333v21.333h-21.333z"/><path d="M170.688 213.302h-21.355V191.97h21.355A85.407 85.407 0 0 0 256 106.667V64.479h21.333v42.188a106.754 106.754 0 0 1-106.646 106.635z" style="fill:#552a1f"/><path d="M149.333 170.667H128a128.14 128.14 0 0 1 128-128V64a106.792 106.792 0 0 0-106.667 106.667z" style="fill:#cb7956"/><path d="M362.667 170.667A42.716 42.716 0 0 1 320 128V64h21.333v64a21.354 21.354 0 0 0 21.334 21.333z" style="fill:#8f492b"/></g></svg>