<svg xmlns="http://www.w3.org/2000/svg" viewBox="0 0 512 512"><g data-name="Business Woman"><circle cx="192" cy="362.667" r="64" style="fill:#552a1f"/><path d="M170.667 362.667h-21.334A42.709 42.709 0 0 1 192 320v21.333a21.361 21.361 0 0 0-21.333 21.334z" style="fill:#361200"/><rect x="128" y="21.333" width="256" height="320" rx="128" ry="128" style="fill:#552a1f"/><path style="fill:#8f492b" d="M128 192h21.333v21.333H128z"/><rect x="341.333" y="192" width="42.667" height="64" rx="21.333" ry="21.333" style="fill:#cb7956"/><rect x="128" y="192" width="42.667" height="64" rx="21.333" ry="21.333" style="fill:#e29971"/><path d="M192 277.333v64a21.333 21.333 0 0 1-21.333 21.334h-64A85.333 85.333 0 0 0 21.333 448v42.667h469.334V448a85.333 85.333 0 0 0-85.334-85.333h-64A21.333 21.333 0 0 1 320 341.333v-64z" style="fill:#e29971"/><path d="M362.667 490.667H149.333V448S192 469.333 256 469.333 362.667 448 362.667 448z" style="fill:#caecf6"/><rect x="149.333" y="405.333" width="85.333" height="42.667" rx="21.333" ry="21.333" style="fill:#edbda4"/><circle cx="213.333" cy="426.667" r="21.333" style="fill:#f5d9cb"/><path d="M106.667 362.667h64v128H21.333V448a85.333 85.333 0 0 1 85.334-85.333z" style="fill:#345460"/><path d="M192 341.333s-64 21.334-85.333 85.334L149.333 448l-42.666 42.667H192z" style="fill:#4c6a74"/><path d="M341.333 362.667A21.334 21.334 0 0 1 320 341.333v-64h-85.333v128a21.333 21.333 0 1 0 42.666 0h85.334v-42.666z" style="fill:#cb7956"/><path d="M341.333 362.667h149.334v128h-64a85.333 85.333 0 0 1-85.334-85.334v-42.666z" transform="rotate(-180 416 426.667)" style="fill:#224552"/><path d="M341.333 362.667s42.667 21.333 85.334 64c32 32 42.666 64 42.666 64h-128z" style="fill:#062d3c"/><path d="M64 490.667H42.667V448a64.07 64.07 0 0 1 64-64v21.333A42.709 42.709 0 0 0 64 448z" style="fill:#607a8a"/><rect x="149.333" y="42.667" width="213.333" height="298.667" rx="106.667" ry="106.667" style="fill:#edbda4"/><path d="M320 64.483v84.85h-42.667v21.334H320v42.666a21.333 21.333 0 0 1 21.333 21.334A21.333 21.333 0 0 1 320 256h-64v64h21.333v19.184a106.69 106.69 0 0 0 85.334-104.517v-85.334c0-34.784-16.901-65.379-42.667-84.85z" style="fill:#e29971"/><path style="fill:#cb7956" d="M234.667 234.667V256h42.666v-64H320v-21.333h-64v64h-21.333z"/><path style="fill:#4c2c1a" d="M298.667 192H320v21.333h-21.333zM192 192h21.333v21.333H192z"/><path style="fill:#ce464d" d="M234.667 277.333h42.667v21.333h-42.667z"/><path d="M320 341.333s64 21.334 85.333 85.334L362.667 448l42.666 42.667H320z" style="fill:#345460"/><path d="M256 21.333a128 128 0 0 0-128 128V192h85.334a85.333 85.333 0 0 0 85.333-85.333H320s0 26.876 21.33 48.632a79.19 79.19 0 0 0 21.337 15.368V192H384v-42.667a128 128 0 0 0-128-128z" style="fill:#552a1f"/><path d="M228.459 24.387C168.773 37.657 128 93.32 128 154.462V192h85.334a85.333 85.333 0 0 0 85.333-85.333V28.773a126.066 126.066 0 0 0-70.208-4.386z" style="fill:#8f492b"/><path style="fill:#345460" d="M170.667 362.667H192v128h-21.333z"/><path style="fill:#4c6a74" d="M320 362.667h21.333v128H320z"/><path d="M192 462.046v28.62h21.333v-24.65c-7.63-1.162-14.884-2.48-21.333-3.97z" style="fill:#95daec"/><path style="fill:#cb7956" d="M298.667 85.333H320v21.333h-21.333zM170.667 149.333h-21.334A106.792 106.792 0 0 1 256 42.667V64a85.431 85.431 0 0 0-85.333 85.333z"/><path d="M213.333 192h-64v-21.333h64a64.07 64.07 0 0 0 64-64V85.333h21.334v21.334A85.431 85.431 0 0 1 213.333 192z" style="fill:#552a1f"/></g></svg>