<svg xmlns="http://www.w3.org/2000/svg" viewBox="0 0 512 512"><g data-name="Afro Old Man"><path d="M341.333 213.333H384v-64a128 128 0 0 0-128-128 128 128 0 0 0-128 128v64h42.667V106.667A21.333 21.333 0 0 0 192 85.333h128a21.333 21.333 0 0 0 21.333 21.334z" style="fill:#a2b2ba"/><path d="M256 21.333v64h64a21.334 21.334 0 0 0 21.333 21.334v106.666H384v-64a128 128 0 0 0-128-128z" style="fill:#607a8a"/><rect x="341.333" y="192" width="42.667" height="64" rx="21.333" ry="21.333" style="fill:#361200"/><rect x="128" y="192" width="42.667" height="64" rx="21.333" ry="21.333" style="fill:#552a1f"/><path d="M192 277.333v64a21.333 21.333 0 0 1-21.333 21.334h-64A85.333 85.333 0 0 0 21.333 448v42.667h469.334V448a85.333 85.333 0 0 0-85.334-85.333h-64A21.333 21.333 0 0 1 320 341.333v-64z" style="fill:#caecf6"/><path d="M405.333 362.667h-64A21.334 21.334 0 0 1 320 341.333v-64h-64v213.334h234.667V448a85.333 85.333 0 0 0-85.334-85.333z" style="fill:#95daec"/><path d="M277.333 426.667H256v-21.334h21.333A42.709 42.709 0 0 0 320 362.667h21.333a64.07 64.07 0 0 1-64 64z" style="fill:#72cee6"/><path d="M277.333 448H256v-21.333h21.333a64.07 64.07 0 0 0 64-64h21.334A85.431 85.431 0 0 1 277.333 448z" style="fill:#caecf6"/><path d="M256 426.667h-21.333a64.07 64.07 0 0 1-64-64H192a42.709 42.709 0 0 0 42.667 42.666H256z" style="fill:#95daec"/><path d="M42.667 490.667H21.333V448a85.431 85.431 0 0 1 85.334-85.333h64V384h-64a64.07 64.07 0 0 0-64 64z" style="fill:#4c6a74"/><path d="M85.333 490.667H64v-32a53.396 53.396 0 0 1 53.333-53.334h53.334v21.334h-53.334a32.035 32.035 0 0 0-32 32z" style="fill:#345460"/><path d="M448 490.667h-21.333v-32a32.035 32.035 0 0 0-32-32h-53.334v-21.334h53.334A53.396 53.396 0 0 1 448 458.667z" style="fill:#062d3c"/><path d="M490.667 490.667h-21.334V448a64.07 64.07 0 0 0-64-64h-64v-21.333h64A85.431 85.431 0 0 1 490.667 448z" style="fill:#133846"/><rect x="149.333" y="64" width="213.333" height="277.333" rx="106.667" ry="106.667" style="fill:#8f492b"/><path d="M320 64.483v84.85h-42.667v21.334H320v42.666a21.333 21.333 0 0 1 21.333 21.334A21.333 21.333 0 0 1 320 256h-64v64h21.333v19.184a106.69 106.69 0 0 0 85.334-104.517v-85.334c0-34.784-16.901-65.379-42.667-84.85z" style="fill:#552a1f"/><path style="fill:#361200" d="M234.667 234.667V256h42.666v-64H320v-21.333h-64v64h-21.333z"/><path style="fill:#290300" d="M298.667 192H320v21.333h-21.333zM192 192h21.333v21.333H192z"/><path style="fill:#c6262d" d="M234.667 277.333h42.667v21.333h-42.667z"/><path style="fill:#552a1f" d="M192 149.333h64v21.333h-64zM213.333 106.667h85.333V128h-85.333z"/><path style="fill:#cb7956" d="M192 128h128v21.333H192z"/><path style="fill:#552a1f" d="M213.333 277.333h21.333v21.333h-21.333z"/><path style="fill:#361200" d="M277.333 277.333h21.333v21.333h-21.333z"/><path style="fill:#a2b2ba" d="M149.333 170.667h21.333v64h-21.333z"/><path transform="rotate(-180 352 202.667)" style="fill:#607a8a" d="M341.333 170.667h21.333v64h-21.333z"/><path d="M362.667 234.667s21.333 0 21.333 42.666S362.667 320 362.667 320c0 21.333-21.334 21.333-21.334 21.333C341.333 362.667 320 384 298.667 384c0 0 0 21.333-42.667 21.333S213.333 384 213.333 384c-21.333 0-42.666-21.333-42.666-42.667 0 0-21.334 0-21.334-21.333 0 0-21.333 0-21.333-42.667s21.333-42.666 21.333-42.666h21.334V256A85.333 85.333 0 0 0 256 341.333 85.333 85.333 0 0 0 341.333 256v-21.333z" style="fill:#a2b2ba"/><path style="fill:#a2b2ba" d="M213.333 256h85.333v21.333h-85.333z"/><path style="fill:#607a8a" d="M256 256h42.667v21.333H256zM341.333 213.333V128a42.667 42.667 0 0 1-42.666-42.667h-85.334A42.667 42.667 0 0 1 170.667 128v85.333L128 192v-21.333a128 128 0 0 1 128-128 128 128 0 0 1 128 128V192z"/><path d="M256 42.667v42.666h-42.667A42.667 42.667 0 0 1 170.667 128v85.333L128 192v-21.333a128 128 0 0 1 128-128z" style="fill:#a2b2ba"/><path d="M42.667 490.667H21.333V448a85.431 85.431 0 0 1 85.334-85.333V384a64.07 64.07 0 0 0-64 64z" style="fill:#345460"/><path d="M490.667 490.667h-21.334V448a64.07 64.07 0 0 0-64-64v-21.333A85.431 85.431 0 0 1 490.667 448z" style="fill:#062d3c"/><path style="fill:#b4e5f2" d="M341.333 384h64v21.333h-64z"/><path d="M362.667 234.667h-21.334V256a67.532 67.532 0 0 1-1.289 12.792c-6.213 41.01-41.297 72.541-84.044 72.541V384h-42.667s0 21.333 42.667 21.333S298.667 384 298.667 384c21.333 0 42.666-21.333 42.666-42.667 0 0 21.334 0 21.334-21.333 0 0 21.333 0 21.333-42.667s-21.333-42.666-21.333-42.666z" style="fill:#607a8a"/><path d="M256 362.667A106.792 106.792 0 0 1 149.333 256V128h21.334v128A85.431 85.431 0 0 0 256 341.333z" style="fill:#607a8a"/><path style="fill:#345460" d="M341.333 128h21.333v21.333h-21.333zM341.333 128a42.709 42.709 0 0 1-42.666-42.667H320a21.361 21.361 0 0 0 21.333 21.334zM341.333 106.667h21.333V128h-21.333z"/><path transform="rotate(-180 288 74.667)" style="fill:#345460" d="M256 64h64v21.333h-64z"/><path d="M277.333 64H256a21.333 21.333 0 0 0-42.667 0H192a42.667 42.667 0 1 1 85.333 0z" style="fill:#c4ced3"/><path d="M170.667 128h-21.334v-10.667a32.074 32.074 0 0 1 22.323-30.51 42.753 42.753 0 0 1 41.677-33.49v21.334A21.361 21.361 0 0 0 192 96v10.667h-10.667a10.674 10.674 0 0 0-10.666 10.666zM128 149.333h21.333V192H128z" style="fill:#c4ced3"/></g></svg>