<svg xmlns="http://www.w3.org/2000/svg" viewBox="0 0 512 512"><path style="fill:#345460" d="M149.333 106.667h213.333V384H149.333z"/><path style="fill:#133846" d="M256 106.667h106.667V384H256z"/><rect x="341.333" y="192" width="42.667" height="64" rx="21.333" ry="21.333" style="fill:#cb7956"/><rect x="128" y="192" width="42.667" height="64" rx="21.333" ry="21.333" style="fill:#e29971"/><path d="M192 277.333v64a21.333 21.333 0 0 1-21.333 21.334h-64A85.333 85.333 0 0 0 21.333 448v42.667h469.334V448a85.333 85.333 0 0 0-85.334-85.333h-64A21.333 21.333 0 0 1 320 341.333v-64z" style="fill:#e29971"/><path d="M341.333 362.667A21.334 21.334 0 0 1 320 341.333v-64h-85.333v128a21.333 21.333 0 1 0 42.666 0h85.334v-42.666z" style="fill:#cb7956"/><rect x="149.333" y="405.333" width="85.333" height="42.667" rx="21.333" ry="21.333" style="fill:#edbda4"/><circle cx="213.333" cy="426.667" r="21.333" style="fill:#f5d9cb"/><path d="M405.333 362.667h-64a85.333 85.333 0 1 1-170.666 0h-64A85.333 85.333 0 0 0 21.333 448v42.667h469.334V448a85.333 85.333 0 0 0-85.334-85.333z" style="fill:#cb393f"/><path d="M256 490.667v-21.334a106.792 106.792 0 0 0 106.667-106.666H384a128.14 128.14 0 0 1-128 128z" style="fill:#ab0008"/><path d="M149.333 490.667h-128V448a85.333 85.333 0 0 1 85.334-85.333h42.666V384a42.667 42.667 0 0 0-42.666 42.667 42.667 42.667 0 0 0 42.666 42.666z" style="fill:#345460"/><path d="M362.667 490.667h128V448a85.333 85.333 0 0 0-85.334-85.333h-42.666V384a42.667 42.667 0 0 1 42.666 42.667 42.667 42.667 0 0 1-42.666 42.666z" style="fill:#133846"/><path d="M384 490.667h-21.333A21.348 21.348 0 0 1 384 469.333 42.667 42.667 0 1 0 384 384v-21.333a64 64 0 0 1 0 128z" style="fill:#062d3c"/><path d="M64 490.667H42.667V448a64.07 64.07 0 0 1 64-64v21.333A42.722 42.722 0 0 0 64 448z" style="fill:#4c6a74"/><rect x="149.333" y="42.667" width="213.333" height="298.667" rx="106.667" ry="106.667" style="fill:#edbda4"/><path d="M320 64.483v84.85h-42.667v21.334H320v42.666a21.333 21.333 0 0 1 21.333 21.334A21.333 21.333 0 0 1 320 256h-64v64h21.333v19.184a106.69 106.69 0 0 0 85.334-104.517v-85.334c0-34.784-16.901-65.379-42.667-84.85z" style="fill:#e29971"/><path style="fill:#e29971" d="m170.667 256 64-85.333h42.666l64 85.333V106.667H170.667V256z"/><path style="fill:#cb7956" d="M234.667 234.667V256h42.666v-64H320v-21.333h-64v64h-21.333z"/><path style="fill:#4c2c1a" d="M298.667 192H320v21.333h-21.333zM192 192h21.333v21.333H192z"/><path style="fill:#ce464d" d="M234.667 277.333h42.667v21.333h-42.667z"/><path d="M384 384c-21.333 0-21.333-42.667-21.333-42.667 0-21.333 0-21.333 21.333-42.666s21.333-42.667 21.333-64v-64C405.333 85.333 320 21.333 256 21.333s-149.333 64-149.333 149.334v64c0 21.333 0 42.666 21.333 64s21.333 21.333 21.333 42.666c0 0 0 42.667-21.333 42.667 0 0-42.667 0-42.667 42.667S128 469.333 128 469.333s21.333 0 21.333 21.334h21.334s0-21.334-21.334-21.334-42.666-21.333-42.666-42.666S128 384 149.333 384c0 0 21.334 0 21.334-42.667V234.667c0-45.938 64-106.667 64-106.667h42.666s64 64 64 106.667v106.666C341.333 384 362.667 384 362.667 384c21.333 0 42.666 21.333 42.666 42.667S384 469.333 362.667 469.333s-21.334 21.334-21.334 21.334h21.334c0-21.334 21.333-21.334 21.333-21.334s42.667 0 42.667-42.666S384 384 384 384z" style="fill:#607a8a"/><path d="M384 384c-21.333 0-21.333-42.667-21.333-42.667 0-21.333 0-21.333 21.333-42.666s21.333-42.667 21.333-64v-64C405.333 85.333 320 21.333 256 21.333V128h21.333s64 64 64 106.667v106.666C341.333 384 362.667 384 362.667 384c21.333 0 42.666 21.333 42.666 42.667S384 469.333 362.667 469.333s-21.334 21.334-21.334 21.334h21.334c0-21.334 21.333-21.334 21.333-21.334s42.667 0 42.667-42.666S384 384 384 384z" style="fill:#345460"/><path d="M362.667 341.333h-21.334V235.292a53.628 53.628 0 0 0-11.229-32.75L272.125 128h-37.458v-21.333h47.875l64.396 82.791a74.985 74.985 0 0 1 15.729 45.834z" style="fill:#607a8a"/><path style="fill:#a2b2ba" d="M234.667 42.667h42.667v64h-42.667zM170.667 341.333h-21.334V235.292a74.985 74.985 0 0 1 15.73-45.834l64.395-82.791h47.875V128h-37.458l-57.98 74.542a53.628 53.628 0 0 0-11.228 32.75z"/><path d="M149.333 298.667H128v-58.584a117.684 117.684 0 0 1 25.708-73.291l61.959-77.459 16.666 13.334-61.958 77.458a96.31 96.31 0 0 0-21.042 59.958z" style="fill:#345460"/><path d="M192 490.667h-21.333a21.348 21.348 0 0 0-21.334-21.334 42.667 42.667 0 0 1 0-85.333h21.334v21.333h-21.334a21.333 21.333 0 0 0 0 42.667A42.722 42.722 0 0 1 192 490.667z" style="fill:#ab0008"/></svg>