<?xml version="1.0" encoding="UTF-8"?>
<svg id="_图层_1" xmlns="http://www.w3.org/2000/svg" version="1.1" viewBox="0 0 19 26">
  <!-- Generator: Adobe Illustrator 29.1.0, SVG Export Plug-In . SVG Version: 2.1.0 Build 142)  -->
  <defs>
    <style>
      .st0 {
        fill: #008cff;
      }

      .st1 {
        fill: #93989c;
      }
    </style>
  </defs>
  <rect class="st0" x=".1" y=".1" width="18.8" height="25.8" rx="1.9" ry="1.9"/>
  <path class="st1" d="M17,.3c1,0,1.8.8,1.8,1.8v22c0,1-.8,1.8-1.8,1.8H2c-1,0-1.8-.8-1.8-1.8V2C.2,1,1,.3,2,.3h15M17,0H2C.9,0,0,.9,0,2v22c0,1.1.9,2,2,2h15c1.1,0,2-.9,2-2V2C19,.9,18.1,0,17,0h0Z"/>
</svg>