<svg id="_图层_1" xmlns="http://www.w3.org/2000/svg" version="1.1" viewBox="0 0 26 19"><defs><style>.st2{fill:#005529}.st4{fill:#881c21}</style></defs><rect x="3.62" y="-3.37" width="18.75" height="25.75" rx="1.88" ry="1.88" transform="rotate(-90 12.995 9.505)" style="fill:#f5f6f7"/><path d="M.25 2C.25 1.04 1.04.25 2 .25h22c.96 0 1.75.79 1.75 1.75v15c0 .96-.79 1.75-1.75 1.75H2c-.96 0-1.75-.79-1.75-1.75V2M0 2v15c0 1.1.9 2 2 2h22c1.1 0 2-.9 2-2V2c0-1.1-.9-2-2-2H2C.9 0 0 .9 0 2z" style="fill:#93989c"/><path class="st2" d="M17.5 2.16v.37c.01.18.03.35.06.53.04.24.1.48.19.71l.24.69c.05.17.08.35.15.51.11.27.22.53.36.78.14.26.29.51.46.76.2.29.42.57.7.79.16.13.34.24.53.33.1.05.2.09.31.13h-.02c-.35 0-.71.01-1.06.03-.19 0-.37.03-.56.06-.23.03-.46.07-.69.12-.03 0-.04 0-.05-.03-.03-.16-.09-.32-.16-.47v-.04c.09-.17.16-.35.19-.55.02-.13.04-.27.04-.4s-.01-.26-.03-.4a5.58 5.58 0 0 0-.08-.57c-.06-.3-.17-.58-.35-.83-.13-.18-.29-.34-.47-.47-.15-.1-.32-.19-.48-.29-.04-.03-.08-.06-.09-.12 0-.07-.03-.13-.04-.2-.05-.16-.09-.33-.14-.49-.05-.14-.09-.29-.16-.43-.05-.11-.13-.2-.21-.29-.05-.06-.13-.1-.2-.15l-.01.01.03.06c.13.21.15.45.15.69 0 .18-.03.36-.04.54-.02.21-.04.41-.07.62-.04.27-.12.53-.24.78-.11.24-.23.47-.33.72-.16.38-.27.78-.26 1.2 0 .02 0 .04-.01.06-.02.07-.05.14-.07.21-.09.28-.13.58-.14.88 0 .22 0 .44.02.66 0 .12.04.24.06.36.03.17.14.29.27.4 0 .02-.01.03-.02.05-.05.14-.12.27-.13.42-.01.22-.04.45-.05.67v.24c.01.15.02.3.1.43.06.1.12.2.21.27.2.16.44.19.68.16.03 0 .07-.02.1-.03-.09-.09-.17-.18-.25-.26-.14-.16-.25-.33-.29-.55-.04-.2-.05-.39-.02-.58s.08-.38.13-.57c.03-.12.07-.24.13-.35.09-.15.16-.31.23-.47.04-.1-.05-.19-.14-.17-.16.03-.29.11-.4.23-.03.03-.06.07-.09.1-.01-.02-.03-.04-.03-.06-.03-.15-.07-.3-.08-.45-.02-.33 0-.67.07-1 .05-.27.11-.53.17-.79.04-.17.11-.34.17-.51v-.06a.156.156 0 0 0-.08-.06c-.03 0-.06.02-.11.03.11-.23.23-.47.34-.7.1-.21.23-.41.28-.64.05-.23.11-.45.16-.68.03-.12.04-.25.05-.38.05.04.1.07.15.1.07.04.1.1.13.17.06.16.11.32.16.48.15.44.32.87.47 1.31.12.36.23.72.3 1.1l.03.23c-.14-.08-.25-.18-.36-.29-.02-.02-.04-.04-.06-.04-.08-.03-.15-.05-.23-.07h-.11c-.05 0-.1.02-.16.03-.1 0-.24.1-.27.19l-.06.18v.04c.06.13.08.28.19.4.07.08.14.16.22.23.15.14.3.27.32.49 0 .08.01.16.01.24s-.01.17-.02.25v.22c-.05.3-.18.57-.34.83-.11.17-.24.32-.31.5-.07.17-.1.34-.1.53 0 .07 0 .14.02.22.01.08.03.15.04.23.03-.06.04-.13.06-.19.08-.19.21-.33.37-.46.14-.12.29-.24.43-.37.02-.02.04-.04.06-.07v.15c0 .09-.03.16-.13.2-.02 0-.03.02-.05.03-.05.02-.07.06-.09.11-.02.06-.03.12-.06.17-.05.07-.03.16.07.17.11 0 .22.02.33.02.18 0 .33-.08.46-.19.02-.01.03-.03.04-.05.05-.12.09-.23.14-.35l.57.09c.27.04.54.07.81.1l.68.06c.02 0 .03.01.05.02-.02 0-.03.02-.05.02-.15 0-.31 0-.46.02-.19.01-.39.04-.58.06-.29.03-.57.08-.85.15-.45.11-.89.28-1.31.48-.27.13-.52.27-.76.45-.17.12-.36.24-.52.38-.18.15-.34.32-.5.49-.17.18-.33.37-.48.57-.28.36-.53.75-.74 1.15-.12.23-.26.45-.41.65-.11.14-.19.29-.12.48.05.15.14.23.3.24.15 0 .28.04.4.14.22.18.45.36.68.54.24.19.5.32.79.4.25.07.49.07.75.05.04 0 .08-.02.12-.02-.02-.02-.03-.03-.05-.03a.867.867 0 0 1-.33-.17c-.18-.14-.35-.28-.52-.44-.2-.19-.39-.39-.58-.59a1.85 1.85 0 0 1-.37-.51.53.53 0 0 1 0-.46c.08-.17.18-.34.28-.5.22-.36.49-.68.8-.97.21-.19.42-.36.66-.52.2-.13.4-.24.6-.36.13-.07.27-.15.41-.19.29-.09.59-.18.89-.25.43-.1.87-.19 1.3-.28.06-.01.13-.02.19-.02-.06.07-.13.12-.19.17-.13.11-.26.22-.38.33-.15.13-.3.27-.44.41-.15.15-.29.31-.42.47-.15.18-.29.36-.42.56-.12.19-.22.39-.32.59-.16.31-.26.65-.28 1-.01.2 0 .4.04.59.04.19.1.37.16.56.01.05.04.09.06.14.01-.02.01-.03.01-.05 0-.09-.02-.18-.02-.26 0-.15.01-.29.04-.44.08-.5.27-.96.56-1.37.25-.36.53-.69.86-.98a9.619 9.619 0 0 1 1.59-1.17c.16-.1.33-.19.48-.3.1-.07.19-.14.22-.27 0-.04.03-.07.05-.11v.05c-.01.15-.01.3-.03.45-.02.14-.04.29-.08.43-.07.2-.14.4-.16.61-.01.18-.03.35-.03.53 0 .2-.05.38-.16.55-.13.19-.3.35-.48.49-.02.02-.04.04-.07.06v.01c.07 0 .14 0 .2-.01.29-.06.53-.19.69-.43.15-.22.29-.45.29-.74 0-.12.02-.24.04-.36.04-.24.07-.48.12-.71.05-.23.1-.46.11-.7l.03-.48c0-.17.01-.34.02-.51V9.31c0-.21 0-.42.02-.63s.04-.41.07-.62c.04-.25.08-.49.13-.74l.18-.86.12-.49c0 .14 0 .28-.01.42 0 .23-.01.46-.02.68 0 .21-.01.42-.02.63 0 .17-.01.34-.02.52 0 .18-.01.37-.02.55 0 .15-.01.29-.02.44 0 .24-.02.49-.03.73v.26c0 .27 0 .54-.05.81-.03.18-.07.37-.13.55-.06.19-.13.37-.19.56-.11.34-.15.68-.13 1.03 0 .19.03.37.05.56 0 .07.02.14.04.2.01-.06.02-.12.02-.18.01-.12.02-.25.04-.37.04-.21.09-.42.14-.63.06-.24.15-.46.28-.67.18-.28.31-.58.38-.9.05-.21.08-.42.11-.63s.04-.41.06-.62c0-.09.01-.19.02-.28.02-.27.04-.54.05-.82v-.48c0-.24-.01-.48-.02-.72 0-.14-.01-.27-.02-.41 0-.19-.02-.38-.03-.57 0-.18-.02-.36-.03-.54v-.64c.01-.26.03-.51.05-.77.01-.14.03-.27.1-.39.09-.15.18-.31.35-.39.05-.02.06 0 .08.03 0 .02 0 .04.01.05.02.14.04.29.07.43.04.18.09.36.12.54.05.27.08.55.12.82.03.22.04.44.06.67 0 .07 0 .15.01.22 0 .1.02.2.01.29-.02.12-.06.24-.09.37-.01.04-.03.08-.05.12h.02c.05-.11.12-.21.16-.33.06-.16.11-.32.15-.48.07-.28.12-.57.15-.86.01-.19.03-.38.05-.57.01-.13.02-.25.05-.38.06-.3.1-.59.07-.89-.03-.26-.11-.5-.26-.72-.04-.06-.08-.12-.13-.18s-.08-.13-.16-.15c-.03 0-.06-.02-.09-.04-.05-.02-.1-.05-.14-.05-.13 0-.25.06-.36.14-.2.13-.32.33-.42.54-.11.25-.19.5-.24.77-.04.22-.08.44-.11.67-.02.16 0 .32-.01.48 0 .12 0 .24-.01.36 0 .02 0 .03-.01.05-.05.11-.11.21-.15.32-.1.24-.21.49-.3.74-.15.42-.26.85-.33 1.29-.04.23-.06.47-.09.7l-.09.63-.06.59c0 .06-.01.13-.02.2a.487.487 0 0 0-.11-.04c.01-.13 0-.25.04-.37.02-.08.02-.14.02-.22 0-.12.02-.23.03-.35.01-.14.03-.29.04-.43 0-.11.01-.21.02-.32.01-.21.03-.42.04-.62 0-.06.02-.08.07-.1.03-.01.08-.03.09-.05.06-.12.13-.23.11-.38-.02-.13-.07-.22-.17-.28-.02-.01-.06-.03-.08-.02-.1.03-.18-.02-.26-.07a.867.867 0 0 1-.29-.34c-.13-.22-.19-.47-.27-.71-.07-.21-.13-.43-.19-.64-.04-.16-.09-.31-.13-.47-.04-.12-.06-.26-.12-.37-.11-.22-.25-.43-.38-.65-.23-.39-.49-.76-.83-1.08-.05-.04-.1-.08-.15-.13v.06c.14.37.28.74.41 1.11.08.22.14.43.2.66.05.21.07.42.11.63.05.24.13.47.22.7.04.11.09.22.14.33-.08-.1-.16-.2-.23-.3-.17-.26-.34-.51-.49-.78-.17-.31-.33-.64-.49-.96-.06-.13-.13-.25-.2-.38-.1-.18-.2-.36-.29-.55-.07-.14-.12-.3-.17-.45l-.21-.68c-.06-.22-.1-.44-.15-.66-.02-.11-.04-.22-.05-.33-.03.13-.05.26-.07.39-.02.22-.05.45-.06.67l.05.07zm3.15 8.65-.04-.06h.23c.01 0 .03.02.03.03v.08c-.08-.02-.15-.03-.22-.05zm.69.5c-.02-.05-.04-.11-.07-.16-.02-.03-.04-.07-.07-.1-.05-.04-.05-.08-.05-.13v-.07c0-.06 0-.12.09-.13.03 0 .06-.05.09-.08v.66l.01.01zm-.45-1.41s.02.02.02.03c0 .08-.01.17-.02.25 0 .03 0 .04-.04.03-.06 0-.12-.01-.18-.01-.04 0-.06-.02-.05-.06v-.22c0-.01.02-.03.03-.03h.25l-.01.01zm-2.2-.21c.18.03.37.05.55.07l.51.06c.13.01.27.03.4.04.03 0 .04.01.04.04v.29c-.68 0-1.37.02-2.07.12.04-.14.03-.27 0-.39-.04-.12-.1-.24-.15-.35.23.04.48.09.72.12zm2.26-.63c0 .12-.01.24-.02.36-.09-.01-.18-.03-.27-.04-.01 0-.03-.03-.03-.04v-.25c0-.01.02-.03.03-.03H20.95zm-2.88-.24c.17.03.34.06.52.08.14.02.27.04.41.05l.61.06c.12 0 .23.01.35.02.07 0 .14 0 .21.01.01 0 .03.02.03.03 0 .08 0 .16-.01.24 0 0-.03.02-.04.02h-1.18c-.19 0-.37.02-.56.04-.15.01-.3.03-.46.04-.03 0-.05 0-.09.01.02-.05.03-.1.04-.14.04-.14.08-.28.11-.42 0-.03.02-.04.04-.03l.02-.01zm2.9-.29s-.03.03-.04.03c-.07 0-.14 0-.22-.02-.01 0-.03-.03-.02-.04 0-.06 0-.12.02-.17 0-.01.02-.03.03-.03.08 0 .16-.01.24-.02v.26l-.01-.01zm-2.49-.24c.05 0 .11 0 .16.01H20.29c-.02.07-.03.13-.05.19 0 0-.02.01-.03.01-.11 0-.22 0-.33-.02-.07 0-.14 0-.21-.01h-1.59c0-.05 0-.12.02-.18 0 0 .02-.02.03-.02.11 0 .23.02.34.03l.01-.01z"/><path class="st4" d="M13.56 6.8c-.11.16-.19.34-.25.53-.02.07-.04.15-.07.23-.03-.03-.05-.06-.08-.09-.05-.05-.1-.11-.16-.15-.13-.09-.27-.16-.42-.2-.1-.03-.19-.08-.29-.11-.27-.08-.54-.1-.82-.11-.06 0-.09-.02-.1-.08l-.15-.57c0 .01-.01.01-.02.02-.08.15-.13.3-.12.47 0 .14.01.28.03.41.03.23.06.46.11.69.02.11.09.21.14.3.14.25.29.48.49.68l.03.03c-.82.15-1.48.59-2.12 1.08h.09c.23-.03.46-.06.69-.1.32-.06.63-.13.94-.21.23-.05.45-.09.68-.1.2-.01.41-.03.61-.04h.34c.2.01.4.07.57.17.13.08.25.17.37.26.07.05.19.06.26.01.06-.04.1-.15.07-.23-.03-.08-.05-.16-.15-.18a.37.37 0 0 1-.14-.07 1.16 1.16 0 0 1-.32-.47c-.08-.21-.13-.42-.16-.64-.01-.07-.03-.13-.03-.2s.01-.21.04-.31c.02-.1.07-.19.15-.27.08-.07.16-.13.21-.23 0 0 0-.02.02-.04.11.67.16 1.32.16 1.99 0-.01.01-.02.01-.04l.09-.3c.12-.38.18-.76.2-1.16 0-.16.02-.33-.04-.48-.05-.13-.08-.27-.13-.4-.01-.04-.02-.06 0-.1l.33-.66c.02-.04.03-.09.05-.13l-.01-.01c-.13.05-.43.2-.5.24-.24.15-.45.33-.61.56l.01.01zm-1.11.86c.19.16.36.33.51.53.16.21.27.44.38.67.02.05.05.11.08.16-.09-.03-.18-.06-.27-.08-.14-.03-.29-.06-.43-.07-.07 0-.09-.06-.12-.09-.16-.19-.32-.38-.46-.59-.22-.31-.44-.62-.61-.97-.03-.06-.05-.12-.08-.19.11.08.21.15.31.22.15.1.31.19.49.25.08.03.15.1.22.15l-.02.01z"/><path class="st4" d="M12.68 3.02c-.1.03-.19.07-.22.18-.02.07-.05.13-.01.21.05.1.07.2.12.29.08.12.18.23.27.34.05.07.12.13.16.2.07.13.12.27.18.4 0 .02.02.04.04.05.11.09.2.19.27.31.23.38.46.75.69 1.13.02.03.05.04.07.05v-.06c-.02-.15-.03-.3-.05-.45-.04-.25-.08-.5-.13-.75-.05-.22-.1-.44-.17-.65a2.16 2.16 0 0 0-.33-.64c-.09-.12-.2-.23-.32-.34-.07-.07-.17-.11-.26-.16l-.18-.09c-.04-.01-.08-.03-.12-.02h-.01z"/><path class="st2" d="M22.11 13.97c0 .06 0 .12-.05.16-.13.11-.22.26-.3.41-.16.31-.27.65-.34.99-.05.26-.12.52-.08.79.03.21.07.41.2.58.1.14.21.27.36.35.08.05.17.09.25.11.11.03.22.05.34.03.05 0 .1 0 .15-.02.05-.01.1-.03.14-.05.03-.01.08-.02.1-.05.06-.09.12-.18.15-.29.06-.23.08-.46.08-.7 0-.1 0-.2-.02-.29-.02-.11-.04-.21-.08-.31a1.74 1.74 0 0 0-.18-.33c-.14-.2-.19-.43-.23-.66-.02-.14-.03-.27-.04-.41-.02-.16-.03-.33-.05-.49l-.03-.37c-.02-.2-.03-.39-.05-.59 0-.08 0-.16-.02-.25 0 .03-.01.04-.02.05-.13.44-.24.88-.28 1.33v.01zm-.04.69v.55c0 .08 0 .15.01.23.01.22.05.44.12.65.03.1.07.2.11.29v.04c-.01 0-.03 0-.04-.01-.14-.09-.2-.24-.27-.39-.07-.16-.08-.33-.08-.5 0-.41.05-.81.18-1.19 0-.01 0-.03.01-.04 0 .13-.02.25-.03.38l-.01-.01zM23.39 8.97c-.04.21-.06.43-.08.65-.03.29.05.57.07.85.01.18.03.36.05.54 0 .09 0 .17.01.26.02.21.01.42-.08.61-.01.02-.02.05-.03.08s.01-.01.02-.02c.18-.31.3-.65.36-1.01.04-.2.05-.41.08-.62.02-.2.02-.4-.01-.6l-.06-.49c-.02-.16-.03-.31-.05-.47-.02-.15-.03-.29-.05-.44 0-.09-.02-.19-.03-.29 0 .02-.01.03-.02.04-.07.3-.15.6-.21.9l.03.01z"/><path class="st4" d="M14.41 3c-.06-.01-.24.05-.27.1v.02c-.02.04-.03.08-.05.11-.01.03-.03.07-.02.09.05.14.08.29.15.41.13.21.25.43.31.67.02.07.05.13.09.2.03.05.13.09.17.08.09-.03.17-.13.18-.23 0-.13.02-.26.03-.44-.01-.1-.02-.24-.05-.39-.04-.21-.12-.4-.33-.52-.07-.04-.12-.09-.2-.11l-.01.01z"/><path class="st2" d="M15.89 8.17c0-.07 0-.13.01-.2 0-.12.04-.23.11-.32.07-.1.15-.19.18-.31.02-.07.04-.15.03-.22 0-.11-.07-.18-.18-.21-.05-.01-.08-.02-.13 0-.07.05-.14.09-.21.14l-.01.01c-.07.18-.15.36-.15.56 0 .02 0 .05.01.07.02.09.03.19.05.28.02.08.07.16.1.23.02.04.05.08.1.07.06 0 .07-.05.08-.1h.01z"/><path class="st4" d="M15.17 3.43c.09.21.12.43.13.66 0 .08.01.16.02.24 0 .06.03.1.08.11.04 0 .08-.02.1-.08l.09-.32c.05-.21.1-.42.07-.63a.331.331 0 0 0-.28-.25c-.06.02-.13.03-.17.07-.05.05-.08.13-.04.21v-.01z"/><path d="M12.92 13.28c-.02.14-.04.29-.05.43v.33c.02-.05.04-.14.07-.23.1-.26.26-.47.49-.64.11-.08.23-.16.32-.26.12-.13.17-.31.19-.48.02-.16.04-.33.07-.49.02-.14.05-.28.07-.43-.08.05-.15.09-.22.14-.15.12-.3.24-.41.4-.12.18-.25.35-.35.54-.11.21-.15.45-.18.68v.01z" style="fill:none"/><path class="st2" d="M2.85 9.69c.19.3.41.56.68.79.21.17.43.32.67.44.2.1.4.18.6.27.41.17.83.28 1.27.34.37.05.74.09 1.11.13.18.02.36.03.54.03.34 0 .67-.01 1.01-.02h.13c-.24.16-.47.31-.69.46-.23.16-.45.31-.67.48-.25.19-.49.38-.74.58-.14.11-.28.23-.42.35-.09.08-.17.18-.26.26-.16.14-.32.27-.49.4-.07.05-.11.09-.05.19.04.07.07.15.1.23.02.07.03.14.04.21 0 .05.03.08.07.11.23.14.46.28.69.41.21.12.42.25.65.35.26.12.5.27.71.47.19.17.35.36.5.56.26.35.49.73.69 1.12 0 .02.02.03.03.05v-.05c-.05-.16-.1-.32-.16-.48-.13-.35-.28-.68-.47-1-.22-.36-.46-.71-.74-1.03-.23-.26-.47-.52-.7-.78a5.78 5.78 0 0 1-.24-.25c-.01-.01-.01-.04 0-.05.1-.13.19-.25.3-.37.05-.05.11-.08.17-.13.27-.21.53-.42.8-.62.31-.23.62-.46.94-.68.23-.16.46-.31.69-.45.28-.17.56-.33.85-.49.14-.08.54-.23.84-.32.03-.05.18-.25.22-.3a4.17 4.17 0 0 1-.3-.23c-.24.03-.72.08-.87.1l-.7.06c-.22.02-.44.03-.66.04-.17 0-.35.02-.52.02h-1.4c-.18 0-.36-.02-.54-.03-.2-.01-.39-.03-.58-.05-.23-.02-.46-.05-.69-.09-.34-.06-.68-.14-1.01-.24-.31-.1-.61-.22-.88-.39-.15-.1-.3-.2-.42-.33l-.09-.09c0 .01 0 .03.02.04l-.03-.02z"/><path class="st4" d="M11.29 11.21c-.16.25-.27.52-.35.8-.07.25-.12.5-.14.76 0 .1-.02.2-.02.3v.46c.11-.3.22-.59.32-.88.48.21.95.26 1.42-.01v.04c-.05.23-.08.47-.06.71 0 .1.01.2.04.3.04.15.09.3.14.45.04.13.1.25.21.34l.01.02v.49c.03-.12.05-.25.07-.37.07-.35.27-.62.54-.84.12-.1.25-.18.38-.27.15-.1.26-.23.34-.39.11-.2.18-.42.23-.65.07-.34.15-.68.22-1.02a.366.366 0 0 0-.13-.37c-.05-.04-.06-.07-.05-.13.02-.1-.07-.19-.15-.17-.09.02-.18.06-.25.13-.11.11-.23.21-.35.3-.2.16-.41.31-.62.46-.03.02-.05.04-.08.06-.04.02-.08.03-.12.05-.14.08-.28.17-.43.24-.32.16-.66.28-1.01.38-.08.02-.16.04-.26.07 0-.03.01-.04.02-.06.09-.2.18-.39.28-.59.15-.3.35-.57.59-.8.03-.02.05-.03.08-.02.1.02.2.04.31.06.1.01.2.02.29.02h.4c.05 0 .1 0 .15-.02.21-.06.41-.12.61-.2.17-.06.33-.14.43-.31.06-.11.06-.2 0-.29-.07-.12-.11-.14-.23-.06-.22.14-.45.25-.7.31-.27.06-.55.1-.83.08-.26-.02-.53-.04-.79-.08-.35-.05-.7-.14-1.04-.26a.612.612 0 0 1-.12-.05s0 .01-.01.02c.12.1.36.31.57.47.13.1.24.19.3.23-.04.05-.19.25-.22.3l.01-.01zm2.16.84c.11-.16.26-.29.41-.4.07-.05.14-.09.22-.14-.03.15-.05.29-.07.43-.02.16-.04.33-.07.49-.03.18-.08.35-.19.48-.09.1-.21.18-.32.26-.23.16-.39.37-.49.64-.03.09-.06.18-.07.23v-.33c0-.14.03-.29.05-.43.03-.23.07-.47.18-.68.1-.19.23-.37.35-.54v-.01zM7.3 7.7l-.02.15h-.37l-.15-.07c-.03-.17-.06-.32-.1-.45s-.1-.24-.17-.33c-.4.01-.78-.03-1.15-.11s-.7-.22-1-.42l.07-.02.13-.02c-.21-.25-.36-.46-.46-.64s-.18-.34-.24-.5c-.06-.15-.1-.29-.13-.39-.03-.11-.05-.25-.08-.44.02-.07.05-.15.09-.22.16-.22.3-.42.56-.52.1.08.19.12.26.13l1.3-.03c.12.02.23.06.33.11s.19.12.27.21v.14c-.05.03-.1.05-.14.06-.04.02-.09.03-.15.05-.06.01-.11.03-.16.04-.05.01-.09.02-.13.03l-.43.02c0 .16.03.33.06.51.04.18.09.35.14.51.06.16.13.36.22.59.09.23.15.4.18.5l.34.02c-.03-.12-.06-.24-.09-.37a6.64 6.64 0 0 0-.16-.47c-.07-.18-.11-.33-.14-.45-.03-.12-.04-.23-.03-.33.03-.14.1-.25.2-.32.09.07.15.19.19.37l.08.17c.08.05.17.12.28.2s.18.15.23.19.1.08.16.11.11.04.17.03c.03-.09.07-.18.11-.26.05-.08.1-.17.15-.27.06-.1.1-.18.14-.25s.07-.14.09-.22c-.22-.09-.46-.16-.73-.2l-.27.13c-.08-.03-.13-.1-.14-.2.04-.03.07-.06.09-.11.02-.05.04-.1.05-.17s.03-.13.05-.19c.02-.05.05-.1.09-.15.05-.02.09-.02.12 0 .04.01.07.03.09.05.03.02.06.05.1.08.04.04.08.07.11.1.04.03.1.07.19.12s.23.12.41.2c.08-.09.14-.18.19-.28.05-.09.09-.18.13-.26s.07-.16.09-.23c.03-.07.05-.14.08-.2s.06-.13.1-.22.09-.19.14-.33c.06-.18.13-.36.2-.53s.15-.34.24-.5l.04.04c.09.16.16.35.2.57.05.22.07.44.06.66-.11.26-.25.53-.42.81-.17.28-.35.53-.53.74.2.28.35.5.44.66.09.16.16.31.21.46s.07.3.06.47c0 .17-.03.36-.08.59l-.04.07c-.06-.39-.16-.74-.31-1.04-.14-.3-.34-.57-.6-.81-.04.06-.08.12-.13.17-.05.06-.12.12-.2.2l-.21.21c-.06.06-.11.12-.16.19.23.16.42.31.59.44.16.13.34.29.52.47s.33.4.46.64.22.55.28.94l-.02.07c-.37-.53-.76-1-1.19-1.42-.42-.42-.89-.76-1.4-1.04.05.28.13.57.24.87.11.3.24.59.41.88v.01zM2.27 3.83v-.21c0-.08 0-.15.02-.22.04-.3.14-.58.46-.6.28-.03.37.34.34.59-.01.08-.03.17-.04.25-.01.09-.03.17-.04.26-.17.61.23 1.12.55 1.61.04.06.08.12.13.18.13.18.28.37.43.56v.04c-.18-.15-.34-.28-.49-.39-.05-.04-.1-.07-.15-.1-.1 0-.16-.16-.27-.16.03.17.08.31.14.48l.06.23c.06.22.12.42.18.61-.03.17-.08.36-.16.58l-.02-.05c-.15-.41-.28-.78-.39-1.11-.02-.06-.04-.13-.06-.19-.2-.72-.54-1.39-.67-2.15 0-.07-.01-.13-.01-.21h-.01zm3 2.47v.17l.38.06c-.03-.1-.07-.22-.12-.34l-.18-.47c-.07-.19-.13-.34-.16-.47-.03-.13-.05-.25-.05-.35l.07-.42h-.45c.02.36.07.69.14.98s.2.58.37.85V6.3zm-.33.14s-.02-.07-.05-.16c-.03-.08-.08-.21-.15-.37s-.12-.3-.17-.42-.07-.22-.08-.31c0-.17 0-.31.01-.43s.05-.22.12-.3h-.29c-.08 0-.14.02-.19.04-.05.02-.08.05-.11.1-.02.05-.03.11-.03.2.04.35.15.7.36 1.05.2.34.39.54.58.6z"/></svg>