<svg id="_图层_1" xmlns="http://www.w3.org/2000/svg" version="1.1" viewBox="0 0 26 19"><defs><style>.st1{fill:#005529}.st3{fill:#881c21}</style></defs><rect x="3.62" y="-3.38" width="18.75" height="25.75" rx="1.88" ry="1.88" transform="rotate(-90 12.995 9.495)" style="fill:#f5f6f7"/><path d="M.25 2C.25 1.04 1.04.25 2 .25h22c.96 0 1.75.79 1.75 1.75v15c0 .96-.79 1.75-1.75 1.75H2c-.96 0-1.75-.79-1.75-1.75V2M0 2v15c0 1.1.9 2 2 2h22c1.1 0 2-.9 2-2V2c0-1.1-.9-2-2-2H2C.9 0 0 .9 0 2z" style="fill:#93989c"/><path class="st1" d="M1.81 2.35c.1.03.2.06.29.09.59.21 1.17.42 1.76.64.38.14.75.3 1.11.47.35.16.7.32 1.03.5.43.23.86.48 1.28.73.18.11.36.23.53.36.23.16.45.33.67.51s.43.37.64.56c.2.18.4.37.58.57.17.18.31.38.47.57h.01c.02-.02.04-.03.06-.05.18-.16.41-.22.64-.29.22-.06.43-.12.65-.16.22-.05.45-.08.67-.12l.58-.09c.13-.02.25.01.33.13.03.05.04.12.04.18-.02.2-.16.24-.31.26-.22.03-.45.06-.67.1-.27.05-.53.1-.79.15q-.11.02-.13.18c-.03.3-.12.59-.27.86-.14.25-.36.44-.6.59-.13.08-.29.07-.39-.07a.329.329 0 0 1-.05-.22c.02-.14.12-.2.23-.26.28-.14.5-.35.69-.59.1-.13.2-.27.29-.41 0 0 0-.02.02-.04-.15.06-.29.11-.43.16-.12.05-.21.14-.32.21-.05.03-.12.05-.18.05-.15 0-.23-.09-.25-.24a.466.466 0 0 0-.13-.25c-.11-.16-.23-.31-.35-.45-.1-.12-.2-.23-.32-.34a16.667 16.667 0 0 0-1.24-1.06c-.28-.2-.57-.38-.85-.56-.11-.07-.22-.13-.33-.2-.03-.02-.05-.02-.07.02-.07.12-.14.25-.23.35-.12.14-.28.24-.45.31-.13.05-.24 0-.33-.07-.26-.2-.25-.56-.09-.79.08-.12.19-.21.32-.28-.04-.02-.07-.04-.11-.06-.52-.26-1.04-.53-1.57-.79-.25-.13-.51-.25-.76-.37l-1.02-.48c-.22-.1-.45-.2-.67-.31v-.01l.02.01zM24.04 16.73c-.12-.03-.25-.06-.37-.1a.284.284 0 0 1-.09-.06c-.17-.15-.3-.34-.38-.55-.04-.1-.06-.22-.08-.33-.01-.1-.01-.2-.01-.31 0-.2.05-.39.13-.57.03-.07.11-.09.18-.04.13.08.27.16.39.24.17.11.33.22.49.33.17.12.32.26.43.44.02.04.03.09.04.13 0 .02 0 .04.01.06v.02c-.02.14-.06.28-.14.4-.08.13-.18.23-.32.29-.05.02-.1.02-.15.03h-.14l.01.02zM4.59 2.3c.09.03.18.04.26.08.12.06.2.15.25.29.04.11.03.22-.02.32-.06.12-.15.2-.28.25a.67.67 0 0 1-.52-.02.505.505 0 0 1-.29-.3.417.417 0 0 1 .02-.33c.07-.13.18-.22.34-.25.05 0 .09-.02.13-.03h.1l.01-.01z"/><path class="st3" d="M13.62 10.57s-.05-.01-.07-.02c-.23-.09-.41-.25-.55-.44-.08-.11-.17-.21-.24-.33a3.71 3.71 0 0 1-.4-1.23c-.02-.17 0-.34 0-.5 0-.16.04-.3.08-.45 0-.01 0-.02.01-.03.15-.16.3-.32.53-.36.1-.02.21-.05.31-.06.05 0 .11.01.16.02.04 0 .08.01.13.02-.02-.04-.04-.07-.06-.1-.1-.15-.13-.34-.17-.51s-.06-.35-.08-.53c-.01-.1-.02-.21-.02-.31 0-.31.04-.61.15-.9.03-.1.1-.18.16-.26.07-.09.16-.17.24-.25.12-.1.24-.2.39-.26.1-.04.2-.06.3-.09.29-.08.56.02.83.13.25.1.45.26.63.46.14.15.24.33.29.53.04.17.09.33.13.5.07.31.09.62.07.94 0 .14-.02.27-.03.42.09-.04.16-.08.25-.1.15-.04.3-.07.44-.11.16-.04.3.02.45.05.22.05.4.18.58.32.32.26.59.57.79.93.12.21.23.42.3.64s.13.44.16.67c.03.24 0 .46-.07.68-.02.05-.03.1-.05.15-.06.14-.11.29-.2.41-.14.2-.31.39-.54.5-.04.02-.05.03-.03.08.06.19.12.38.16.57.02.1 0 .21-.01.32 0 .11-.04.22-.04.33 0 .3-.08.59-.19.87-.07.17-.18.3-.29.44-.02.02-.04.04-.05.06-.09.12-.22.13-.35.17-.28.08-.54.02-.8-.08-.1-.04-.2-.08-.3-.14-.1-.06-.19-.14-.28-.22-.13-.11-.2-.27-.26-.42-.07-.16-.13-.32-.19-.48-.07.09-.15.18-.22.26-.16.17-.34.29-.54.41-.14.08-.3.1-.45.14-.08.02-.17-.01-.25-.02-.16-.02-.31-.09-.44-.17-.06-.03-.1-.09-.15-.14-.11-.13-.21-.26-.28-.41a1.33 1.33 0 0 1-.14-.48c-.02-.21-.04-.41-.05-.62-.01-.25.05-.48.14-.71.04-.09.08-.18.13-.28l-.02-.01zm2.43 1.51c-.02.07-.02.13.02.18.02.02.02.05.03.07.1.23.19.46.29.68a.4.4 0 0 0 .13.18c.12.07.26.13.39.18.08.03.18.04.27.04.08 0 .17-.01.25-.03.06-.01.12-.04.16-.08.08-.09.15-.19.2-.31.07-.19.13-.37.12-.57-.01-.14-.04-.28-.07-.42-.06-.24-.07-.48-.03-.72 0-.04 0-.06-.04-.07-.22-.04-.44-.09-.65-.17h-.03c-.03.07-.1.07-.16.1-.05.03-.1.02-.15 0-.02 0-.04-.02-.06-.02-.09-.04-.16-.2-.12-.29.02-.04.04-.07.05-.11 0-.02 0-.04-.01-.06-.07-.09-.14-.17-.2-.26-.16-.23-.29-.47-.39-.73-.1-.26-.2-.53-.28-.8-.07-.22-.11-.45-.17-.67 0 0-.01 0-.02.01-.12.13-.27.17-.44.17-.1 0-.19 0-.29-.02-.17-.02-.34-.08-.49-.17-.19-.11-.32-.27-.46-.43-.02-.02-.04-.05-.06-.06-.13-.06-.27-.12-.42-.14-.08 0-.17-.02-.24 0-.09.03-.18.08-.26.14-.06.04-.1.09-.11.16 0 .07-.02.14-.02.2 0 .18 0 .36.03.53.06.41.21.79.44 1.13.09.14.22.24.35.34s.34.06.43-.04l.12-.12c.06-.08.2-.07.26-.02.12.11.11.23.04.31-.17.19-.32.4-.44.62-.12.21-.17.43-.18.67 0 .09 0 .19.01.28 0 .08.02.17.03.25.02.15.07.29.15.43.08.13.17.26.31.34.12.07.25.11.38.05s.25-.13.38-.2c.1-.06.19-.14.25-.24.12-.19.24-.38.37-.57.03-.05.06-.1.1-.14-.03 0-.05 0-.06.02-.08.03-.15.07-.24.02-.03-.01-.06-.03-.09-.04-.05-.02-.16-.17-.14-.22.01-.06.04-.12.08-.18.02-.03.06-.04.1-.06.02-.01.05-.02.08-.03.02-.01.04-.03.05-.06.02-.15.06-.29.11-.42.05-.12.09-.25.21-.33.04-.03.08-.06.13-.08 0 0 .01 0 .02.01-.01.07-.02.15-.05.21-.07.14-.15.26-.22.4-.05.09-.1.17-.14.26.08.06.19.04.23.15.04.09.08.18 0 .27.06-.03.11-.07.16-.09.04-.02.05-.03.04-.07-.05-.18-.07-.35-.01-.53.03-.09.09-.14.18-.17 0 .06.02.11.02.15-.03.17-.06.34-.09.52 0 .05 0 .08.06.1.19.06.28.24.21.4-.02.05-.05.12-.09.15-.09.05-.19.11-.3.04l-.02-.02zm1.76-1.44c.24 0 .45-.08.6-.27.11-.14.19-.29.24-.45.05-.17.08-.35.05-.53-.02-.11-.03-.22-.07-.31-.12-.31-.25-.62-.43-.9-.1-.15-.2-.31-.32-.44-.13-.15-.3-.26-.47-.35-.1-.05-.2-.11-.32-.1-.14 0-.28.02-.41.06-.1.03-.19.1-.24.19-.12.19-.2.39-.25.6-.02.07-.03.15-.07.21-.07.09-.09.17-.05.29.09.24.16.5.27.73.11.22.25.43.38.64.11.18.26.34.44.46.2.13.43.19.67.18l-.02-.01zM15.76 6.7c-.02-.19-.05-.37-.07-.56-.04-.3-.09-.6-.23-.88a.642.642 0 0 0-.16-.2c-.12-.11-.28-.18-.43-.24a.414.414 0 0 0-.39 0c-.11.06-.23.12-.32.2-.07.06-.14.14-.17.25-.03.14-.07.28-.09.42-.02.17-.04.34-.04.51s.01.26.02.39c.01.18.03.36.11.53.12.25.26.49.49.66.11.09.24.14.37.18.11.03.24.02.36.03.08 0 .14-.03.17-.09.07-.1.12-.2.18-.31.02-.03.05-.06.06-.1.03-.05.06-.09.07-.14.03-.21.05-.42.07-.63V6.7z"/><path class="st1" d="M23.46 10.92c-.2-.15-.4-.31-.6-.46-.23-.19-.47-.37-.7-.56-.17-.14-.33-.29-.5-.44-.14-.12-.27-.25-.4-.38s-.26-.25-.38-.38c-.1-.11-.18-.23-.27-.35-.03-.04-.07-.08-.11-.12l-.55-.55c-.13-.13-.25-.26-.38-.4-.18-.2-.36-.41-.54-.61l-.51-.6c-.06-.07-.11-.14-.16-.21-.02-.03-.04-.03-.07-.01-.18.12-.38.2-.59.23-.1.01-.2 0-.29-.02-.16-.04-.31-.09-.47-.14-.1-.03-.12-.13-.16-.21 0 0 0-.02.01-.03.07-.04.14-.11.24-.07.11.05.2 0 .28-.06.13-.09.26-.18.39-.26.05-.03.07-.08.08-.13.01-.13.02-.26.04-.38.01-.14.06-.25.21-.3.01 0 .03-.02.04-.03.12-.14.23-.15.4-.09.12.04.21.12.33.18.04.02.08.03.13.03.11 0 .24.05.27.18l.09.46c0 .01 0 .03.01.03.11.08.12.21.17.32.01.03.03.06.05.09.11-.09.21-.18.31-.27.17-.15.33-.31.5-.47.05-.04.07-.09.08-.15.02-.1.08-.17.17-.23.08-.06.14-.14.2-.22.09-.14.18-.28.23-.44.03-.1.04-.2.06-.29.02-.08.03-.16.06-.23.02-.05.07-.09.11-.13.05-.06.11-.11.2-.11.07 0 .15 0 .2.06.07.06.13.13.2.2.02.02.04.04.08.01a.53.53 0 0 1 .15-.08c.13-.06.24-.02.36.06.18.12.28.29.32.5.02.08 0 .16-.06.21a.95.95 0 0 1-.2.15c-.11.06-.17.15-.23.25-.26.41-.4.87-.5 1.34-.06.26-.1.52-.16.77-.05.21-.12.41-.18.62-.01.05-.04.09-.07.13-.02.03 0 .04.01.06.16.1.32.2.48.29.19.11.38.21.56.32.05.03.1.02.15 0 .21-.07.38.12.35.32-.01.08.01.17.02.25.05.35.2.67.3 1 .07.25.14.5.16.76 0 .11.02.22 0 .33 0 .1.03.17.1.24.01.01.03.03.04.05l-.01.01-.05-.04zm-2.47-5.81c-.05 0-.1.02-.14.01-.05 0-.08 0-.11.03-.1.1-.21.21-.32.3-.17.13-.38.21-.59.27-.08.02-.16.04-.25.06.21.38 1.17 1.29 1.43 1.36 0-.04-.02-.07-.02-.11 0-.18.01-.36-.03-.54-.03-.12-.03-.25-.05-.37 0-.08-.01-.16-.01-.23s.01-.17.02-.26c0-.09.02-.18.03-.27 0-.08.02-.16.03-.24l.01-.01zM20.69 9.28c.06.13.12.24.15.36.08.25.14.51.22.76 0 .03.03.06.05.08.08.07.18.13.26.21.26.25.51.51.77.76.09.09.13.22.04.35-.08.12-.2.17-.32.22-.12.05-.25.09-.38.12-.03 0-.04.02-.03.05.14.41.28.82.43 1.23.18.47.4.93.63 1.38l.24.45c.07.12.09.25.02.38-.06.13-.24.2-.38.16a.4.4 0 0 1-.24-.2c-.1-.19-.2-.37-.29-.57-.19-.42-.37-.85-.54-1.28-.1-.24-.18-.49-.26-.74-.09-.29-.17-.58-.25-.87 0-.02-.02-.03-.03-.04-.09-.06-.19-.11-.28-.18a.609.609 0 0 1-.16-.16c-.09-.15-.19-.3-.25-.46-.05-.11-.05-.25-.06-.37-.01-.12.01-.24.07-.35.06-.11.13-.22.27-.24h.05q.08 0 .09-.09c0-.09.01-.18 0-.27 0-.13.04-.25.08-.38.03-.1.06-.21.1-.32v.01zM7.77 4.51c0-.19.05-.36.16-.51.19-.24.4-.32.68-.25.2.04.34.19.43.38.07.16.12.32.12.49 0 .29-.14.46-.41.57-.09.04-.18.08-.28.12-.16.07-.31.04-.44-.07-.12-.1-.16-.24-.2-.38-.03-.11-.04-.23-.06-.34v-.01z"/><path class="st1" d="M22.04 13.01c.14.11.26.22.4.31.12.08.25.15.37.21.04.02.08.02.12.02.07.01.13.02.2.04.14.05.22.14.26.28.05.18-.04.34-.18.43-.08.05-.17.08-.27.05a.97.97 0 0 1-.47-.27c-.1-.1-.2-.2-.27-.34-.08-.16-.12-.33-.14-.51 0-.07-.02-.15-.02-.23v.01zM21.12 13.93c0 .14-.08.24-.16.34-.06.07-.12.12-.21.14a.297.297 0 0 1-.31-.14c-.08-.15-.14-.3-.15-.47 0-.13 0-.26.07-.38.06-.11.15-.2.28-.22.12-.01.21.04.27.13.1.15.16.31.19.49 0 .03.01.07.01.1l.01.01z"/><path class="st3" d="M15.82 10.07c-.06.11-.15.19-.24.28-.13.12-.25.24-.38.37-.04.04-.08.09-.13.14.03.02.07.03.1.04.11.05.16.19.12.3-.04.15-.17.19-.28.2-.08 0-.16-.04-.24-.08-.03-.01-.04-.06-.06-.09-.07-.1-.02-.21.04-.28.05-.05.14-.08.22-.09.06 0 .09-.02.11-.08.1-.28.3-.49.52-.68.04-.04.13-.03.2-.04v.02l.02-.01zM15.55 9.05c-.09.04-.15.08-.22.1-.06 0-.12-.02-.18-.04-.14-.04-.28-.1-.4-.18-.03-.02-.06-.03-.07.02 0 .01-.02.02-.03.03 0 0-.02 0-.03.01-.11.08-.22.05-.33-.01-.02 0-.02-.04-.04-.05-.09-.12-.04-.23.01-.34 0-.01.02-.02.04-.02 0 0 .02 0 .03-.01.11-.08.22-.03.32.02 0 0 .02.01.02.02.02.05.05.11.07.17v.09c.16.03.32.07.48.09.12.01.21.08.33.14v-.04zM15.43 9.3c-.09.06-.15.16-.28.15-.15-.01-.3-.02-.45-.02-.04 0-.07 0-.08.05-.02.13-.12.15-.22.18h-.06c-.03 0-.06-.03-.09-.04a.213.213 0 0 1-.11-.1c-.07-.12-.03-.22.03-.32.02-.03.08-.04.11-.06.1-.06.18.01.27.05.03.01.04.07.05.11.01.03.03.04.07.03.18-.04.35-.08.53-.11.07 0 .15.03.22.05v.02l.01.01zM16.55 11.43c.07-.11.2-.14.31-.12.14.03.18.14.19.24 0 .07-.04.16-.09.21-.09.09-.25.08-.36 0a.201.201 0 0 1-.04-.08c-.03-.06-.07-.13-.02-.2 0-.01 0-.05-.02-.06a.668.668 0 0 1-.13-.41c0-.04.07-.14.11-.15 0 0 .02 0 .03.01.07.06.07.13.06.21-.01.11-.02.22-.04.33v.02zM14.92 10.3s0 .03.01.04c.07.1.06.21 0 .31a.265.265 0 0 1-.33.09c-.08-.04-.1-.1-.13-.16-.05-.11.03-.25.14-.31.12-.07.21 0 .31.04v-.01zM14.54 9.95c.1-.06.19-.13.3-.19.16-.08.32-.16.48-.23h.02c.07.02.14.03.2.05v.02c-.09.06-.16.13-.26.16-.23.08-.47.13-.7.2h-.04v-.01z"/><path class="st3" d="M14.92 10.3c.17-.21.38-.38.61-.51 0 0 .02-.01.03 0 .06.01.11.03.18.04-.1.1-.18.2-.31.24-.15.06-.29.14-.44.21-.02.01-.04.02-.07.03v-.01zM14.82 8.37c.11.05.22.11.33.15.08.03.15.07.2.14.02.03.02.07.03.1-.05.01-.11.05-.13.03-.17-.11-.32-.24-.43-.42zM2.57 15.32c.08 0 .31.02.7.05.39.03.62.06.69.08l-.03-.13c0-.14.01-.28.04-.41.03-.14.08-.2.17-.2.06 0 .15.11.29.34.13.23.21.39.23.5l.77.02s-.12-.13-.27-.27c-.15-.13-.26-.22-.34-.28.12.03.35.11.68.26.33.14.53.24.6.29.71 0 1.25-.01 1.6-.03.32-.02.64-.04.98-.07h.11c.31.06.73.06.66.34-.07.21-.56.28-.86.37h-.1c-.16-.02-.36-.04-.6-.06-.29-.02-.63-.03-1.04-.03.05.05.19.19.44.42s.37.38.37.47c0 .1-.07.18-.21.24s-.26.1-.37.1c-.32-.24-.69-.48-1.09-.72-.4-.24-.8-.42-1.18-.53.05.09.08.19.1.32.02.12.03.23.03.33 0 .06-.03.19-.1.37-.06.18-.1.29-.1.31h-.07c-.02-.12-.1-.36-.23-.72-.13-.37-.22-.58-.29-.63-.66 0-1.11 0-1.34.02-.04 0-.08 0-.11.01-.04 0-.07.01-.11.02-.11.01-.18.07-.25.12-.02.02-.04.04-.06.05.02.06-.05.06-.12.06-.07-.07-.07-.14-.06-.21.01-.03.03-.07.05-.1.06-.1.15-.21.16-.31.02-.04.03-.08.05-.11.07-.15.14-.23.21-.23v-.05zm1.8-3.47c0-.3.1-.52.3-.67.2-.14.39-.21.57-.21h.13c.1 0 .21 0 .33.03-.01-.13-.03-.28-.05-.45s-.03-.3-.03-.4c0-.09.03-.19.09-.3.01-.03.03-.06.05-.09.19-.14.26-.63.54-.49.14.07-.07.42-.07.7 0 .04-.01.09-.02.14 0 .05-.01.1-.02.15-.06.41-.09.66-.09.76.2.02.48.07.84.15s.71.18 1.05.3c.02-.05.06-.11.1-.17s.09-.11.14-.17c-.09-.01-.18-.02-.27-.02h-.17c.28-.14.56-.28.83-.42.04-.02.08-.03.11-.05.04-.01.07-.03.1-.04.11 0 .25-.15.39-.08s.14.21.03.38a.55.55 0 0 1-.07.09c-.03.03-.06.07-.1.11-.16.16-.32.33-.5.51.26.09.47.18.63.27.17.1.25.18.25.25 0 .13-.11.32-.34.55-.23.23-.44.38-.64.44.08-.12.14-.23.18-.32s.06-.18.06-.27c0-.09-.06-.16-.16-.22s-.23-.11-.38-.16c-.2.37-.35.72-.46 1.07-.11.35-.16.6-.16.76 0 .02.01.09.03.21s.03.21.03.27c0 .03-.03.06-.09.09s-.12.04-.18.04c-.08 0-.2-.05-.37-.16-.17-.1-.27-.17-.32-.18 0 .01.03.1.09.26s.09.26.09.29c0 .13-.05.27-.15.4-.1.14-.19.22-.26.24h-.07c0-.31-.02-.58-.07-.8-.04-.22-.11-.44-.2-.66-.25-.11-.48-.2-.68-.27-.21-.07-.33-.1-.37-.1-.02 0-.05.01-.07.04-.03.03-.05.07-.07.13h-.06c-.13-.44-.25-.84-.34-1.19s-.14-.61-.14-.79l.01.05zm-2.24 1.53c.05-.09.14-.17.28-.24.14-.07.27-.1.4-.1.1 0 .21.01.33.03s.23.05.35.1c-.08-.21-.18-.51-.31-.92-.03-.1-.06-.19-.09-.27a1.67 1.67 0 0 0-.06-.2c0-.07-.01-.13-.02-.2 0-.07-.01-.13 0-.2-.06-.14.08-.42.29-.35.14.07.21.28.25.39.03.09.07.19.11.3.16.46.31.91.46 1.35-.04-.06-.09-.12-.16-.19s-.12-.11-.15-.12c0 .05.07.19.2.43.13.23.27.46.42.69 0 .06-.06.14-.17.22-.12.08-.21.13-.27.13-.34-.21-.66-.4-.98-.57s-.59-.25-.82-.25l-.03-.03h-.03zm4.11-.44c.02.13.04.25.07.34s.06.2.1.3c.11.08.2.14.27.17s.23.11.48.23l.1-.56c-.13-.09-.29-.17-.47-.26-.18-.08-.36-.16-.55-.24v.02zm-1.6-.95c0 .08.08.3.24.66.16.36.24.57.24.63.12-.05.23-.06.34-.05.04 0 .12.03.23.09.12.05.22.1.3.14 0-.08-.01-.18-.03-.32-.02-.14-.04-.24-.06-.3-.12-.03-.24-.07-.37-.11s-.21-.06-.25-.06c-.02 0-.05.01-.1.04s-.08.05-.1.07h-.07c0-.2.04-.37.13-.52.08-.15.17-.23.25-.23.05 0 .12.02.21.05s.17.06.23.08c0-.03 0-.1-.03-.23-.02-.12-.03-.21-.03-.28a4.58 4.58 0 0 0-.23-.03h-.39c-.15 0-.27.03-.37.09s-.14.15-.14.29v-.01zm1.48-.33c0 .16 0 .29.01.39 0 .1.02.17.04.21.22.11.43.22.63.34.2.12.39.25.57.4.02-.1.06-.24.13-.41.07-.18.14-.37.22-.57-.29-.09-.58-.17-.87-.24a5.72 5.72 0 0 0-.73-.13v.01z"/></svg>