<svg id="_图层_1" xmlns="http://www.w3.org/2000/svg" version="1.1" viewBox="0 0 26 19"><defs><style>.st1{fill:#005529}.st3{fill:#881c21}</style></defs><rect x="3.62" y="-3.37" width="18.75" height="25.75" rx="1.88" ry="1.88" transform="rotate(-90 12.995 9.505)" style="fill:#f5f6f7"/><path d="M.25 2C.25 1.04 1.04.25 2 .25h22c.96 0 1.75.79 1.75 1.75v15c0 .96-.79 1.75-1.75 1.75H2c-.96 0-1.75-.79-1.75-1.75V2M0 2v15c0 1.1.9 2 2 2h22c1.1 0 2-.9 2-2V2c0-1.1-.9-2-2-2H2C.9 0 0 .9 0 2z" style="fill:#93989c"/><path class="st1" d="M21.44 18.22a.826.826 0 0 1-.3-.14.917.917 0 0 0-.23-.09.51.51 0 0 1-.2-.12l-.18-.18a.832.832 0 0 1-.28-.43c-.03-.11-.04-.23-.07-.34 0-.03-.02-.06-.04-.08-.05-.06-.11-.12-.17-.17-.08-.06-.11-.14-.12-.24 0-.08-.02-.15-.03-.24l-.15.15c-.08.08-.14.09-.27.02-.06-.03-.09-.02-.13.02-.11.11-.17.11-.29 0-.18-.16-.36-.31-.54-.47a.193.193 0 0 1-.05-.09c-.03-.1-.07-.21-.08-.32-.02-.15 0-.3.05-.44.08-.23.2-.44.39-.6.05-.04.13-.07.2-.07.18-.02.25-.13.31-.28.13-.31.34-.56.64-.73.04-.02.04-.03.02-.07-.35-.49-.71-.99-1.05-1.48-.15-.22-.29-.45-.44-.68-.03-.05 0-.07.03-.09.01 0 .05 0 .06.02.07.09.14.19.21.29.18.26.37.51.56.77 0 .01.02.02.03.04.02-.12.03-.22.05-.33.05-.21.14-.39.28-.55.16-.18.33-.35.54-.48.11-.07.24-.1.37-.07.11.03.23.05.34.09.12.05.23.11.33.18s.2.14.27.23c.04.06.05.15.04.23-.03.24-.19.37-.4.44-.09.03-.19-.01-.27-.07-.02-.01-.03-.03-.05-.05-.1-.1-.21-.09-.31.01-.02.02-.04.03-.06.06-.07.09-.15.1-.27.1-.16 0-.34 0-.48.1-.09.06-.18.12-.28.18-.03.02-.03.04 0 .07.22.28.43.56.65.83.06.08.07.08.12 0 .18-.27.39-.51.64-.73.13-.12.27-.23.43-.32.14-.07.3-.1.45-.13.16-.04.31.04.46.08.04 0 .07.05.1.07.12.11.24.23.36.34.03.02.05.05 0 .08v.05c0 .02.02.03.03.05.09.16.08.19-.05.32l-.11.11c-.09.09-.19.11-.3.06-.18-.09-.37-.12-.57-.12-.09 0-.18 0-.27-.01h-.03c-.08-.09-.18-.05-.28-.03-.15.03-.3.06-.4.19-.08.09-.15.19-.22.29q-.06.1.03.2c.08.09.15.18.23.27.04.04.08.09.12.1.03 0 .08-.05.11-.09.15-.13.3-.27.46-.38.07-.05.17-.06.26-.09.13-.03.26-.06.39-.08.1-.01.2.01.28.09.13.12.13.13.25 0 .07-.07.15-.11.24-.13.05-.01.12.01.17.04.14.08.28.16.41.26.14.1.23.23.28.4.02.08.08.15.06.25-.02.11-.09.18-.15.26-.03.04-.08.08-.12.12-.19.18-.35.2-.56.06a2.19 2.19 0 0 0-.59-.3 1.94 1.94 0 0 0-.48-.09c-.21-.01-.41.02-.61.05-.05 0-.05.02-.02.05.16.13.32.26.47.39.04.04.09.07.12.11.13.15.3.24.47.34.33.18.69.33 1.05.44.12.04.19.13.26.21.05.06.06.15.1.23 0 .01.03.03.04.03.04 0 .07-.01.11-.03.12-.05.26-.03.35.07.06.06.12.13.17.2.06.08.05.16.03.25-.04.18-.14.33-.26.47-.1.11-.22.2-.36.24a.22.22 0 0 1-.16 0c-.09-.03-.18-.08-.26-.13-.04-.03-.05-.01-.07.01-.08.09-.18.15-.3.14-.05 0-.1-.03-.14-.05-.12-.07-.23-.14-.34-.22-.12-.08-.17-.2-.2-.33 0-.03-.02-.05-.06-.06-.14-.06-.3-.09-.4-.21-.12-.13-.23-.26-.33-.4-.04-.05-.04-.13-.05-.2-.01-.06-.03-.13-.03-.19 0-.05.02-.11.03-.16 0-.04.02-.09.01-.13-.07-.32-.27-.56-.5-.78h-.01c-.04.25-.06.51 0 .76 0 .02 0 .05.01.07.01.11.06.2.14.27.09.07.09.19.13.3.03.09.05.18.13.23.05.03.1.06.16.08.26.06.4.25.56.44.03.04.05.09.07.14 0 .02 0 .05-.02.06-.06.06-.12.12-.17.19-.02.02-.03.07-.02.09.07.22.04.43-.07.62-.06.1-.18.17-.28.26-.03.02-.07.04-.1.06h-.03v-.03zm-1.62-2.21c.01-.07.02-.15.04-.21.04-.09.09-.18.13-.27.04-.07.07-.14.12-.2.08-.1.18-.19.31-.24.04-.01.07-.04.05-.09-.02-.05-.01-.11-.02-.16-.01-.13-.03-.26-.04-.39 0-.1-.01-.2.09-.26.01 0 .03-.02.04-.04 0-.01.01-.04 0-.05-.09-.11-.19-.22-.28-.33-.03-.03-.04-.05-.08-.01h-.04c-.05-.08-.1-.04-.15 0-.02.02-.05.03-.08.05s-.06.04-.08.07c-.2.32-.29.68-.28 1.06 0 .19.04.38.07.57.03.18.06.37.19.51l.01-.01zM2.12 8.05l.03-.14c0-.19.1-.33.21-.47.08-.1.18-.19.27-.29.05-.05.09-.09.15-.13.09-.07.18-.13.27-.19.02-.02.04-.04.05-.06.09-.12.18-.25.28-.37.06-.09.16-.11.26-.13.08-.02.15 0 .22.05.03.02.05.01.08 0l.67-.61q.07-.06 0-.12a.998.998 0 0 0-.5-.17c-.21 0-.42.03-.59.15-.07.04-.12.12-.16.19-.1.16-.19.33-.29.49-.09.13-.19.27-.38.3-.04 0-.09 0-.12-.03-.06-.05-.11-.1-.16-.16-.02-.03-.04-.07-.03-.1.01-.07.03-.14.06-.2.04-.07.04-.14 0-.21-.11-.22-.08-.45.02-.66.04-.08.12-.14.19-.2.1-.09.2-.18.32-.24.21-.1.43-.16.66-.14.23.01.44.07.62.22.16.13.29.27.37.45.04.09.07.18.1.28.01.04.01.07.07.03.44-.35.9-.67 1.41-.91.38-.19.79-.32 1.21-.4h.07c-.17-.24-.35-.46-.62-.6-.13-.07-.26-.07-.4-.1-.02 0-.06.02-.08.04-.09.08-.15.18-.28.2-.06 0-.14.02-.2 0-.08-.02-.13 0-.17.05-.08.1-.2.13-.33.14h-.01c-.14-.06-.23.03-.34.08-.15.06-.31.11-.47.07-.12-.03-.26-.03-.36-.12-.11-.08-.22-.16-.32-.25a.67.67 0 0 1-.24-.51c0-.06.03-.12.05-.18.06-.18.16-.32.31-.43.06-.05.14-.09.21-.12.15-.07.26-.19.39-.29.06-.05.13-.09.2-.12s.14-.05.21-.08c.06-.02.1 0 .16 0 .2.05.33.19.46.33.01.01.03.02.05.03.17.05.34.09.49.16.16.07.31.16.44.26.19.16.37.33.52.53.16.23.28.48.36.75q.04.15.19.12c.07-.01.14-.02.21-.02.15 0 .31-.01.46-.01.31 0 .61.03.9.11l.93.24h.02v-.05c-.08-.16-.15-.32-.23-.48-.07-.14-.17-.27-.33-.32-.09-.03-.18-.06-.27-.06-.16 0-.32.02-.48.02-.3 0-.56-.1-.78-.31-.17-.17-.37-.32-.53-.5-.17-.2-.19-.39-.02-.6.03-.04.07-.08.1-.13.11-.15.27-.23.44-.28.12-.04.25-.08.37-.08.08 0 .18.04.25.09.08.06.14.15.21.22.01.01.04.02.06.01.27-.07.53-.02.78.07.09.03.16.12.22.2.06.09.1.2.15.3.05.09.03.19 0 .27-.04.12-.02.22.04.33.11.21.17.43.2.67.03.22 0 .42-.02.64 0 .02.02.05.04.06.24.1.48.19.71.3.39.18.76.41 1.09.68.28.23.53.5.79.76.09.09.09.1 0 .19q-.11.11-.22 0c-.11-.11-.22-.23-.33-.35-.2-.21-.44-.38-.67-.55-.29-.2-.59-.37-.91-.52-.37-.17-.74-.32-1.14-.42-.43-.11-.85-.21-1.28-.31a2.76 2.76 0 0 0-.4-.06c-.16 0-.32.02-.47.04-.28.04-.55.1-.82.2-.39.14-.76.31-1.1.54-.3.2-.6.41-.89.63-.13.1-.25.22-.36.34-.16.18-.19.42-.23.65-.04.28-.07.56-.11.84 0 .02-.01.04-.02.06-.06.06-.12.13-.18.19-.13.12-.16.29-.24.44 0 .01 0 .04.01.06.05.1.06.2 0 .3-.07.11-.14.22-.24.31a.45.45 0 0 1-.14.1c-.12.05-.21.13-.3.22-.08.08-.18.12-.28.16-.01 0-.04 0-.05-.02-.15-.13-.27-.29-.38-.45-.02-.02-.02-.06-.02-.09-.03-.21-.05-.42-.08-.63V8.1l-.04-.05z"/><path class="st3" d="M15.98 6c0-.06.02-.12.02-.18 0-.15.01-.29.01-.44 0-.21-.07-.4-.18-.58-.07-.12-.05-.18.03-.28.09-.11.21-.13.33-.16.02 0 .04 0 .06.02.02.02.04.05.07.08a.601.601 0 0 0-.25-.44s-.02-.01-.03 0c-.06.06-.08 0-.11-.03-.08-.09-.19-.15-.23-.28v-.09c.11-.21.31-.29.53-.33.03 0 .07.01.09.03.06.05.12.11.19.16.01-.06.03-.12.04-.18.06-.22.22-.26.41-.3.13-.02.26-.03.38-.07.09-.03.17-.11.25-.17.19-.15.37-.12.56.04l.09.09c.09.08.16.17.18.29.01.06.06.11.11.16.11.12.19.25.22.41.04.17 0 .32-.04.48-.03.13-.09.25-.13.37-.04.13-.09.26-.13.39-.03.13-.12.2-.21.28-.2.19-.46.27-.7.36-.23.09-.45.2-.68.31-.03.02-.07.06-.11 0-.04-.05-.12-.08-.07-.17.05-.1.08-.21.14-.3.06-.08.14-.15.22-.22.15-.13.31-.25.47-.38.01 0 .02-.02.03-.04.05-.18.14-.34.12-.53-.01-.09-.04-.18-.06-.27 0-.01-.01-.02-.02-.03-.09-.04-.17-.08-.28-.07-.13 0-.28 0-.41-.04-.08-.02-.14-.11-.21-.16 0 0-.02-.01-.04-.03 0 .05.02.09.01.14 0 .19-.01.39-.02.58 0 .09-.02.17-.09.24-.02.02-.01.09 0 .13.04.24 0 .48-.06.71-.06.25-.21.44-.38.63-.05.05-.08.05-.12 0 0-.01-.02-.02-.04-.03v.31c.01.1-.05.15-.11.2h-.05c-.06-.07-.12-.14-.17-.21-.09-.13-.15-.28-.25-.41-.08-.1-.2-.18-.34-.19-.18-.01-.29-.12-.38-.25-.04-.06-.09-.11-.1-.19 0-.09.02-.16.07-.23.1-.13.24-.16.39-.14.04 0 .08.02.12 0 .07-.02.12 0 .18.03.14.06.29.1.37.23.09.16.2.32.21.51 0 .08.03.16.04.24h.06z"/><path class="st1" d="M13.98 13.74c0-.4.09-.69.27-.96a1 1 0 0 1 .37-.3c.17-.09.35-.11.52-.14.05 0 .1.01.15.02.23.02.46.01.69 0 .11 0 .2-.06.29-.1.01 0 .03-.02.04-.03.1-.19.28-.31.44-.43.05-.04.1 0 .13.03.05.05.1.09.15.15.02.02.03.07.03.1-.05.58-.25 1.11-.55 1.61-.09.15-.15.31-.24.45-.06.1-.13.18-.21.27-.21.24-.45.46-.73.62-.12.07-.25.07-.4.03a.99.99 0 0 1-.45-.27c-.09-.09-.18-.17-.27-.27a1.722 1.722 0 0 1-.23-.78zM8.16 4.62c-.04.07-.07.12-.11.17-.08.09-.08.2-.1.3-.04.18-.06.37-.02.55.02.1.11.19.15.29.11.22.23.43.32.66.08.22.07.45.02.68-.04.19-.16.32-.27.47-.13.18-.34.22-.54.28h-.02c-.13-.04-.23 0-.32.09-.05.05-.12.05-.18.03a.578.578 0 0 0-.14-.05c-.22-.04-.34-.19-.47-.35-.16-.2-.23-.43-.24-.68-.01-.14-.03-.28-.02-.42.01-.42.14-.8.41-1.13.17-.2.36-.39.6-.52.18-.09.37-.16.57-.21.11-.02.21-.06.29-.13.01-.01.03-.02.07-.04v.01zM13.8 4.87c-.02-.26-.19-.44-.33-.62-.16-.2-.36-.36-.59-.48l-.24-.12c-.01 0-.04 0-.05.02-.04.05-.07.04-.11 0-.06-.07-.13-.13-.18-.21-.09-.14-.11-.33.05-.45.09-.08.18-.17.28-.23.15-.09.3-.06.42.05.05.05.1.09.16.13-.06-.08-.09-.17-.19-.22-.08-.04-.16-.11-.23-.16-.02-.02-.04-.06-.08-.03 0 0-.03-.01-.04-.02l-.33-.27c-.12-.1-.16-.24-.19-.38-.02-.06.02-.15.05-.22.04-.1.08-.2.14-.28.08-.1.19-.18.29-.26.04-.03.11-.04.16-.07.16-.09.31-.04.46.01.18.07.34.17.45.33.09.12.15.25.16.4.01.29.11.54.3.75.05.05.07.11.07.18 0 .16.02.32.01.48 0 .29-.06.56-.2.82-.04.07-.09.15-.14.21s-.04.13-.04.2v.39s0 .01-.03.04l-.03.01z"/><path class="st3" d="M16.59 10.02c-.09.02-.18.05-.28.05-.13 0-.24-.03-.36-.08-.29-.11-.48-.34-.69-.55-.01-.01-.02-.05 0-.06.05-.09.1-.19.17-.27.14-.16.22-.13.39-.07.06.02.12.06.18.08.14.05.3-.09.27-.24-.01-.07 0-.14-.03-.2a1.15 1.15 0 0 0-.12-.25c-.11-.19-.17-.39-.21-.6-.02-.11-.05-.22-.08-.32 0-.03.08-.16.12-.15.01 0 .03.01.04.02.1.09.16.2.17.34 0 .12.09.22.15.31.11.16.24.3.36.45.08.1.18.19.26.29.15.18.16.39.1.6-.05.16-.12.31-.19.47-.02.04-.06.07-.05.1 0 .03.05.06.08.09.07.06.11.13.11.23v.05c-.06.05-.04.11-.04.17 0 .24-.02.48-.1.72-.02.06-.07.12-.11.17-.12.14-.24.28-.37.42-.08.08-.2.1-.31.09-.2-.01-.39-.08-.57-.16-.04-.02-.09-.03-.13-.04-.2-.04-.3-.17-.36-.36a.47.47 0 0 1 .01-.33c.04-.1.08-.21.13-.31.04-.09.11-.16.21-.19s.2-.07.3-.08c.11-.01.23 0 .35.01.07 0 .14.03.21.04.06.01.2-.07.23-.13.05-.11.07-.23.18-.31h-.02z"/><path class="st1" d="M11.31 8.16c-.02.1-.03.2-.05.3 0 .02-.01.03-.02.04-.11.12-.22.23-.38.29-.02 0-.05.01-.07 0-.11-.03-.22-.06-.32-.09h-.04c-.07.08-.14.17-.21.26l-.04.04c-.05.05-.11.1-.16.14-.09-.05-.18-.09-.25-.15-.12-.11-.23-.22-.33-.35a1.98 1.98 0 0 1-.23-.4c-.04-.09-.03-.19-.03-.29-.03-.42.04-.82.13-1.22 0-.02 0-.04.02-.05.07-.05.06-.12.06-.2 0-.24 0-.47.06-.7.06-.2.2-.32.4-.36.09-.02.16.04.23.09v.05c-.02.03-.04.05-.06.07-.13.16-.09.34-.05.51.05.17.12.33.18.5 0 .01.03.04.04.03.17-.07.27.05.38.13.1.07.18.16.27.24.06.05.06.13.07.19 0 .06.02.11.07.15.15.11.24.26.29.43.03.1.04.22.05.33l-.01.02z"/><path class="st3" d="M17.77 6.37c-.09.02-.25-.04-.4-.1-.08-.03-.15-.13-.21-.2-.01-.01.02-.07.04-.1.06-.07.12-.13.19-.19.04-.03.11-.03.17-.05.17-.03.35-.05.51-.1.18-.06.36-.16.53-.25.06-.03.11-.07.17-.1.14-.08.18-.22.22-.35.03-.09.07-.18.02-.28a.218.218 0 0 0-.05-.08l-.06-.06c-.07-.11-.06-.18.03-.29.08-.09.17-.11.28-.12.17-.03.31.04.45.11.08.04.13.12.19.18.11.11.19.24.26.37.1.19.11.38.07.59-.04.19-.14.31-.27.43-.13.11-.26.23-.4.32-.09.06-.2.09-.31.12-.21.05-.42.09-.64.1-.24 0-.47.03-.79.05z"/><path class="st1" d="M5.27 8.63c-.08-.03-.18-.06-.26-.1-.16-.06-.26-.2-.35-.33a1.3 1.3 0 0 1-.21-.69c0-.11-.02-.21-.03-.32-.02-.17.02-.33.07-.49.04-.11.1-.23.18-.32.13-.15.28-.28.43-.4.12-.09.27-.14.41-.22.04-.02.08-.05.12-.07.02 0 .04-.01.06-.02 0 .02 0 .04-.01.06s-.03.04-.04.06c-.2.26-.24.55-.16.86.03.13.13.16.22.23.18.14.37.29.53.46.08.09.11.22.16.33v.02c-.05.11-.06.24-.16.33s-.19.19-.29.28c-.14.13-.3.24-.49.29a.88.88 0 0 1-.17.02l-.01.02z"/><path class="st3" d="M18.67 9.71c0 .26-.06.51-.17.75-.03.07-.1.12-.16.17-.08.06-.17.13-.27.16-.13.03-.21.15-.35.15h-.05c-.1-.07-.21-.14-.3-.23-.04-.04-.05-.12-.07-.18v-.04c-.04-.1-.03-.18.03-.26.06-.07.11-.15.21-.19.02 0 .05-.04.05-.06v-.27c-.05-.46-.25-.86-.49-1.24-.2-.32-.42-.62-.63-.93v-.01q-.07-.1.02-.18c.02-.02.06-.02.08-.01.33.14.63.33.91.56.35.29.63.64.9.99.1.14.18.29.23.44.04.12.05.26.07.38h-.01z"/><path class="st1" d="M17.25 13.68c.01-.31.14-.55.41-.66.05-.02.09-.05.09-.12s.03-.17.05-.26c0-.03.03-.07.05-.09.16-.17.34-.3.54-.42.12-.07.18-.06.28.03.05.05.1.1.16.14.1.08.13.19.17.3.02.08-.04.12-.07.16-.03.04-.06.08-.09.11-.06.04-.06.1-.07.16-.04.25-.03.49.02.73.04.19.01.38-.06.55-.05.12-.17.21-.3.27-.02 0-.03.01-.05.02-.09.07-.17.07-.26.01-.15-.09-.28-.19-.38-.34-.02-.03-.07-.04-.11-.06-.14-.07-.26-.17-.31-.32-.03-.09-.06-.18-.07-.23v.02z"/><path class="st3" d="M17.25 6.49c.3.03.6.05.89.08.08 0 .16.02.23.03.34.05.56.27.76.53.08.1.15.22.21.33.11.18.06.27-.05.42-.11.15-.27.17-.44.15h-.12c-.02 0-.03 0-.05-.01-.19-.08-.35-.19-.51-.32-.27-.21-.58-.38-.92-.42-.23-.03-.46-.06-.68-.13a.888.888 0 0 1-.42-.29v-.07c.1-.14.23-.23.4-.24.23-.02.47-.05.7-.07v.01z"/><path class="st1" d="M24.46 5.06c-.03.38-.36.57-.7.44-.12-.05-.2.02-.28.08-.07.05-.14.12-.2.19-.08.09-.18.1-.28.08-.12-.02-.24-.06-.36-.09-.17-.05-.34-.03-.5 0-.1.02-.2.05-.3.08-.03 0-.05.02-.07.04-.05.04-.16.04-.2 0l-.04-.04c-.04-.03-.04-.07 0-.1.05-.04.1-.07.15-.1.03-.02.05-.05.07-.09.07-.13.18-.22.3-.3.04-.03.09-.07.11-.12.05-.15.16-.26.29-.34.09-.07.19-.13.28-.2.17-.12.35-.11.53-.03.08.04.13.03.19-.02.08-.06.17-.09.27-.06.07.02.14 0 .21.02.25.05.38.23.5.43.02.04.02.09.03.13zM21.46 8.05s-.05.01-.08.02c-.06.02-.11.02-.16-.02-.07-.05-.14-.09-.21-.13a.535.535 0 0 1-.26-.39c-.02-.09-.05-.17-.05-.27 0-.14-.07-.26-.17-.36-.08-.09-.15-.18-.17-.3-.02-.1 0-.19.05-.27.1-.14.22-.26.33-.39V5.9c-.03-.04-.06-.07-.09-.11-.14-.16-.14-.35-.1-.55.03-.18.17-.27.28-.38.01-.01.09 0 .11.03.08.07.16.14.21.22.06.09.05.21.01.31-.06.13-.12.26-.19.39-.01.03-.02.04.02.07.08.06.14.13.18.22.1.17.09.36.12.54.01.08.09.16.16.22.05.05.14.06.2.11.1.09.19.19.27.29.03.03.02.09.02.14 0 .08.02.16.02.24 0 .05-.01.1-.04.14-.03.06-.08.1-.12.16-.09.13-.23.12-.36.12l.02-.01zM17.18 14.8c-.01.32-.06.62-.17.92 0 .02-.02.05-.04.07-.14.14-.28.29-.43.43-.09.08-.22.09-.33.07-.08-.01-.17-.05-.25-.08h-.03c-.05.06-.07 0-.1-.02-.06-.05-.1-.11-.16-.16a.405.405 0 0 1-.16-.28c0-.07.01-.15.05-.2.09-.12.19-.24.31-.34.18-.15.35-.32.46-.53.09-.16.23-.27.36-.39.05-.04.12-.07.18 0 .08.09.19.17.25.27.05.07.04.17.06.26v-.02z"/><path class="st1" d="M23.17 7.66c-.08-.02-.18-.05-.28-.07-.23-.03-.39-.16-.54-.32-.05-.05-.06-.13-.09-.2-.01-.02-.03-.05-.05-.06l-.12-.06c-.15-.04-.24-.16-.34-.27-.08-.09-.15-.19-.23-.28-.09-.1-.09-.29 0-.38.03-.03.05-.06.08-.08.04-.02.09-.03.13-.03.12.01.21.07.28.16.06.07.14.14.2.21.09.1.28.13.39.07.08-.05.21-.04.29.02.11.08.16.2.19.33 0 .01.03.03.05.03h.19c.15 0 .22.12.31.2.13.11.08.23.05.35-.05.2-.27.37-.51.37v.01zM22.12 4.43c.01.09.02.18.04.27.04.21-.05.34-.21.44-.09.05-.19.09-.28.13-.05.02-.08.05-.1.12-.01.05-.08.09-.13.12s-.08-.01-.11-.05c-.09-.11-.14-.23-.08-.38.07-.18.11-.37.11-.57 0-.05-.02-.1-.02-.15s0-.08.01-.12V4.2c-.06-.07-.06-.15-.03-.23.05-.16.14-.27.27-.37.09-.07.16-.16.25-.24.12-.12.36-.15.51-.06.07.04.14.1.21.15.08.07.1.23.06.33-.05.11-.09.23-.2.3-.07.05-.13.09-.2.12-.05.03-.07.06-.07.11s0 .06-.01.1l-.02.02zM14.4 2.87l.03-.06.09-.24c.02-.08 0-.15-.06-.21-.05-.04-.08-.09-.13-.13a.407.407 0 0 1-.13-.26c0-.06.04-.14.08-.19.1-.1.22-.19.33-.28.05-.04.11-.09.16-.12.06-.04.11-.03.16.02.12.1.25.2.33.34.06.11.07.23.09.36.02.19-.05.37-.09.55-.01.07-.08.12-.12.19 0 .01-.02.03-.02.04.07.09-.03.14-.07.19-.08.09-.19.17-.29.25-.01.01-.06 0-.07 0-.08-.08-.16-.15-.23-.24-.04-.05-.04-.12-.06-.19v-.02z"/><path class="st3" d="M15.64 7.51s-.01.06-.02.08c-.09.12-.17.23-.26.34-.03.03-.09.04-.14.04-.16.03-.32.07-.48.07-.14 0-.29-.05-.43-.08h-.01l-.41-.38s-.01-.01 0-.02c.05-.07-.02-.15 0-.22.02-.13.13-.18.2-.27.09-.1.18-.03.25.02.11.06.23.13.33.21.14.11.31.13.46.15.11.01.23-.04.34-.08.04-.01.07-.01.09.02.03.04.07.08.1.11l-.02.01zM15.11 7.04c-.07-.02-.19-.07-.32-.11-.21-.05-.31-.21-.43-.37a1.61 1.61 0 0 1-.17-.28c-.02-.03 0-.09.02-.13.09-.16.24-.21.41-.23.07 0 .14.04.2.05.16.04.28.14.4.26l.42.45c.04.04.04.08 0 .12-.13.12-.27.23-.53.22v.02zM14.81 10.37c-.1-.03-.21-.05-.31-.08-.04 0-.08-.02-.12-.03a.391.391 0 0 1-.3-.24c-.03-.06-.07-.12-.1-.19-.04-.08-.02-.16.02-.23.07-.12.17-.22.3-.29.07-.04.13 0 .17.04.12.09.22.2.34.28s.26.12.41.05c.07-.03.21.03.22.11v.02c-.07.12-.14.24-.23.35-.08.11-.21.11-.32.16l-.09.03.01.02zM14.95 9.04c-.14 0-.26-.01-.35-.11l-.3-.3c-.06-.06-.03-.12.02-.17.04-.05.09-.09.14-.13.02-.01.06-.02.08-.01.24.1.44.03.66-.08.17-.09.28-.24.41-.37.02-.02.03-.08.09-.03.1.08.11.1.07.16-.01.02-.02.05-.02.06.03.15 0 .29-.05.43-.03.14-.14.2-.23.28-.08.07-.17.13-.25.2-.09.08-.19.08-.28.08l.01-.01zM13.8 8.86c-.11-.02-.23-.03-.34-.07a.623.623 0 0 1-.21-.15c-.08-.07-.14-.15-.21-.23-.11-.14-.1-.29-.04-.44.01-.03.04-.06.06-.08.1-.1.18-.23.33-.28.03 0 .07 0 .1.02.05.03.09.07.12.12s.06.12.05.17c-.01.07.01.13.03.19.07.21.21.37.38.51.05.04.04.07 0 .11-.08.09-.17.1-.28.11l.01.02zM15.67 4.54c-.03.11-.05.23-.09.33-.02.05-.08.09-.12.13 0 0-.04 0-.05-.01-.05-.06-.09-.12-.14-.18a.178.178 0 0 0-.08-.07c-.16-.03-.26-.15-.36-.26-.09-.09-.08-.24.01-.33.08-.09.16-.17.25-.26.04-.03.09-.06.13-.08.01 0 .04 0 .06.01.07.06.15.12.21.19.06.08.09.18.12.27.03.08.05.16.07.25l-.01.01z"/><path class="st1" d="M13.7 5.52c-.06-.07-.14-.14-.19-.21-.1-.13-.24-.2-.38-.27-.08-.04-.15-.12-.22-.18v-.02c.06-.05 0-.08-.03-.11s-.06-.06-.07-.09c-.01-.03-.02-.08 0-.1.07-.09.14-.19.27-.22h.08c.09.07.17.14.25.2.15.12.23.29.26.47.03.15.03.31.05.47v.04l-.02.02zM19.61 7.24s-.01-.03-.02-.04c-.11-.16-.1-.33.05-.46.04-.04.09-.07.12-.11.05-.07.09-.05.13 0 .04.05.08.09.11.14.05.1.12.19.21.26.17.13.15.3 0 .42l-.04.04c-.11.1-.22.11-.34.01-.07-.06-.14-.13-.2-.2-.02-.02-.02-.04-.04-.07h.02v.01z"/><path class="st3" d="M3.99 15.76v-.06s.07-.07.2-.13c.14-.06.22-.09.26-.09.07 0 .14.01.22.03.07.02.13.03.16.03-.09-.45-.17-.88-.24-1.27-.07-.39-.1-.85-.1-1.35 0-.45.07-.81.2-1.07s.34-.39.62-.39c.33 0 .85.06 1.56.17s1.35.27 1.91.46.84.42.84.68c0 .22-.11.44-.34.67-.23.23-.51.42-.84.58.12-.19.21-.37.29-.52.07-.16.11-.31.11-.44s-.13-.23-.4-.36c-.03-.02-.07-.03-.11-.05-.28-.12-.47-.12-.73-.23-.04-.01-.09-.02-.13-.04-.76-.2-1.38-.3-1.84-.3-.35 0-.58.05-.71.16s-.19.34-.19.72.03.71.08 1.02c.06.31.13.52.23.64.06-.13.12-.23.19-.29s.18-.09.34-.09a.805.805 0 0 0-.16-.16c-.05-.04-.09-.06-.12-.06s-.07.01-.1.04-.05.06-.05.09h-.06a.829.829 0 0 1-.06-.34c0-.12.02-.25.07-.38s.09-.19.15-.19c.07 0 .19.13.37.39s.3.47.38.64c.06.02.11.03.13.03-.07-.27-.12-.46-.15-.56s-.04-.17-.04-.19c0-.11.04-.23.11-.36s.13-.2.17-.2c.03 0 .06.03.09.08.03.06.04.12.04.2 0 .18 0 .35.03.52.02.17.05.35.1.54l.5.03c.05-.2.09-.37.12-.5s.09-.29.16-.47a.353.353 0 0 1 .11-.25c.08-.16.27-.29.4-.42.06 0 .19 0 .19.06.06.32-.06.58-.22.89l-.14.25c-.12.22-.19.37-.22.44.75 0 1.2.01 1.36.03s.24.08.24.18-.07.17-.22.27c-.15.09-.27.14-.37.14-.07 0-.19-.02-.37-.06-.18-.04-.48-.06-.91-.06.27.23.5.49.69.78.12.18.2.33.24.45 0 .02.02.05.02.07-.03.23.1.49-.03.75 0-.32-.19-.52-.32-.75-.02-.03-.04-.05-.06-.08l-.22-.25c-.26-.28-.49-.49-.7-.63 0 .06.06.23.17.5.11.28.17.43.17.46 0 .06-.07.12-.2.19-.14.07-.24.1-.3.1l-.03-.03c.06-.06.1-.14.1-.22s-.05-.23-.14-.44c-.09-.21-.27-.53-.52-.96h-.14c-.17 0-.31 0-.4.03-.1.02-.19.06-.26.12.13.4.28.72.44.97s.31.47.46.69c0 .07-.06.12-.19.16-.13.04-.24.06-.35.06-.02 0-.06-.05-.12-.16a.741.741 0 0 0-.22-.24c-.16-.16-.35-.3-.57-.42-.22-.12-.41-.2-.58-.23l-.05-.02zm-1.72-2.34c0-.12.02-.24.06-.36.04-.12.08-.18.13-.18s.1.01.16.04l.18.09c0-.18 0-.32-.02-.41-.01-.09-.02-.19-.04-.28 0-.11.04-.24.12-.39.02-.03.03-.06.05-.09.09-.17.22-.42.42-.29.06.06 0 .26-.02.47 0 .03 0 .06-.01.09-.01.09-.03.21-.05.35-.05.37-.08.6-.08.7.33.27.58.53.76.76.17.23.28.47.31.71-.06-.09-.21-.22-.45-.41a2.33 2.33 0 0 0-.58-.37c0 .06.03.21.09.47.06.25.1.46.14.63.52 0 .78.07.78.22 0 .09-.06.16-.18.22s-.26.11-.42.15c.05.11.11.23.16.36.06.13.08.25.08.36 0 .09-.05.19-.16.29-.11.1-.22.19-.33.24l-.03-.03s.04-.08.06-.17c.02-.09.03-.16.03-.21 0-.07-.03-.2-.08-.39-.05-.18-.1-.32-.15-.4l-.66.03-.03-.03c.09-.13.19-.24.3-.33.12-.09.22-.16.3-.2l-.41-.28c.14.05.26.09.34.1-.02-.1-.06-.31-.11-.64-.05-.32-.08-.5-.08-.52-.05-.05-.11-.09-.2-.13s-.14-.06-.18-.06c-.02 0-.05.02-.08.06s-.04.09-.04.13h-.06s-.03-.1-.03-.24v-.07l.01.01zm3.16 1.66.5.22c.11.04.2.1.26.16s.09.11.09.15-.03.09-.1.13c-.07.04-.15.06-.24.06-.12 0-.27-.04-.44-.13v-.06l.08-.06c.04-.03.08-.06.11-.09 0-.02-.02-.06-.07-.13s-.11-.15-.18-.25h-.01z"/></svg>