<svg id="_图层_1" xmlns="http://www.w3.org/2000/svg" version="1.1" viewBox="0 0 26 19"><defs><style>.st1{fill:#005529}.st3{fill:#881c21}</style></defs><rect x="3.62" y="-3.37" width="18.75" height="25.75" rx="1.88" ry="1.88" transform="rotate(-90 12.995 9.505)" style="fill:#f5f6f7"/><path d="M.25 2C.25 1.04 1.04.25 2 .25h22c.96 0 1.75.79 1.75 1.75v15c0 .96-.79 1.75-1.75 1.75H2c-.96 0-1.75-.79-1.75-1.75V2M0 2v15c0 1.1.9 2 2 2h22c1.1 0 2-.9 2-2V2c0-1.1-.9-2-2-2H2C.9 0 0 .9 0 2z" style="fill:#93989c"/><path class="st1" d="M11.86 18.14c-.06-.02-.12-.03-.17-.07-.13-.09-.17-.23-.22-.37-.06-.19-.06-.39-.06-.59 0-.12.05-.2.16-.25.06-.03.12-.07.18-.09.13-.06.18-.17.22-.3.02-.09.06-.16.14-.21.03-.02.04-.06.07-.1.03.06.05.1.07.15.02.04.03.08.05.11.11.14.17.31.2.48.05.26.01.52-.03.78-.02.12-.07.22-.15.31a.5.5 0 0 1-.28.14h-.18v.01z"/><path class="st3" d="M15.7 10.91c.04-.12.08-.24.13-.35.09-.22.19-.43.35-.6.09-.1.11-.2.12-.32.03-.16.03-.32.03-.49 0-.18.05-.35.12-.52.07-.17.18-.32.32-.44.06-.06.14-.1.21-.15l.01.01c0 .01-.02.03-.03.04-.12.17-.17.36-.19.56-.02.23-.02.45-.03.68v.07c.06-.04.11-.08.16-.1s.1-.04.16-.05c.09-.01.17-.01.27-.01-.07-.48.11-.82.57-1 0 .01-.02.02-.03.03-.16.13-.2.31-.2.5 0 .14.02.28.03.42 0 .04.03.06.07.08.06.02.12.04.18.07.07.03.09.07.06.14a.25.25 0 0 1-.26.17c-.17 0-.35.01-.51.06-.15.04-.28.11-.4.19-.19.13-.35.31-.51.48-.13.14-.2.32-.25.51-.05.22-.1.45-.14.68-.02.14-.03.28-.04.42 0 .22 0 .43-.01.65 0 .13.03.25.07.37.07.2.17.39.28.56.09.13.2.26.34.34.09.05.17.12.27.16.14.06.28.08.44.05.17-.03.32-.11.45-.21.08-.06.14-.14.19-.22.15-.21.29-.43.36-.68.05-.19.06-.38.04-.57v-.09c-.01-.21-.03-.43-.04-.64-.02-.32-.09-.62-.15-.93-.02-.14-.02-.3-.02-.44 0-.34.04-.68.11-1.02.04-.21.1-.41.15-.62.04-.16.08-.33.14-.49.1-.27.26-.51.5-.68.09-.07.19-.12.28-.18s.18-.13.28-.19c.02-.01.03-.02.06-.03 0 0-.02.02-.02.03-.16.16-.32.32-.45.5-.17.24-.3.49-.32.79 0 .14-.04.28-.05.42-.01.14-.03.28-.03.42v.37c.01.31.07.6.18.89.12.34.23.68.29 1.03.03.2.05.4.07.61.02.26 0 .51-.03.77-.03.29-.08.56-.18.83-.08.21-.17.42-.3.6-.15.21-.35.36-.57.5-.15.09-.31.12-.48.14-.28.04-.55-.03-.81-.12-.15-.05-.29-.11-.41-.22-.11-.1-.22-.2-.33-.31-.23-.25-.36-.55-.47-.87-.06-.17-.09-.35-.13-.53 0-.01 0-.02-.02-.05-.08.11-.2.17-.32.21-.13.05-.27.08-.41.11-.08.02-.17.02-.25.02a.837.837 0 0 1-.61-.2c-.09-.08-.17-.18-.23-.28-.16-.25-.25-.53-.33-.81-.04-.16-.05-.33-.07-.5-.01-.15-.02-.3 0-.45.03-.23.08-.45.13-.68.02-.11.06-.22.1-.34-.04 0-.08-.02-.11-.03a1.95 1.95 0 0 1-.65-.27c-.13-.09-.24-.2-.33-.32-.14-.18-.25-.38-.28-.61-.02-.16-.02-.33-.02-.5 0-.22.08-.43.19-.63.07-.12.15-.24.25-.35.23-.27.51-.5.8-.69.14-.09.29-.18.46-.23.04-.01.08-.01.13-.02-.11-.09-.1-.22-.14-.33-.05-.12-.03-.24 0-.37.03-.15.1-.27.17-.39.05-.09.13-.15.23-.17.06-.02.12-.05.18-.06.08 0 .16 0 .23.01.12.02.24.06.37.09.11.02.21.05.27.16 0 .01.02.02.03.03.01-.05.03-.09.04-.13.02-.07.04-.13.11-.16.04-.02.08-.06.12-.09.05-.04.11-.07.18-.04.09.04.18.02.27.03.04 0 .08.01.12.02s.07.04.1.08c.07.1.07.21.1.32.02.07-.07.17-.15.16-.08 0-.15-.02-.23-.03-.04 0-.09-.02-.13 0-.08.02-.12.11-.1.19.02.06.03.13.05.19.05.13 0 .25-.03.37-.04.1-.13.14-.21.19-.04.03-.1.04-.15.06-.09.03-.16 0-.23-.04-.07-.03-.15-.07-.22-.1-.09-.04-.13-.12-.19-.19-.09-.1-.15-.21-.22-.33-.03-.05-.1-.08-.15-.12-.16.13-.17.29-.13.46.01.05.02.11.04.16.01.02.04.05.07.05.18.03.36.08.52.17.05.03.1.09.14.14.06.07 0 .13-.03.19-.04.05-.09.09-.17.07a.63.63 0 0 0-.5.08c-.26.17-.52.35-.75.56-.15.13-.3.26-.44.4-.06.06-.1.14-.12.23-.06.2-.07.41-.06.61.01.17.08.32.17.46.12.21.3.36.5.48.04.03.09.05.14.06.01 0 .04 0 .05-.01.07-.09.18-.11.28-.15.03-.01.08.02.12.03.05.02.11.05.16.08.03.02.06.05.08.08.04.05.08.1.11.16.02.04.02.08-.01.11-.03.02-.07.03-.11.03-.02 0-.04-.01-.06-.02-.14-.04-.25.04-.36.1-.01 0-.02.03-.03.04-.1.16-.15.33-.18.51-.02.14-.04.28-.04.42 0 .27.03.53.14.78.1.23.26.43.45.6.03.03.08.04.13.05.18.03.36.04.53-.03.04-.02.08-.06.12-.09.2-.15.33-.35.39-.6.02-.1.03-.21.04-.32.02-.17.03-.34.05-.51 0-.04 0-.06-.04-.07-.14-.03-.27-.1-.38-.18-.16-.12-.29-.26-.38-.43a9.16 9.16 0 0 1-.31-.63c-.07-.16-.12-.33-.12-.51 0-.07-.02-.14-.02-.22 0-.22.06-.43.14-.63.02-.04.04-.08.05-.12.03-.11.13-.16.21-.23.15-.13.25-.1.4.03.05.05.08.13.11.2 0 .02-.02.06-.03.09-.04.08-.08.15-.16.2-.02.01-.04.05-.05.07-.1.17-.12.37-.12.56 0 .05 0 .1.02.14.07.27.14.55.22.82.07.22.19.42.34.59.05.05.11.09.16.14h-.03z"/><path class="st1" d="M9.12 12.17c-.06-.04-.12-.08-.17-.12-.03-.03-.06-.06-.08-.1-.06-.08-.14-.14-.15-.25-.02-.16-.08-.31-.06-.47.02-.18.03-.36.07-.54.03-.13.1-.26.18-.36.16-.19.38-.31.63-.37.18-.04.36-.05.54-.05.22 0 .43.03.63.12.15.07.28.16.38.29.14.19.22.41.26.64.01.05.03.1.04.16.02.09.05.18.07.26.08-.01.17-.03.26-.04.15-.02.29 0 .42.08.08.05.16.1.23.16.02.01.04.03.05.06.07.12.09.25.01.37-.03.05-.06.11-.1.15-.1.1-.22.11-.35.07-.09-.03-.18-.06-.23-.15a.132.132 0 0 0-.11-.03c-.13.01-.24.05-.36.09-.2.08-.4.14-.6.21-.5.17-1.01.32-1.53.45-.1.02-.19.06-.29.07-.13.02-.26.04-.39.05l-.54.06c-.09 0-.18.02-.27.02-.45.04-.9.04-1.34.03-.2 0-.4-.03-.6-.06-.32-.04-.62-.13-.92-.22-.25-.07-.5-.13-.75-.21-.3-.1-.6-.23-.86-.41-.16-.11-.31-.23-.45-.36-.23-.22-.4-.48-.52-.77-.05-.11-.09-.22-.13-.33v-.03c.04.08.08.16.13.24.1.17.23.3.37.42.32.28.68.48 1.06.66.21.1.43.19.66.27.28.1.56.18.84.27.08.02.16.03.24.03.35 0 .7.02 1.05.02.2 0 .4-.02.6-.04s.4-.04.59-.07c.21-.03.42-.07.62-.11l.84-.18.03.02zm1.73-.51c-.02-.05-.05-.1-.07-.16-.03-.1-.07-.21-.13-.3a.806.806 0 0 0-.3-.25c-.11-.06-.24-.06-.36-.08-.05 0-.1-.02-.15-.03-.1-.02-.19.04-.28.07-.03 0-.05.04-.06.06-.02.06-.04.12-.05.18-.03.14 0 .29.07.41.06.09.13.19.23.25.04.02.08.05.12.08.09.07.18.11.29.04.02-.01.04-.02.06-.02.21-.08.43-.16.64-.25h-.01zM21.48 17.21c-.02-.16-.04-.32-.05-.48-.01-.23-.03-.46-.02-.69 0-.18.04-.36.05-.55v-.34c0-.15-.01-.31-.01-.46.01-.42.05-.84.21-1.24l.09-.21c.01-.03.01-.07.02-.1.02-.11.03-.23.06-.34.01-.04.06-.08.08-.12 0-.01.01-.04 0-.05-.09-.17-.14-.35-.16-.54-.01-.15 0-.31 0-.47.01-.16.04-.33.08-.48.06-.21.13-.41.21-.62.03-.09.09-.16.14-.24.02-.03.05-.04.08-.06.07-.04.14-.07.21-.11.06-.03.12 0 .17.01.06.02.12.05.17.09.09.05.15.18.11.28-.01.04-.03.08-.05.12-.02.03-.07.06-.1.05-.05 0-.09 0-.13.03-.03.02-.07.04-.1.06-.04.03-.07.06-.1.1-.12.18-.18.39-.21.6-.02.17-.04.34-.04.5 0 .21.04.42.15.6 0 .02.03.03.04.04.08.04.17.07.25.11.03.01.05.03.07.05.2.16.34.36.44.6.02.04.03.08.05.11.1.2.05.39 0 .59 0 .02-.02.04-.04.05-.06.04-.12.08-.18.11-.02.01-.03.03-.04.04-.15.2-.3.4-.46.59-.24.28-.45.56-.6.89-.14.31-.25.64-.31.97-.03.16-.05.32-.07.48h-.01v.03zM22.88 2.74c-.06.01-.12.03-.18.04-.14.02-.26.08-.38.15a1.5 1.5 0 0 0-.52.57c-.1.17-.17.36-.25.54-.1.21-.17.42-.21.65-.03.16-.05.32-.07.47-.04.31-.04.62-.03.94 0 .18.02.36.04.53.05.41.19.8.32 1.18.13.4.31.78.55 1.13.04.06.08.11.13.17.02.03.05.04.09.05.05 0 .1.03.15.05.04.02.08.05.12.07.06.04.06.11.08.17.02.08.03.17.05.25.04.16-.12.31-.27.29-.22-.03-.41-.14-.61-.24a.356.356 0 0 1-.14-.16c-.03-.07-.07-.14-.09-.21-.01-.05 0-.11 0-.17v-.05c-.23-.3-.41-.63-.54-.98-.11-.29-.21-.58-.29-.88-.05-.16-.06-.33-.09-.5a6.61 6.61 0 0 1-.06-.64V5.5c0-.15.02-.3.04-.45.04-.31.11-.6.23-.89.07-.18.15-.36.24-.54.08-.17.19-.33.32-.48.21-.23.47-.36.77-.42.18-.03.35-.04.53 0h.07v.02z"/><path class="st3" d="M17.88 3.98c-.07.07-.15.11-.18.2-.09.23-.13.48-.16.72-.06.46.02.91.19 1.34.04.11.09.22.16.31.08.12.09.24.1.37.03.23.07.45.2.65.04.06.09.11.14.16 0 0 .02.02.03.02v.02c-.1-.04-.2-.08-.3-.13a.932.932 0 0 1-.41-.4c0-.02-.03-.03-.04-.05-.26-.25-.47-.54-.61-.87-.11-.26-.2-.53-.23-.81-.01-.13 0-.26.01-.39.02-.24.08-.47.16-.69.08-.22.19-.42.36-.59.16-.16.35-.27.54-.37.07-.04.16-.09.24-.03.1.07.18.14.21.28.05.26.1.52.18.77.09.3.19.6.3.89.08.19.19.37.28.56.11.21.2.43.23.67.03.24 0 .47-.11.68 0 .01-.01.02-.03.04 0-.08-.01-.15-.02-.23-.03-.35-.13-.67-.37-.94-.14-.16-.24-.35-.31-.55-.11-.29-.23-.59-.33-.88-.06-.18-.09-.37-.14-.56-.02-.07-.04-.13-.07-.2l-.02.01z"/><path class="st1" d="M12.92 12.39s-.02.07-.04.1c-.1.27-.16.56-.2.85-.05.35-.05.7-.04 1.05 0 .24.05.48.07.71.01.14.09.25.17.36.11.15.23.3.36.43.18.2.42.28.67.33.05 0 .1.02.16.01.12-.01.22.04.32.09.06.03.1.06.12.13.04.12.08.23.12.35 0 .03 0 .07-.02.1-.02.05-.04.1-.08.13-.08.05-.17.07-.27.06-.18-.03-.35-.03-.52.05a.38.38 0 0 1-.21.02c-.21-.03-.36-.16-.53-.27-.13-.09-.25-.2-.33-.33-.21-.3-.33-.64-.4-.99-.05-.24-.07-.49-.05-.73.02-.37.05-.74.14-1.11.1-.42.26-.81.46-1.2.03-.05.06-.1.08-.14h.02zM21.82 8.26c-.04-.15-.08-.3-.11-.45-.03-.18-.04-.36-.06-.55-.02-.21.02-.41.11-.61.06-.14.17-.25.28-.35.06-.05.14-.06.21-.09.18-.07.37-.1.56-.13.18-.03.37-.02.54-.1.12-.05.24-.12.35-.2.13-.09.22-.21.31-.34.1-.15.16-.31.18-.49.03-.18.06-.35.08-.53.02-.17.02-.34.03-.51 0-.1 0-.21.01-.31.01-.31.03-.63.03-.94s-.03-.66-.15-.98v-.05c.04.06.08.11.11.17.16.28.27.58.33.9.04.2.06.41.08.62.02.23.03.46.02.69 0 .22-.03.44-.05.67-.02.25-.08.49-.18.71-.07.18-.15.36-.26.52-.08.13-.2.23-.34.31-.17.1-.34.16-.53.2-.15.03-.3.05-.45.06-.25.03-.51.05-.73.17-.06.03-.11.11-.15.17-.09.16-.13.33-.15.51-.03.21-.04.43-.06.65 0 .08-.01.17-.02.25h-.01l.02.03zM20.43 11.49s.08 0 .12-.02c.07-.02.14-.01.22 0h.08c.05 0 .11-.01.15.02.04.03.08.05.12.07a.2.2 0 0 1 .1.12c.03.1.08.21.11.31.04.13-.01.25-.07.37-.03.05-.05.11-.09.14-.04.03-.11.06-.16.06-.07 0-.15-.04-.22-.08-.03-.01-.04-.06-.05-.09-.01-.07-.01-.14-.03-.2 0-.03-.02-.06-.04-.08-.06-.07-.12-.14-.18-.2-.03-.03-.08-.05-.14-.08-.15.86-.3 1.7-.41 2.54v-.08c-.02.09-.03.17-.04.25v-.46c0-.12.02-.24.02-.36v-.19c0-.17-.01-.35 0-.52 0-.16.01-.32.02-.48 0-.08 0-.17.01-.25.02-.2.03-.4.05-.6.03-.21.06-.42.1-.63.01-.06.04-.13.07-.19.05-.1.07-.22.09-.33.04-.2.11-.4.22-.58.08-.12.18-.24.34-.26.11-.02.22-.06.33-.08.15-.02.28.03.4.11.14.1.2.25.28.4a.975.975 0 0 1-.14-.06c-.1-.03-.19 0-.27.06-.11.07-.22.16-.32.25-.07.06-.13.13-.19.19-.13.11-.21.26-.27.41-.07.16-.12.33-.18.5l-.03.02zM10.75 16.01c-.06-.02-.12-.04-.17-.05-.1-.03-.21-.05-.31-.08a.726.726 0 0 1-.22-.09c-.04-.02-.06-.08-.07-.13-.02-.11-.05-.22-.05-.32 0-.17.01-.34.11-.5.11-.17.26-.28.47-.29.08 0 .16.04.24.07.12.05.24.05.37 0 .14-.07.3-.08.46-.06.07 0 .15.03.21-.04.01-.02.07-.02.09 0s.03.07.02.09c-.03.1-.07.19-.1.29l-.12.4a.91.91 0 0 1-.59.63c-.1.04-.2.08-.31.09l-.03-.01z"/><path class="st1" d="M21.72 5.13c.06-.15.1-.28.19-.39.15-.2.36-.31.6-.37.13-.03.26-.06.4-.07.06 0 .12.02.18.03.13.01.24.07.34.16s.22.12.34.16c.07.02.11.06.14.13.03.09.07.18.11.26.05.12.01.23-.02.34-.04.13-.12.19-.24.24-.1.04-.19.04-.29.02-.3-.06-.54-.23-.77-.41a.736.736 0 0 0-.45-.17c-.11 0-.21.02-.32.04-.06 0-.13.02-.2.04l-.01-.01zM20.57 2.54s-.09.06-.14.09c-.22.18-.29.43-.33.69-.04.23-.07.46-.09.69-.02.24-.03.47-.02.71.03.48.12.95.29 1.41.06.17.13.34.24.48 0 0 0 .01-.01.01h-.02c.03.06.06.12.08.17h-.02l-.19-.28c-.12-.2-.24-.4-.34-.61-.15-.29-.24-.61-.3-.93-.06-.36-.04-.72-.04-1.08 0-.28.03-.56.11-.84.05-.19.11-.38.23-.54.1-.13.24-.23.42-.26.21-.04.39.02.58.09.08.03.16.07.23.11.06.03.08.09.05.15-.03.05-.08.07-.14.04-.07-.03-.15-.06-.23-.09-.04-.01-.07 0-.06.04 0 .05.02.1.04.15 0 .01.01.02.01.04 0 .08.06.13.1.19.06.1.13.21.17.33.03.08.02.16-.1.18-.01 0-.02.01-.03.02-.1.11-.17.07-.27 0a.55.55 0 0 1-.09-.07.247.247 0 0 1-.1-.16c-.05-.21-.02-.41-.03-.62v-.11l-.02-.02.02.02zM6.74 13.39c.03.18.03.35-.05.53-.09.19-.24.31-.41.42-.07.05-.15.1-.23.14-.14.07-.28.14-.43.19a.84.84 0 0 1-.52 0c-.06-.02-.11-.05-.16-.08-.09-.06-.11-.15-.14-.24-.04-.09-.02-.19.02-.28.03-.06.08-.11.12-.16.04-.05.09-.11.14-.16.04-.05.09-.08.15-.09.05 0 .09-.03.13-.04.17-.06.33 0 .49.06.22.1.41.05.6-.06.1-.06.19-.13.29-.2v-.03zM7.6 12.2c-.08.04-.16.09-.24.12a.72.72 0 0 1-.48.02c-.22-.07-.44-.15-.65-.23-.02 0-.04-.03-.05-.05l-.15-.24a.236.236 0 0 1-.03-.2c.03-.1.06-.2.08-.3.02-.1.1-.16.17-.21.03-.02.06-.05.09-.06.03-.01.07-.01.11-.02.03 0 .07 0 .1-.02.1-.04.19-.04.27.04.06.06.16.09.17.2v.07c.06.27.17.53.32.76.04.07.1.12.19.1h.1v.03-.01zM23.43 14.25c.09.19.27.21.44.23.17.03.35.03.52.09.07.02.12.05.14.12.01.04.03.08.06.12.05.09.07.18.04.28v.08c.02.1-.06.16-.1.24-.06.12-.17.13-.29.16a.72.72 0 0 1-.48-.06.63.63 0 0 1-.26-.2c-.1-.14-.18-.29-.22-.45a.611.611 0 0 1 .09-.54c.01-.02.03-.04.05-.07h.01zM21.13 9.46c-.09-.07-.19-.14-.28-.22-.1-.07-.19-.16-.29-.22-.09-.05-.19-.07-.29-.1-.17-.06-.35-.09-.53-.09-.1 0-.2 0-.3-.02a.144.144 0 0 1-.11-.09c-.03-.09-.07-.17-.09-.26 0-.03.01-.07.02-.11.02-.11.08-.17.2-.19.16-.03.32-.08.49-.09.13 0 .26.01.37.08.1.06.2.13.31.19.12.07.18.18.24.29.08.15.14.32.15.5 0 .04.04.08.06.13.03.06.05.12.08.18l-.01.01-.02.01z"/><path class="st3" d="M16.06 7.49s0 .06.02.09c.05.12-.03.21-.08.31 0 0-.02.01-.03.02-.13.05-.25.07-.39.02-.08-.03-.1-.12-.04-.18l.06-.06c.09-.06.11-.15.09-.26-.01-.05-.03-.11-.04-.16-.03-.11 0-.21.03-.31 0-.03.03-.05.05-.07.06-.06.12-.12.19-.18.03-.03.06-.05.1-.06.18-.09.35-.03.52.05.1.04.2.08.29.13.03.02.06.05.09.08s.04.07.07.11c.06.1.01.18-.02.27-.07.2-.31.28-.47.24-.11-.03-.22-.07-.33-.11-.09-.03-.11-.02-.11.07z"/><path class="st1" d="M14.86 14.54v.14c.03.15-.02.3-.08.43s-.16.24-.29.33c-.17.11-.35.13-.53.17-.17.04-.32-.03-.48-.07-.01 0-.02 0-.03-.01-.08-.11-.18-.21-.22-.35-.02-.1.03-.19.06-.27 0-.01.03-.02.05-.03.11-.05.22-.11.35-.11.07 0 .15 0 .22.03.09.03.18.03.27 0 .15-.03.3-.06.44-.11.08-.03.14-.08.21-.13 0 0 .01 0 .03-.02zM22.45 3.93v-.04c.02-.17.1-.32.2-.45.1-.12.23-.2.38-.25.16-.06.32-.13.49-.13.04 0 .08 0 .11.01.05.01.1.03.15.04.06.02.1.06.14.11.07.1.15.19.18.31.03.1-.01.19-.06.26-.08.12-.2.19-.34.19-.1 0-.2-.03-.3-.05-.08-.02-.15-.05-.22-.08a.665.665 0 0 0-.37 0c-.12.02-.24.06-.37.09l.01-.01zM24.08 2.38c0 .06-.03.11-.05.17-.06.14-.18.17-.31.2-.04.01-.09 0-.13-.01l-.42-.15c-.05-.02-.1-.02-.15-.03-.04 0-.05-.01-.05-.05a.608.608 0 0 1 .54-.56c.07 0 .15-.02.22-.05.07-.02.11 0 .16.04.03.02.07.04.09.07.03.04.06.08.07.12.02.08.02.16.03.23v.02zM23.11 14.65c0 .06-.01.11 0 .15l.06.47c.02.12.05.23.11.34.02.05.03.1.05.15v.03c-.01.09-.11.19-.19.22-.11.04-.21 0-.31-.04-.12-.05-.17-.13-.21-.26-.07-.25-.01-.49.07-.73.03-.09.09-.17.16-.23.07-.05.17-.07.26-.1zM11.06 13.93s0 .02-.01.04c-.09-.06-.12-.15-.14-.25-.01-.07-.01-.14-.01-.22 0-.03.01-.06.03-.08.05-.06.11-.11.17-.16.07-.06.16-.03.24-.02.05 0 .1.02.14.04.08.04.13 0 .18-.05.06-.05.08-.05.14.01.01.02.04.03.04.05.01.03.03.06.02.09-.06.18-.15.35-.29.48-.05.05-.11.09-.19.08-.11-.01-.21 0-.33-.01h.01zM14.06 13.83s-.01.04-.02.06c-.03.06-.07.12-.1.19-.03.06-.07.09-.14.1-.04 0-.08.02-.13.03-.16.04-.3-.02-.44-.08-.06-.03-.09-.11-.14-.16-.01-.01-.02-.03-.03-.04-.06-.08-.04-.15.04-.2.03-.02.05-.03.08-.05.07-.03.14-.08.21-.09.13-.01.23-.08.34-.12.04-.01.08-.01.11 0 .09.05.17.11.18.23 0 .04.02.08.03.12l.01.01z"/><path class="st3" d="M17.86 10.18c0 .12.01.24 0 .36-.01.13-.04.26-.08.38-.05.14-.11.29-.22.4-.08.08-.16.14-.28.14a.42.42 0 0 1-.24-.07c-.03-.02-.04-.04-.01-.08.18-.22.35-.44.52-.66.1-.13.18-.28.27-.42 0-.01.02-.03.02-.05h.02z"/><path class="st1" d="M20.18 4.12v-.11c0-.08.15-.17.21-.11.02.02.04.04.05.07.02.04.05.08.07.12l.03.06c.03.11.06.22.1.33.02.06 0 .1-.05.14a.12.12 0 0 1-.14 0c-.06-.06-.1-.12-.15-.18a.36.36 0 0 1-.07-.1c-.02-.03-.03-.07-.04-.1v-.1l-.01-.02z"/><path class="st3" d="M2.14 5.23v-.22c.05-.18.13-.24.25-.19.02.04.05.08.09.1.04.03.1.06.16.09.07.03.14.06.22.08.08.03.19.06.33.12-.02-.07-.06-.17-.12-.31-.06-.13-.11-.24-.15-.31-.04-.08-.07-.16-.09-.26s-.01-.19.02-.29v-.16s0-.09.02-.14c.01-.05.03-.1.07-.14.03-.04.08-.08.13-.11.04.04.07.08.09.13.03.05.05.1.06.14.02.04.03.11.05.19s.04.16.05.21c.02.05.05.14.09.24.05.11.09.2.12.28l.12.31c.05.12.1.26.15.42l.64.29c-.08-.26-.15-.48-.21-.65s-.14-.33-.24-.48v-.22c0-.1-.01-.17-.01-.23s.01-.11.03-.17c.02-.06.06-.11.11-.17l.22.06c0 .06 0 .12.02.17s.04.1.06.13c.02.04.05.09.09.15.04.06.06.11.08.15s.03.09.04.16c.01.07.02.13.03.17s.03.09.05.13c.02.05.05.09.09.12.11-.14.24-.27.39-.4-.12-.39-.24-.82-.36-1.28-.13 0-.29.08-.49.22l.02-.06c.05-.06.1-.14.14-.22.04-.09.07-.17.1-.25.03-.08.07-.19.1-.33.04-.14.08-.26.13-.35.1 0 .18.08.24.23s.11.3.14.44c.03.14.06.28.08.41s.04.24.06.31c.02.08.04.16.06.25s.05.18.08.27c.04-.06.11-.15.19-.26.09-.11.16-.2.21-.27.05-.07.12-.15.19-.26.07-.11.14-.21.19-.32.03-.05.06-.12.1-.21.04-.08.08-.18.13-.29.24-.52.33-1.47.82-1.44.49.03.26 1.04 0 1.54-.03.06-.06.13-.1.19-.17.3-.36.57-.57.8.24.03.59.04 1.06.03.47 0 .84-.03 1.12-.06.24.06.43.19.57.39 0 .07-.02.13-.05.16-.03.04-.06.06-.09.07-.03.01-.08.03-.14.05s-.11.04-.13.06c0 .16 0 .31.02.45s.03.29.06.43c0 .34.49.89-.03.98.03-.23-.12-.43-.19-.64-.06-.15-.11-.32-.15-.48-.09-.33-.1-.6-.04-.81-.21-.03-.62-.04-1.23-.03s-.94.06-1 .14c.03.33.08.58.16.77.08.19.18.36.3.5s.24.26.36.34c.12.08.23.13.35.14-.02-.05-.03-.1-.06-.17-.02-.07-.06-.15-.1-.25s-.08-.19-.11-.28-.06-.17-.08-.26c.05-.28.12-.45.22-.52.08.04.16.09.23.16.07.06.15.14.24.24.09.1.16.18.21.23.05.05.1.09.15.11l.14.16s-.17-.07-.35-.14c-.17-.07-.35-.14-.35-.14.02.11.03.21.04.29.01.08.02.16.02.23v.2c0 .06-.01.12-.03.18.41.12 1.13-.03 1.16.29.05.36-.5.22-.94.14a1.12 1.12 0 0 0-.24-.03c-.07-.02-.15-.03-.24-.06-.1-.02-.2-.05-.33-.08-.25-.06-.44-.11-.59-.15l.07-.05.32-.1c-.09-.07-.17-.13-.24-.19-.06-.06-.12-.12-.16-.18s-.08-.12-.11-.17c-.03-.06-.08-.15-.16-.28-.07-.13-.13-.26-.19-.38-.05-.12-.08-.26-.09-.41l.06-.29-.47.37c.02.08.05.19.09.34s.07.28.11.39c.03.11.07.24.11.38s.09.29.15.45c.14.1.27.2.38.28.06.04.11.08.17.12s.11.08.17.11c.69.42 1.12 1.14 1.38 1.92-.6-.55-1.15-1.18-1.78-1.7-.07-.05-.13-.1-.2-.15.01.07.03.14.04.2.1.3.19.58.25.87.03.14-.2.06-.29 0-.14-.09-.17-.29-.28-.43-.06-.1-.11-.18-.16-.26-.05-.08-.09-.14-.13-.2-.07-.11-.16-.24-.27-.36-.1-.13-.22-.25-.34-.36.08.28.17.52.25.72l-.2.31-.12.05v-.26c-.04-.13-.17-.47-.4-1.02l-.63-.23.08.57c-.02.13-.05.26-.09.36-.04.11-.08.21-.13.29-.09-.52-.21-.98-.37-1.37-.36-.1-.64-.17-.85-.19v.32l-.18-.09c-.09-.24-.19-.43-.29-.55l.05.02zm3.23 1.22.67.88c-.06-.26-.14-.49-.24-.68l-.43-.2zm-.52-1.19c.09.21.17.41.22.62l.57.25c-.12-.39-.25-.81-.38-1.24l-.42.37h.01z"/></svg>