<svg id="_图层_1" xmlns="http://www.w3.org/2000/svg" version="1.1" viewBox="0 0 26 19"><defs><style>.st0{fill:none}.st2{fill:#005529}.st4{fill:#881c21}</style></defs><rect x="3.62" y="-3.37" width="18.75" height="25.75" rx="1.88" ry="1.88" transform="rotate(-90 12.995 9.505)" style="fill:#f5f6f7"/><path d="M.25 2C.25 1.04 1.04.25 2 .25h22c.96 0 1.75.79 1.75 1.75v15c0 .96-.79 1.75-1.75 1.75H2c-.96 0-1.75-.79-1.75-1.75V2M0 2v15c0 1.1.9 2 2 2h22c1.1 0 2-.9 2-2V2c0-1.1-.9-2-2-2H2C.9 0 0 .9 0 2z" style="fill:#93989c"/><path class="st2" d="M12.91 11.56c-.18-.11-.37-.19-.57-.24-.06-.02-.12-.03-.16-.07-.12-.08-.22-.19-.37-.21-.1-.01-.19-.06-.28-.07-.13-.03-.26 0-.38.04-.29.09-.57.21-.84.35-.11.06-.22.11-.34.15-.09.03-.2.05-.3.07-.16.02-.32.04-.47.05H9c-.12 0-.25-.01-.37-.02l-.59-.06c-.16-.02-.32-.02-.47-.05-.32-.06-.64-.12-.96-.19-.26-.05-.5-.14-.72-.29-.02-.01-.05-.06-.05-.06.04-.05.08-.11.13-.14.05-.03.11-.02.17-.03.22-.03.44-.06.66-.08.19-.02.38-.04.57-.04.2 0 .4 0 .6.02.16.01.32.04.47.08.08.02.15.06.23.08.14.04.28.07.42.12.05.02.08.08.12.12 0 0 0 .03-.02.04l-.16.13c-.04.04-.08.06-.14.02-.02-.01-.04-.01-.07-.03.05.08.08.16.16.2.09.05.18.1.28.15.02.01.06.02.08.01.11-.02.22-.05.33-.08.02 0 .04-.02.05-.04.03-.06.06-.12.09-.19.02-.05.05-.11.06-.16 0-.14-.02-.28-.09-.4a.172.172 0 0 0-.06-.06c-.09-.04-.18-.08-.29-.1a1.5 1.5 0 0 1-.36-.11c-.11-.05-.21-.11-.31-.18-.06-.04-.11-.09-.17-.13-.22-.15-.45-.26-.71-.31-.07-.01-.15-.04-.22-.05l-.22-.03c-.1 0-.2-.01-.3-.01-.08 0-.17.01-.25.02l-.48.06c-.23.04-.46.11-.68.2-.15.06-.3.12-.41.26-.07.09-.15.17-.18.28-.03.08-.05.17-.08.25v.12c.02.19.09.36.18.51.15.23.35.42.58.58.17.12.36.21.55.3.12.05.24.1.37.14.21.06.43.11.65.16.16.03.32.05.48.07s.32.02.48.04c.05 0 .09.01.15.02-.02.02-.03.04-.04.06-.15.18-.14.38-.06.58.07.17.18.31.31.42.25.22.53.38.83.53.25.12.52.16.79.2.17.02.35.04.52.04h.6c.08 0 .16-.02.23-.04.18-.06.36-.14.53-.24.23-.14.47-.28.65-.47a.95.95 0 0 0 .1-.17c.02-.05.03-.1.05-.15 0-.02.02-.04.04-.06.08-.07.16-.13.23-.21.07-.07.12-.16.17-.25.05-.08.07-.17.08-.27 0-.08-.02-.16-.02-.25-.12.12-.24.21-.37.28-.2.1-.39.21-.58.33-.16.1-.32.2-.5.25-.32.1-.65.19-.98.28-.06.02-.13.04-.19.03-.15-.02-.29-.05-.44-.09-.23-.06-.45-.14-.61-.31-.08-.08-.03-.29.09-.32.06-.01.12-.01.17-.01.07 0 .14.02.2.03.12.03.25.05.36.14.14.11.3.16.48.09.08-.03.11-.08.16-.14.05-.07.04-.13 0-.2-.03-.06-.05-.14-.1-.17-.11-.07-.23-.12-.35-.18-.06-.03-.13-.04-.19-.05.08-.04.15-.08.23-.13.14-.09.28-.19.43-.28.16-.11.35-.12.53-.17.12-.03.24-.04.36-.06.25-.04.5-.08.76-.08h.07c-.04-.08-.09-.18-.12-.19l-.01.02z"/><path class="st4" d="M12.7 9.54c0 .09 0 .17.01.26.01.23.02.46.05.69.03.24.07.48.13.72.03.12.22.61.24.64.07.14.17.26.27.39.13.16.27.29.48.34.06.01.12.02.17-.02.1-.07.2-.13.29-.21.07-.07.14-.15.15-.25.01-.09 0-.19 0-.29 0 0-.01-.02-.02-.02 0 0-.02 0-.03.01 0 .01-.02.03-.02.04-.03.08-.09.14-.17.17-.06.03-.15.04-.2.02a.625.625 0 0 1-.22-.18c-.11-.15-.2-.31-.27-.49-.14-.39-.29-.78-.42-1.18-.11-.32-.2-.65-.29-.98-.04-.15-.08-.3-.11-.45-.02.26-.03.52-.04.78v.01z"/><path class="st2" d="M19.21 16.96s.03-.02.04-.03c.05-.14.12-.27.14-.42.03-.18.04-.38.04-.56 0-.17-.03-.33-.03-.5 0-.27 0-.54.01-.81 0-.08 0-.16.03-.24.03-.15.08-.31.11-.46v-.05c-.15.11-.26.23-.36.37-.14.2-.24.41-.32.64-.07.21-.13.43-.14.66 0 .06 0 .13-.01.19-.01.13-.02.26-.05.39-.01.08-.05.15-.07.22 0 0-.02.02-.03.02-.05.01-.09.03-.14.04-.04 0-.22-.09-.23-.12l-.06-.41c0-.05 0-.11.01-.16.01-.12.02-.23.04-.35.06-.34.19-.66.35-.97.1-.19.2-.39.31-.57.14-.23.3-.46.45-.68l.07-.1-.01-.01c-.05.03-.09.05-.14.08-.4.24-.75.53-1.05.9-.18.23-.35.46-.52.7s-.29.5-.39.78c-.05.15-.11.29-.13.44-.03.19-.02.39-.03.59 0 .15 0 .3.06.44.03.09.04.19.09.27.09.14.19.28.33.37.08.06.16.12.27.13.06 0 .13.03.19.04h.15c.17-.01.33-.05.46-.18.07-.07.16-.1.19-.2.01-.04.03-.08.05-.12.04-.11.09-.2.21-.25.04-.02.07-.04.11-.07v-.01zM23.19 8.12c-.04.28-.07.55-.04.83.01.15.02.31.04.46.03.22.05.44.1.66.08.34.17.68.26 1.02.06.22.11.44.09.67-.01.11-.03.21-.08.31-.08.15-.16.3-.2.47-.03.15-.03.3.03.44.04.1.06.21.15.27.07.04.15.06.23.09.11-.05.23-.08.3-.19.04-.05.08-.1.12-.16.05-.07.11-.13.15-.2.05-.09.09-.19.12-.28.02-.06.04-.13.06-.19.02-.09.03-.18.04-.28v-.44l-.03-.39c-.04-.31-.13-.6-.24-.89-.11-.28-.23-.57-.3-.86-.05-.22-.09-.43-.14-.65-.04-.16-.09-.32-.12-.49-.04-.24-.08-.48-.11-.72-.02-.18-.03-.36-.04-.54 0-.04.01-.09.02-.15-.02.03-.03.04-.03.05-.16.37-.29.75-.35 1.15l-.03.01z"/><path class="st4" d="M15.98 16c.07-.04.14-.09.21-.13.12-.08.2-.18.26-.31.1-.22.15-.44.16-.68v-.64c0-.12-.04-.22-.11-.31a.123.123 0 0 0-.19 0 .49.49 0 0 0-.09.31c0 .19-.05.37-.12.54-.04.12-.1.23-.15.34-.06.13-.11.25-.23.34-.02.01-.04.02-.06.02-.11-.04-.22-.07-.31-.13-.1-.05-.2-.11-.29-.19-.09-.08-.15-.19-.22-.29-.1-.17-.18-.35-.22-.54-.04-.16-.04-.33-.03-.49 0-.18.04-.35.09-.52.05-.19.16-.35.26-.52.02-.04.04-.08.07-.11-.05.32.05 1.17.18 1.44v-.15c.02-.19.04-.37.07-.56.03-.24.08-.48.16-.72.06-.16.14-.31.29-.41.02-.01.04-.02.06-.02.12-.02.21-.08.25-.19.02-.05.01-.1.02-.14.02-.1-.03-.17-.07-.25.03-.04.07-.09.1-.14.04-.06.03-.17-.02-.22-.06-.06-.13-.08-.21-.03-.04.02-.08.05-.11.08-.04.04-.09.07-.14.07s-.13 0-.16-.02a.415.415 0 0 1-.12-.2c-.03-.16-.04-.32-.06-.49 0-.04.01-.05.05-.04.04 0 .08.02.12.02.11 0 .21 0 .32-.01v-.02c-.03-.02-.05-.03-.08-.05-.04-.03-.1-.05-.13-.09a.868.868 0 0 1-.22-.45c-.03-.18-.06-.37-.07-.55-.01-.13.05-.23.16-.3h.02c.04.04.11.02.15.04.07.03.13.09.17.16.04.06.05.14.09.21.02.03.06.06.09.06s.07-.02.09-.05c.07-.14.09-.29.03-.44-.11-.31-.23-.62-.33-.93-.12-.38-.2-.77-.23-1.16 0-.06-.01-.13-.02-.2-.07.27-.11.52-.12.79-.01.3 0 .59.07.88 0 .01 0 .04-.01.04-.05.01-.11.02-.17.04-.04 0-.09 0-.13.03-.05.03-.09.07-.13.11-.09.08-.18.14-.19.27 0 .02 0 .04-.01.06a5.062 5.062 0 0 0-.13 1.53c0 .03 0 .05-.04.05-.14-.02-.29-.02-.42-.11-.06-.04-.12-.07-.17-.12-.07-.07-.13-.14-.19-.21-.07-.07-.16-.05-.19.04-.01.04-.01.08 0 .12.02.09.06.18.09.26.02.04.04.08.07.11.12.12.26.2.41.28.15.08.3.07.46.06.04 0 .06 0 .06.04.02.17.09.32.16.47.02.04.05.08.09.11.04.04.09.08.13.11-.13.12-.25.23-.37.35-.1.1-.19.22-.26.34-.09.15-.17.32-.25.48-.05.11-.1.22-.12.34-.05.21-.11.41-.11.63v.49c.02.22.08.43.18.63.04.09.07.18.12.27.09.14.19.26.32.36.15.13.31.23.5.27.18.04.35.06.53-.01.07-.03.13-.02.19.02.05.03.11.04.17 0l-.02-.07z"/><path class="st2" d="M20.18 3.23s-.06.03-.07.05c-.12.15-.23.3-.34.45-.09.12-.11.27-.11.41 0 .12.02.25.07.37.06.12.12.25.19.37.05.08.12.15.17.23.19.3.4.59.66.84.02.02.03.04 0 .06-.1.13-.17.27-.2.43s-.04.32-.05.48c0 .15 0 .31.02.46 0 .1.03.21.04.31h.01c0-.02.01-.04.02-.05.07-.19.14-.39.22-.57.05-.13.14-.24.3-.23 0 0 .02 0 .02-.01.21-.16.41-.35.59-.55.14-.17.26-.34.33-.56.05-.15.1-.31.12-.47a1.667 1.667 0 0 0-.03-.76c-.05-.22-.17-.4-.29-.59-.08-.12-.14-.26-.26-.36-.05-.04-.1-.09-.15-.14-.09-.1-.2-.15-.32-.19-.12-.04-.26-.04-.4-.05h-.13c-.08-.01-.16-.02-.24.01-.06.03-.13.04-.19.06h.02zm.76 1.27c.02.06.05.12.07.18s.03.13.03.19c.02.23.02.46-.07.71-.12-.41-.16-.81-.2-1.22.08.03.15.06.17.14zM9.87 10.23c.18.04.37.06.56.07.22.01.44 0 .65 0 .2 0 .4-.02.6-.02.13 0 .26 0 .39.01.11.01.24.02.32.12.02.02.04.03.07.05 0-.14 0-.27-.08-.39a.64.64 0 0 0-.34-.29c-.21-.09-.44-.13-.68-.13-.22 0-.44 0-.66.01-.03 0-.07.01-.1 0-.14-.04-.29-.07-.42-.14-.1-.06-.21-.12-.26-.24a.356.356 0 0 0-.14-.18c-.02-.01-.04-.03-.06-.04v-.01c.06 0 .12 0 .19.02.15.03.29.07.44.09.24.04.46.11.66.26.05.03.1.07.14.1.05.03.1.05.15 0 .04-.04.06-.09.04-.15-.02-.07-.04-.13-.05-.2a.65.65 0 0 0-.2-.36c-.08-.07-.16-.15-.22-.24-.08-.11-.16-.22-.27-.31-.07-.05-.13-.11-.22-.13-.1-.02-.2-.05-.3-.07-.12-.02-.24-.03-.36-.04-.13-.01-.27 0-.39.04-.11.04-.2.11-.3.17-.05.03-.09.08-.15.09-.18.05-.34.13-.5.21-.02.01-.05.04-.06.06-.04.1-.08.19-.1.29-.01.05 0 .11 0 .16.02.09.06.18.1.26.02.05.04.12.08.15.12.09.25.17.38.25.23.13.47.25.7.37.12.06.25.11.38.13l.01.03zM20.31 14.42c0-.14 0-.29.01-.43 0-.13.02-.25.05-.37.03-.16.08-.32.17-.46.02-.04.05-.08.07-.12 0 0 0-.01-.01-.02-.08.02-.17.04-.24.07a1.1 1.1 0 0 0-.49.44c-.12.17-.18.37-.22.57-.03.14-.06.28-.08.42-.02.13-.02.27-.03.4 0 .1 0 .2.02.3.01.1.03.21.06.31.06.2.15.4.26.58.02.04.05.08.08.11.05.05.1.09.16.13.07.06.14.09.23.11.05 0 .1.02.16.03.05 0 .1.02.15.01.1-.02.19-.05.28-.08.02 0 .04-.02.05-.04.05-.08.12-.16.15-.25.04-.12.05-.24.06-.36v-.59c-.02-.14-.06-.28-.07-.42-.03-.23-.04-.46-.06-.69 0-.08 0-.15.05-.22 0-.02.01-.04.02-.07-.1.04-.2.06-.27.11a.71.71 0 0 0-.19.23c-.07.15-.13.3-.19.45-.02.04-.02.09-.02.13 0 .17.01.34.02.51v.08h-.03l-.09-.31c-.05-.18-.06-.37-.06-.56zM13.19 6.24s.05 0 .07.01v-.01c-.07-.04-.15-.09-.22-.13-.32-.2-.61-.43-.87-.71-.1-.1-.2-.21-.28-.32-.12-.15-.24-.3-.29-.49l-.03-.19c-.03-.12 0-.23.06-.34.03-.06.04-.06.08 0 .15.16.31.32.5.44.09.05.16.14.23.22.08.1.16.18.28.2h.08c.04-.01.08-.03.12-.06.04-.02.11-.16.1-.21-.07-.27-.13-.54-.24-.8-.04-.09-.08-.19-.14-.27-.05-.08-.12-.15-.18-.22-.06-.06-.11-.13-.19-.18-.14-.08-.27-.15-.43-.17-.11-.01-.23-.02-.34-.01h-.13c-.06.01-.12.04-.19.05-.15.03-.24.15-.31.26-.07.11-.1.25-.14.37a.85.85 0 0 0-.04.22c.02.16.04.31.11.46.08.18.17.35.3.51.08.1.17.18.25.28.15.18.31.34.5.47.17.11.35.21.53.31.25.13.52.22.8.3l.01.01zM23.2 15.53c-.09-.18-.17-.37-.25-.56-.16-.38-.31-.76-.35-1.18 0 0-.01 0-.01.01-.16.26-.24.56-.26.86-.01.22 0 .44.04.66.02.08.01.17.04.25.12.28.25.55.37.82.02.04.05.07.08.11.04.06.1.12.12.18.06.15.2.22.32.29.07.04.17.04.26.06.13.02.27.04.39-.05.06-.04.13-.06.19-.1.03-.02.06-.05.07-.08.04-.12.08-.25.12-.37v-.03c-.01-.11-.03-.21-.06-.32-.05-.18-.16-.33-.27-.48-.08-.11-.17-.21-.22-.33-.08-.18-.17-.35-.25-.52s-.15-.33-.22-.5c0-.01-.01-.03-.02-.04-.02.08-.03.15-.03.22 0 .16 0 .32.01.48.01.22.06.44.13.65.01.04.02.08.02.12s-.04.07-.06.05c-.06-.06-.13-.11-.16-.19v-.01z"/><path class="st4" d="M15.83 4.53c-.06-.06-.11-.14-.21-.16-.08-.01-.16-.04-.24-.06a.504.504 0 0 0-.32.02c-.04.02-.08.03-.13.04-.11.03-.21.07-.29.17l-.12.12a.55.55 0 0 0-.07.09c-.02.03-.03.06-.05.09-.03.04-.06.08-.08.12-.16.33-.23.69-.23 1.05 0 .15 0 .3.01.45 0 .12.02.24.05.36.02.12.06.24.15.34.09.1.18.21.27.32.22.28.39.58.51.92.02.06.05.12.07.18h.01v-.05c0-.09 0-.19-.01-.28-.02-.14-.03-.28-.07-.42-.07-.3-.2-.58-.34-.86-.08-.15-.13-.32-.15-.5 0-.08-.02-.17-.02-.25a1.375 1.375 0 0 1 .18-.67c.04-.07.1-.12.15-.19.09-.11.23-.14.34-.05.06.05.14.09.21.12.15.07.27.01.4-.05.01 0 .02-.02.02-.04.08-.15.09-.3.07-.47-.02-.13-.04-.25-.14-.36l.03.02z"/><path class="st2" d="m12.31 8.32.22.03v-.01c-.58-.32-1.02-.79-1.44-1.29v-.01c.01 0 .03 0 .04.01.11.04.21.08.32.12.08.03.17.06.24.11.07.04.12.1.18.16.08.09.17.16.29.2.08.03.19 0 .23-.08.02-.04.04-.08.01-.13-.11-.23-.21-.46-.37-.65-.1-.13-.21-.26-.33-.38-.13-.13-.28-.25-.42-.37a.262.262 0 0 0-.09-.05c-.12-.03-.25-.07-.38-.05-.05 0-.11-.02-.15 0-.12.05-.26.1-.31.25-.02.07-.06.13-.07.2 0 .09 0 .18.02.26.05.24.12.46.27.66.11.14.23.28.35.41.19.2.43.32.68.43.22.09.46.15.69.19l.02-.01zM23.27 3.58s-.07.07-.1.11c-.08.11-.17.22-.24.34-.14.28-.22.59-.25.9-.03.23-.05.45-.07.68-.01.19 0 .37-.01.56 0 .13-.03.25-.04.38 0 .09-.02.18-.03.27h.01l.09-.33c.12-.45.26-.88.43-1.31.05-.13.1-.25.16-.37.03-.06.05-.11.07-.18.01-.06.03-.13.06-.19.02-.04.06-.05.09-.01s.07.08.08.13c.04.12 0 .24-.05.34-.1.22-.18.44-.22.67-.01.07 0 .13.05.17.02.01.03.03.04.04.03.03.06.03.09 0 .05-.04.1-.08.14-.14.14-.22.28-.43.41-.66s.2-.48.25-.74a.93.93 0 0 0 .01-.29c0-.06-.02-.11-.04-.17-.01-.04-.03-.08-.06-.1-.1-.08-.19-.17-.3-.23a.442.442 0 0 0-.25-.06c-.12.02-.25.05-.34.17l.02.02zM21.75 7.85V7.8h-.02c-.01.1-.03.2-.04.3-.03.2-.06.41-.08.61-.02.19-.04.38-.05.57-.01.21-.02.42-.02.63 0 .15-.01.3.02.46.02.1 0 .21.02.32.01.23.02.47.05.7.02.2.06.41.1.61.07.32.17.64.3.94.05.1.1.21.15.31h.02v-.06c0-.15 0-.29-.01-.44 0-.31-.01-.63-.02-.94 0-.17-.01-.35-.02-.52l-.03-.69c0-.17-.01-.34-.02-.5-.01-.17-.03-.33-.06-.5l-.21-1.04c-.02-.08-.05-.17-.05-.25-.01-.15-.01-.3-.01-.45l-.02-.01zM22.34 9.65c0 .16-.02.32-.02.49s-.01.31-.01.46c0 .17.01.34.03.51.02.19.05.38.1.57.08.34.22.67.4.97.07.12.15.23.23.35h.02c0-.02.01-.04.01-.06 0-.05 0-.09-.01-.14l-.03-.64c0-.14-.01-.27-.02-.41-.01-.23-.03-.45-.05-.68l-.03-.46c-.03-.24-.05-.48-.09-.72a5.15 5.15 0 0 0-.32-1.1c-.05-.12-.11-.23-.09-.36v-.02.02c-.02.19-.03.37-.05.56-.02.22-.03.45-.05.67l-.02-.01zM21.63 12.26c-.02-.15-.03-.3-.04-.44 0-.11-.02-.22-.02-.33-.01-.18-.03-.36-.04-.54-.01-.14-.02-.28-.04-.43-.01-.17-.03-.35-.04-.52 0-.12-.01-.23-.02-.35-.01-.15-.03-.3-.04-.45-.01-.13-.02-.25-.04-.38-.02-.16-.04-.32-.05-.48-.01-.12-.03-.25-.04-.38 0 .01-.01.02-.02.03-.07.14-.12.3-.15.45-.04.22-.08.45-.1.67-.03.23-.04.47-.05.7 0 .4-.01.79.04 1.19.04.27.09.54.18.81.12.38.3.74.54 1.06 0 .01.02.02.03.03h.01c0-.05-.02-.11-.02-.16l-.06-.49-.03.01z"/><path class="st4" d="M14.03 7.64s.1.05.14.08c.08.08.14.16.21.24.04.05.09.06.14.03.05-.02.07-.08.05-.14-.05-.18-.1-.37-.21-.53-.04-.05-.05-.12-.12-.15-.03-.01-.07-.02-.1-.04-.14-.09-.29-.1-.48-.12-.05.02-.13.04-.21.06-.04.01-.07.03-.1.05-.08.07-.15.15-.21.23-.11.16-.17.35-.2.54-.04.22-.04.45-.04.68 0 .04 0 .08-.01.11-.01.05 0 .09.04.12s.09.04.13 0c.03-.02.05-.06.06-.1.01-.02 0-.06 0-.08.06-.21.12-.42.2-.62.06-.16.13-.33.29-.42.04-.02.08-.05.13-.02h.07c.05-.01.1 0 .14.03.02.01.05.02.08.03v.02zM16.55 11.37c.03.09.07.17.12.25.09.14.21.26.38.28.08.01.09 0 .09-.08v-.06c0-.06 0-.12-.03-.17-.05-.1-.1-.21-.16-.3-.07-.11-.15-.22-.29-.26-.03 0-.07-.02-.08.02-.04.1-.08.2-.03.31v.01z"/><path class="st0" d="M18.33 9.2c.08-.03.16-.07.25-.08.25-.06.51-.08.77-.07.07 0 .14.02.21.02.15-.01.29 0 .4.13.03-.17.05-.34.08-.49-.05.03-.09.07-.15.08-.06.02-.13.03-.2.03-.13 0-.25-.01-.38-.02-.24-.01-.48-.03-.73-.04-.1 0-.21-.02-.31-.02a.15.15 0 0 1-.07-.03l.06.2.07.29zM19.33 10.77c.19 0 .38-.01.56.05.03 0 .04 0 .04-.03 0-.11-.02-.21-.03-.33-.06.05-.13.07-.21.07h-.44c-.2 0-.4 0-.59-.02l.08.33c.19-.03.39-.06.58-.07h.01zM18.78 9.97c.19-.02.37-.03.56-.03.08 0 .15.01.23 0 .13 0 .25.01.37.08V9.5s-.01.03-.03.03c-.08.03-.16.08-.25.09-.2.02-.39.03-.59.04-.1 0-.2 0-.3-.01-.08 0-.16-.02-.24-.03-.03 0-.06-.01-.09-.02l.1.39.24-.03v.01z"/><path class="st2" d="M17.47 2.04c-.12.02-.24.02-.35.07-.13.06-.24.16-.31.31-.11.22-.16.45-.15.69 0 .23.03.46.07.69.06.39.15.77.29 1.15.09.25.19.49.33.72.19.3.38.6.58.89.14.19.29.37.45.55.15.16.31.3.48.43.23.2.5.35.77.48h.04l-.04-.04c-.11-.12-.23-.24-.33-.37-.23-.31-.45-.62-.67-.93-.26-.39-.49-.8-.68-1.23-.12-.28-.24-.57-.35-.86-.11-.28-.17-.58-.17-.88 0-.09.03-.16.08-.23.01-.01.04-.02.05-.01.06.04.12.07.16.13.09.13.18.27.24.41.12.24.22.49.32.74.18.45.31.91.43 1.37.04.16.07.31.1.46.02-.16.03-.32.05-.48.01-.12.02-.25.02-.38.01-.23.04-.46.04-.69 0-.41 0-.81-.03-1.22-.02-.25-.07-.49-.16-.72-.07-.16-.14-.33-.23-.48a1.14 1.14 0 0 0-.23-.3.815.815 0 0 0-.51-.24c-.04 0-.07-.02-.11-.02-.07 0-.14 0-.2.02l.02-.03zM18.37 12.43c.15.04.29.07.44.1.22.04.45.07.67.09.2.02.4-.02.58-.12.05-.03.09-.06.1-.12 0-.04.02-.07.04-.11.08-.22-.08-.47-.36-.45-.07 0-.14.02-.21.02-.21 0-.42 0-.62.01-.17 0-.33.03-.5.05-.07.23-.13.42-.15.51l.01.02z"/><path class="st2" d="M20.36 7.85s-.06.09-.08.13c-.06.15-.12.29-.18.43-.05-.04-.1-.09-.15-.14l-.06-.03c-.08-.01-.15-.02-.23-.02h-.22c-.14 0-.29-.01-.43 0-.25.03-.49.1-.72.19l-.15.06.03.13.02.09s.05.03.07.03c.1 0 .21.01.31.02.24.02.48.03.73.04.13 0 .25.02.38.02.07 0 .14-.01.2-.03.05-.02.1-.06.15-.08-.02.15-.05.31-.08.49-.11-.13-.25-.14-.4-.13-.07 0-.14-.01-.21-.02-.26 0-.52.02-.77.07-.09.02-.17.05-.25.08l.1.41s.06.01.09.02c.08.01.16.03.24.03.1 0 .2.01.3.01.2 0 .39-.01.59-.04.09 0 .17-.06.25-.09.01 0 .02-.02.03-.03v.52a.798.798 0 0 0-.37-.08c-.08 0-.15-.01-.23 0-.19 0-.37.02-.56.03-.08 0-.16.02-.24.03l.13.51c.2.03.39.03.59.02h.44c.08 0 .15-.02.21-.07 0 .11.02.22.03.33 0 .03-.01.04-.04.03-.18-.06-.37-.06-.56-.05-.2 0-.39.04-.58.07 0 .13-.04.33-.09.55.02 0 .04.01.05.01.16.02.31.05.47.06.18.01.35.06.53 0h.01c.06.02.1 0 .15-.03.05-.02.09-.05.15-.07v.02c.07.27.17.54.31.79.08.13.17.27.26.39s.19.22.23.36c.02.07.07.14.1.21h.01c0-.02-.01-.04-.02-.06-.11-.32-.19-.65-.24-.98-.03-.22-.06-.43-.08-.65-.02-.22-.05-.45-.06-.67-.01-.25 0-.49-.01-.74 0-.19 0-.37-.01-.56 0-.24-.01-.48-.02-.72 0-.13-.01-.27-.02-.4l-.03-.68v-.05c-.01.01-.01.03-.01.04 0 .07-.02.13-.06.19v.01z"/><path class="st4" d="m18.74 10.84-.08-.33-.13-.51-.1-.39-.1-.41-.07-.29-.06-.2-.02-.09-.1-.34s-.08-.35-.18-.52a.795.795 0 0 0-.36-.32c-.1-.04-.21-.06-.31-.07-.11 0-.23.02-.34.03-.03 0-.04 0-.04-.03s.02-.17.02-.25c.02-.25.04-.5.04-.75 0-.21-.02-.42-.03-.63a.51.51 0 0 0-.12-.32 1.07 1.07 0 0 1-.15-.22.41.41 0 0 0-.16-.16c-.04-.02-.07-.05-.13-.03-.14.05-.19.16-.25.28-.07.15-.03.31.02.46.04.1.1.2.13.3.05.18.1.37.13.56.04.23.05.47.08.71 0 .09.02.18.02.27s.01.16-.03.24c-.03.07-.06.15-.07.22-.02.1-.03.2-.02.3.02.1 0 .2.01.3.01.28.09.54.22.78v.05c-.1.07-.14.18-.16.29-.02.07.02.21.08.24l.12.06c.11.05.21.03.31-.02.05-.03.09-.08.11-.13.04-.13.06-.27.08-.4 0-.05-.01-.11-.03-.15-.02-.05-.12-.06-.19-.03l-.15.06c-.03.01-.05 0-.04-.03 0-.05.01-.1.02-.15.05-.33.12-.65.23-.96.02-.05.06-.09.1-.13.02-.03.05-.02.07.01.03.05.06.1.1.13.12.1.18.23.24.37.14.37.22.75.29 1.14.06.33.16.64.34.92.05.07.06.14.04.22-.06.28-.15.55-.32.78-.13.17-.23.36-.31.55-.1.24-.2.48-.24.74-.01.08-.04.15-.11.2h-.05c-.18-.12-.35-.25-.48-.42a.09.09 0 0 1-.03-.07c-.01-.06-.02-.13-.02-.2-.01-.22-.03-.44-.03-.66 0-.17-.01-.34-.01-.5 0-.21 0-.43.01-.64 0-.04.01-.08.02-.13.01.02.02.03.02.04.03.05.04.11.08.15.11.12.4.18.55.11.03-.01.05-.04.06-.07.02-.05.04-.11.06-.16.04-.11-.03-.23-.12-.27-.1-.04-.21-.08-.31-.11-.16-.06-.25-.01-.33.15-.03.06-.04.14-.06.2-.02.07-.05.13-.08.2-.09.26-.16.52-.2.79-.03.21-.05.42-.06.63 0 .18 0 .37.01.55 0 .12.03.24.06.36.05.17.12.34.23.49.09.12.2.22.33.28.13.07.27.12.41.16.09.03.19.05.28.04.1-.01.2-.06.3-.1.03-.01.05-.04.06-.06.08-.21.16-.42.23-.63.08-.26.21-.57.28-.84 0 0 0-.02.01-.04.03-.08.09-.28.15-.51.05-.17.1-.35.14-.53.05-.22.09-.42.09-.55v-.01zM2.32 5.16s.02-.09.04-.13.03-.08.04-.13c.02-.05.03-.09.05-.12a.36.36 0 0 1 .07-.1c.06.03.11.07.17.13.05.05.11.12.18.21a.9.9 0 0 0 .18.2c.05.05.12.09.2.11.01-.16.01-.3.01-.43s-.02-.23-.04-.32-.05-.19-.09-.29-.06-.17-.07-.21c.01-.02.03-.06.06-.14s.06-.14.09-.18c.03-.05.07-.09.12-.12.05-.04.11-.06.18-.08.03.03.05.05.07.08s.04.07.06.12c.03.05.05.1.07.14.02.05.05.1.09.15.04.05.08.11.14.17.05.06.12.12.2.2s.16.15.23.22c.08.07.17.15.29.25.05-.1.1-.21.16-.33s.14-.26.22-.41.16-.3.24-.44c.08-.14.15-.28.22-.43.06-.15.11-.25.14-.33.03-.07.05-.14.07-.19.02-.05.05-.12.09-.21.04-.09.07-.16.09-.21.19-.47.25-.99.54-1.39.14.46.46.9.45 1.4-.03.07-.05.14-.09.21-.03.07-.07.14-.1.2-.08.13-.15.26-.24.38-.08.12-.18.26-.3.43-.11.17-.19.28-.23.33-.42.56-.71.98-.86 1.26.31.32.59.62.82.89s.44.53.61.77c.17.24.3.49.38.73s.14.57.16.98v.08c-.05-.07-.11-.18-.2-.33-.09-.15-.15-.25-.18-.31-.04-.06-.1-.17-.2-.33-.09-.16-.19-.32-.3-.48s-.26-.35-.46-.58-.49-.54-.88-.93c-.04.07-.08.18-.12.31-.04.14-.08.24-.11.32s-.07.15-.1.22c-.04.07-.07.13-.11.18.07.09.12.16.15.21s.03.11.01.17a.65.65 0 0 1-.25.02c-.1-.01-.17-.04-.21-.08-.08-.06-.17-.14-.27-.26s-.23-.28-.39-.48c-.16-.2-.3-.37-.42-.5s-.23-.24-.33-.33l-.15.05c-.06-.07-.13-.18-.2-.34l.01.02zm1.94 1.41c-.01-.21 0-.42.04-.64s.09-.4.15-.57c-.21-.19-.49-.42-.84-.69-.07.38-.04.71.08.99s.31.58.57.9v.01zm1.87-1.44c.05-.14.1-.26.13-.35s.07-.18.12-.26c.05-.08.1-.15.16-.2s.14-.07.23-.07c.05.04.1.09.13.14s.06.11.09.17c.02.06.05.14.07.25.03.11.06.23.11.35.04.12.12.28.23.45.11.18.26.33.45.45.06-.03.11-.06.15-.11.04-.05.07-.11.09-.18.02-.07.04-.14.05-.22 0-.04.01-.09.02-.16.08-.59.32-1.2.84-1.52.12-.06.32-.03.32.09-.06.64-.46 1.16-.65 1.74-.02.07-.05.14-.09.2s-.08.12-.14.17c-.11.1-.23.14-.36.12-.11-.01-.23-.04-.35-.09s-.22-.11-.32-.17c-.09-.06-.18-.13-.27-.2s-.16-.13-.22-.18-.11-.09-.16-.12-.09-.05-.11-.06c-.13.07-.29.21-.48.44l-.03-.07c-.05-.21-.05-.43 0-.64l-.01.03z"/></svg>