<svg id="_图层_1" xmlns="http://www.w3.org/2000/svg" version="1.1" viewBox="0 0 26 19"><defs><style>.st1{fill:#005529}.st3{fill:#881c21}</style></defs><rect x="3.62" y="-3.37" width="18.75" height="25.75" rx="1.88" ry="1.88" transform="rotate(-90 12.995 9.505)" style="fill:#f5f6f7"/><path d="M.25 2C.25 1.04 1.04.25 2 .25h22c.96 0 1.75.79 1.75 1.75v15c0 .96-.79 1.75-1.75 1.75H2c-.96 0-1.75-.79-1.75-1.75V2M0 2v15c0 1.1.9 2 2 2h22c1.1 0 2-.9 2-2V2c0-1.1-.9-2-2-2H2C.9 0 0 .9 0 2z" style="fill:#93989c"/><path class="st3" d="M19.04 18.04c-.06-.04-.13-.06-.17-.11a.938.938 0 0 1-.25-.53c0-.03-.01-.07-.02-.12-.04.04-.09.07-.12.12-.1.14-.26.19-.41.23-.04.01-.08.02-.13.04-.14.05-.27 0-.4-.06-.17-.09-.34-.17-.52-.24-.04-.02-.09-.03-.14 0-.14.09-.35.03-.42-.12a.373.373 0 0 1 0-.31c.07-.19.12-.38.2-.57.08-.2.2-.37.38-.5.09-.07.18-.14.28-.19.11-.06.24-.1.36-.15 0 0 0 .01.01.02-.03.02-.05.05-.08.07-.2.16-.3.39-.39.62-.07.19-.13.38-.16.58 0 .05-.01.1-.01.16 0 0 .02.01.03.01.08 0 .16-.03.24-.03.1 0 .2.03.3.06.12.03.25.06.37.01.06-.03.13-.06.18-.11.08-.09.17-.19.23-.29.21-.36.33-.76.44-1.17.01.09.03.17.03.25.01.14.02.27.02.41 0 .23-.02.46-.08.69-.02.06.02.1.04.15.06.1.11.2.16.29.08-.1.14-.21.24-.29.13-.11.25-.25.43-.27.06 0 .14 0 .2.03.07.03.14.07.2.12.04.03.07.08.11.12 0 0 .01 0 .02-.01 0-.1.02-.19.03-.29v-.39a.22.22 0 0 0-.04-.13c-.11-.15-.23-.3-.35-.44-.01.03-.03.07-.05.1-.07.09-.17.13-.28.09-.14-.04-.29-.07-.38-.19a.826.826 0 0 1-.19-.45v-.39c0-.02 0-.04.01-.07.1.09.18.17.27.25.14.12.26.27.44.35.09.04.16.14.24.2.22.18.46.33.74.41.21.05.41.04.58-.12.09-.09.18-.17.25-.27.05-.08.09-.17.11-.26.02-.08-.04-.13-.16-.14-.04 0-.09 0-.13.02-.11.03-.23.05-.34 0-.1-.05-.21-.08-.31-.13-.12-.07-.14-.2-.17-.32 0-.04-.02-.07-.03-.12-.05.07-.09.12-.12.18-.11.21-.29.3-.52.32-.06 0-.15-.02-.19-.06-.11-.1-.2-.21-.29-.32a.33.33 0 0 1-.06-.19c0-.23.03-.47.05-.7.14.23.23.48.44.65.09-.12.17-.25.26-.35.1-.11.22-.21.34-.29.13-.09.28-.09.43.04.03.02.05.04.08.06.12.09.12.24.16.37.02.05 0 .11.01.16.02.08.06.11.13.09.23-.08.44 0 .66.04.11.02.17.09.22.18.05.09.1.17.15.26.06.12.03.24 0 .35-.04.14-.09.28-.14.42 0 .01 0 .03-.02.04-.13.13-.25.27-.39.39-.1.08-.21.17-.35.19-.19.03-.38.09-.57-.02l-.01.01.12.42c.03.09.06.18.07.28 0 .06 0 .14-.03.2-.03.07-.07.14-.11.21-.07.11-.2.11-.31.14-.17.05-.34 0-.51-.04-.11-.03-.21-.08-.32-.11 0 0-.03.02-.04.03-.07.1-.13.2-.2.29a.37.37 0 0 1-.24.14s0 .01-.01.02h-.09l-.01-.02z"/><path class="st1" d="M17.48 9.79c-.29-.05-.58-.11-.87-.16l-.72-.15c-.32-.07-.63-.15-.95-.23-.29-.07-.57-.16-.85-.25-.3-.1-.6-.2-.89-.31-.17-.07-.34-.15-.51-.23-.39-.17-.76-.37-1.1-.62-.18-.13-.36-.28-.53-.43-.3-.28-.6-.55-.93-.8s-.68-.48-1.05-.67c-.34-.18-.7-.3-1.08-.37-.1-.02-.21-.02-.31-.03-.14 0-.28-.01-.42-.01-.12 0-.24.01-.36.02h-.52c-.17.03-.33.07-.5.11-.25.07-.48.18-.7.31-.26.15-.49.34-.7.55-.13.13-.26.27-.39.4-.16.16-.33.3-.49.47-.21.22-.41.46-.6.7-.21.25-.41.51-.61.77l-.24.33s-.01.01-.04.03c.04-.14.07-.27.11-.4.11-.33.21-.65.33-.98.06-.17.15-.34.23-.51.14-.28.28-.57.43-.84.08-.14.18-.28.29-.41.11-.14.23-.27.36-.4.31-.33.65-.6 1.03-.84.25-.16.5-.29.78-.38.22-.07.44-.11.66-.16.11-.02.23-.04.34-.05h.36c.06 0 .13-.01.19-.01.14 0 .27 0 .41.01s.28.04.42.06c.31.05.59.15.88.27.32.13.62.29.9.49.23.16.46.34.68.52.17.14.33.29.5.44.03.03.06.05.09.07.23.25.45.5.69.74.13.13.28.24.43.34.24.15.5.28.76.41.32.16.64.31.97.47.28.13.56.26.83.4.47.23.95.46 1.42.69.19.09.38.19.57.28.22.11.45.21.67.32.02 0 .03.02.05.03l-.02.01zM22.59 9.69c-.29.05-.56.11-.84.15-.24.04-.49.07-.74.09-.24.02-.49.03-.74.02-.21 0-.42-.03-.63-.06a5.88 5.88 0 0 1-1.24-.29c-.34-.12-.67-.28-.98-.46-.35-.21-.68-.44-.99-.7-.22-.19-.44-.4-.64-.61-.12-.13-.21-.29-.31-.43-.31-.45-.63-.89-.95-1.34-.27-.37-.56-.74-.84-1.11-.18-.22-.36-.44-.55-.65-.2-.23-.41-.45-.61-.67-.13-.14-.27-.28-.41-.41-.3-.28-.61-.55-.97-.74-.24-.12-.49-.22-.74-.32-.33-.14-.68-.22-1.03-.29-.16-.03-.33-.04-.49-.05-.19-.01-.38-.02-.57-.01-.25.02-.51.05-.76.08-.39.06-.75.18-1.12.31.06-.05.13-.09.19-.14.07-.04.13-.09.2-.13.23-.13.45-.26.69-.37.32-.15.66-.25 1.01-.33.35-.07.7-.1 1.05-.08.23.01.46.04.69.09.24.05.47.12.7.19.38.12.73.32 1.05.56.25.18.49.37.7.58.21.2.42.4.62.61.16.16.31.33.45.5l.66.81c.23.29.46.59.69.89.18.24.35.48.52.72.24.35.47.7.72 1.04.08.11.19.2.29.3.08.08.17.16.25.24.29.26.6.5.93.69.23.13.45.26.69.37.54.26 1.1.47 1.68.62.31.07.62.14.93.2.18.03.36.05.54.07.28.02.57.04.85.05l.02.02.03-.01z"/><path class="st1" d="M20.4 4.23c-.12-.2-.21-.39-.33-.57-.17-.25-.35-.5-.53-.74-.1-.14-.23-.26-.35-.38-.14-.14-.29-.27-.48-.36a1.29 1.29 0 0 0-.28-.08c-.07-.01-.14 0-.21-.01-.18-.02-.33.06-.48.15-.12.06-.23.12-.34.2-.08.06-.14.14-.21.22-.13.17-.22.37-.26.58-.02.11 0 .23 0 .35 0 .18.04.34.1.5a5.367 5.367 0 0 0 .67 1.35c.19.27.38.53.59.78.23.27.47.53.71.8.36.42.82.72 1.32.94a8.147 8.147 0 0 0 2.19.61c.28.04.55.06.83.09l.49.03h.67v.02c-.18.05-.35.1-.53.14l-.86.18c-.15.03-.31.04-.46.05-.25.02-.51.04-.76.04s-.49-.04-.74-.06c-.33-.03-.64-.11-.95-.2a3.12 3.12 0 0 1-.39-.15c-.2-.1-.39-.2-.58-.32-.45-.27-.81-.64-1.17-1.02-.16-.16-.31-.34-.46-.51-.36-.42-.69-.86-.98-1.33-.19-.3-.36-.62-.48-.95-.1-.26-.17-.54-.21-.82-.03-.23-.04-.46-.04-.69 0-.16.05-.33.09-.49.08-.35.27-.65.48-.93.11-.13.22-.26.34-.39.14-.15.48-.28.76-.3.29-.04.49.02.64.05.3.06.54.23.77.41.12.1.25.19.35.31.12.13.23.27.33.42s.19.32.27.48c.14.27.23.55.3.84.06.23.11.47.16.7v.05l.02.01z"/><path class="st3" d="M17.22 14.79c-.04.24-.1.31-.34.37-.12.03-.26-.05-.36-.2-.04.13-.07.27-.11.4-.07.2-.17.39-.34.52a.12.12 0 0 0-.05.05c-.09.12-.23.12-.35.16-.23.07-.46.1-.7.11-.21 0-.41-.05-.58-.17a.623.623 0 0 1-.27-.44.12.12 0 0 0-.05-.09c-.11-.11-.15-.26-.18-.41 0-.04-.01-.08-.02-.12 0-.04-.03-.06-.07-.07-.27-.07-.49-.22-.7-.41-.3-.27-.52-.58-.68-.95a2.1 2.1 0 0 1-.16-.46.745.745 0 0 1 .13-.61h.06c.17.09.28.24.36.4.09.18.16.37.25.56.13.27.31.51.56.68.21.14.43.26.69.28.18.02.36.02.52-.05.21-.08.4-.19.58-.33.12-.1.24-.21.35-.32.15-.16.28-.33.42-.49-.03.07-.05.15-.08.22-.11.22-.21.45-.33.67-.11.19-.25.36-.41.5-.22.19-.46.34-.76.38-.07 0-.11.03-.13.11-.04.13-.11.25-.18.39.2.03.41.07.62.09s.42 0 .62-.07.38-.17.47-.38c.11-.26.24-.5.34-.76.08-.22.13-.45.2-.69.04.1.08.19.12.29.03.06.06.13.08.19.02.04.04.04.07 0 .06-.06.12-.13.18-.19-.19-.08-.34-.22-.45-.39-.04-.06-.04-.15-.05-.23v-.27h.02c.02.02.04.04.06.05.14.07.27.15.41.22.06.03.14.03.2.05.23.06.27.26.2.44-.02.04-.07.07-.1.11v.05c.23.11.37.32.5.52 0 0 0 .01.01.02l.02.01v-.42c0-.18.02-.36.04-.54 0-.04-.01-.05-.04-.07-.1-.08-.21-.15-.31-.23-.09-.07-.1-.16-.11-.26v-.46c0-.04 0-.06-.05-.06-.02 0-.04 0-.05-.01-.06-.09-.13-.05-.21-.03-.2.04-.36.16-.54.23-.02 0-.04.02-.07.03 0-.03-.02-.06-.03-.1a7.5 7.5 0 0 0-.13.2c.01-.09.02-.16.03-.23.01-.12.03-.23.04-.35 0-.1.02-.2.01-.3-.01-.19-.03-.39-.05-.58-.01-.11-.05-.21-.08-.31-.04-.15-.14-.27-.24-.38-.13-.15-.27-.3-.42-.43-.13-.11-.27-.21-.44-.24-.08-.02-.11 0-.13.08-.06.24-.11.47-.12.72-.01.27 0 .53.05.79.07.4.23.76.41 1.14l-.16-.16c-.05-.05-.1-.1-.14-.16-.1-.12-.2-.24-.28-.37-.17-.26-.3-.54-.37-.84-.06-.24-.08-.48-.07-.72 0-.1.03-.21.05-.31.02-.07.03-.15 0-.22-.06-.16.04-.29.14-.37.17-.14.37-.19.57-.22.06 0 .13.03.19.04.28.05.51.19.72.38.25.23.48.47.68.75.06.09.08.21.11.32.07.21.08.43.06.65 0 .12-.05.24-.08.37 0 .02-.01.04-.02.07.04-.01.08-.02.11-.04.12-.05.22-.02.32.07.01.01.04.01.07 0 .07 0 .15-.02.22-.03.1 0 .15.08.21.15.03.04.06.06.11.07.15.03.21.16.22.3v.34c0 .06.02.1.07.13.12.08.25.15.35.25.05.05.08.15.07.23 0 .2-.04.4-.06.6-.01.16-.01.32-.01.47 0 .11.02.23.02.34a.589.589 0 0 1-.54.53c-.09 0-.18-.05-.26-.09a.862.862 0 0 1-.4-.4c0-.01-.02-.03-.04-.05l-.01-.01z"/><path class="st1" d="m13.39 9.9-.28.03c-.46.05-.93.07-1.39.05-.29-.01-.58-.05-.87-.11-.24-.04-.48-.11-.72-.19-.17-.05-.32-.14-.48-.22-.3-.16-.6-.33-.91-.47-.11-.05-.24-.05-.36-.07-.08-.01-.16-.02-.25-.01-.11 0-.22.03-.33.05-.1.02-.21.04-.3.09-.12.06-.24.13-.34.22-.18.14-.31.34-.45.52-.09.11-.19.21-.26.33-.07.1-.12.21-.16.32-.07.17-.12.35-.18.54-.05-.27-.11-.54-.16-.8-.03-.17-.06-.34-.1-.5-.05-.2-.02-.39.01-.59.06-.34.24-.61.44-.88.13-.17.32-.29.51-.4.26-.16.56-.23.85-.27.14-.02.27-.04.41-.04.22 0 .44.06.65.14.23.09.45.22.64.38.15.14.32.26.45.42.22.27.53.4.84.54.37.16.74.31 1.12.44.53.17 1.07.32 1.6.47l.03.01h-.01zM20.13 4.65c.15.38.37.72.59 1.06.15.24.34.46.51.68.12.15.25.3.39.44.19.18.38.36.58.53.28.23.57.45.86.67.14.1.28.19.42.3-.1-.02-.19-.03-.28-.05-.32-.08-.64-.17-.95-.27-.48-.15-.91-.4-1.31-.71a2.94 2.94 0 0 1-.6-.62c-.2-.28-.31-.6-.37-.93-.04-.23-.02-.47.04-.69.04-.13.07-.26.11-.39l.01-.02zM23.24 10.72c.04.2.07.39.11.58.02.12.03.24.05.36.01.1.02.2.02.3 0 .1 0 .21-.01.31-.02.17-.05.33-.09.5-.04.2-.12.38-.22.55-.03.05-.05.1-.09.14-.2.24-.45.38-.76.44-.11.02-.21.03-.31-.01-.23-.08-.35-.15-.43-.25.24-.06.42-.23.58-.4.13-.13.23-.3.33-.46.23-.42.4-.86.56-1.31.09-.24.17-.49.26-.74v-.01zM17.61 10.92c1.06.25 2.11.4 3.19.11-.25.2-.5.39-.8.5-.19.07-.39.15-.59.19-.31.07-.62.06-.93-.04-.19-.06-.37-.14-.51-.27s-.26-.29-.34-.47c0 0 0-.01-.01-.03l-.01.01zM19.18 12.39c.1 0 .2 0 .31-.02l.55-.06c.12-.02.25-.03.36-.06.13-.04.25-.1.38-.15.27-.11.52-.25.77-.4-.07.11-.12.23-.2.34-.11.16-.22.32-.37.46-.13.12-.29.2-.45.29-.17.1-.36.13-.55.13-.12 0-.23-.05-.35-.08-.17-.05-.4-.28-.46-.45h.01z"/><path class="st3" d="M14.73 12.28c-.09-.07-.17-.13-.25-.19a.873.873 0 0 0-.48-.19c-.11 0-.23.05-.34.09-.12.05-.22.15-.3.26-.08.11-.2.16-.33.17-.13 0-.26 0-.39-.01v-.03c.09-.04.18-.07.27-.11.13-.06.23-.14.31-.26a.72.72 0 0 1 .22-.24c.14-.11.3-.21.49-.24.14-.02.26 0 .37.08.07.05.14.11.2.17.07.08.14.17.19.27.03.06.03.13.05.22l-.01.01zM3.84 15.47s.03-.13.1-.24c.07-.11.12-.16.15-.16.07 0 .18.01.35.04.16.03.31.06.45.08 0-.03-.01-.05-.02-.09a.161.161 0 0 0-.04-.07c.23.06.49.25.79.57.3.32.45.55.45.66 0 .03-.01.06-.04.11s-.06.09-.08.13l1.05.03c.36 0 .65 0 .88-.02.23-.01.36-.03.38-.05.15 0 .32.01.51.04s.29.07.29.14c0 .1-.09.21-.26.32-.18.12-.31.17-.41.17-.48-.05-.95-.1-1.39-.15-.45-.05-.76-.07-.94-.07-.6 0-1.01.01-1.21.04s-.41.08-.61.15l-.03-.03c0-.2.05-.34.14-.42.09-.08.22-.17.39-.25 0-.04-.05-.14-.14-.32-.09-.18-.14-.33-.14-.45-.18 0-.28.03-.28.09s.04.16.13.32c.08.16.13.27.13.32 0 .02-.04.06-.11.12s-.12.09-.15.09h-.06c0-.12-.04-.32-.13-.61s-.13-.46-.13-.53l-.02.04zM2 13.7c.12-.18.12-.43.23-.61.01-.04.02-.08.04-.11.04-.09.07-.13.11-.13.03 0 .07.02.14.07s.12.09.17.14c-.04-.24-.08-.48-.13-.73 0-.06.04-.18.11-.38.08-.2.17-.29.29-.29.05 0 .09.04.12.11.03.08.04.15.04.22-.02.23-.03.47-.04.73-.01.25-.02.44-.02.56.25.25.43.48.54.68s.17.41.17.61c-.14-.15-.27-.29-.41-.42-.14-.14-.25-.23-.33-.28 0 .1.03.28.08.55s.11.55.17.83c.18.02.31.04.39.08s.13.1.13.19c0 .06-.04.13-.13.2-.1.07-.17.11-.2.13.13.25.19.43.19.55 0 .08-.04.17-.11.25s-.18.2-.33.37l-.03-.03.03-.34c0-.06-.02-.18-.06-.37s-.06-.3-.06-.34c-.05.02-.12.03-.22.04-.1.01-.23.03-.4.05L2.46 16c.05-.11.14-.22.25-.34.14-.12.23-.2.27-.24-.02-.02-.08-.05-.18-.12-.1-.06-.17-.1-.19-.13.05.01.11.02.18.03.08.01.14.02.18.03a9.13 9.13 0 0 0-.12-.76c-.07-.38-.11-.63-.13-.75-.03-.01-.05-.03-.09-.04-.19-.18-.44.13-.57.26-.06 0-.06-.13-.07-.2 0-.02 0-.05.01-.07v.03zm2.82 1.95c.21.23.35.37.39.42.05.05.1.12.16.2-.08-.04-.18-.08-.28-.14a.596.596 0 0 0-.18-.08v.23c-.02.06-.03.11-.03.14.09.01.21.02.34.04s.25.02.33.02c0-.06-.04-.2-.13-.41-.08-.21-.15-.33-.21-.36-.04-.01-.11-.02-.2-.03-.09-.01-.16-.02-.2-.03h.01zM3.5 12.34c0-.1.04-.25.12-.44.08-.2.17-.29.28-.29.23.03.45.06.65.08s.36.04.46.04c.17 0 .53-.01 1.08-.03s1.17-.05 1.87-.07c.69-.03 1.06-.04 1.1-.04.03 0 .07 0 .11.02.23.03.48.29.25.52a.3.3 0 0 1-.04.08c-.04.08-.1.17-.17.26-.19.25-.39.43-.61.54.03-.04.06-.13.09-.28.04-.15.06-.25.06-.31s-.05-.12-.15-.15c-.1-.02-.33-.04-.67-.04-.1 0-.45.01-1.05.03-.6.02-1.11.03-1.53.03 0 .1 0 .23.03.4.02.17.03.29.03.36 0 .03-.01.07-.04.12-.03.05-.06.09-.11.13.27 0 .4.06.4.18 0 .03-.02.06-.07.09l-.15.09c.04.05.08.13.12.22.04.1.1.24.16.43l.24.02c-.03-.09-.06-.21-.09-.37-.03-.15-.04-.27-.04-.33 0-.14.04-.29.13-.46.09-.16.21-.25.36-.25s.4.1.72.31c.32.21.48.34.48.4s-.01.12-.04.19-.07.13-.11.17v.34h.13c.12-.3.23-.61.34-.92.13-.27.3-.4.52-.4.1 0 .16.05.16.16s-.1.27-.29.55-.3.47-.32.59h.44c.15 0 .3-.01.45-.02.14 0 .25.02.32.06s.11.07.11.09c0 .21-.08.39-.23.54s-.35.32-.6.5c.05-.16.09-.3.12-.4.03-.1.04-.19.04-.24 0-.01-.06-.02-.18-.02h-.65c.25.25.44.5.59.75.14.25.22.47.22.67 0 .08-.02.14-.06.18-.05-.17-.15-.34-.31-.5-.16-.17-.31-.33-.46-.48-.05.15-.29.28-.71.39-.42.11-.72.16-.9.16l-.02-.02c.02-.08.05-.16.09-.23s.1-.14.19-.2c-.06-.18-.12-.34-.16-.48-.04-.14-.07-.21-.09-.23H5.9l.21.43s-.05-.09-.1-.15-.1-.12-.15-.16c0 .08 0 .16-.03.26-.02.09-.05.2-.09.33h-.06c-.05-.08-.1-.2-.15-.37-.06-.17-.1-.28-.12-.33-.12 0-.24.01-.35.04-.11.03-.21.07-.29.14h-.06c0-.34.04-.55.11-.62s.23-.11.47-.11c-.02-.05-.03-.1-.04-.15a.585.585 0 0 1-.02-.13c0-.06.01-.14.03-.22-.03.01-.05.02-.08.02h-.07c-.08-.03-.23-.05-.45-.07s-.49-.03-.81-.03l-.03-.03c.06-.09.12-.17.18-.23s.17-.12.31-.2a1.67 1.67 0 0 0-.07-.24c-.04-.11-.07-.22-.11-.32 0-.05.02-.13.06-.22s.08-.14.12-.14c.07 0 .15.08.24.24.09.16.18.33.28.52l-.28-.21v.18c0 .06-.01.14-.03.22h.53l-.09-.61s.01-.12.03-.22.03-.17.03-.18h-.61c-.18 0-.31.01-.37.03-.08.05-.13.09-.15.11s-.04.07-.04.13c0 .09.02.19.06.31s.08.24.13.36c0 .04-.02.08-.05.12s-.11.09-.23.16l-.03.03c0-.13-.02-.3-.06-.51s-.08-.43-.13-.65l-.04-.02zm2.88 2.45a1.515 1.515 0 0 0 .1.4s0 .03-.02.06c-.01.04-.02.07-.02.09l.06.06c.14-.05.25-.08.34-.11.08-.03.21-.07.37-.13l-.18-.4H6.9c0 .14-.01.24-.04.31-.02.07-.05.12-.09.16h-.06l-.18-.43h-.16l.01-.01zm-.31-1.05s.02.11.06.24c.04.13.07.24.1.35h.13l-.06-.24c0-.07 0-.13.03-.19.02-.06.06-.09.12-.09.05 0 .13.07.26.21s.23.24.3.31v-.34c-.11-.08-.26-.17-.46-.27s-.32-.15-.37-.15c-.06 0-.09.06-.09.18l-.02-.01z"/></svg>