<svg id="_图层_1" xmlns="http://www.w3.org/2000/svg" version="1.1" viewBox="0 0 26 19"><defs><style>.st1{fill:#005529}.st3{fill:#881c21}</style></defs><rect x="3.62" y="-3.37" width="18.75" height="25.75" rx="1.88" ry="1.88" transform="rotate(-90 12.995 9.505)" style="fill:#f5f6f7"/><path d="M.25 2C.25 1.04 1.04.25 2 .25h22c.96 0 1.75.79 1.75 1.75v15c0 .96-.79 1.75-1.75 1.75H2c-.96 0-1.75-.79-1.75-1.75V2M0 2v15c0 1.1.9 2 2 2h22c1.1 0 2-.9 2-2V2c0-1.1-.9-2-2-2H2C.9 0 0 .9 0 2z" style="fill:#93989c"/><path class="st1" d="M3.04 9.45c0-.05.01-.1.02-.16 0-.07.01-.14.02-.21 0-.02.02-.05.03-.07.04-.08.07-.16.12-.24a.12.12 0 0 1 .05-.05c.08-.04.15-.08.23-.12.1-.05.19-.05.28.02.04.03.07.06.11.08.06.03.1.08.11.14.03.1.07.2.09.3.02.09.04.19.04.28 0 .17.02.34.06.5.02.09.03.18.04.28.02.12-.02.23-.03.34 0 .13-.08.23-.12.34-.01.03-.01.04 0 .07.11.15.24.28.37.41.13.12.26.24.4.35a4.523 4.523 0 0 0 1.58.76c.12.03.25.05.38.07.12.02.25.04.37.05l.28.03h.02c.09-.08.21-.1.32-.16.09-.05.2-.05.3-.07.06-.02.12.06.1.13-.01.04-.03.08-.04.11 0 .02 0 .03.02.03h.35c.06 0 .13 0 .19-.01.12-.01.23-.02.35-.04l.35-.06h.02c.04-.01.05-.02.01-.05-.05-.04-.11-.08-.16-.12h-.03c-.09.06-.17.02-.26-.02a1.06 1.06 0 0 1-.33-.22c-.08-.07-.16-.15-.25-.21a.558.558 0 0 0-.16-.07c-.1-.03-.21-.05-.31-.07-.14-.03-.28-.06-.42-.11-.1-.04-.2-.1-.3-.15-.01 0-.02-.02-.03-.04-.04-.09-.09-.18-.13-.27a.148.148 0 0 1 0-.13c.02-.09.05-.18.07-.27.02-.06.05-.1.09-.15.03-.03.05-.06.07-.08.05-.06.1-.09.17-.1.05 0 .1-.02.15-.03.11-.03.23-.02.35 0 .06 0 .12 0 .18.01.17.01.33.06.49.12.18.07.33.17.45.32.07.09.14.19.18.31 0 .03.03.05.04.08.07.11.09.23.12.34.03.1 0 .19-.03.29 0 .01 0 .03-.02.04-.01.02 0 .03.02.04.14.03.25.11.36.18.06.03.1.08.15.13.02.02.04.02.06 0 .22-.13.45-.25.67-.38.18-.11.35-.22.53-.33.06-.04.11-.08.16-.12.07-.07.16-.11.24-.16.25-.15.5-.29.74-.44.16-.1.32-.2.48-.31.24-.17.48-.35.71-.53a8.265 8.265 0 0 0 .67-.56c.11-.1.21-.2.31-.3s.2-.21.28-.34a.17.17 0 0 1 .06-.06c0 .02 0 .04-.01.06-.07.18-.15.37-.25.54-.06.1-.12.2-.19.29-.09.12-.18.23-.27.34-.07.08-.13.16-.21.23-.1.1-.21.2-.32.29-.09.08-.18.16-.27.23-.11.09-.22.18-.33.26-.26.18-.51.36-.78.53-.2.13-.4.25-.61.37-.22.13-.43.26-.65.38-.22.13-.44.25-.65.38-.2.11-.39.23-.59.34-.07.04-.15.06-.24.08-.12.03-.25.06-.37.08-.08.01-.16.01-.23.02-.22.03-.44.02-.66.02-.04 0-.04.01-.03.04.05.23.13.45.22.66.06.13.11.26.15.4.04.16.04.32 0 .48-.02.11-.09.18-.15.27a.48.48 0 0 1-.32.2.53.53 0 0 1-.37-.07c-.16-.08-.29-.2-.41-.33a1.77 1.77 0 0 1-.39-.71c-.02-.08-.03-.17-.04-.25v-.09c0-.16.05-.3.1-.45.03-.08.06-.15.09-.23.01-.02 0-.03-.02-.03l-.41-.06a3.53 3.53 0 0 1-.84-.25 4.374 4.374 0 0 1-1.01-.56c-.12-.09-.24-.18-.35-.28-.15-.13-.29-.27-.43-.41-.1-.11-.19-.23-.29-.34-.05-.05-.1-.11-.16-.15-.09-.06-.14-.15-.21-.23-.11-.16-.19-.34-.25-.53-.04-.14-.07-.28-.07-.43v-.42l.03-.01z"/><path class="st1" d="M12.43 18.06c-.07-.03-.15-.07-.22-.1a.304.304 0 0 1-.07-.05c-.11-.11-.18-.23-.26-.36-.03-.06-.04-.13-.05-.2 0-.04-.01-.08-.02-.13v-.08c.02-.12.03-.25.07-.36.07-.2.14-.4.22-.6.04-.1.1-.2.15-.3v-.05c-.02-.07-.06-.13-.08-.19-.04-.14-.08-.28-.11-.42 0-.04-.02-.08-.02-.12-.04.07-.07.13-.12.19-.1.13-.2.25-.33.36l-.21.18c-.09.06-.2.12-.29.18-.09.06-.2.07-.31.08-.06 0-.12.02-.18.02-.15 0-.29-.03-.43-.07-.03 0-.07-.02-.1-.03a.259.259 0 0 1-.11-.07c-.05-.05-.11-.09-.16-.15-.03-.03-.04-.07-.06-.11-.02-.06-.03-.12-.05-.17v-.02c-.06-.09-.04-.18-.02-.27 0-.04.01-.08.02-.13.01-.08.07-.11.13-.14.04-.02.08-.05.12-.07.03-.01.07-.02.11-.03.02 0 .05-.01.07-.02.07-.02.15-.03.23 0l.1.03c.08.02.16.06.22.11.07.05.14.07.22.08h.1c.12 0 .23 0 .34-.04.14-.04.28-.05.42-.1.08-.03.15-.08.22-.14.03-.03.04-.06.04-.11v-.46c0-.12.01-.25.04-.37.05-.21.13-.41.21-.61.01-.02.02-.05.03-.08-.02 0-.03.01-.04.02-.14.1-.29.17-.44.22-.04.01-.07.04-.09.08 0 .02-.02.04-.03.06-.04.1-.11.16-.18.22-.1.08-.22.12-.33.17-.12.05-.25.06-.37.08-.05 0-.1.02-.15.02-.03 0-.06 0-.09-.02-.09-.03-.19-.06-.28-.09-.01 0-.03-.01-.03-.03-.06-.13-.15-.26-.17-.41v-.15c.02-.07.05-.13.07-.2 0-.03.03-.05.06-.06.19-.1.4-.17.61-.21.09-.02.18-.02.26-.03h.24c.09 0 .17 0 .25-.03.03-.01.06-.02.09-.02.2 0 .39-.02.59-.06.09-.02.18-.05.27-.07.02 0 .05-.03.06-.05.1-.14.19-.3.3-.43.13-.17.28-.32.45-.46.22-.18.45-.33.69-.47.03-.02.06-.03.09-.05h.01c-.04.04-.09.08-.13.12l-.14.14-.03.03c-.19.19-.35.39-.51.61-.21.28-.38.58-.53.9-.04.08-.07.15-.09.23 0 .03 0 .07.01.1.07.17.17.31.3.44.1.1.21.2.32.28.1.07.21.13.32.2.17.1.35.19.54.26.02 0 .05.02.08.01.12-.02.23 0 .35.02.09.01.16.05.22.12.09.08.15.18.18.29.03.08.03.15-.01.23-.04.07-.07.14-.11.21-.02.03-.06.06-.09.08-.16.12-.34.18-.52.24h-.1c-.13 0-.27-.01-.39-.05a2.35 2.35 0 0 1-.37-.14.897.897 0 0 1-.27-.21c-.1-.11-.18-.22-.25-.35-.06-.13-.12-.25-.17-.38-.05-.15-.1-.3-.11-.46 0-.09-.02-.18-.02-.26v-.31c-.01.05-.03.1-.04.15-.03.13-.06.27-.07.4-.01.13 0 .27 0 .4v.12c.01.16.03.32.05.48.01.1.04.2.06.3.03.15.1.29.18.43.05.09.13.14.2.19.24.15.5.23.77.29.15.03.3.05.45.06.09.01.19.01.29.02.09 0 .17.02.26.03.08 0 .15.01.23.02.08 0 .17.02.25.03.08 0 .15.01.23.02.11.01.23.03.34.04.09 0 .13.07.17.14.02.04.02.08 0 .13-.05.17-.15.32-.26.45-.09.1-.19.18-.3.25-.06.04-.13.05-.2.08-.11.05-.23.05-.34.06-.13 0-.25-.02-.37-.04-.07-.01-.14-.02-.21-.02h-.04c-.18-.07-.37-.14-.52-.26-.1-.08-.2-.16-.29-.27s-.19-.2-.3-.29c-.16-.13-.33-.23-.5-.34-.04-.03-.07-.07-.11-.11-.01-.02-.03-.03-.05-.05.04.14.08.28.13.42.03.1.08.19.11.28.04.12.09.23.1.35 0 .07.02.15.02.22 0 .08-.02.17-.03.25-.02.09-.08.15-.15.21-.04.04-.11.05-.17.08-.01 0-.02.01-.04.02h-.03zM18 5.3c-.06-.07-.11-.15-.17-.22-.09-.12-.18-.23-.26-.35a14.117 14.117 0 0 1-.8-1.23c-.01-.02-.02-.04-.05-.03-.07.02-.15.03-.23.04-.1.02-.2 0-.29-.04-.09-.03-.18-.08-.27-.13-.03-.01-.05-.02-.08-.02h-.21c-.19 0-.39-.01-.58-.06-.12-.03-.24-.07-.36-.11-.03-.01-.06-.04-.09-.06-.07-.05-.15-.1-.22-.16a.473.473 0 0 1-.13-.11c-.04-.05-.07-.11-.1-.16-.08-.12-.08-.25-.11-.38 0-.02 0-.04.01-.05.04-.09.07-.18.11-.27.01-.02.03-.05.05-.06.06-.04.12-.07.17-.11.07-.05.14-.07.22-.08.08 0 .16-.02.24-.03.01 0 .03 0 .04-.02.06-.03.12-.06.19-.09.06-.02.13-.03.19-.04.02 0 .05 0 .07-.01.08-.02.15.01.23.01.11 0 .2.05.3.08.05.02.1.03.15.01.07-.02.12 0 .17.04.06.04.12.07.18.12.02.02.04.05.05.08.03.09.05.19.08.28v.06c0 .17.01.35.04.52.02.1.03.21.05.31.02.1.08.18.14.26l.48.63c.22.3.43.59.66.89.13.18.27.35.41.52.11.14.23.29.35.43.07.09.15.17.22.25.13.15.26.29.4.44.11.12.23.23.35.34l.01.01a8.496 8.496 0 0 0 .89.75c.08.06.16.11.24.16.03.02.04.02.07-.01.09-.13.18-.24.27-.37.13-.2.22-.42.25-.65.02-.11.03-.23.05-.34.01-.09.07-.15.12-.22.06-.08.14-.15.22-.2.05-.03.11-.04.17-.06.14-.04.28 0 .41.04.13.05.26.1.37.18a.57.57 0 0 1 .16.16c.06.05.09.12.11.2.01.06.04.11.04.17 0 .07 0 .13-.01.2 0 .06-.02.12-.04.17 0 .02-.01.05-.03.07-.04.07-.08.15-.12.21-.01.02-.04.03-.06.04-.09.04-.19.08-.28.13h.27c.09.01.17.03.26.06.04.01.07.04.11.07.02.02.04.03.07.05.05.03.09.07.12.13.08.16.18.31.25.47.03.07.04.15.06.23.03.1 0 .19-.02.29-.01.06-.04.12-.06.17-.05.14-.13.26-.21.38 0 .01-.02.03-.04.04-.06.03-.12.06-.18.1-.07.04-.15.04-.23.04-.14 0-.28 0-.42-.03-.07 0-.13.01-.2.02-.08 0-.13.06-.19.1-.08.06-.15.12-.23.16a.37.37 0 0 1-.15.04h-.25c-.2 0-.38-.07-.57-.12-.05-.01-.09-.05-.14-.08a.138.138 0 0 1-.04-.03c-.02-.02-.03-.01-.05 0-.14.1-.24.24-.32.39-.15.27-.24.56-.33.86l-.15.49c-.03.11-.05.23-.07.35-.03.14-.03.28-.03.43 0 .13.02.27.04.4.02.2.08.4.15.59.04.11.09.21.13.32 0 .02.01.03.02.05-.02-.02-.04-.04-.06-.07a2.595 2.595 0 0 1-.51-1.16c-.01-.09-.02-.18-.02-.27v-.26c.01-.15.02-.3.05-.44.04-.2.09-.4.14-.6.06-.24.16-.47.31-.67s.35-.35.59-.43c.02 0 .04-.01.06-.02-.06-.09-.12-.18-.18-.26-.03-.05-.08-.08-.13-.12-.11-.09-.21-.19-.29-.3-.05-.07-.11-.14-.15-.22-.04-.07-.07-.15-.11-.22-.01-.02 0-.04.03-.05h.09c.04 0 .08-.01.12 0 .06 0 .13.01.19.02.2.04.38.14.54.26.05.04.1.09.15.13.07.06.15.1.25.11.18.03.13.03.27-.07.08-.06.14-.14.21-.21.05-.05.07-.11.1-.17.01-.03 0-.04-.02-.04h-.08c-.12-.04-.24-.08-.36-.13-.11-.04-.21-.09-.32-.15-.24-.12-.47-.27-.69-.43-.14-.11-.27-.21-.41-.33-.08-.07-.15-.14-.23-.21-.15-.14-.29-.29-.44-.43 0 0-.01 0-.03-.02m-.14 5.13 3.21-4.26-.26.03c-.13.01-.26.03-.39.03h-.45c-.03 0-.05 0-.07.03-.06.05-.12.1-.18.16-.03.03-.03.04 0 .05.07.04.14.08.21.11.21.11.44.18.66.26.03.01.04 0 .05-.02.05-.12.09-.25.16-.36.06-.11.12-.23.26-.27l-3.2 4.24z"/><path class="st1" d="M21.41 12.24c-.04-.05-.08-.09-.11-.14-.01-.02-.02-.03-.03-.05-.1-.21-.16-.43-.2-.66-.04-.21-.04-.41-.03-.62.01-.26.07-.51.15-.76.02.09.04.17.07.26.06.21.13.42.22.62.11.24.22.48.34.72.1.2.22.4.32.59l.24.42c.02.04.04.08.05.12.06.14.09.29.11.44.01.11-.03.2-.04.3-.01.1-.06.18-.13.25-.05.06-.1.12-.16.17-.03.03-.08.05-.12.07-.18.11-.32.25-.41.44-.02.03 0 .08 0 .12 0 .06.01.11.02.17 0 .07.02.15 0 .22-.01.12-.01.24-.06.36 0 0 0 .02-.01.03-.07.06-.13.12-.2.16-.05.03-.11.05-.16.07-.04.01-.07.03-.11.04-.02 0-.05.02-.07.02-.11 0-.22.01-.33.01-.1 0-.19-.02-.29-.02-.06 0-.12.03-.17.05l-.02.02a.51.51 0 0 0-.06.27v.32c0 .27.05.52.19.75.03.05.06.08.09.13 0 0 .01.02.02.02a.467.467 0 0 0-.1-.05c-.15-.09-.28-.21-.38-.36-.05-.07-.08-.16-.13-.23a.345.345 0 0 0-.12-.12.517.517 0 0 1-.15-.18c-.14-.26-.22-.54-.28-.83-.03-.13-.05-.27-.07-.4v-.19c.01-.09.03-.19.05-.28 0-.05.03-.08.08-.11.16-.1.32-.19.49-.26.05-.02.08-.05.11-.1l.09-.15c.02-.05.04-.1.05-.16.03-.13.08-.26.16-.37.05-.06.05-.13.06-.2 0-.14.04-.26.1-.38.01-.03.03-.05.04-.08.01-.05.05-.08.09-.12.09-.08.18-.16.28-.24.04-.03.09-.06.13-.07.08-.03.17-.06.26-.05.04 0 .07 0 .12.01l.01.01zM17.94 4.52c-.05-.08-.11-.16-.16-.23-.15-.22-.29-.45-.42-.69-.08-.15-.16-.3-.24-.46-.1-.21-.2-.43-.27-.65a2.21 2.21 0 0 1-.05-.25v-.25c0-.02 0-.05.02-.07.05-.13.11-.26.17-.38.04-.08.1-.15.14-.23.04-.07.11-.08.17-.11.04-.02.09-.05.14-.06.08-.02.17-.04.25-.05.07-.01.12.03.18.05.04.02.09.04.13.06.04.02.06.04.07.08.04.16.08.32.11.48.01.09 0 .19-.01.29 0 .16-.06.31-.11.46-.02.08-.06.16-.09.23-.04.08-.04.16-.05.24 0 .08 0 .16-.01.24 0 .22-.02.43-.02.65 0 .13.02.25.03.38 0 .06 0 .12.03.18.01.04.02.07.01.11h-.01l-.01-.02zM13.61 11.75c.01.09.03.18.04.26.01.08.05.15.11.21.05.05.11.11.18.14.07.03.13.06.21.04.05-.01.11 0 .17-.01.14-.02.28.03.42.05.09 0 .15.07.21.12.1.09.21.16.34.22.1.04.17.12.26.18s.1.17.15.25v.02c.08.14.03.27-.03.39-.05.09-.11.17-.16.26-.03.06-.09.09-.15.11-.04.01-.08.02-.12.04a.36.36 0 0 1-.25.01.952.952 0 0 1-.36-.15c-.16-.11-.32-.23-.46-.36-.15-.13-.26-.29-.37-.44a1.72 1.72 0 0 1-.25-.53c-.04-.16-.05-.31-.03-.48.01-.11.05-.22.09-.32v-.01zM19.2 5.87c-.03-.06-.07-.13-.1-.19-.11-.25-.13-.51-.11-.77.01-.17.04-.33.12-.48.04-.08.06-.18.04-.28-.02-.09-.04-.18-.05-.28v-.13c.01-.07.03-.13.06-.2 0-.02.03-.05.05-.06.1-.06.2-.11.31-.14.08-.02.15-.02.22.02.05.03.11.05.17.08.02 0 .03.03.04.05.04.09.08.17.11.26.02.05.01.1.02.15.01.12 0 .23 0 .35 0 .16-.06.3-.12.44-.03.07-.08.13-.13.18-.05.06-.11.12-.16.18-.13.13-.23.28-.32.44-.06.1-.1.22-.12.34 0 .02 0 .03-.01.05h-.01l-.01-.01zM18.41 12.84c0-.2.06-.36.15-.52.04-.07.09-.14.14-.19.03-.03.08-.05.12-.08.05-.03.1-.07.15-.1.07-.04.14-.08.22-.06h.03c.04 0 .08.01.1.05.03.07.07.14.1.21 0 .02.01.05.01.07v.19c-.01.03-.02.06-.04.09-.04.07-.06.15-.07.24v.06c.04.12.07.23.09.36 0 .06 0 .12-.02.18-.03.09-.06.17-.08.26-.01.04-.04.07-.08.08-.05.01-.1.04-.15.04h-.15c-.09-.01-.16-.06-.23-.11a.527.527 0 0 1-.21-.27c-.02-.06-.05-.12-.06-.18-.02-.1-.02-.21-.03-.3l.01-.02zM19.74 6c0-.06.02-.12.01-.17-.01-.1.03-.18.07-.27.04-.18.2-.22.33-.3.05 0 .1 0 .15.02.12.03.22.08.33.13.04.02.07.04.08.09 0 .03.01.06.02.09.02.05.04.09.05.14.03.07.04.15 0 .22-.03.06-.06.13-.08.19a.16.16 0 0 1-.07.09c-.1.07-.2.13-.31.18-.18.08-.31.21-.37.4 0 .03-.02.05-.03.08l-.02.02s-.01-.01-.01-.02c-.01-.14-.08-.26-.1-.4-.02-.1-.03-.21-.05-.31 0-.06-.01-.11-.01-.17l.01-.01zM21.57 15.66s.02.06.02.09c0 .09.06.16.12.22.13.14.29.24.45.34.2.11.4.19.62.26.03 0 .06.01.09.01h.33c.18-.01.36-.02.54-.06.09-.02.18-.03.26-.07.13-.06.27-.11.32-.26l.03-.12c0-.02 0-.04.01-.06h.01v.11c0 .12-.05.23-.11.33-.09.15-.23.26-.4.34a1.9 1.9 0 0 1-.4.14c-.1.02-.21.04-.31.05-.13.01-.26.02-.39.02-.06 0-.11-.02-.17-.03-.14-.04-.27-.1-.39-.17-.17-.11-.32-.24-.43-.42-.1-.18-.17-.36-.2-.56 0-.05 0-.1-.01-.15h.01v-.01z"/><path class="st3" d="M16.84 11.39h-.04c-.08-.02-.15-.04-.23-.05a.216.216 0 0 1-.14-.09c-.08-.11-.15-.22-.19-.35a.44.44 0 0 1 .02-.32c0-.01.01-.02.02-.03.08-.04.17-.09.25-.13.03-.02.07 0 .1.01.05.03.1.05.14.08.02.01.03.03.04.05.05.09.11.17.18.24.03.03.05.07.07.1.02.04.04.09.06.13.03.05.02.1 0 .15a.29.29 0 0 1-.09.15c-.04.04-.08.05-.13.06-.03 0-.05 0-.08.01l.02-.01zM17.55 9.55v-.11c0-.05.02-.08.07-.1.09-.03.19-.04.27.02.03.02.07.04.1.06.02.01.04.01.07.02.06.01.12.02.16.08 0 .01.03.02.04.03.02.02.04.04.05.06.05.1.02.25-.06.33-.02.02-.06.03-.09.03-.08 0-.16 0-.24-.02s-.16-.04-.23-.08c-.1-.05-.17-.13-.15-.25v-.06l.01-.01zM17.17 10.46s.01-.09.02-.14c.02-.1.13-.15.22-.12.05.02.1.03.14.08 0 .01.02.02.04.02.1.02.14.1.17.19v.02c.07.1.03.19-.01.28-.02.05-.07.08-.12.07-.05 0-.09-.02-.14-.04-.05-.02-.09-.04-.14-.05-.1-.02-.15-.08-.17-.18 0-.04-.01-.08-.02-.12l.01-.01zM17.36 11.28c0-.1.02-.17.05-.23.06-.1.22-.15.33-.04.07.07.12.15.13.25 0 .03.01.07.01.1s0 .12-.02.18c-.01.06-.06.09-.12.09h-.21c-.07-.05-.13-.1-.15-.19-.01-.06-.03-.12-.04-.16h.02zM16.7 9.62s.01-.1.01-.15c0-.12.14-.21.28-.14.06.03.1.08.14.13.04.05.06.11.08.17.02.08 0 .15-.02.21s-.08.06-.14.07h-.14c-.02 0-.04-.01-.06-.02-.02-.01-.03-.03-.05-.05-.07-.06-.12-.13-.1-.23v.01z"/><path class="st3" d="M18.64 5.66c.38.35.5.98.49.97 0 .06 0 .12.02.17.02.1.02.19 0 .28-.03.2-.06.4-.1.6-.01.05-.04.11-.06.16-.06.17-.16.32-.29.44-.09.08-.18.15-.28.23-.02.01-.03.02-.05.04.05 0 .1.02.15.03.14.02.26.09.37.17.1.08.17.19.24.3.02.04.05.08.07.12.06.08.1.18.14.27.05.13.08.26.1.4.02.17.02.35 0 .53 0 .1-.01.2-.02.3-.01.09-.03.19-.04.28-.03.16-.09.31-.16.45-.06.13-.14.25-.24.36-.14.18-.32.32-.5.46-.15.1-.31.18-.48.24-.13.05-.26.08-.39.09-.19.02-.38.03-.57 0-.21-.03-.4-.11-.6-.19a1.932 1.932 0 0 1-.91-.85c-.12-.2-.21-.42-.27-.65a5.41 5.41 0 0 1-.12-.55c-.01-.09 0-.18.01-.27.02-.18.12-.33.2-.49.06-.11.14-.19.23-.26.03-.02.06-.04.09-.05.15-.08.32-.12.49-.12h.09c-.02-.02-.04-.05-.06-.07-.07-.08-.15-.14-.23-.2a.997.997 0 0 0-.37-.15c-.13-.02-.27-.06-.4-.08-.1-.02-.2-.02-.3-.04-.23-.03-.45-.02-.68-.02-.08 0-.16 0-.24.02-.1.03-.2.07-.29.13-.1.07-.17.16-.25.25-.01.01-.03.03-.04.03-.14.06-.28.12-.43.13h-.08c-.09-.02-.17-.05-.25-.08-.03-.01-.06-.04-.08-.06-.02-.01-.03-.03-.04-.04a.79.79 0 0 1-.19-.25c-.01-.03-.03-.03-.05 0l-.02.02c-.13.12-.25.24-.38.36-.08.08-.17.16-.26.24-.01.01-.02.03-.03.04.01 0 .03.01.04.01.17.01.34.03.51.03.23 0 .46.02.68 0 .21 0 .43-.03.63-.09.13-.04.25-.09.36-.16.01 0 .03-.01.05-.02v.02c-.1.05-.15.15-.2.24-.02.04-.05.07-.08.1-.15.16-.35.25-.55.32-.23.08-.47.14-.71.17-.12.01-.24.03-.36.04h-.19c-.12-.02-.23-.03-.35-.06-.04 0-.08-.03-.12-.04l-.12-.06a.377.377 0 0 1-.19-.19c-.06-.13-.04-.1-.07-.14-.01-.03-.02-.06 0-.09.04-.1.08-.2.12-.31 0-.02.02-.04.04-.05.2-.15.4-.3.6-.46.08-.06.15-.13.22-.2.04-.04.07-.1.1-.15 0-.01 0-.04-.01-.05-.05-.05-.09-.1-.14-.14-.11-.09-.22-.17-.34-.25-.15-.11-.28-.25-.41-.39-.06-.07-.11-.15-.16-.22-.03-.06-.05-.12-.07-.18a.564.564 0 0 0-.04-.12.21.21 0 0 1 .01-.19c.04-.09.08-.17.12-.25 0-.02.03-.04.05-.05.08-.04.17-.07.25-.1.04-.01.09-.02.13-.01.22.03.43.01.63-.07.09-.04.18-.09.26-.16.09-.08.19-.15.3-.21.06-.04.13-.08.18-.13.23-.2.41-.45.56-.72.09-.16.18-.33.27-.49.03-.04.07-.08.09-.12.06-.08.14-.12.23-.16.14-.07.28-.11.43-.1.08 0 .16.03.24.04.09.01.17.06.24.12.1.08.21.15.31.23.06.05.12.11.16.17.15.19.27.39.38.6.09.18.17.38.26.56.08.16.15.32.24.48.03.05.08.08.12.13q.03.04-.02.05c-.12.03-.25.02-.37.01-.12 0-.23-.05-.33-.1a1.135 1.135 0 0 1-.45-.4c-.03-.04-.05-.09-.07-.14-.05-.12-.12-.24-.2-.34s-.15-.2-.24-.29c-.1-.11-.21-.21-.32-.31-.06-.06-.15-.05-.2.03-.07.11-.13.22-.2.33-.14.23-.28.45-.46.65-.1.12-.21.24-.32.35a2 2 0 0 1-.62.42c-.26.12-.52.2-.8.26-.03 0-.03.02-.02.04.01.01.02.03.03.04.11.1.23.19.33.29.09.08.17.17.26.26.11.12.21.26.3.4.05.08.1.17.15.25.02.04.05.07.07.11.03.04.08.04.12.04.11 0 .21 0 .3-.08l.12-.09c.09-.07.19-.09.29-.12.03 0 .05-.02.08-.02a.4.4 0 0 1 .19-.02h.95c.09 0 .17.01.26.03.09.01.18.04.28.06.1.02.21.05.31.08.15.05.29.12.41.23.09.08.17.18.22.29.06.12.11.25.14.38.01.08.03.17.04.25v.05c-.01-.02-.03-.04-.04-.06-.05-.07-.09-.14-.14-.2-.01-.02-.03-.02-.06-.02a.71.71 0 0 0-.3.18c-.06.05-.1.12-.14.19-.11.18-.18.37-.22.57-.01.06 0 .12 0 .17 0 .08.02.16.04.25.03-.15.09-.28.14-.41.02-.05.06-.08.11-.07.05.01.08.06.08.11v.33c0 .13.03.25.06.38.03.12.08.24.12.37 0 .02.03.05.05.06.13.11.26.2.41.27.04.02.07.04.11.06.02 0 .03 0 .03-.02 0-.06.03-.1.08-.13.06-.05.12-.09.2-.12.06-.02.1 0 .15.03.06.04.12.08.17.13.01.01.03.03.03.04l.06.15c0 .02.02.03.05.03.06 0 .12 0 .18-.03.08-.02.15-.05.23-.08.1-.04.18-.11.26-.17.02-.01.02-.02 0-.04 0-.01-.02-.03-.03-.04a.391.391 0 0 1-.11-.29v-.17c0-.11.05-.19.12-.26.03-.03.03-.04 0-.07a.55.55 0 0 1-.12-.37c0-.09.08-.22.19-.23.05 0 .09 0 .13.02.03.01.06.02.09.04.02.01.04.02.06.04.04.03.08.06.11.09.04.04.07.09.07.14s0 .1-.02.15c0 .02-.02.03-.03.05-.05.05-.1.1-.15.16v.02c.05.04.1.07.14.11.03.02.04 0 .04-.02.02-.09.05-.18.06-.27s0-.19 0-.28v-.07c0-.06 0-.11-.04-.16 0 0-.01-.02-.01-.03 0-.08-.06-.14-.09-.21-.04-.09-.11-.16-.09-.27 0-.03 0-.07-.02-.1-.03-.1-.07-.2-.11-.3-.02-.05-.02-.04-.06 0-.01.01-.02.03-.03.04-.02.02-.05.05-.08.06-.04.02-.07.04-.11.06-.08.04-.15.01-.21-.03a.526.526 0 0 1-.22-.34v-.02q-.01-.06-.07-.04c-.13.02-.27.02-.4 0-.04 0-.05 0-.05.04s.01.05.02.07c.04.09.02.19-.06.25a.16.16 0 0 1-.15.01c-.05-.02-.06-.08-.07-.13 0-.08.01-.16.04-.23q.02-.06-.03-.08a.974.974 0 0 1-.24-.15c-.01-.01-.02-.03-.03-.04h.05c.22 0 .44-.02.65-.06.11-.02.21-.06.3-.14.03-.03.04-.07.06-.1.06-.11.13-.22.19-.33a2.16 2.16 0 0 0 .25-.91v-.26c-.01-.16-.05-.31-.17-.43 0 0-.02-.02-.02-.03a.176.176 0 0 0-.13-.09c-.07-.01-.13-.04-.2-.04-.1 0-.19.03-.29.06a1.05 1.05 0 0 0-.56.43c-.07.1-.12.21-.16.33 0 .03-.02.06-.04.09v-.02l.03-.22c.01-.08.03-.17.05-.25.04-.18.1-.35.2-.51.09-.14.2-.25.34-.33.11-.06.22-.11.33-.17 0 0 .74-.29 1.12.06l.03-.01z"/><path class="st1" d="M17.71 5.27c0-.07-.06-.17-.19-.31-.13-.14-.23-.21-.3-.21 0 0-.15.02-.21 0s-.1-.1-.1-.1l-.1-.1c-.06-.07-.23-.17-.31-.21s-.2-.1-.27-.1-.17.06-.24.2c-.07.12-.1.22-.1.31s.08.32.1.41c.03.09.07.22.21.31s.45.19.72.21c0 0 .16.05.41-.08.26-.13.39-.34.39-.34l-.01.01z"/><path class="st3" d="m5.83 5.64-.23-.08c-.02-.15.06-.32.23-.5-.02-.05-.05-.09-.08-.13-.03-.04-.08-.09-.15-.15s-.11-.11-.16-.15c-.04-.04-.08-.08-.12-.13h.03c.12.05.24.1.36.17.12.06.26.14.4.22.15.08.27.14.38.18.1.04.2.05.31.05l.11.05c0 .09-.02.17-.06.23-.04.06-.08.1-.13.12a.84.84 0 0 1-.12.04c-.03 0-.08.01-.13.02s-.11.02-.17.04c-.06.02-.12.03-.18.06.11.09.23.18.34.27s.24.18.37.27.28.16.43.23c.15.06.31.1.46.1l.8-.03s.12.01.23 0h.26c.06 0 .13.02.19.04s.11.05.15.09l.06.08a.52.52 0 0 1-.24.2c-.09.04-.21.07-.34.08-.08.01-.16.01-.24 0-.08 0-.18-.01-.3-.03-.12-.01-.24-.02-.34-.03-.1 0-.21 0-.32.02.45.4.84.77 1.16 1.11 0 .15-.04.26-.11.33-.1.02-.23 0-.4-.08-.28-.2-.51-.36-.7-.48-.19-.12-.38-.25-.59-.37s-.43-.24-.66-.34-.47-.18-.72-.25c.02.09.04.17.06.25.03.08.06.17.1.25s.09.17.15.26.11.17.15.23c.04.06.07.12.11.18s.08.12.11.17c.04.05.08.1.13.15s.1.08.15.12c0 .1-.05.17-.14.22-.09.05-.2.08-.33.1a.36.36 0 0 1-.2-.06.657.657 0 0 1-.17-.12c-.08-.12-.23-.18-.29-.3.09 0 .18-.09.27-.09-.24-.54-.48-1.11-.93-1.47-.15-.09-.39.06-.51.24-.15-.15-.27-.24-.14-.46.03-.12.07-.24.07-.24h.27c.02-.06.03-.11.03-.16s0-.12.01-.19c0-.07 0-.14.02-.2 0-.06.02-.12.04-.17l.14-.1c.08.02.15.06.2.12.05.06.11.13.16.22s.1.17.14.25.09.15.15.21c.05.02.15.05.29.09.14.05.27.08.37.11s.21.05.32.06.21.01.31 0c-.17-.33-.44-.63-.81-.91l-.01-.01zm-3.34.58s.06-.1.08-.17.04-.15.07-.25c.02-.1.06-.17.1-.23a.35.35 0 0 1 .21-.11h.11c.04.15.09.29.16.43.07.13.13.25.2.35.03.05.07.1.1.15.03.05.07.11.1.17.27.46.48.97.57 1.51-.36-.45-.66-.93-1.1-1.31l-.16-.13-.2.1-.03-.12c-.02-.04-.04-.08-.08-.13-.03-.05-.06-.09-.08-.13s-.04-.08-.05-.14v.01zm.23-2.32c.03-.14.03-.31 0-.5 0-.05.03-.1.08-.14.06-.04.13-.06.21-.07.13.06.28.11.43.15.15.03.3.05.44.06.14.01.34.03.6.04.26.02.48.04.65.06-.02-.03-.07-.12-.15-.25s-.14-.25-.2-.34a.896.896 0 0 0-.2-.23.54.54 0 0 0-.23-.13l-.15-.17c0-.16.04-.32.1-.47s.15-.3.26-.44c.07 0 .13 0 .17.04s.08.08.1.14.05.12.07.19.05.16.08.29c.03.12.06.24.09.35s.06.21.08.31c.03.09.06.23.11.4s.09.29.11.38c.73.03 1.42.13 2.08.29.27.1.49.2.67.3s.34.23.5.39c.16.16.27.37.35.62s.1.58.06.99L9 6.22c-.21-.6-.57-1.09-1.08-1.48-.51-.39-1.06-.61-1.67-.67-.72-.06-1.32-.1-1.81-.12-.49-.02-.85-.01-1.09.02-.06.1-.13.22-.19.37l-.14-.06c-.19-.09-.31-.22-.34-.4l.04.02zm4.92-.36v-.19c.05-.37.11-.66.19-.87s.18-.43.31-.65.25-.39.36-.5c.11-.12.23-.18.38-.2.11 0 .19.06.23.16 0 .61-.02 1.18.19 1.75-.21-.27-.39-.66-.69-.63-.18 0-.36.3-.51.5-.05.07-.11.13-.16.2-.1.14-.2.28-.3.43z"/></svg>