<svg id="_图层_1" data-name="图层 1" xmlns="http://www.w3.org/2000/svg" viewBox="0 0 19 26"><defs><style>.cls-1{fill:#005529}.cls-3{fill:#881c21}</style></defs><rect x=".12" y=".12" width="18.75" height="25.75" rx="1.88" ry="1.88" style="fill:#f5f6f7"/><path d="M17 .25c.96 0 1.75.79 1.75 1.75v22c0 .96-.79 1.75-1.75 1.75H2c-.96 0-1.75-.79-1.75-1.75V2C.25 1.04 1.04.25 2 .25h15M17 0H2C.9 0 0 .9 0 2v22c0 1.1.9 2 2 2h15c1.1 0 2-.9 2-2V2c0-1.1-.9-2-2-2z" style="fill:#93989c"/><path class="cls-1" d="M9.55 3.04c.05 0 .1.01.16.02.07 0 .14.01.21.02.02 0 .05.02.07.03.08.04.16.07.24.12.02.01.04.03.05.05.04.08.08.15.12.23.05.1.05.19-.02.28-.03.04-.06.07-.08.11-.03.06-.08.1-.14.11-.1.03-.2.07-.3.09-.09.02-.19.04-.28.04-.17 0-.34.02-.5.06-.09.02-.18.03-.28.04-.12.02-.23-.02-.34-.03-.13 0-.23-.08-.34-.12a.085.085 0 0 0-.07 0c-.15.11-.28.24-.41.37-.12.13-.24.26-.35.4a4.523 4.523 0 0 0-.76 1.58c-.03.12-.05.25-.07.38-.02.12-.04.25-.05.37l-.03.28v.02c.08.09.1.21.16.32.05.09.05.2.07.3.02.06-.06.12-.13.1-.04-.01-.08-.03-.11-.04-.02 0-.03 0-.03.02v.35c0 .06 0 .13.01.19.01.12.02.23.04.35l.06.35v.02c.01.04.02.05.05.01.04-.05.08-.11.12-.16v-.03c-.06-.09-.02-.17.02-.26.05-.13.13-.23.22-.33.07-.08.15-.16.21-.25.03-.05.06-.11.07-.16.03-.1.05-.21.07-.31.03-.14.06-.28.11-.42.04-.1.1-.2.15-.3 0-.01.02-.02.04-.03.09-.04.18-.09.27-.13.04-.02.09-.02.13 0 .09.02.18.05.27.07.06.02.1.05.15.09.03.03.06.05.08.07.06.05.09.1.1.17 0 .05.02.1.03.15.03.11.02.23 0 .35 0 .06 0 .12-.01.18-.01.17-.06.33-.12.49-.07.18-.17.33-.32.45-.09.07-.19.14-.31.18-.03 0-.05.03-.08.04-.11.07-.23.09-.34.12-.1.03-.19 0-.29-.03-.01 0-.03 0-.04-.02-.02-.01-.03 0-.04.02-.03.14-.11.25-.18.36-.03.06-.08.1-.13.15-.02.02-.02.04 0 .06.13.22.25.45.38.67.11.18.22.35.33.53.04.06.08.11.12.16.07.07.11.16.16.24.15.25.29.5.44.74.1.16.2.32.31.48.17.24.35.48.53.71a8.265 8.265 0 0 0 .56.67c.1.11.2.21.3.31.1.1.21.2.34.28.02.01.04.03.06.06-.02 0-.04 0-.06-.01-.18-.07-.37-.15-.54-.25-.1-.06-.2-.12-.29-.19-.12-.09-.23-.18-.34-.27-.08-.07-.16-.13-.23-.21-.1-.1-.2-.21-.29-.32-.08-.09-.16-.18-.23-.27-.09-.11-.18-.22-.26-.33-.18-.26-.36-.51-.53-.78-.13-.2-.25-.4-.37-.61-.13-.22-.26-.43-.38-.65-.13-.22-.25-.44-.38-.65-.11-.2-.23-.39-.34-.59a.847.847 0 0 1-.08-.24c-.03-.12-.06-.25-.08-.37-.01-.08-.01-.16-.02-.23-.03-.22-.02-.44-.02-.66 0-.04-.01-.04-.04-.03-.23.05-.45.13-.66.22-.13.06-.26.11-.4.15-.16.04-.32.04-.48 0-.11-.02-.18-.09-.27-.15a.48.48 0 0 1-.2-.32.53.53 0 0 1 .07-.37c.08-.16.2-.29.33-.41.21-.18.44-.32.71-.39.08-.02.17-.03.25-.04h.09c.16 0 .3.05.45.1.08.03.15.06.23.09.02.01.03 0 .03-.02l.06-.41c.05-.29.13-.57.25-.84a4.374 4.374 0 0 1 .56-1.01c.09-.12.18-.24.28-.35.13-.15.27-.29.41-.43.11-.1.23-.19.34-.29.05-.05.11-.1.15-.16.06-.09.15-.14.23-.21.16-.11.34-.19.53-.25.14-.04.28-.07.43-.07h.42z"/><path class="cls-1" d="M.94 12.43c.03-.07.07-.15.1-.22.01-.02.03-.05.05-.07.11-.11.23-.18.36-.26.06-.03.13-.04.2-.05.04 0 .08-.01.13-.02h.08c.12.02.25.03.36.07.2.07.4.14.6.22.1.04.2.1.3.15h.05c.07-.02.13-.06.19-.08.14-.04.28-.08.42-.11.04 0 .08-.02.12-.02-.07-.04-.13-.07-.19-.12-.13-.1-.25-.2-.36-.33l-.18-.21c-.06-.09-.12-.2-.18-.29-.06-.09-.07-.2-.08-.31 0-.06-.02-.12-.02-.18 0-.15.03-.29.07-.43 0-.03.02-.07.03-.1.01-.04.04-.08.07-.11.05-.05.09-.11.15-.16.03-.03.07-.04.11-.06.06-.02.12-.03.17-.05h.02c.09-.06.18-.04.27-.02.04 0 .08.01.13.02.08.01.11.07.14.13.02.04.05.08.07.12.01.03.02.07.03.11 0 .02.01.05.02.07.02.07.03.15 0 .23l-.03.1a.57.57 0 0 1-.11.22c-.05.07-.07.14-.08.22v.1c0 .12 0 .23.04.34.04.14.05.28.1.42.03.08.08.15.14.22.03.03.06.04.11.04h.46c.12 0 .25.01.37.04.21.05.41.13.61.21.02.01.05.02.08.03 0-.02-.01-.03-.02-.04-.1-.14-.17-.29-.22-.44a.142.142 0 0 0-.08-.09c-.02 0-.04-.02-.06-.03a.563.563 0 0 1-.22-.18c-.08-.1-.12-.22-.17-.33-.05-.12-.06-.25-.08-.37 0-.05-.02-.1-.02-.15 0-.03 0-.06.02-.09.03-.09.06-.19.09-.28 0-.01.01-.03.03-.03.13-.06.26-.15.41-.17h.15c.07.02.13.05.2.07.03 0 .05.03.06.06.1.19.17.4.21.61.02.09.02.18.03.26V11.33c0 .09 0 .17.03.25.01.03.02.06.02.09 0 .2.02.39.06.59.02.09.05.18.07.27 0 .02.03.05.05.06.14.1.3.19.43.3.17.13.32.28.46.45.18.22.33.45.47.69.02.03.03.06.05.09v.01c-.04-.04-.08-.09-.12-.13l-.14-.14-.03-.03c-.19-.19-.39-.35-.61-.51-.28-.21-.58-.38-.9-.53-.08-.04-.15-.07-.23-.09-.03 0-.07 0-.1.01-.17.07-.31.17-.44.3-.1.1-.2.21-.28.32-.07.1-.13.21-.2.32-.1.17-.19.35-.26.54 0 .02-.02.05-.01.08.02.12 0 .23-.02.35-.01.09-.05.16-.12.22-.08.09-.18.15-.29.18-.08.03-.15.03-.23-.01-.07-.04-.14-.07-.21-.11a.345.345 0 0 1-.08-.09c-.12-.16-.18-.34-.24-.52v-.1c0-.13.01-.27.05-.39.04-.13.08-.25.14-.37.05-.1.12-.19.21-.27.11-.1.22-.18.35-.25.13-.06.25-.12.38-.17.15-.05.3-.1.46-.11.09 0 .18-.02.26-.02h.31c-.05-.01-.1-.03-.15-.04-.13-.03-.27-.06-.4-.07-.13-.01-.27 0-.4 0h-.12c-.16.01-.32.03-.48.05-.1.01-.2.04-.3.06-.15.03-.29.1-.43.18-.09.05-.14.13-.19.2-.15.24-.23.5-.29.77-.03.15-.05.3-.06.45-.01.09-.01.19-.02.29 0 .09-.02.17-.03.26 0 .08-.01.15-.02.23 0 .08-.02.17-.03.25 0 .08-.01.15-.02.23-.01.11-.03.23-.04.34 0 .09-.07.13-.14.17-.04.02-.08.02-.13 0-.17-.05-.32-.15-.45-.26-.1-.09-.18-.19-.25-.3-.04-.06-.05-.13-.08-.2-.05-.11-.05-.23-.06-.34 0-.13.02-.25.04-.37.01-.07.02-.14.02-.21v-.04c.07-.18.14-.37.26-.52.08-.1.16-.2.27-.29.11-.09.2-.19.29-.3.13-.16.23-.33.34-.5.03-.04.07-.07.11-.11.02-.01.03-.03.05-.05-.14.04-.28.08-.42.13-.1.03-.19.08-.28.11-.12.04-.23.09-.35.1-.07 0-.15.02-.22.02-.08 0-.17-.02-.25-.03-.09-.02-.15-.08-.21-.15-.04-.04-.05-.11-.08-.17 0-.01-.01-.02-.02-.04v-.03zM13.7 18c.07-.06.15-.11.22-.17.12-.09.23-.18.35-.26a14.116 14.116 0 0 1 1.23-.8c.02-.01.04-.02.03-.05-.02-.07-.03-.15-.04-.23-.02-.1 0-.2.04-.29.03-.09.08-.18.13-.27.01-.03.02-.05.02-.08v-.21c0-.19.01-.39.06-.58.03-.12.07-.24.11-.36.01-.03.04-.06.06-.09.05-.07.1-.15.16-.22.03-.05.07-.1.11-.13.05-.04.11-.07.16-.1.12-.08.25-.08.38-.11.02 0 .04 0 .05.01.09.04.18.07.27.11.02.01.05.03.06.05.04.06.07.12.11.17.05.07.07.14.08.22 0 .08.02.16.03.24 0 .01 0 .03.02.04.03.06.06.12.09.19.02.06.03.13.04.19 0 .02 0 .05.01.07.02.08-.01.15-.01.23 0 .11-.05.2-.08.3-.02.05-.03.1-.01.15.02.07 0 .12-.04.17-.04.06-.07.12-.12.18-.02.02-.05.04-.08.05-.09.03-.19.05-.28.08h-.06c-.17 0-.35.01-.52.04-.1.02-.21.03-.31.05-.1.02-.18.08-.26.14l-.63.48c-.3.22-.59.43-.89.66-.18.13-.35.27-.52.41-.14.11-.29.23-.43.35-.09.07-.17.15-.25.22-.15.13-.29.26-.44.4-.12.11-.23.23-.34.35l-.01.01c-.13.14-.26.28-.38.42-.13.15-.25.31-.37.47-.06.08-.11.16-.16.24-.02.03-.02.04.01.07.13.09.24.18.37.27.2.13.42.22.65.25.11.02.23.03.34.05.09.01.15.07.22.12.08.06.15.14.2.22.03.05.04.11.06.17.04.14 0 .28-.04.41-.05.13-.1.26-.18.37a.57.57 0 0 1-.13.14s-.02.01-.03.02a.36.36 0 0 1-.2.11c-.06.01-.11.04-.17.04-.07 0-.13 0-.2-.01-.06 0-.12-.02-.17-.04-.02 0-.05-.01-.07-.03-.07-.04-.15-.08-.21-.12-.02-.01-.03-.04-.04-.06-.04-.09-.08-.19-.13-.28v.27c-.01.09-.03.17-.06.26-.01.04-.04.07-.07.11-.02.02-.03.04-.05.07-.03.05-.07.09-.13.12-.16.08-.31.18-.47.25-.07.03-.15.04-.23.06-.1.03-.19 0-.29-.02-.06-.01-.12-.04-.17-.06-.14-.05-.26-.13-.38-.21-.01 0-.03-.02-.04-.04-.03-.06-.06-.12-.1-.18-.04-.07-.04-.15-.04-.23 0-.14 0-.28.03-.42 0-.07-.01-.13-.02-.2 0-.08-.06-.13-.1-.19-.06-.08-.12-.15-.16-.23a.37.37 0 0 1-.04-.15v-.25c0-.2.07-.38.12-.57.01-.05.05-.09.08-.14.01-.02.02-.03.03-.04.02-.02.01-.03 0-.05a1.1 1.1 0 0 0-.39-.32c-.27-.15-.56-.24-.86-.33l-.49-.15a3.61 3.61 0 0 0-.35-.07c-.14-.03-.28-.03-.43-.03-.13 0-.27.02-.4.04-.2.02-.4.08-.59.15-.11.04-.21.09-.32.13-.02 0-.03.01-.05.02.02-.02.04-.04.07-.06a2.595 2.595 0 0 1 1.16-.51c.09-.01.18-.02.27-.02h.26c.15.01.3.02.44.05.2.04.4.09.6.14.24.06.47.16.67.31.2.15.35.35.43.59 0 .02.01.04.02.06.09-.06.18-.12.26-.18.05-.03.08-.08.12-.13.09-.11.19-.21.3-.29.07-.05.14-.11.22-.15.07-.04.15-.07.22-.11.02-.01.04 0 .05.03v.09c0 .04.01.08 0 .12 0 .06-.01.13-.02.19-.04.2-.14.38-.26.54-.04.05-.09.1-.13.15a.44.44 0 0 0-.11.25c-.03.18-.03.13.07.27.06.08.14.14.21.21.05.05.11.07.17.1.03.01.04 0 .04-.02v-.08c.04-.12.08-.24.13-.36.04-.11.09-.21.15-.32.12-.24.27-.47.43-.69.11-.14.21-.27.33-.41.07-.08.14-.15.21-.23.14-.15.29-.29.43-.44 0 0 0-.01.02-.03m-5.13-.14 4.26 3.21-.03-.26c-.01-.13-.03-.26-.03-.39v-.45c0-.03 0-.05-.03-.07-.05-.06-.1-.12-.16-.18-.03-.03-.04-.03-.05 0-.04.07-.08.14-.11.21-.11.21-.18.44-.26.66-.01.03 0 .04.02.05.12.05.25.09.36.16.11.06.23.12.27.26z"/><path class="cls-1" d="M6.76 21.41c.05-.04.09-.08.14-.11.02-.01.03-.02.05-.03.21-.1.43-.16.66-.2.21-.04.41-.04.62-.03.26.01.51.07.76.15-.09.02-.17.04-.26.07-.21.06-.42.13-.62.22-.24.11-.48.22-.72.34-.2.1-.4.22-.59.32l-.42.24c-.04.02-.08.04-.12.05-.14.06-.29.09-.44.11-.11.01-.2-.03-.3-.04a.407.407 0 0 1-.25-.13c-.06-.05-.12-.1-.17-.16-.03-.03-.05-.08-.07-.12-.11-.18-.25-.32-.44-.41-.03-.02-.08 0-.12 0-.06 0-.11.01-.17.02-.07 0-.15.02-.22 0-.12-.01-.24-.01-.36-.06 0 0-.02 0-.03-.01-.06-.07-.12-.13-.16-.2-.03-.05-.05-.11-.07-.16-.01-.04-.03-.07-.04-.11 0-.02-.02-.05-.02-.07 0-.11-.01-.22-.01-.33 0-.1.02-.19.02-.29 0-.06-.03-.12-.05-.17l-.02-.02a.51.51 0 0 0-.27-.06h-.32c-.27 0-.52.05-.75.19-.05.03-.08.06-.13.09 0 0-.02.01-.02.02.02-.03.04-.07.05-.1.09-.15.21-.28.36-.38.07-.05.16-.08.23-.13.05-.03.09-.07.12-.12.05-.07.11-.11.18-.15.26-.14.54-.22.83-.28.13-.03.27-.05.4-.07h.19c.09.01.19.03.28.05.05 0 .08.03.11.08.1.16.19.32.26.49.02.05.05.08.1.11l.15.09c.05.02.1.04.16.05.13.03.26.08.37.16.06.05.13.05.2.06.14 0 .26.04.38.1.03.01.05.03.08.04.05.01.08.05.12.09.08.09.16.18.24.28.03.04.06.09.07.13.03.08.06.17.05.26 0 .04 0 .07-.01.12zM14.48 17.94c.08-.05.16-.11.23-.16.22-.15.45-.29.69-.42.15-.08.3-.16.46-.24.21-.1.43-.2.65-.27.08-.02.17-.04.25-.05h.25c.02 0 .05 0 .07.02.13.05.26.11.38.17.08.04.15.1.23.14.07.04.08.11.11.17.02.04.05.09.06.14.02.08.04.17.05.25.01.07-.03.12-.05.18-.02.04-.04.09-.06.13-.02.04-.04.06-.08.07-.16.04-.32.08-.48.11-.09.01-.19 0-.29-.01-.16 0-.31-.06-.46-.11-.08-.02-.16-.06-.23-.09-.08-.04-.16-.04-.24-.05-.08 0-.16 0-.24-.01-.22 0-.43-.02-.65-.02-.13 0-.25.02-.38.03-.06 0-.12 0-.18.03-.04.01-.07.02-.11.01v-.01zM7.25 13.61c-.09.01-.18.03-.26.04a.36.36 0 0 0-.21.11c-.05.05-.11.11-.14.18-.03.07-.06.13-.04.21.01.05 0 .11.01.17.02.14-.03.28-.05.42 0 .09-.07.15-.12.21-.09.1-.16.21-.22.34-.04.1-.12.17-.18.26s-.17.1-.25.15h-.02c-.14.08-.27.03-.39-.03-.09-.05-.17-.11-.26-.16-.06-.03-.09-.09-.11-.15a.564.564 0 0 0-.04-.12.36.36 0 0 1-.01-.25c.03-.13.07-.25.15-.36.11-.16.23-.32.36-.46.13-.15.29-.26.44-.37.16-.12.34-.19.53-.25.16-.04.31-.05.48-.03.11.01.22.05.32.09zM13.13 19.2c.06-.03.13-.07.19-.1.25-.11.51-.13.77-.11.17.01.33.04.48.12.08.04.18.06.28.04.09-.02.18-.04.28-.05h.13c.07.01.13.03.2.06.02 0 .05.03.06.05.06.1.11.2.14.31.02.08.02.15-.02.22-.03.05-.05.11-.08.17 0 .02-.03.03-.05.04-.09.04-.17.08-.26.11-.05.02-.1.01-.15.02-.12.01-.23 0-.35 0-.16 0-.3-.06-.44-.12a.594.594 0 0 1-.18-.13c-.06-.05-.12-.11-.18-.16-.13-.13-.28-.23-.44-.32-.1-.06-.22-.1-.34-.12-.02 0-.03 0-.05-.01v-.01zM6.16 18.41c.2 0 .36.06.52.15.07.04.14.09.19.14.03.03.05.08.08.12.03.05.07.1.1.15.04.07.08.14.06.22v.03c0 .04-.01.08-.05.1-.07.03-.14.07-.21.1-.02 0-.05.01-.07.01h-.19c-.03-.01-.06-.02-.09-.04a.611.611 0 0 0-.24-.07H6.2c-.12.04-.23.07-.36.09-.06 0-.12 0-.18-.02-.09-.03-.17-.06-.26-.08a.109.109 0 0 1-.08-.08c-.01-.05-.04-.1-.04-.15v-.15c.01-.09.06-.16.11-.23q.1-.15.27-.21c.06-.02.12-.05.18-.06.1-.02.21-.02.3-.03zM13 19.74c.06 0 .12.02.17.01.1-.01.18.03.27.07.18.04.22.2.3.33 0 .05 0 .1-.02.15-.03.12-.08.22-.13.33-.02.04-.04.07-.09.08-.03 0-.06.01-.09.02-.05.02-.09.04-.14.05-.07.03-.15.04-.22 0-.06-.03-.13-.06-.19-.08a.16.16 0 0 1-.09-.07c-.07-.1-.13-.2-.18-.31a.638.638 0 0 0-.4-.37c-.03 0-.05-.02-.08-.03l-.02-.02s.01-.01.02-.01c.14-.01.26-.08.4-.1.1-.02.21-.03.31-.05.06 0 .11-.01.17-.01zM3.34 21.57s-.06.02-.09.02c-.09 0-.16.06-.22.12-.14.13-.24.29-.34.45-.11.2-.19.4-.26.62 0 .03-.01.06-.01.09v.33c.01.18.02.36.06.54.02.09.03.18.07.26.06.13.11.27.26.32l.12.03c.02 0 .04 0 .06.01v.01H2.88a.65.65 0 0 1-.33-.11.893.893 0 0 1-.34-.4 1.9 1.9 0 0 1-.14-.4c-.02-.1-.04-.21-.05-.31-.01-.13-.02-.26-.02-.39 0-.06.02-.11.03-.17.04-.14.1-.27.17-.39.11-.17.24-.32.42-.43.18-.1.36-.17.56-.2.05 0 .1 0 .15-.01v.01z"/><path class="cls-3" d="M7.61 16.84v-.04c.02-.08.04-.15.05-.23.01-.06.04-.1.09-.14.11-.08.22-.15.35-.19a.44.44 0 0 1 .32.02c.01 0 .02.01.03.02.04.08.09.17.13.25.02.03 0 .07-.01.1-.03.05-.05.1-.08.14-.01.02-.03.03-.05.04-.09.05-.17.11-.24.18-.03.03-.07.05-.1.07-.04.02-.09.04-.13.06-.05.03-.1.02-.15 0a.29.29 0 0 1-.15-.09c-.04-.04-.05-.08-.06-.13 0-.03 0-.05-.01-.08zM9.45 17.55h.11c.05 0 .08.02.1.07.03.09.04.19-.02.27-.02.03-.04.07-.06.1-.01.02-.01.04-.02.07-.01.06-.02.12-.08.16-.01 0-.02.03-.03.04-.02.02-.04.04-.06.05a.31.31 0 0 1-.33-.06c-.02-.02-.03-.06-.03-.09a.974.974 0 0 1 .1-.47c.05-.1.13-.17.25-.15h.06zM8.54 17.17s.09.01.14.02c.1.02.15.13.12.22-.02.05-.03.1-.08.14-.01 0-.02.02-.02.04-.02.1-.1.14-.19.17h-.02c-.1.07-.19.03-.28-.01a.109.109 0 0 1-.07-.12c0-.05.02-.09.04-.14.02-.05.04-.09.05-.14.02-.1.08-.15.18-.17.04 0 .08-.01.12-.02zM7.72 17.36c.1 0 .17.02.23.05.1.06.15.22.04.33-.07.07-.15.12-.25.13-.03 0-.07.01-.1.01-.06 0-.12 0-.18-.02-.06-.01-.09-.06-.09-.12v-.21c.05-.07.1-.13.19-.15.06-.01.12-.03.16-.04zM9.38 16.7s.1.01.15.01c.12 0 .21.14.14.28-.03.06-.08.1-.13.14-.05.04-.11.06-.17.08-.08.02-.15 0-.21-.02s-.06-.08-.07-.14v-.14c0-.02.01-.04.02-.06.01-.02.03-.03.05-.05.06-.07.13-.12.23-.1z"/><path class="cls-3" d="M13.34 18.64c-.35.38-.98.5-.97.49-.06 0-.12 0-.17.02a.66.66 0 0 1-.28 0c-.2-.03-.4-.06-.6-.1-.05-.01-.11-.04-.16-.06-.17-.06-.32-.16-.44-.29-.08-.09-.15-.18-.23-.28-.01-.02-.02-.03-.04-.05 0 .05-.02.1-.03.15-.02.14-.09.26-.17.37-.08.1-.19.17-.3.24-.04.02-.08.05-.12.07-.08.06-.18.1-.27.14-.13.05-.26.08-.4.1-.17.02-.35.02-.53 0-.1 0-.2-.01-.3-.02-.09-.01-.19-.03-.28-.04-.16-.03-.31-.09-.45-.16-.13-.06-.25-.14-.36-.24-.18-.14-.32-.32-.46-.5-.1-.15-.18-.31-.24-.48-.05-.13-.08-.26-.09-.39-.02-.19-.03-.38 0-.57.03-.21.11-.4.19-.6a1.932 1.932 0 0 1 .85-.91c.2-.12.42-.21.65-.27.18-.05.37-.09.55-.12.09-.01.18 0 .27.01.18.02.33.12.49.2.11.06.19.14.26.23.02.03.04.06.05.09.08.15.12.32.12.49v.09c.02-.02.05-.04.07-.06.08-.07.14-.15.2-.23.08-.11.12-.24.15-.37.02-.13.06-.27.08-.4.02-.1.02-.2.04-.3.03-.23.02-.45.02-.68 0-.08 0-.16-.02-.24-.03-.1-.07-.2-.13-.29-.07-.1-.16-.17-.25-.25-.01-.01-.03-.03-.03-.04-.06-.14-.12-.28-.13-.43v-.08c.02-.09.05-.17.08-.25.01-.03.04-.06.06-.08.01-.02.03-.03.04-.04a.79.79 0 0 1 .25-.19c.03-.01.03-.03 0-.05l-.02-.02c-.12-.13-.24-.25-.36-.38-.08-.08-.16-.17-.24-.26-.01-.01-.03-.02-.04-.03 0 .01-.01.03-.01.04-.01.17-.03.34-.03.51 0 .23-.02.46 0 .68 0 .21.03.43.09.63.04.13.09.25.16.36 0 .01.01.03.02.05h-.02c-.05-.1-.15-.15-.24-.2-.04-.02-.07-.05-.1-.08-.16-.15-.25-.35-.32-.55-.08-.23-.14-.47-.17-.71-.01-.12-.03-.24-.04-.36v-.19c.02-.12.03-.23.06-.35 0-.04.03-.08.04-.12l.06-.12q.06-.13.19-.19s.1-.04.14-.07c.03-.01.06-.02.09 0 .1.04.2.08.31.12.02 0 .04.02.05.04.15.2.3.4.46.6.06.08.13.15.2.22.04.04.1.07.15.1.01 0 .04 0 .05-.01.05-.05.1-.09.14-.14.09-.11.17-.22.25-.34.11-.15.25-.28.39-.41.07-.06.15-.11.22-.16.06-.03.12-.05.18-.07.04-.01.08-.02.12-.04a.21.21 0 0 1 .19.01c.09.04.17.08.25.12.02 0 .04.03.05.05.04.08.07.17.1.25.01.04.02.09.01.13-.03.22-.01.43.07.63.04.09.09.18.16.26.08.09.15.19.21.3.04.06.08.13.13.18.2.23.45.41.72.56.16.09.33.18.49.27.04.03.08.07.12.09.08.06.12.14.16.23.07.14.11.28.1.43 0 .08-.03.16-.04.24-.01.09-.06.17-.12.24-.08.1-.15.21-.23.31-.05.06-.11.12-.17.16-.19.15-.39.27-.6.38-.18.09-.38.17-.56.26-.16.08-.32.15-.48.24-.05.03-.08.08-.13.12-.04.03-.04.03-.05-.02a1.15 1.15 0 0 1-.01-.37c0-.12.05-.23.1-.33a1.135 1.135 0 0 1 .4-.45c.04-.03.09-.05.14-.07.12-.05.24-.12.34-.2.1-.08.2-.15.29-.24.11-.1.21-.21.31-.32.06-.06.05-.15-.03-.2-.11-.07-.22-.13-.33-.2-.23-.14-.45-.28-.65-.46-.12-.1-.24-.21-.35-.32a2 2 0 0 1-.42-.62c-.12-.26-.2-.52-.26-.8 0-.03-.02-.03-.04-.02-.01.01-.03.02-.04.03-.1.11-.19.23-.29.33-.08.09-.17.17-.26.26-.12.11-.26.21-.4.3-.08.05-.17.1-.25.15-.04.02-.07.05-.11.07-.04.03-.04.08-.04.12 0 .11 0 .21.08.3l.09.12c.07.09.09.19.12.29 0 .03.02.05.02.08a.4.4 0 0 1 .02.19V14.85c0 .09-.01.17-.03.26-.01.09-.04.18-.06.28-.02.1-.05.21-.08.31-.05.15-.12.29-.23.41-.08.09-.18.17-.29.22-.12.06-.25.11-.38.14-.08.01-.17.03-.25.04h-.05c.02-.01.04-.03.06-.04.07-.05.14-.09.2-.14.02-.01.02-.03.02-.06a.71.71 0 0 0-.18-.3.669.669 0 0 0-.19-.14 1.73 1.73 0 0 0-.57-.22c-.06-.01-.12 0-.17 0-.08 0-.16.02-.25.04.15.03.28.09.41.14.05.02.08.06.07.11-.01.05-.06.08-.11.08h-.33c-.13 0-.25.03-.38.06-.12.03-.24.08-.37.12-.02 0-.05.03-.06.05-.11.13-.2.26-.27.41-.02.04-.04.07-.06.11 0 .02 0 .03.02.03.06 0 .1.03.13.08.05.06.09.12.12.2.02.06 0 .1-.03.15-.04.06-.08.12-.13.17-.01.01-.03.03-.04.03l-.15.06c-.02 0-.03.02-.03.05 0 .06 0 .12.03.18.02.08.05.15.08.23.04.1.11.18.17.26.01.02.02.02.04 0 .01 0 .03-.02.04-.03.08-.08.18-.11.29-.11h.17c.11 0 .19.05.26.12.03.03.04.03.07 0a.55.55 0 0 1 .37-.12c.09 0 .22.08.23.19 0 .05 0 .09-.02.13-.01.03-.02.06-.04.09a.21.21 0 0 1-.04.06c-.03.04-.06.08-.09.11-.04.04-.09.07-.14.07-.05 0-.1 0-.15-.02-.02 0-.03-.02-.05-.03-.05-.05-.1-.1-.16-.15h-.02c-.04.05-.07.1-.11.14-.02.03 0 .04.02.04.09.02.18.05.27.06.09.01.19 0 .28 0h.07c.06 0 .11 0 .16-.04 0 0 .02-.01.03-.01.08 0 .14-.06.21-.09.09-.04.16-.11.27-.09.03 0 .07 0 .1-.02.1-.03.2-.07.3-.11.05-.02.04-.02 0-.06-.01-.01-.03-.02-.04-.03a.24.24 0 0 1-.06-.08c-.02-.04-.04-.07-.06-.11-.04-.08-.01-.15.03-.21.08-.12.2-.19.34-.22h.02c.06-.01.06-.01.04-.07a1.34 1.34 0 0 1 0-.4c0-.04 0-.05-.04-.05-.02 0-.05.01-.07.02-.09.04-.19.02-.25-.06a.16.16 0 0 1-.01-.15c.02-.05.08-.06.13-.07.08 0 .16.01.23.04.06.02.06.02.08-.03.04-.09.09-.17.15-.24.01-.01.03-.02.04-.03v.05c0 .22.02.44.06.65.02.11.06.21.14.3.03.03.07.04.1.06.11.06.22.13.33.19a2.16 2.16 0 0 0 .91.25h.26c.16-.01.31-.05.43-.17 0 0 .02-.02.03-.02.05-.03.08-.07.09-.13.01-.07.04-.13.04-.2 0-.1-.03-.19-.06-.29-.03-.1-.08-.19-.14-.28-.03-.04-.06-.08-.1-.12a1.262 1.262 0 0 0-.52-.32c-.03 0-.06-.02-.09-.04h.02l.22.03c.08.01.17.03.25.05.18.04.35.1.51.2.14.09.25.2.33.34.06.11.11.22.17.33 0 0 .29.74-.06 1.12z"/><path class="cls-1" d="M13.73 17.71c.07 0 .17-.06.31-.19.14-.13.21-.23.21-.3 0 0-.02-.15 0-.21s.1-.1.1-.1l.1-.1c.07-.06.17-.23.21-.31.04-.08.1-.2.1-.27s-.06-.17-.2-.24a.619.619 0 0 0-.31-.1c-.07 0-.32.08-.41.1-.09.03-.22.07-.31.21-.09.14-.19.45-.21.72 0 0-.05.16.08.41.13.26.34.39.34.39z"/><path class="cls-3" d="m13.36 5.83.08-.23c.15-.02.32.06.5.23.05-.02.09-.05.13-.08.04-.03.09-.08.15-.15s.11-.11.15-.16c.04-.04.08-.08.13-.12v.03c-.05.12-.1.24-.17.36-.06.12-.14.26-.22.4-.08.15-.14.27-.18.38-.04.1-.05.2-.05.31l-.05.11c-.09 0-.17-.02-.23-.06a.293.293 0 0 1-.12-.13.84.84 0 0 1-.04-.12c0-.03-.01-.08-.02-.13s-.02-.11-.04-.17c-.02-.06-.03-.12-.06-.18-.09.11-.18.23-.27.34-.09.11-.18.24-.27.37-.09.13-.16.28-.23.43-.06.15-.1.31-.1.46l.03.8s-.01.12 0 .23v.26c0 .06-.02.13-.04.19s-.05.11-.09.15l-.08.06a.52.52 0 0 1-.2-.24c-.04-.09-.07-.21-.08-.34a.964.964 0 0 1 0-.24c0-.08.01-.18.03-.3.01-.12.02-.24.03-.34 0-.1 0-.21-.02-.32-.4.45-.77.84-1.11 1.16-.15 0-.26-.04-.33-.11-.02-.1 0-.23.08-.4.2-.28.36-.51.48-.7.12-.19.25-.38.37-.59.12-.21.24-.43.34-.66.1-.23.18-.47.25-.72-.09.02-.17.04-.25.06-.08.03-.17.06-.25.1-.08.04-.17.09-.26.15s-.17.11-.23.15c-.06.04-.12.07-.18.11a4.6 4.6 0 0 1-.17.11c-.05.04-.1.08-.15.13s-.08.1-.12.15c-.1 0-.17-.05-.22-.14a.987.987 0 0 1-.1-.33c0-.07.02-.14.06-.2.03-.06.07-.12.12-.17.12-.08.18-.23.3-.29 0 .09.09.18.09.27.54-.24 1.11-.48 1.47-.93.09-.15-.06-.39-.24-.51.15-.15.24-.27.46-.14.12.03.24.07.24.07v.27c.06.02.11.03.16.03s.12 0 .19.01c.07 0 .14 0 .2.02.06 0 .12.02.17.04l.1.14c-.02.08-.06.15-.12.2-.06.05-.13.11-.22.16s-.17.1-.25.14a.8.8 0 0 0-.21.15c-.02.05-.05.15-.09.29-.05.14-.08.27-.11.37a1.647 1.647 0 0 0-.06.63c.33-.17.63-.44.91-.81zm-.58-3.34s.1.06.17.08c.07.02.15.04.25.07.1.02.17.06.23.1.05.04.09.11.11.21v.11c-.15.04-.29.09-.43.16-.13.07-.25.13-.35.2-.05.03-.1.07-.15.1-.05.03-.11.07-.17.1-.46.27-.97.48-1.51.57.45-.36.93-.66 1.31-1.1l.13-.16-.1-.2.12-.03c.04-.02.08-.04.13-.08.05-.03.09-.06.13-.08.04-.02.08-.04.14-.05zm2.32.23c.14.03.31.03.5 0 .05 0 .1.03.14.08.04.06.06.13.07.21-.06.13-.11.28-.15.43-.03.15-.05.3-.06.44-.01.14-.03.34-.04.6-.02.26-.04.48-.06.65.03-.02.12-.07.25-.15s.25-.14.34-.2c.09-.06.17-.12.23-.2a.54.54 0 0 0 .13-.23l.17-.15c.16 0 .32.04.47.1.15.06.3.15.44.26 0 .07 0 .13-.04.17-.04.04-.08.08-.14.1-.06.02-.12.05-.19.07s-.16.05-.29.08c-.12.03-.24.06-.35.09-.11.03-.21.06-.31.08-.09.03-.23.06-.4.11s-.29.09-.38.11c-.03.73-.13 1.42-.29 2.08-.1.27-.2.49-.3.67-.1.18-.23.34-.39.5-.16.16-.37.27-.62.35-.25.08-.58.1-.99.06L12.78 9c.6-.21 1.09-.57 1.48-1.08.39-.51.61-1.06.67-1.67.06-.72.1-1.32.12-1.81.02-.49.01-.85-.02-1.09-.1-.06-.22-.13-.37-.19l.06-.14c.09-.19.22-.31.4-.34zm.36 4.92h.19c.37.05.66.11.87.19.21.08.43.18.65.31.22.13.39.25.5.36.12.11.18.23.2.38 0 .11-.06.19-.16.23-.61 0-1.18-.02-1.75.19.27-.21.66-.39.63-.69 0-.18-.3-.36-.5-.51-.07-.05-.13-.11-.2-.16-.14-.1-.28-.2-.43-.3z"/></svg>