<svg id="_图层_1" xmlns="http://www.w3.org/2000/svg" version="1.1" viewBox="0 0 26 19"><defs><style>.st1{fill:#005529}</style></defs><rect x="3.62" y="-3.37" width="18.75" height="25.75" rx="1.88" ry="1.88" transform="rotate(-90 12.995 9.505)" style="fill:#f5f6f7"/><path d="M.25 2C.25 1.04 1.04.25 2 .25h22c.96 0 1.75.79 1.75 1.75v15c0 .96-.79 1.75-1.75 1.75H2c-.96 0-1.75-.79-1.75-1.75V2M0 2v15c0 1.1.9 2 2 2h22c1.1 0 2-.9 2-2V2c0-1.1-.9-2-2-2H2C.9 0 0 .9 0 2z" style="fill:#93989c"/><path class="st1" d="M2.28 4.65s.06-.08.08-.12c.04-.08.09-.13.17-.16.06-.03.12-.06.19-.09.05-.02.1-.03.16 0 .09.03.16.08.21.16.02.04.07.04.11.05l.86.15c.19.03.38.07.58.1l.5.06c.17.02.35.05.52.07l.3.03c.35 0 .71.01 1.06.01.17 0 .33-.03.5-.05.04 0 .09 0 .13-.01.04 0 .08-.02.11-.04.09-.06.17-.06.26 0 .07.05.11.12.13.19s.05.13.07.2l.03.15c0 .11.02.21.02.32 0 .08-.02.16-.02.23 0 .12-.1.18-.16.26-.05.08-.12.1-.21.09-.15 0-.3 0-.46-.01-.16 0-.31-.02-.47-.04-.22-.02-.45-.05-.67-.07-.25-.03-.49-.06-.74-.1-.31-.05-.62-.11-.93-.17l-.54-.09c-.18-.03-.36-.05-.54-.07-.06 0-.12 0-.18-.01h-.04c-.09-.08-.17.01-.25 0-.1 0-.2.01-.29-.01-.06-.02-.12-.09-.16-.15-.08-.14-.15-.29-.22-.45-.04-.09-.04-.19-.06-.28 0-.03-.02-.06-.03-.09v-.06h-.02zM19.35 18.28s-.1-.07-.15-.1c-.27-.16-.53-.33-.78-.52-.25-.18-.45-.4-.68-.61-.16-.15-.23-.34-.28-.54 0-.04.02-.08.03-.12s.03-.07.04-.11c0-.04.03-.04.05-.03.07.02.14.03.2.05.02 0 .04.02.06.03.07.05.13.11.2.16.11.09.19.22.28.33.17.23.35.46.52.69.18.25.35.5.52.75v.02h-.01zM23.85 11.21c-.15 0-.3-.01-.45 0-.26.03-.53.07-.79.11-.34.05-.67.16-.99.29-.25.1-.49.21-.74.33-.19.09-.36.21-.55.3-.17.07-.35.12-.53.16-.11.03-.23.04-.34.04-.15 0-.31-.01-.45-.05-.06-.02-.13-.02-.18-.05a.286.286 0 0 1-.17-.17c-.05-.11-.01-.21.02-.31.05-.17.1-.34.16-.51.07-.17.15-.33.31-.43s.34-.16.53-.19c.29-.05.58-.11.86-.17.3-.06.6-.13.89-.2.24-.06.48-.13.72-.2.26-.08.51-.17.77-.26.24-.09.47-.2.68-.34.05-.03.1-.05.15-.08.09-.05.18-.03.27 0 .05.02.08.07.12.1.06.06.1.12.16.18.09.08.15.18.19.29.04.1.09.2.12.3.02.08.03.17.04.26 0 .06.02.11.02.17 0 .13 0 .26-.11.36-.06.05-.14.07-.21.07h-.5zM13.24 13.39c.01-.19.1-.3.31-.34h.04c.1.01.2.04.3.04.2 0 .39-.03.59-.07.39-.09.77-.22 1.14-.38.31-.13.63-.27.93-.41.29-.14.57-.3.83-.49.06-.04.12-.1.18-.14.08-.05.17-.07.27-.06.17.03.31.12.45.19.1.05.13.15.16.25.03.12.06.24.08.36.01.06 0 .13 0 .19-.01.08-.03.16-.05.24-.02.11-.09.17-.2.2-.07.02-.14.01-.21 0h-.19c-.23.02-.45.1-.67.17-.21.08-.42.17-.63.26-.29.13-.58.26-.87.4-.31.15-.62.32-.93.48-.19.1-.39.21-.58.31-.05.03-.1.06-.14.09a.57.57 0 0 1-.28.11c-.06 0-.13-.02-.19-.06-.08-.05-.13-.14-.18-.22-.06-.1-.08-.2-.1-.31-.01-.1 0-.2-.02-.3-.01-.16-.02-.33-.04-.49v-.03.01zM20.49 7.25h-.3c-.06 0-.11 0-.17.02s-.13.04-.19.07c-.12.04-.22 0-.32-.05-.04-.02-.11-.01-.16-.01h-.82c-.24 0-.48 0-.72-.01h-.05c-.1.06-.2.02-.29.01-.05 0-.11 0-.16-.01-.11 0-.22 0-.33-.01-.13 0-.26-.02-.39-.01-.19 0-.38 0-.56.06-.03.01-.07.03-.09.05-.09.08-.17.15-.29.19-.04.01-.06 0-.1 0a.191.191 0 0 1-.16-.16c-.03-.12-.07-.25-.1-.37-.03-.14-.03-.28-.05-.42-.02-.12.02-.23.04-.34.01-.08.04-.15.07-.23.01-.04.04-.07.07-.1.09-.09.17-.21.31-.24.03 0 .06-.01.09 0 .17.08.35.11.54.13.17.01.33.03.5.05.17.01.35.03.52.04.15 0 .3.02.45.03.02 0 .04 0 .05.01.12.05.25.05.38.04.12 0 .23-.03.35-.05l.26-.03c.18-.01.37-.03.55-.02.08 0 .15.04.23.07.04.02.08.18.06.22-.03.05-.02.12-.09.14v.04c.04.05.08.11.13.15.2.21.4.42.6.62.04.05.09.09.15.14l-.01-.02zM8.57 6.05c-.02-.2-.03-.39-.05-.59a.76.76 0 0 0-.06-.25c-.02-.06 0-.1.05-.12.1-.04.2-.08.31-.1.05 0 .11.02.16.05.06.04.12.06.19.07l.6.09c.15.02.29.03.44.05l.52.06.38.03c.09 0 .18.02.28.02.05 0 .07.03.09.07.19.31.38.62.58.92.09.15.2.29.3.44.03.05 0 .1-.05.1-.08 0-.17 0-.25-.01-.06 0-.11-.02-.17-.02-.15-.02-.3-.03-.46-.05s-.32-.03-.47-.05c-.16-.02-.32-.05-.48-.07-.16-.02-.32-.05-.49-.08-.04 0-.08-.02-.12-.02-.09-.01-.19-.01-.29-.03l-.46-.06c-.1-.01-.21-.02-.31-.02-.13 0-.24-.11-.25-.26v-.17h.01zM25.04 3.8c-.12.04-.24.07-.35.12-.32.12-.64.23-.95.36-.31.13-.61.27-.91.41-.18.09-.36.19-.53.3-.05.03-.08.09-.11.14-.16.23-.33.46-.48.7-.12.19-.29.31-.47.42-.06.04-.14.05-.22.03-.06-.02-.12-.03-.17-.07-.01-.01-.04 0-.06 0-.03.01-.06.03-.08.05q-.05.04-.08-.02c-.09-.15-.12-.32-.14-.49-.01-.08.04-.17.05-.26.04-.22.16-.4.3-.56.09-.11.21-.2.32-.29.2-.16.42-.28.64-.39.29-.14.61-.24.93-.31.19-.04.39-.08.59-.11.14-.02.29-.02.43-.04.35-.04.69-.02 1.04-.02.09 0 .18 0 .27.02l-.02.01zM14.96 6.35c0 .15-.02.27-.03.39 0 0 0 .02-.01.03-.07.1-.15.2-.23.3-.01.02-.05.03-.07.03l-.16.03c-.12.02-.19 0-.25-.1-.01-.02-.04-.04-.06-.05-.15-.02-.31-.03-.46-.05l-.43-.06c-.08 0-.15-.02-.23-.03-.05 0-.09-.02-.12-.06-.14-.18-.28-.35-.42-.53-.11-.14-.21-.29-.31-.43-.07-.11-.15-.21-.22-.32 0-.01-.01-.04 0-.05.02-.02.05-.05.08-.05.16.01.31.04.47.06l.57.06c.07 0 .14 0 .22.01.12 0 .25.01.37.01.2 0 .4-.02.6-.03h.01c.05.03.09 0 .14-.02.06-.03.12-.01.16.04.07.08.12.16.18.24.03.04.05.08.08.11.04.06.07.12.08.19.01.1.03.21.04.28zM22.62 1.67c-.09.1-.18.19-.27.29-.13.15-.26.29-.39.44-.11.12-.22.24-.32.36-.14.17-.28.33-.42.5-.11.13-.22.27-.32.41-.16.21-.26.44-.36.67-.07.08-.06.17-.03.26.04.12-.05.31-.15.38-.14.1-.29.09-.45.04-.21-.05-.32-.19-.36-.39a.65.65 0 0 1 0-.31.34.34 0 0 0-.03-.22.562.562 0 0 1 .01-.34c.02-.06.07-.12.12-.17.12-.12.26-.22.38-.34.06-.06.11-.12.17-.18.27-.26.57-.47.88-.67.3-.19.61-.34.92-.49.2-.09.4-.17.6-.26v.01l.02.01z"/><path class="st1" d="M10.12 1.92a19.04 19.04 0 0 0 .48 1.25c.12.28.25.55.39.83.21.45.46.88.73 1.29.15.24.3.47.46.7.19.27.39.53.59.78.14.18.3.36.45.53.22.23.44.46.67.68.19.18.39.35.59.52.16.13.33.27.51.38.29.19.6.37.9.55.25.15.51.29.76.44.16.09.31.17.47.25.26.14.52.27.78.4.06.03.14.05.21.05.12 0 .24-.01.36-.02.01 0 .03 0 .04.02.07.07.14.13.21.2.02.02.02.03 0 .05-.07.07-.14.14-.21.2-.03.03-.09.03-.13.04-.12.02-.24.02-.36-.01-.07-.02-.13-.05-.19-.08-.3-.18-.59-.36-.89-.54-.21-.13-.43-.26-.64-.4-.31-.2-.63-.41-.93-.62-.25-.17-.5-.36-.75-.54-.15-.11-.29-.24-.43-.37l-.45-.42c-.16-.15-.33-.31-.48-.47-.24-.25-.47-.51-.69-.78-.19-.22-.36-.46-.53-.69-.24-.33-.45-.67-.65-1.02-.08-.15-.17-.29-.24-.45-.15-.32-.3-.65-.44-.98-.1-.25-.2-.5-.28-.75-.11-.33-.21-.67-.31-1.01h.02l-.02-.01zM24.5 8.55c-.07 0-.14.02-.21.02-.2.01-.4.03-.6.04-.21 0-.43.02-.64.01-.32-.01-.63-.06-.93-.13-.2-.05-.41-.11-.59-.2-.25-.12-.48-.28-.66-.49a.575.575 0 0 1-.13-.31c0-.08-.02-.16-.04-.24-.02-.09 0-.16.05-.24l.12-.18c.02-.03.05-.07.09-.09.06-.05.08-.04.14 0 .08.06.16.12.23.18.09.07.19.14.27.22.19.19.41.33.65.45.37.18.74.35 1.12.5l1.14.42.01.02-.02.02z"/><path class="st1" d="M13.4.81c-.06.14-.11.27-.16.4l-.36.93c-.11.29-.23.58-.33.88-.09.27-.18.53-.27.8-.05.16-.1.32-.19.46-.05.09-.12.17-.18.25 0 0-.02.01-.02.02-.06.07-.06.08-.16.04-.18-.07-.31-.18-.36-.38-.03-.11-.06-.21-.07-.32 0-.06.01-.12.02-.17.02-.11.04-.22.07-.33s.07-.21.12-.31c.13-.29.3-.56.49-.81.13-.16.25-.33.39-.48.23-.24.47-.48.7-.71.1-.09.2-.18.32-.28l-.01.01zM9.77 16.42l.19-.22c.19-.2.37-.41.57-.6a12.292 12.292 0 0 1 .78-.7c.08-.06.18-.11.26-.17s.16-.14.23-.21c.06-.06.11-.13.15-.2.04-.07.08-.15.11-.23.05-.12.12-.21.26-.23.08-.02.16-.05.25-.05.06 0 .13.01.18.04.11.07.22.15.33.23.06.04.07.1.08.16.03.15.07.3.07.46 0 .13-.05.23-.16.3-.05.03-.12.04-.18.04-.07 0-.14-.02-.18-.08-.02-.03-.04-.03-.08-.02-.15.04-.29.09-.4.2l-.02.02c-.12.04-.23.08-.35.13-.09.03-.17.07-.25.12-.24.13-.47.27-.7.4-.25.14-.5.28-.75.43-.13.07-.26.14-.39.22v-.04zM15.17 11.12c-.12-.05-.23-.08-.33-.13-.25-.11-.51-.22-.75-.35-.19-.1-.37-.23-.55-.36a2.6 2.6 0 0 1-.32-.26c-.11-.12-.21-.24-.31-.38-.11-.15-.18-.32-.21-.5 0-.06 0-.12.02-.18.03-.12.06-.25.13-.35s.2-.14.31-.12c.14.02.2.13.28.22.14.16.22.35.34.53.13.2.27.4.41.59.22.3.44.59.67.88.1.13.21.26.32.41h-.01zM20.04 17.06c-.42-.19-.83-.4-1.21-.64-.08-.05-.17-.08-.26-.12-.22-.09-.44-.19-.63-.33s-.36-.3-.49-.51a.608.608 0 0 1-.09-.18c-.02-.08 0-.15.03-.22.01-.04.02-.08 0-.12a.857.857 0 0 1-.05-.42c0-.09.05-.17.08-.25h.03c.18.16.36.33.51.53.14.18.27.36.41.54.15.18.31.35.46.52.33.38.7.71 1.06 1.06.05.05.1.09.15.13v.01zM21.55 14.42c-.1 0-.21-.01-.31-.01h-.44c-.05 0-.1.01-.15.01-.14 0-.29.02-.43.02-.24 0-.48.02-.71.01-.16 0-.32-.03-.48-.06-.1-.01-.19-.03-.29-.05-.03 0-.07-.02-.1-.03-.06-.03-.13-.06-.19-.09-.1-.05-.18-.11-.2-.22a.983.983 0 0 0-.05-.16c0-.01 0-.03.01-.04.12-.09.25-.17.41-.17.06 0 .11-.02.17-.02.1 0 .21.02.31.04.36.08.73.17 1.08.27.3.09.59.2.89.3.16.06.32.11.49.17v.02l-.01.01zM12.27 10.58c-.03-.07-.05-.12-.08-.17-.12-.23-.21-.46-.29-.71-.04-.14-.09-.28-.12-.42-.03-.12-.03-.24-.04-.37 0-.07-.02-.15-.01-.22 0-.15.03-.29.08-.44 0-.01.01-.02.02-.03l.27-.24c.08-.07.26-.06.33.02.05.06.08.11.08.19 0 .16-.01.32-.06.48-.02.08-.02.16-.03.25-.01.13-.03.25-.04.38l-.03.34c-.01.13-.03.27-.04.4l-.03.36c0 .05-.01.11-.02.18h.01zM12.54 4.99c0-.06 0-.11.01-.17.02-.17.05-.34.07-.51 0-.02 0-.03.01-.05.11-.24.26-.46.42-.67.06-.08.16-.13.27-.15.19-.04.33.05.47.15.09.06.11.14.1.24 0 .08 0 .17-.03.24s-.08.14-.14.19c-.2.15-.41.29-.62.43-.05.03-.11.06-.16.09-.13.07-.27.13-.41.2l.01.01zM22.03 9.64c-.35-.14-.7-.29-1.02-.5-.21-.13-.4-.29-.58-.47-.15-.15-.23-.33-.29-.53-.04-.12.02-.21.05-.3.03-.08.03-.07.1-.03.15.1.26.24.37.38.12.15.24.3.36.44.19.21.39.41.58.61.12.12.25.23.38.35l.04.04.01.01z"/><path d="M2.9 16.51c.07-.13.14-.33.29-.46.02-.03.04-.05.06-.08.11-.12.23-.17.37-.17s.62.15 1.45.44c-.05-.05-.12-.16-.23-.33-.1-.17-.15-.3-.15-.39 0-.09 0-.19.03-.29.02-.1.04-.15.07-.15.08 0 .35.08.81.24s.76.24.89.24c.09 0 .17-.01.23-.03s.09-.04.09-.06c-.11-.08-.37-.2-.8-.35-.43-.15-.66-.25-.71-.28.7.13 1.24.22 1.64.29.39.06.69.09.89.09.09 0 .18.03.27.09s.13.12.13.19c0 .1-.11.22-.34.36-.23.14-.55.21-.98.21-.11 0-.37-.04-.77-.11-.4-.08-.66-.11-.77-.11.02.09.19.29.52.58.33.3.49.49.49.58 0 .07-.04.13-.13.19s-.21.09-.37.09c-.04 0-.19-.08-.45-.23-.26-.15-.4-.23-.43-.25 0-.05-.22-.13-.67-.24-.45-.11-.77-.17-.96-.17h-.09c-.08.11-.21.05-.25.12h-.1l-.03-.01zM2.26 14c.19-.41.38-.74.69-1.03.02-.01.04-.02.07-.02h.07c.17 0 .64.19 1.41.56-.03-.08-.11-.42-.25-1.02s-.21-.96-.21-1.06c0-.09.04-.24.12-.43.01-.03.03-.06.04-.09.01-.03.03-.05.04-.07.1-.03.1-.16.17-.16.19 0 .19.19.19.3v.07c.02.18.03.42.03.73 0 .13.03.28.08.43s.11.3.17.46c-.04 0-.09-.03-.15-.1.03.09.07.23.1.41.04.19.05.36.05.51v.22c.2.13.36.27.48.42.11.15.17.34.17.58-.36-.26-.8-.5-1.33-.72-.31-.13-.58-.21-.81-.27-.03 0-.07-.01-.1-.02-.36-.17-.62.15-.94.29-.03 0-.07.01-.07.01h-.02zm2.78-1.26c.24-.16.47-.29.71-.42.23-.12.54-.18.93-.18.45 0 .96.06 1.55.17.09.02.17.04.25.06.03 0 .05.01.07.02.39.09.98.35.91.87-.19 0-.39 0-.48.2-.02.03-.05.07-.08.11s-.06.07-.09.11c-.25.29-.53.51-.85.67.11-.18.2-.36.29-.55.08-.19.12-.39.12-.58 0-.13-.24-.24-.71-.32a7.22 7.22 0 0 0-1.18-.12c-.08 0-.23.03-.47.08-.24.05-.39.08-.45.08-.08 0-.17 0-.26-.02s-.18-.05-.27-.1v-.06l.01-.02z" style="fill:#881c21"/></svg>