<svg id="_图层_1" xmlns="http://www.w3.org/2000/svg" version="1.1" viewBox="0 0 26 37.984"><defs><style>.st0{fill:#f5f6f7}.st1{fill:#231815}.st2{fill:#93989c}.st3{fill:#881c21}</style></defs><rect class="st0" x=".12" y="19.104" width="25.75" height="18.75" rx="1.88" ry="1.88"/><path class="st2" d="M.25 20.984c0-.96.79-1.75 1.75-1.75h22c.96 0 1.75.79 1.75 1.75v15c0 .96-.79 1.75-1.75 1.75H2c-.96 0-1.75-.79-1.75-1.75v-15m-.25 0v15c0 1.1.9 2 2 2h22c1.1 0 2-.9 2-2v-15c0-1.1-.9-2-2-2H2c-1.1 0-2 .9-2 2z"/><path class="st1" d="M8.65 33.014c0-.72-.35-2.05-1.06-3.99-.71-1.94-1.06-3.19-1.06-3.74 0-.84.16-1.66.49-2.46.32-.8.69-1.21 1.1-1.21.22 0 .43.11.63.34s.31.49.31.77c0 .1-.16.56-.47 1.38-.31.83-.47 1.56-.47 2.21 0 .86.28 2.17.83 3.92s.83 2.85.83 3.31c0 .84-.19 1.44-.58 1.8-.22-.07-.43-.44-.65-1.12 0-.12.02-.31.05-.58.04-.26.05-.48.05-.65v.02zM5.59 32.694c-.19 0-.47-.65-.83-1.94-.02-.1-.06-.26-.11-.5-.12-.43-.22-.78-.29-1.04-.12-.38-.27-.86-.45-1.44s-.32-1.04-.43-1.39c-.11-.35-.16-.59-.16-.74 0-.22.05-.32.14-.32.14 0 .29.03.43.09s.29.14.43.23c.14.1.23.16.25.18.96 3.65 1.44 5.7 1.44 6.15 0 .48-.14.72-.43.72h.01z"/><path class="st3" d="M19.76 29.924c0 .1.06.29.18.58l.29.14c.19.12.34.23.43.32-.22.36-.91.54-2.09.54-.91 0-1.57-.05-1.98-.14-.14-.89-.36-1.86-.65-2.93-.29-1.07-.43-1.73-.43-2 0-.5.17-.76.5-.76l.94.25c.62.17 1.27.25 1.94.25.38 0 .79-.02 1.22-.07.02-.46.1-.95.22-1.47.12-.53.36-1.07.72-1.64.36-.56.78-.85 1.26-.85.41 0 .72.16.94.47.22.31.32.71.32 1.19 0 .12.08.39.23.81.16.42.23.74.23.95 0 .31-.16.88-.49 1.71-.32.83-.59 1.41-.81 1.74.05.12.13.25.23.38.11.13.16.23.16.31 0 .12-.1.5-.29 1.15.02 0 .1 0 .22.02.12.01.21.02.27.04.06.01.13.02.22.04.08.01.15.04.2.09.05.05.07.11.07.18 0 .07-.05.15-.14.23-.1.08-.22.16-.38.22s-.31.12-.45.18-.3.11-.47.16-.28.08-.32.11v.43c0 .46-.07.88-.22 1.26-.14.38-.35.58-.61.58-.02 0-.06 0-.11-.02a.784.784 0 0 0-.14-.02c0-.22.02-.52.07-.9s.07-.68.07-.9v-.14c-.19.02-.46.07-.81.14-.35.07-.64.13-.86.18-.23.05-.4.07-.52.07-.05 0-.12-.05-.22-.14.05-.29.19-.5.41-.63.23-.13.55-.25.95-.34.41-.1.74-.22 1.01-.36 0-.34-.1-.79-.29-1.37-.07 0-.24 0-.5-.02-.26-.01-.44-.02-.54-.02h.02zm-4.93-4.5c0 .72.21 1.79.63 3.2.42 1.42.63 2.35.63 2.81 0 1.44-.26 2.37-.79 2.81-.26-.43-.4-.76-.4-.97 0-.24.06-.61.18-1.1.12-.49.18-.9.18-1.24 0-.48-.05-.8-.14-.97-.1-.17-.31-.25-.65-.25-.07 0-.13.07-.16.2-.04.13-.09.22-.16.27a.42.42 0 0 1-.22-.05c-.05-.04-.11-.1-.2-.18-.08-.08-.17-.15-.27-.2-.07-.05-.22-.14-.45-.27s-.38-.24-.47-.32a.439.439 0 0 1-.13-.31c0-.17.12-.25.36-.25.19 0 .39.02.59.05.2.04.43.1.68.18s.45.14.59.16c.12-.05.18-.13.18-.25s-.28-.35-.83-.63-.95-.41-1.19-.41c-.14 0-.28.08-.41.23-.13.16-.23.26-.31.31-.43-.19-.77-.61-1.01-1.26.17-.48.61-.72 1.33-.72.24 0 .53.1.86.31.34.2.65.32.94.34-.02-.19-.07-.46-.14-.79a9.321 9.321 0 0 1-.21-2.09c0-.77.08-1.21.25-1.33.34.17.59.43.76.79-.02.31-.04.96-.04 1.94l.02-.01zm7.01 5.76c.24-.1.43-.18.58-.25-.07-.34-.2-.72-.4-1.15-.14.12-.34.18-.58.18l.4 1.22zm-4.75-.54h.65v-.07l.04-.07-.11-.65c-.19 0-.43-.02-.72-.07l.14.86zm1.19-.72c.02.14.05.3.07.47 0 .14.01.22.04.23.02.01.07.02.14.02h.14s.13 0 .25-.02c.12-.01.2-.02.25-.02 0-.12-.02-.35-.07-.68h-.83.01zm-1.51-.9c.12 0 .25.02.4.05.14.04.26.05.36.05-.05-.24-.1-.52-.16-.83s-.1-.54-.13-.68c-.12 0-.26 0-.43-.02-.17-.01-.3-.02-.4-.02.05.22.11.47.2.76.08.29.14.52.16.68v.01zm1.37.11h.79c-.02-.34-.13-.81-.32-1.44-.36 0-.64-.01-.83-.04.17.53.29 1.02.36 1.47v.01zm1.44-.07h.97c-.1-.53-.23-.99-.4-1.4-.41 0-.72.01-.94.04.05.12.11.33.18.63s.13.55.18.74l.01-.01zm1.62-.04c.38 0 .58-.06.58-.18s-.02-.2-.05-.31c-.04-.11-.09-.25-.16-.43s-.13-.35-.18-.52c-.26.05-.46.06-.58.04.02.14.16.61.4 1.4h-.01zm-.43-3.02s.16-.02.32-.05c.17-.04.31-.05.43-.05s.25.04.4.11c.31.46.47.9.47 1.33-.02.02-.1.06-.22.11s-.2.08-.25.11c.05.14.13.31.25.49s.2.33.25.45c.14-.1.29-.34.45-.72s.23-.68.23-.9c0-.14-.03-.28-.09-.41s-.15-.28-.27-.43c-.12-.16-.2-.28-.25-.38-.05-.12-.08-.35-.11-.7-.02-.35-.09-.61-.2-.79s-.29-.27-.56-.27c-.19 0-.38.25-.56.76-.18.5-.28.96-.31 1.37l.02-.03z"/><rect class="st0" x=".12" y=".119" width="25.75" height="18.75" rx="1.88" ry="1.88"/><path class="st2" d="M.25 1.999c0-.96.79-1.75 1.75-1.75h22c.96 0 1.75.79 1.75 1.75v15c0 .96-.79 1.75-1.75 1.75H2c-.96 0-1.75-.79-1.75-1.75v-15m-.25 0v15c0 1.1.9 2 2 2h22c1.1 0 2-.9 2-2v-15c0-1.1-.9-2-2-2H2c-1.1 0-2 .9-2 2z"/><path class="st1" d="M8.65 14.029c0-.72-.35-2.05-1.06-3.99-.71-1.94-1.06-3.19-1.06-3.74 0-.84.16-1.66.49-2.46.32-.8.69-1.21 1.1-1.21.22 0 .43.11.63.34s.31.49.31.77c0 .1-.16.56-.47 1.38-.31.83-.47 1.56-.47 2.21 0 .86.28 2.17.83 3.92s.83 2.85.83 3.31c0 .84-.19 1.44-.58 1.8-.22-.07-.43-.44-.65-1.12 0-.12.02-.31.05-.58.04-.26.05-.48.05-.65v.02zM5.59 13.709c-.19 0-.47-.65-.83-1.94-.02-.1-.06-.26-.11-.5-.12-.43-.22-.78-.29-1.04-.12-.38-.27-.86-.45-1.44s-.32-1.04-.43-1.39c-.11-.35-.16-.59-.16-.74 0-.22.05-.32.14-.32.14 0 .29.03.43.09s.29.14.43.23c.14.1.23.16.25.18.96 3.65 1.44 5.7 1.44 6.15 0 .48-.14.72-.43.72h.01z"/><path class="st3" d="M19.76 10.939c0 .1.06.29.18.58l.29.14c.19.12.34.23.43.32-.22.36-.91.54-2.09.54-.91 0-1.57-.05-1.98-.14-.14-.89-.36-1.86-.65-2.93-.29-1.07-.43-1.73-.43-2 0-.5.17-.76.5-.76l.94.25c.62.17 1.27.25 1.94.25.38 0 .79-.02 1.22-.07.02-.46.1-.95.22-1.47.12-.53.36-1.07.72-1.64.36-.56.78-.85 1.26-.85.41 0 .72.16.94.47.22.31.32.71.32 1.19 0 .12.08.39.23.81.16.42.23.74.23.95 0 .31-.16.88-.49 1.71-.32.83-.59 1.41-.81 1.74.05.12.13.25.23.38.11.13.16.23.16.31 0 .12-.1.5-.29 1.15.02 0 .1 0 .22.02.12.01.21.02.27.04.06.01.13.02.22.04.08.01.15.04.2.09.05.05.07.11.07.18 0 .07-.05.15-.14.23-.1.08-.22.16-.38.22s-.31.12-.45.18-.3.11-.47.16-.28.08-.32.11v.43c0 .46-.07.88-.22 1.26-.14.38-.35.58-.61.58-.02 0-.06 0-.11-.02a.784.784 0 0 0-.14-.02c0-.22.02-.52.07-.9s.07-.68.07-.9v-.14c-.19.02-.46.07-.81.14-.35.07-.64.13-.86.18-.23.05-.4.07-.52.07-.05 0-.12-.05-.22-.14.05-.29.19-.5.41-.63.23-.13.55-.25.95-.34.41-.1.74-.22 1.01-.36 0-.34-.1-.79-.29-1.37-.07 0-.24 0-.5-.02-.26-.01-.44-.02-.54-.02h.02zm-4.93-4.5c0 .72.21 1.79.63 3.2.42 1.42.63 2.35.63 2.81 0 1.44-.26 2.37-.79 2.81-.26-.43-.4-.76-.4-.97 0-.24.06-.61.18-1.1.12-.49.18-.9.18-1.24 0-.48-.05-.8-.14-.97-.1-.17-.31-.25-.65-.25-.07 0-.13.07-.16.2-.04.13-.09.22-.16.27a.42.42 0 0 1-.22-.05c-.05-.04-.11-.1-.2-.18-.08-.08-.17-.15-.27-.2-.07-.05-.22-.14-.45-.27s-.38-.24-.47-.32a.439.439 0 0 1-.13-.31c0-.17.12-.25.36-.25.19 0 .39.02.59.05.2.04.43.1.68.18s.45.14.59.16c.12-.05.18-.13.18-.25s-.28-.35-.83-.63-.95-.41-1.19-.41c-.14 0-.28.08-.41.23-.13.16-.23.26-.31.31-.43-.19-.77-.61-1.01-1.26.17-.48.61-.72 1.33-.72.24 0 .53.1.86.31.34.2.65.32.94.34-.02-.19-.07-.46-.14-.79a9.321 9.321 0 0 1-.21-2.09c0-.77.08-1.21.25-1.33.34.17.59.43.76.79-.02.31-.04.96-.04 1.94l.02-.01zm7.01 5.76c.24-.1.43-.18.58-.25-.07-.34-.2-.72-.4-1.15-.14.12-.34.18-.58.18l.4 1.22zm-4.75-.54h.65v-.07l.04-.07-.11-.65c-.19 0-.43-.02-.72-.07l.14.86zm1.19-.72c.02.14.05.3.07.47 0 .14.01.22.04.23.02.01.07.02.14.02h.14s.13 0 .25-.02c.12-.01.2-.02.25-.02 0-.12-.02-.35-.07-.68h-.83.01zm-1.51-.9c.12 0 .25.02.4.05.14.04.26.05.36.05-.05-.24-.1-.52-.16-.83s-.1-.54-.13-.68c-.12 0-.26 0-.43-.02-.17-.01-.3-.02-.4-.02.05.22.11.47.2.76.08.29.14.52.16.68v.01zm1.37.11h.79c-.02-.34-.13-.81-.32-1.44-.36 0-.64-.01-.83-.04.17.53.29 1.02.36 1.47v.01zm1.44-.07h.97c-.1-.53-.23-.99-.4-1.4-.41 0-.72.01-.94.04.05.12.11.33.18.63s.13.55.18.74l.01-.01zm1.62-.04c.38 0 .58-.06.58-.18s-.02-.2-.05-.31c-.04-.11-.09-.25-.16-.43s-.13-.35-.18-.52c-.26.05-.46.06-.58.04.02.14.16.61.4 1.4h-.01zm-.43-3.02s.16-.02.32-.05c.17-.04.31-.05.43-.05s.25.04.4.11c.31.46.47.9.47 1.33-.02.02-.1.06-.22.11s-.2.08-.25.11c.05.14.13.31.25.49s.2.33.25.45c.14-.1.29-.34.45-.72s.23-.68.23-.9c0-.14-.03-.28-.09-.41s-.15-.28-.27-.43c-.12-.16-.2-.28-.25-.38-.05-.12-.08-.35-.11-.7-.02-.35-.09-.61-.2-.79s-.29-.27-.56-.27c-.19 0-.38.25-.56.76-.18.5-.28.96-.31 1.37l.02-.03z"/></svg>