<svg id="_图层_1" xmlns="http://www.w3.org/2000/svg" version="1.1" viewBox="0 0 26 37.984"><defs><style>.st0{fill:#f5f6f7}.st1{fill:#005529}.st2{fill:#93989c}</style></defs><rect class="st0" x=".13" y="19.114" width="25.75" height="18.75" rx="1.88" ry="1.88"/><path class="st2" d="M.25 20.984c0-.96.79-1.75 1.75-1.75h22c.96 0 1.75.79 1.75 1.75v15c0 .96-.79 1.75-1.75 1.75H2c-.96 0-1.75-.79-1.75-1.75v-15m-.25 0v15c0 1.1.9 2 2 2h22c1.1 0 2-.9 2-2v-15c0-1.1-.9-2-2-2H2c-1.1 0-2 .9-2 2z"/><path class="st1" d="M10.23 27.234H8.87s-.23.02-.34-.07c-.17-.13-.4-.68-.98-.68s-.81.55-.98.68c-.12.09-.34.07-.34.07H5.06s-.38.03-.52-.09c-.2-.18-.38-.61-.82-.59-.36.01-.61.32-.68.79-.04.27-.4.41-.4 1.14s.36.87.4 1.14c.07.47.32.77.68.79.43.02.61-.41.82-.59.14-.12.52-.09.52-.09h1.17s.23-.02.34.07c.17.13.4.68.98.68s.81-.55.98-.68c.12-.09.34-.07.34-.07h1.36s.38-.03.52.09c.28.26.52.73.9.58.4-.15.65-.42.58-.9-.07-.42-.3-.54-.3-1.03s.23-.61.3-1.03c.07-.47-.18-.74-.58-.9-.38-.14-.62.33-.9.58-.13.12-.52.09-.52.09v.02zm-6.53 1.82c-.35-.04-.5-.25-.5-.57s.16-.52.5-.57c.34-.04.47.1.56.15.09.05.27.05.27.05h1.92c.15 0 .26.1.26.22v.31c0 .12-.12.22-.26.22H4.53s-.17 0-.27.05c-.09.05-.22.19-.56.15v-.01zm7.53-.94c.12 0 .22.11.22.25v.24c0 .14-.1.25-.22.25H8.59c-.12 0-.22-.11-.22-.25v-.24c0-.14.1-.25.22-.25h2.64zm-3.35-.41c.13 0 .24.13.24.28v1c0 .15-.11.28-.24.28h-.02c-.13 0-.24-.13-.24-.28v-1c0-.15.11-.28.24-.28h.02zm-.67 0c.13 0 .24.13.24.28v1c0 .15-.11.28-.24.28h-.02c-.13 0-.24-.13-.24-.28v-1c0-.15.11-.28.24-.28h.02zM21.36 32.344H20s-.23.02-.34-.07c-.17-.13-.4-.68-.98-.68s-.81.55-.98.68c-.12.09-.34.07-.34.07h-1.17s-.38.03-.52-.09c-.2-.18-.38-.61-.82-.59-.36.01-.61.32-.68.79-.04.27-.4.41-.4 1.14s.36.87.4 1.14c.07.47.32.77.68.79.43.02.61-.41.82-.59.14-.12.52-.09.52-.09h1.17s.23-.02.34.07c.17.13.4.68.98.68s.81-.55.98-.68c.12-.09.34-.07.34-.07h1.36s.38-.03.52.09c.28.26.52.73.9.58.4-.15.65-.42.58-.9-.07-.42-.3-.54-.3-1.03s.23-.61.3-1.03c.07-.47-.18-.74-.58-.9-.38-.14-.62.33-.9.58-.13.12-.52.09-.52.09v.02zm-6.53 1.82c-.35-.04-.5-.25-.5-.57s.16-.52.5-.57c.34-.04.47.1.56.15s.27.05.27.05h1.92c.15 0 .26.1.26.22v.31c0 .12-.12.22-.26.22h-1.92s-.17 0-.27.05c-.09.05-.22.19-.56.15v-.01zm7.53-.94c.12 0 .22.11.22.25v.24c0 .14-.1.25-.22.25h-2.64c-.12 0-.22-.11-.22-.25v-.24c0-.14.1-.25.22-.25h2.64zm-3.35-.41c.13 0 .24.13.24.28v1c0 .15-.11.28-.24.28h-.02c-.13 0-.24-.13-.24-.28v-1c0-.16.11-.28.24-.28h.02zm-.67 0c.13 0 .24.13.24.28v1c0 .15-.11.28-.24.28h-.02c-.13 0-.24-.13-.24-.28v-1c0-.16.11-.28.24-.28h.02zM21.36 22.124H20s-.23.02-.34-.07c-.17-.13-.4-.68-.98-.68s-.81.55-.98.68c-.12.09-.34.07-.34.07h-1.17s-.38.03-.52-.09c-.2-.18-.38-.61-.82-.59-.36.01-.61.32-.68.79-.04.27-.4.41-.4 1.14s.36.87.4 1.14c.07.47.32.77.68.79.43.02.61-.41.82-.59.14-.12.52-.09.52-.09h1.17s.23-.02.34.07c.17.13.4.68.98.68s.81-.55.98-.68c.12-.09.34-.07.34-.07h1.36s.38-.03.52.09c.28.26.52.73.9.58.4-.15.65-.42.58-.9-.07-.42-.3-.54-.3-1.03s.23-.61.3-1.03c.07-.47-.18-.74-.58-.9-.38-.14-.62.33-.9.58-.13.12-.52.09-.52.09v.02zm-6.53 1.82c-.35-.04-.5-.25-.5-.57s.16-.52.5-.57c.34-.04.47.1.56.15.09.05.27.05.27.05h1.92c.15 0 .26.1.26.22v.31c0 .12-.12.22-.26.22h-1.92s-.17 0-.27.05c-.09.05-.22.19-.56.15v-.01zm7.53-.94c.12 0 .22.11.22.25v.24c0 .14-.1.25-.22.25h-2.64c-.12 0-.22-.11-.22-.25v-.24c0-.14.1-.25.22-.25h2.64zm-3.35-.41c.13 0 .24.13.24.28v1c0 .15-.11.28-.24.28h-.02c-.13 0-.24-.13-.24-.28v-1c0-.15.11-.28.24-.28h.02zm-.67 0c.13 0 .24.13.24.28v1c0 .15-.11.28-.24.28h-.02c-.13 0-.24-.13-.24-.28v-1c0-.15.11-.28.24-.28h.02z"/><g><rect class="st0" x=".13" y=".129" width="25.75" height="18.75" rx="1.88" ry="1.88"/><path class="st2" d="M.25 1.999c0-.96.79-1.75 1.75-1.75h22c.96 0 1.75.79 1.75 1.75v15c0 .96-.79 1.75-1.75 1.75H2c-.96 0-1.75-.79-1.75-1.75v-15m-.25 0v15c0 1.1.9 2 2 2h22c1.1 0 2-.9 2-2v-15c0-1.1-.9-2-2-2H2c-1.1 0-2 .9-2 2z"/></g><g><path class="st1" d="M10.23 8.249H8.87s-.23.02-.34-.07c-.17-.13-.4-.68-.98-.68s-.81.55-.98.68c-.12.09-.34.07-.34.07H5.06s-.38.03-.52-.09c-.2-.18-.38-.61-.82-.59-.36.01-.61.32-.68.79-.04.27-.4.41-.4 1.14s.36.87.4 1.14c.07.47.32.77.68.79.43.02.61-.41.82-.59.14-.12.52-.09.52-.09h1.17s.23-.02.34.07c.17.13.4.68.98.68s.81-.55.98-.68c.12-.09.34-.07.34-.07h1.36s.38-.03.52.09c.28.26.52.73.9.58.4-.15.65-.42.58-.9-.07-.42-.3-.54-.3-1.03s.23-.61.3-1.03c.07-.47-.18-.74-.58-.9-.38-.14-.62.33-.9.58-.13.12-.52.09-.52.09v.02zm-6.53 1.82c-.35-.04-.5-.25-.5-.57s.16-.52.5-.57c.34-.04.47.1.56.15.09.05.27.05.27.05h1.92c.15 0 .26.1.26.22v.31c0 .12-.12.22-.26.22H4.53s-.17 0-.27.05c-.09.05-.22.19-.56.15v-.01zm7.53-.94c.12 0 .22.11.22.25v.24c0 .14-.1.25-.22.25H8.59c-.12 0-.22-.11-.22-.25v-.24c0-.14.1-.25.22-.25h2.64zm-3.35-.41c.13 0 .24.13.24.28v1c0 .15-.11.28-.24.28h-.02c-.13 0-.24-.13-.24-.28v-1c0-.15.11-.28.24-.28h.02zm-.67 0c.13 0 .24.13.24.28v1c0 .15-.11.28-.24.28h-.02c-.13 0-.24-.13-.24-.28v-1c0-.15.11-.28.24-.28h.02zM21.36 13.359H20s-.23.02-.34-.07c-.17-.13-.4-.68-.98-.68s-.81.55-.98.68c-.12.09-.34.07-.34.07h-1.17s-.38.03-.52-.09c-.2-.18-.38-.61-.82-.59-.36.01-.61.32-.68.79-.04.27-.4.41-.4 1.14s.36.87.4 1.14c.07.47.32.77.68.79.43.02.61-.41.82-.59.14-.12.52-.09.52-.09h1.17s.23-.02.34.07c.17.13.4.68.98.68s.81-.55.98-.68c.12-.09.34-.07.34-.07h1.36s.38-.03.52.09c.28.26.52.73.9.58.4-.15.65-.42.58-.9-.07-.42-.3-.54-.3-1.03s.23-.61.3-1.03c.07-.47-.18-.74-.58-.9-.38-.14-.62.33-.9.58-.13.12-.52.09-.52.09v.02zm-6.53 1.82c-.35-.04-.5-.25-.5-.57s.16-.52.5-.57c.34-.04.47.1.56.15s.27.05.27.05h1.92c.15 0 .26.1.26.22v.31c0 .12-.12.22-.26.22h-1.92s-.17 0-.27.05c-.09.05-.22.19-.56.15v-.01zm7.53-.94c.12 0 .22.11.22.25v.24c0 .14-.1.25-.22.25h-2.64c-.12 0-.22-.11-.22-.25v-.24c0-.14.1-.25.22-.25h2.64zm-3.35-.41c.13 0 .24.13.24.28v1c0 .15-.11.28-.24.28h-.02c-.13 0-.24-.13-.24-.28v-1c0-.16.11-.28.24-.28h.02zm-.67 0c.13 0 .24.13.24.28v1c0 .15-.11.28-.24.28h-.02c-.13 0-.24-.13-.24-.28v-1c0-.16.11-.28.24-.28h.02zM21.36 3.139H20s-.23.02-.34-.07c-.17-.13-.4-.68-.98-.68s-.81.55-.98.68c-.12.09-.34.07-.34.07h-1.17s-.38.03-.52-.09c-.2-.18-.38-.61-.82-.59-.36.01-.61.32-.68.79-.04.27-.4.41-.4 1.14s.36.87.4 1.14c.07.47.32.77.68.79.43.02.61-.41.82-.59.14-.12.52-.09.52-.09h1.17s.23-.02.34.07c.17.13.4.68.98.68s.81-.55.98-.68c.12-.09.34-.07.34-.07h1.36s.38-.03.52.09c.28.26.52.73.9.58.4-.15.65-.42.58-.9-.07-.42-.3-.54-.3-1.03s.23-.61.3-1.03c.07-.47-.18-.74-.58-.9-.38-.14-.62.33-.9.58-.13.12-.52.09-.52.09v.02zm-6.53 1.82c-.35-.04-.5-.25-.5-.57s.16-.52.5-.57c.34-.04.47.1.56.15.09.05.27.05.27.05h1.92c.15 0 .26.1.26.22v.31c0 .12-.12.22-.26.22h-1.92s-.17 0-.27.05c-.09.05-.22.19-.56.15v-.01zm7.53-.94c.12 0 .22.11.22.25v.24c0 .14-.1.25-.22.25h-2.64c-.12 0-.22-.11-.22-.25v-.24c0-.14.1-.25.22-.25h2.64zm-3.35-.41c.13 0 .24.13.24.28v1c0 .15-.11.28-.24.28h-.02c-.13 0-.24-.13-.24-.28v-1c0-.15.11-.28.24-.28h.02zm-.67 0c.13 0 .24.13.24.28v1c0 .15-.11.28-.24.28h-.02c-.13 0-.24-.13-.24-.28v-1c0-.15.11-.28.24-.28h.02z"/></g></svg>