<svg id="_图层_1" xmlns="http://www.w3.org/2000/svg" version="1.1" viewBox="0 0 26 37.984"><defs><style>.st0{fill:#f5f6f7}.st1{fill:#93989c}.st2{fill:#011833}</style></defs><rect class="st0" x=".12" y="19.104" width="25.75" height="18.75" rx="1.88" ry="1.88"/><path class="st1" d="M.25 20.984c0-.96.79-1.75 1.75-1.75h22c.96 0 1.75.79 1.75 1.75v15c0 .96-.79 1.75-1.75 1.75H2c-.96 0-1.75-.79-1.75-1.75v-15m-.25 0v15c0 1.1.9 2 2 2h22c1.1 0 2-.9 2-2v-15c0-1.1-.9-2-2-2H2c-1.1 0-2 .9-2 2z"/><path class="st2" d="M4.03 28.484c0 2.1 1.7 3.81 3.81 3.81s3.81-1.7 3.81-3.81-1.7-3.81-3.81-3.81-3.81 1.7-3.81 3.81zm1.1-.35c-.46-.23-.51-.48-.46-.76.02-.16.09-.35.23-.59s.27-.39.4-.49c.22-.18.46-.26.89.02.38.25.79 1.07.78 1.22s-.13.26-.27.17l-.75-.43c0-.06-.04-.12-.1-.16-.09-.05-.21-.03-.26.06s-.02.21.08.26c.06.03.13.04.18 0l.75.43c.14.08.11.24-.02.32-.12.09-1.04.14-1.45-.07v.02zm.16 2.54c-.13-.1-.26-.25-.4-.5-.14-.24-.2-.43-.23-.59-.04-.28 0-.53.46-.76.41-.2 1.32-.15 1.45-.07.12.09.16.24.02.32l-.75.43a.191.191 0 0 0-.18 0c-.09.05-.13.17-.08.26s.17.12.26.06c.06-.03.1-.09.1-.16l.75-.43c.14-.08.26.02.27.17s-.4.97-.78 1.22c-.43.28-.67.2-.89.02v.03zm3.17 1.11c-.15.06-.35.1-.63.1s-.47-.04-.63-.1c-.27-.1-.46-.27-.43-.78.03-.46.53-1.22.67-1.29.14-.06.29-.01.29.15v.87c-.05.04-.09.1-.09.16 0 .11.08.2.19.2.1 0 .19-.09.19-.2 0-.07-.03-.13-.09-.16v-.87c0-.16.15-.21.29-.15s.64.83.67 1.29c.03.51-.16.68-.43.78zm2.08-2.96c.46.23.51.48.46.76-.02.16-.09.35-.23.59s-.27.39-.4.49c-.22.18-.46.26-.89-.02-.38-.25-.79-1.07-.78-1.22s.13-.26.27-.17l.75.43c0 .06.04.12.1.16.09.05.21.03.26-.06s.02-.21-.08-.26c-.06-.03-.13-.04-.18 0l-.75-.43c-.14-.08-.11-.24.02-.32.12-.09 1.04-.14 1.45.07v-.02zm-2.71.51c-.47 0-.86-.38-.86-.86s.38-.86.86-.86.86.38.86.86-.38.86-.86.86zm2.55-3.05c.13.1.26.25.4.5.14.24.2.43.23.59.04.28 0 .53-.46.76-.41.2-1.32.15-1.45.07s-.16-.24-.02-.32l.75-.43c.06.03.13.03.18 0 .09-.05.13-.17.08-.26s-.17-.12-.26-.06c-.06.03-.1.09-.1.16l-.75.43c-.14.08-.26-.02-.27-.17s.4-.97.78-1.22c.43-.28.67-.2.89-.02v-.03zm-1.49-.32c-.03.46-.53 1.22-.67 1.29-.14.06-.29.01-.29-.15v-.87c.05-.04.09-.1.09-.16 0-.11-.08-.2-.19-.2-.1 0-.19.09-.19.2 0 .07.03.13.09.16v.87c0 .16-.15.21-.29.15s-.64-.83-.67-1.29c-.03-.51.16-.68.43-.78.15-.06.35-.1.63-.1s.47.04.63.1c.27.1.46.27.43.78z"/><path class="st2" d="M7.43 28.484c0 .23.18.41.41.41s.41-.18.41-.41-.18-.41-.41-.41-.41.18-.41.41z"/><path class="st2" d="M3.28 28.484c0 2.51 2.04 4.55 4.55 4.55s4.55-2.04 4.55-4.55-2.04-4.55-4.55-4.55-4.55 2.04-4.55 4.55zm8.64 0c0 2.26-1.83 4.09-4.09 4.09s-4.09-1.83-4.09-4.09 1.83-4.09 4.09-4.09 4.09 1.83 4.09 4.09zM17.76 28.484c0 .23.18.41.41.41s.41-.18.41-.41-.18-.41-.41-.41-.41.18-.41.41z"/><path class="st2" d="M14.36 28.484c0 2.1 1.7 3.81 3.81 3.81s3.81-1.7 3.81-3.81-1.7-3.81-3.81-3.81-3.81 1.7-3.81 3.81zm1.1-.35c-.46-.23-.51-.48-.46-.76.02-.16.09-.35.23-.59s.27-.39.4-.49c.22-.18.46-.26.89.02.38.25.79 1.07.78 1.22s-.13.26-.27.17l-.75-.43c0-.06-.04-.12-.1-.16-.09-.05-.21-.03-.26.06s-.02.21.08.26c.06.03.13.04.18 0l.75.43c.14.08.11.24-.02.32-.12.09-1.04.14-1.45-.07v.02zm.16 2.54c-.13-.1-.26-.25-.4-.5-.14-.24-.2-.43-.23-.59-.04-.28 0-.53.46-.76.41-.2 1.32-.15 1.45-.07.12.09.16.24.02.32l-.75.43a.191.191 0 0 0-.18 0c-.09.05-.13.17-.08.26s.17.12.26.06c.06-.03.1-.09.1-.16l.75-.43c.14-.08.26.02.27.17s-.4.97-.78 1.22c-.43.28-.67.2-.89.02v.03zm3.17 1.11c-.15.06-.35.1-.63.1s-.47-.04-.63-.1c-.27-.1-.46-.27-.43-.78.03-.46.53-1.22.67-1.29.14-.06.29-.01.29.15v.87c-.05.04-.09.1-.09.16s.08.2.19.2c.1 0 .19-.09.19-.2s-.03-.13-.09-.16v-.87c0-.16.15-.21.29-.15.14.06.64.83.67 1.29.03.51-.16.68-.43.78zm2.08-2.96c.46.23.51.48.46.76-.02.16-.09.35-.23.59s-.27.39-.4.49c-.22.18-.46.26-.89-.02-.38-.25-.79-1.07-.78-1.22s.13-.26.27-.17l.75.43c0 .06.04.12.1.16.09.05.21.03.26-.06.05-.09.02-.21-.08-.26-.06-.03-.13-.04-.18 0l-.75-.43c-.14-.08-.11-.24.02-.32.12-.09 1.04-.14 1.45.07v-.02zm-2.71.51c-.47 0-.86-.38-.86-.86s.38-.86.86-.86.86.38.86.86-.38.86-.86.86zm2.55-3.05c.13.1.26.25.4.5.14.24.2.43.23.59.04.28 0 .53-.46.76-.41.2-1.32.15-1.45.07s-.16-.24-.02-.32l.75-.43c.06.03.13.03.18 0 .09-.05.13-.17.08-.26s-.17-.12-.26-.06c-.06.03-.1.09-.1.16l-.75.43c-.14.08-.26-.02-.27-.17s.4-.97.78-1.22c.43-.28.67-.2.89-.02v-.03zm-1.49-.32c-.03.46-.53 1.22-.67 1.29-.14.06-.29.01-.29-.15v-.87c.05-.04.09-.1.09-.16 0-.11-.08-.2-.19-.2-.1 0-.19.09-.19.2 0 .07.03.13.09.16v.87c0 .16-.15.21-.29.15-.14-.06-.64-.83-.67-1.29-.03-.51.16-.68.43-.78.15-.06.35-.1.63-.1s.47.04.63.1c.27.1.46.27.43.78z"/><path class="st2" d="M13.62 28.484c0 2.51 2.04 4.55 4.55 4.55s4.55-2.04 4.55-4.55-2.04-4.55-4.55-4.55-4.55 2.04-4.55 4.55zm8.64 0c0 2.26-1.83 4.09-4.09 4.09s-4.09-1.83-4.09-4.09 1.83-4.09 4.09-4.09 4.09 1.83 4.09 4.09z"/><g><rect class="st0" x=".12" y=".119" width="25.75" height="18.75" rx="1.88" ry="1.88"/><path class="st1" d="M.25 1.999c0-.96.79-1.75 1.75-1.75h22c.96 0 1.75.79 1.75 1.75v15c0 .96-.79 1.75-1.75 1.75H2c-.96 0-1.75-.79-1.75-1.75v-15m-.25 0v15c0 1.1.9 2 2 2h22c1.1 0 2-.9 2-2v-15c0-1.1-.9-2-2-2H2c-1.1 0-2 .9-2 2z"/></g><g><path class="st2" d="M4.03 9.499c0 2.1 1.7 3.81 3.81 3.81s3.81-1.7 3.81-3.81-1.7-3.81-3.81-3.81-3.81 1.7-3.81 3.81zm1.1-.35c-.46-.23-.51-.48-.46-.76.02-.16.09-.35.23-.59s.27-.39.4-.49c.22-.18.46-.26.89.02.38.25.79 1.07.78 1.22s-.13.26-.27.17l-.75-.43c0-.06-.04-.12-.1-.16-.09-.05-.21-.03-.26.06s-.02.21.08.26c.06.03.13.04.18 0l.75.43c.14.08.11.24-.02.32-.12.09-1.04.14-1.45-.07v.02zm.16 2.54c-.13-.1-.26-.25-.4-.5-.14-.24-.2-.43-.23-.59-.04-.28 0-.53.46-.76.41-.2 1.32-.15 1.45-.07.12.09.16.24.02.32l-.75.43a.191.191 0 0 0-.18 0c-.09.05-.13.17-.08.26s.17.12.26.06c.06-.03.1-.09.1-.16l.75-.43c.14-.08.26.02.27.17s-.4.97-.78 1.22c-.43.28-.67.2-.89.02v.03zm3.17 1.11c-.15.06-.35.1-.63.1s-.47-.04-.63-.1c-.27-.1-.46-.27-.43-.78.03-.46.53-1.22.67-1.29.14-.06.29-.01.29.15v.87c-.05.04-.09.1-.09.16 0 .11.08.2.19.2.1 0 .19-.09.19-.2 0-.07-.03-.13-.09-.16v-.87c0-.16.15-.21.29-.15s.64.83.67 1.29c.03.51-.16.68-.43.78zm2.08-2.96c.46.23.51.48.46.76-.02.16-.09.35-.23.59s-.27.39-.4.49c-.22.18-.46.26-.89-.02-.38-.25-.79-1.07-.78-1.22s.13-.26.27-.17l.75.43c0 .06.04.12.1.16.09.05.21.03.26-.06s.02-.21-.08-.26c-.06-.03-.13-.04-.18 0l-.75-.43c-.14-.08-.11-.24.02-.32.12-.09 1.04-.14 1.45.07v-.02zm-2.71.51c-.47 0-.86-.38-.86-.86s.38-.86.86-.86.86.38.86.86-.38.86-.86.86zm2.55-3.05c.13.1.26.25.4.5.14.24.2.43.23.59.04.28 0 .53-.46.76-.41.2-1.32.15-1.45.07s-.16-.24-.02-.32l.75-.43c.06.03.13.03.18 0 .09-.05.13-.17.08-.26s-.17-.12-.26-.06c-.06.03-.1.09-.1.16l-.75.43c-.14.08-.26-.02-.27-.17s.4-.97.78-1.22c.43-.28.67-.2.89-.02v-.03zm-1.49-.32c-.03.46-.53 1.22-.67 1.29-.14.06-.29.01-.29-.15v-.87c.05-.04.09-.1.09-.16 0-.11-.08-.2-.19-.2-.1 0-.19.09-.19.2 0 .07.03.13.09.16v.87c0 .16-.15.21-.29.15s-.64-.83-.67-1.29c-.03-.51.16-.68.43-.78.15-.06.35-.1.63-.1s.47.04.63.1c.27.1.46.27.43.78z"/><path class="st2" d="M7.43 9.499c0 .23.18.41.41.41s.41-.18.41-.41-.18-.41-.41-.41-.41.18-.41.41z"/><path class="st2" d="M3.28 9.499c0 2.51 2.04 4.55 4.55 4.55s4.55-2.04 4.55-4.55-2.04-4.55-4.55-4.55-4.55 2.04-4.55 4.55zm8.64 0c0 2.26-1.83 4.09-4.09 4.09s-4.09-1.83-4.09-4.09 1.83-4.09 4.09-4.09 4.09 1.83 4.09 4.09z"/></g><g><path class="st2" d="M17.76 9.499c0 .23.18.41.41.41s.41-.18.41-.41-.18-.41-.41-.41-.41.18-.41.41z"/><path class="st2" d="M14.36 9.499c0 2.1 1.7 3.81 3.81 3.81s3.81-1.7 3.81-3.81-1.7-3.81-3.81-3.81-3.81 1.7-3.81 3.81zm1.1-.35c-.46-.23-.51-.48-.46-.76.02-.16.09-.35.23-.59s.27-.39.4-.49c.22-.18.46-.26.89.02.38.25.79 1.07.78 1.22s-.13.26-.27.17l-.75-.43c0-.06-.04-.12-.1-.16-.09-.05-.21-.03-.26.06s-.02.21.08.26c.06.03.13.04.18 0l.75.43c.14.08.11.24-.02.32-.12.09-1.04.14-1.45-.07v.02zm.16 2.54c-.13-.1-.26-.25-.4-.5-.14-.24-.2-.43-.23-.59-.04-.28 0-.53.46-.76.41-.2 1.32-.15 1.45-.07.12.09.16.24.02.32l-.75.43a.191.191 0 0 0-.18 0c-.09.05-.13.17-.08.26s.17.12.26.06c.06-.03.1-.09.1-.16l.75-.43c.14-.08.26.02.27.17s-.4.97-.78 1.22c-.43.28-.67.2-.89.02v.03zm3.17 1.11c-.15.06-.35.1-.63.1s-.47-.04-.63-.1c-.27-.1-.46-.27-.43-.78.03-.46.53-1.22.67-1.29.14-.06.29-.01.29.15v.87c-.05.04-.09.1-.09.16s.08.2.19.2c.1 0 .19-.09.19-.2s-.03-.13-.09-.16v-.87c0-.16.15-.21.29-.15.14.06.64.83.67 1.29.03.51-.16.68-.43.78zm2.08-2.96c.46.23.51.48.46.76-.02.16-.09.35-.23.59s-.27.39-.4.49c-.22.18-.46.26-.89-.02-.38-.25-.79-1.07-.78-1.22s.13-.26.27-.17l.75.43c0 .06.04.12.1.16.09.05.21.03.26-.06.05-.09.02-.21-.08-.26-.06-.03-.13-.04-.18 0l-.75-.43c-.14-.08-.11-.24.02-.32.12-.09 1.04-.14 1.45.07v-.02zm-2.71.51c-.47 0-.86-.38-.86-.86s.38-.86.86-.86.86.38.86.86-.38.86-.86.86zm2.55-3.05c.13.1.26.25.4.5.14.24.2.43.23.59.04.28 0 .53-.46.76-.41.2-1.32.15-1.45.07s-.16-.24-.02-.32l.75-.43c.06.03.13.03.18 0 .09-.05.13-.17.08-.26s-.17-.12-.26-.06c-.06.03-.1.09-.1.16l-.75.43c-.14.08-.26-.02-.27-.17s.4-.97.78-1.22c.43-.28.67-.2.89-.02v-.03zm-1.49-.32c-.03.46-.53 1.22-.67 1.29-.14.06-.29.01-.29-.15v-.87c.05-.04.09-.1.09-.16 0-.11-.08-.2-.19-.2-.1 0-.19.09-.19.2 0 .07.03.13.09.16v.87c0 .16-.15.21-.29.15-.14-.06-.64-.83-.67-1.29-.03-.51.16-.68.43-.78.15-.06.35-.1.63-.1s.47.04.63.1c.27.1.46.27.43.78z"/><path class="st2" d="M13.62 9.499c0 2.51 2.04 4.55 4.55 4.55s4.55-2.04 4.55-4.55-2.04-4.55-4.55-4.55-4.55 2.04-4.55 4.55zm8.64 0c0 2.26-1.83 4.09-4.09 4.09s-4.09-1.83-4.09-4.09 1.83-4.09 4.09-4.09 4.09 1.83 4.09 4.09z"/></g></svg>