<svg id="_图层_1" xmlns="http://www.w3.org/2000/svg" version="1.1" viewBox="0 0 26 19"><defs><style>.st2{fill:#881c21}.st3{fill:#011833}</style></defs><rect x="3.62" y="-3.38" width="18.75" height="25.75" rx="1.88" ry="1.88" transform="rotate(-90 12.995 9.495)" style="fill:#f5f6f7"/><path d="M.25 2C.25 1.04 1.04.25 2 .25h22c.96 0 1.75.79 1.75 1.75v15c0 .96-.79 1.75-1.75 1.75H2c-.96 0-1.75-.79-1.75-1.75V2M0 2v15c0 1.1.9 2 2 2h22c1.1 0 2-.9 2-2V2c0-1.1-.9-2-2-2H2C.9 0 0 .9 0 2z" style="fill:#93989c"/><path class="st3" d="M2.98 13.9c0 1.88 1.53 3.41 3.41 3.41S9.8 15.78 9.8 13.9c0-1.88-1.53-3.41-3.41-3.41s-3.41 1.53-3.41 3.41zm6.22 0c0 1.55-1.26 2.81-2.81 2.81s-2.81-1.26-2.81-2.81 1.26-2.81 2.81-2.81S9.2 12.35 9.2 13.9z"/><circle class="st3" cx="6.39" cy="13.9" r=".2"/><path class="st3" d="M4.19 13.9a2.21 2.21 0 1 0 4.421-.001 2.21 2.21 0 0 0-4.421.001zm.61.73c-.12-.2-.18-.47-.18-.73s.06-.53.18-.73c.05-.08.18-.1.27-.07.09.03.32.18.35.24.03.06.04.16.03.21s-.07.22-.07.35c0 .12.06.29.07.35 0 .05 0 .15-.03.21s-.26.21-.35.24-.23.01-.27-.07zm1.79 1.01c-.23.05-.5.03-.75-.05s-.48-.22-.64-.4c-.07-.07-.04-.2.02-.28.06-.08.27-.25.34-.26s.17.01.21.03.19.14.31.17c.12.04.3.03.35.04.05 0 .14.05.19.1.05.05.12.31.12.41s-.06.22-.15.24zm1.34-1.61c.09.03.19.12.18.22-.03.23-.13.48-.28.7-.15.21-.36.39-.57.48-.09.04-.2-.03-.26-.1-.06-.08-.16-.33-.14-.4.01-.07.06-.15.1-.19s.19-.14.26-.24c.07-.1.12-.28.15-.32.02-.05.09-.12.15-.15s.34-.02.43.01l-.02-.01zm-1.54.47c-.33 0-.6-.27-.6-.6 0-.33.27-.6.6-.6s.6.27.6.6c0 .33-.27.6-.6.6zm1.43-1.64c.15.21.26.46.28.7.01.1-.09.18-.18.22-.09.03-.36.04-.43.01-.06-.03-.13-.11-.15-.15s-.07-.22-.15-.32c-.07-.1-.23-.2-.26-.24a.386.386 0 0 1-.1-.19c-.01-.07.08-.32.14-.4s.18-.15.26-.1c.21.1.42.27.57.48l.02-.01zm-1.08-.46c0 .1-.07.36-.12.41-.05.05-.14.09-.19.1-.05 0-.23 0-.35.04-.12.04-.26.15-.31.17s-.14.04-.21.03c-.07-.01-.28-.18-.34-.26s-.08-.21-.02-.28c.16-.17.39-.32.64-.4.25-.08.52-.1.75-.05.09.02.15.14.15.24z"/><g><path class="st3" d="M16.2 5.1c0 1.88 1.53 3.41 3.41 3.41s3.41-1.53 3.41-3.41c0-1.88-1.53-3.41-3.41-3.41S16.2 3.22 16.2 5.1zm6.22 0c0 1.55-1.26 2.81-2.81 2.81S16.8 6.65 16.8 5.1s1.26-2.81 2.81-2.81 2.81 1.26 2.81 2.81z"/><circle class="st3" cx="19.61" cy="5.1" r=".2"/><path class="st3" d="M17.4 5.1a2.21 2.21 0 1 0 4.421-.001A2.21 2.21 0 0 0 17.4 5.1zm.61.73c-.12-.2-.18-.47-.18-.73s.06-.53.18-.73c.05-.08.18-.1.27-.07.09.03.32.18.35.24s.04.16.03.21c0 .05-.07.22-.07.35 0 .12.06.29.07.35 0 .05 0 .15-.03.21s-.26.21-.35.24-.23.01-.27-.07zm1.79 1.01c-.23.05-.5.03-.75-.05s-.48-.22-.64-.4c-.07-.07-.04-.2.02-.28.06-.08.27-.25.34-.26s.17.01.21.03c.05.02.19.14.31.17.12.04.3.03.35.04.05 0 .14.05.19.1.05.05.12.31.12.41 0 .1-.06.22-.15.24zm1.33-1.61c.09.03.19.12.18.22-.03.23-.13.48-.28.7-.15.21-.36.39-.57.48-.09.04-.2-.03-.26-.1-.06-.08-.16-.33-.14-.4.01-.07.06-.15.1-.19s.19-.14.26-.24c.07-.1.12-.28.15-.32s.09-.12.15-.15.34-.02.43.01l-.02-.01zm-1.54.47c-.33 0-.6-.27-.6-.6 0-.33.27-.6.6-.6s.6.27.6.6c0 .33-.27.6-.6.6zm1.43-1.64c.15.21.26.46.28.7.01.1-.09.18-.18.22-.09.03-.36.04-.43.01-.06-.03-.13-.11-.15-.15s-.07-.22-.15-.32c-.07-.1-.23-.2-.26-.24-.04-.04-.09-.12-.1-.19s.08-.32.14-.4.18-.15.26-.1c.21.1.42.27.57.48l.02-.01zm-1.08-.46c0 .1-.07.36-.12.41-.05.05-.14.09-.19.1-.05 0-.23 0-.35.04-.12.04-.26.15-.31.17s-.14.04-.21.03-.28-.18-.34-.26-.08-.21-.02-.28c.16-.17.39-.32.64-.4.25-.08.52-.1.75-.05.09.02.15.14.15.24z"/></g><g><path class="st3" d="M9.59 9.5c0 1.88 1.53 3.41 3.41 3.41s3.41-1.53 3.41-3.41S14.88 6.09 13 6.09 9.59 7.62 9.59 9.5zm6.22 0c0 1.55-1.26 2.81-2.81 2.81s-2.81-1.26-2.81-2.81S11.45 6.69 13 6.69s2.81 1.26 2.81 2.81z"/><circle class="st2" cx="13" cy="9.5" r=".2"/><path class="st2" d="M10.79 9.5a2.21 2.21 0 1 0 4.421-.001 2.21 2.21 0 0 0-4.421.001zm.61.73c-.12-.2-.18-.47-.18-.73s.06-.53.18-.73c.05-.08.18-.1.27-.07.09.03.32.18.35.24.03.06.04.16.03.21s-.07.22-.07.35c0 .12.06.29.07.35 0 .05 0 .15-.03.21s-.26.21-.35.24-.23.01-.27-.07zm1.79 1.01c-.23.05-.5.03-.75-.05s-.48-.22-.64-.4c-.07-.07-.04-.2.02-.28s.27-.25.34-.26.17.01.21.03c.05.02.19.14.31.17.12.04.3.03.35.04.05 0 .14.05.19.1.05.05.12.31.12.41s-.06.22-.15.24zm1.34-1.61c.09.03.19.12.18.22-.03.23-.13.48-.28.7-.15.21-.36.39-.57.48-.09.04-.2-.03-.26-.1-.06-.08-.16-.33-.14-.4.01-.07.06-.15.1-.19s.19-.14.26-.24c.07-.1.12-.28.15-.32a.36.36 0 0 1 .15-.15c.06-.03.34-.02.43.01l-.02-.01zm-1.54.47c-.33 0-.6-.27-.6-.6s.27-.6.6-.6.6.27.6.6-.27.6-.6.6zm1.43-1.64c.15.21.26.46.28.7.01.1-.09.18-.18.22-.09.03-.36.04-.43.01a.429.429 0 0 1-.15-.15c-.02-.04-.07-.22-.15-.32-.07-.1-.23-.2-.26-.24-.04-.04-.09-.12-.1-.19s.08-.32.14-.4.18-.15.26-.1c.21.1.42.27.57.48l.02-.01zM13.34 8c0 .1-.07.36-.12.41s-.14.09-.19.1c-.05 0-.23 0-.35.04-.12.04-.26.15-.31.17s-.14.04-.21.03-.28-.18-.34-.26-.08-.21-.02-.28c.16-.17.39-.32.64-.4.25-.08.52-.1.75-.05.09.02.15.14.15.24z"/></g></svg>