<svg id="_图层_1" xmlns="http://www.w3.org/2000/svg" version="1.1" viewBox="0 0 26 37.984"><defs><style>.st0{fill:#f5f6f7}.st1{fill:#93989c}.st2{fill:#881c21}.st3{fill:#011833}</style></defs><rect class="st0" x=".12" y="19.104" width="25.75" height="18.75" rx="1.88" ry="1.88"/><path class="st1" d="M.25 20.984c0-.96.79-1.75 1.75-1.75h22c.96 0 1.75.79 1.75 1.75v15c0 .96-.79 1.75-1.75 1.75H2c-.96 0-1.75-.79-1.75-1.75v-15m-.25 0v15c0 1.1.9 2 2 2h22c1.1 0 2-.9 2-2v-15c0-1.1-.9-2-2-2H2c-1.1 0-2 .9-2 2z"/><path class="st2" d="M19.94 31.064c0 .09.08.17.17.17s.17-.08.17-.17-.08-.17-.17-.17-.17.08-.17.17z"/><path class="st2" d="M18.23 31.064c0 1.04.84 1.88 1.88 1.88s1.88-.84 1.88-1.88-.84-1.88-1.88-1.88-1.88.84-1.88 1.88zm.52.62c-.1-.17-.15-.4-.15-.62 0-.22.05-.45.15-.62.04-.07.15-.08.23-.06s.27.15.3.21c.03.05.03.14.03.18s-.06.19-.06.29c0 .1.05.25.06.29s0 .13-.03.18-.22.18-.3.21c-.08.02-.19.01-.23-.06zm1.53.86c-.19.04-.43.02-.64-.05a1.25 1.25 0 0 1-.54-.34c-.06-.06-.03-.17.02-.24.05-.07.23-.21.29-.22.06 0 .14 0 .18.03.04.02.16.12.26.15s.26.03.3.03c.04 0 .12.04.16.08.04.04.1.27.1.35s-.05.19-.13.2v.01zm1.14-1.37c.08.03.16.1.15.19-.02.2-.11.41-.24.59s-.31.33-.49.41c-.07.03-.17-.02-.22-.09s-.13-.28-.12-.34c0-.06.05-.13.08-.16s.16-.12.22-.2c.06-.08.1-.24.12-.27.02-.04.08-.1.13-.13s.29-.02.36.01l.01-.01zm-1.31.4c-.28 0-.51-.23-.51-.51s.23-.51.51-.51.51.23.51.51-.23.51-.51.51zm1.22-1.4c.13.18.22.39.24.59.01.08-.07.16-.15.18-.08.03-.31.04-.36.01s-.11-.09-.13-.13c-.02-.04-.06-.19-.12-.27-.06-.08-.19-.17-.22-.2s-.07-.1-.08-.16.07-.28.12-.34c.05-.07.15-.12.22-.09.18.08.36.23.49.41h-.01zm-.92-.39c0 .08-.06.31-.1.35s-.12.08-.16.08c-.04 0-.2 0-.3.03-.1.03-.22.13-.26.15s-.12.04-.18.03c-.06 0-.24-.15-.29-.22-.05-.07-.07-.18-.02-.24.13-.15.33-.27.54-.34.21-.07.44-.09.64-.05.08.02.13.12.13.2v.01zM14.79 31.064c0 .09.08.17.17.17s.17-.08.17-.17-.08-.17-.17-.17-.17.08-.17.17z"/><path class="st2" d="M13.08 31.064c0 1.04.84 1.88 1.88 1.88s1.88-.84 1.88-1.88-.84-1.88-1.88-1.88-1.88.84-1.88 1.88zm.52.62c-.1-.17-.15-.4-.15-.62 0-.22.05-.45.15-.62.04-.07.15-.08.23-.06s.27.15.3.21c.03.05.03.14.03.18s-.06.19-.06.29c0 .1.05.25.06.29s0 .13-.03.18-.22.18-.3.21c-.08.02-.19.01-.23-.06zm1.53.86c-.19.04-.43.02-.64-.05a1.25 1.25 0 0 1-.54-.34c-.06-.06-.03-.17.02-.24s.23-.21.29-.22c.06 0 .14 0 .18.03.04.02.16.12.26.15s.26.03.3.03.12.04.16.08.1.27.1.35-.05.19-.13.2v.01zm1.14-1.37c.08.03.16.1.15.19-.02.2-.11.41-.24.59s-.31.33-.49.41c-.07.03-.17-.02-.22-.09s-.13-.28-.12-.34c0-.06.05-.13.08-.16s.16-.12.22-.2c.06-.08.1-.24.12-.27.02-.04.08-.1.13-.13s.29-.02.36.01l.01-.01zm-1.31.4c-.28 0-.51-.23-.51-.51s.23-.51.51-.51.51.23.51.51-.23.51-.51.51zm1.22-1.4c.13.18.22.39.24.59.01.08-.07.16-.15.18-.08.03-.31.04-.36.01s-.11-.09-.13-.13-.06-.19-.12-.27c-.06-.08-.19-.17-.22-.2s-.07-.1-.08-.16.07-.28.12-.34c.05-.07.15-.12.22-.09.18.08.36.23.49.41h-.01zm-.92-.39c0 .08-.06.31-.1.35s-.12.08-.16.08-.2 0-.3.03c-.1.03-.22.13-.26.15s-.12.04-.18.03c-.06 0-.24-.15-.29-.22-.05-.07-.07-.18-.02-.24.13-.15.33-.27.54-.34.21-.07.44-.09.64-.05.08.02.13.12.13.2v.01zM14.96 26.084c.09 0 .17-.08.17-.17s-.08-.17-.17-.17-.17.08-.17.17.08.17.17.17z"/><path class="st2" d="M13.08 25.904c0 1.04.84 1.88 1.88 1.88s1.88-.84 1.88-1.88-.84-1.88-1.88-1.88-1.88.84-1.88 1.88zm.52.62c-.1-.17-.15-.4-.15-.62 0-.22.05-.45.15-.62.04-.07.15-.08.23-.06s.27.15.3.21c.03.05.03.14.03.18s-.06.19-.06.29c0 .1.05.25.06.29 0 .04 0 .13-.03.18s-.22.18-.3.21c-.08.02-.19.01-.23-.06zm1.53.86c-.19.04-.43.02-.64-.05a1.25 1.25 0 0 1-.54-.34c-.06-.06-.03-.17.02-.24s.23-.21.29-.22c.06 0 .14 0 .18.03.04.02.16.12.26.15s.26.03.3.03.12.04.16.08.1.27.1.35-.05.19-.13.2v.01zm1.14-1.37c.08.03.16.1.15.19-.02.2-.11.41-.24.59s-.31.33-.49.41c-.07.03-.17-.02-.22-.09s-.13-.28-.12-.34c0-.06.05-.13.08-.16s.16-.12.22-.2c.06-.08.1-.24.12-.27s.08-.1.13-.13.29-.02.36.01l.01-.01zm-1.31.4c-.28 0-.51-.23-.51-.51s.23-.51.51-.51.51.23.51.51-.23.51-.51.51zm1.22-1.4c.13.18.22.39.24.59.01.08-.07.16-.15.18-.08.03-.31.04-.36.01-.05-.03-.11-.09-.13-.13s-.06-.19-.12-.27c-.06-.08-.19-.17-.22-.2s-.07-.1-.08-.16.07-.28.12-.34c.05-.07.15-.12.22-.09.18.08.36.23.49.41h-.01zm-.92-.39c0 .08-.06.31-.1.35s-.12.08-.16.08-.2 0-.3.03c-.1.03-.22.13-.26.15s-.12.04-.18.03c-.06 0-.24-.15-.29-.22-.05-.07-.07-.18-.02-.24.13-.15.33-.27.54-.34.21-.07.44-.09.64-.05.08.02.13.12.13.2v.01z"/><path class="st3" d="M17.54 24.594a2.896 2.896 0 0 0-2.58-1.59c-1.6 0-2.9 1.3-2.9 2.9 0 1.13.65 2.09 1.59 2.58-.94.48-1.59 1.45-1.59 2.58 0 1.6 1.3 2.9 2.9 2.9 1.13 0 2.09-.65 2.58-1.59.48.94 1.45 1.59 2.58 1.59 1.6 0 2.9-1.3 2.9-2.9 0-1.13-.65-2.09-1.59-2.58.94-.48 1.59-1.45 1.59-2.58 0-1.6-1.3-2.9-2.9-2.9-1.13 0-2.09.65-2.58 1.59zm-4.97 1.31a2.39 2.39 0 1 1 4.78 0 2.39 2.39 0 0 1-4.78 0zm2.39 7.54a2.39 2.39 0 1 1 0-4.78 2.39 2.39 0 0 1 0 4.78zm7.54-2.39a2.39 2.39 0 1 1-4.78 0 2.39 2.39 0 0 1 4.78 0zm-4.97-1.31c-.28-.54-.72-.98-1.26-1.26.54-.28.98-.72 1.26-1.26.28.54.72.98 1.26 1.26-.54.28-.98.72-1.26 1.26zm4.97-3.84a2.39 2.39 0 1 1-4.78 0 2.39 2.39 0 0 1 4.78 0z"/><path class="st2" d="M20.11 26.084c.09 0 .17-.08.17-.17s-.08-.17-.17-.17-.17.08-.17.17.08.17.17.17z"/><path class="st2" d="M18.23 25.904c0 1.04.84 1.88 1.88 1.88s1.88-.84 1.88-1.88-.84-1.88-1.88-1.88-1.88.84-1.88 1.88zm.52.62c-.1-.17-.15-.4-.15-.62 0-.22.05-.45.15-.62.04-.07.15-.08.23-.06s.27.15.3.21c.03.05.03.14.03.18s-.06.19-.06.29c0 .1.05.25.06.29 0 .04 0 .13-.03.18s-.22.18-.3.21c-.08.02-.19.01-.23-.06zm1.53.86c-.19.04-.43.02-.64-.05a1.25 1.25 0 0 1-.54-.34c-.06-.06-.03-.17.02-.24.05-.07.23-.21.29-.22.06 0 .14 0 .18.03.04.02.16.12.26.15s.26.03.3.03c.04 0 .12.04.16.08.04.04.1.27.1.35s-.05.19-.13.2v.01zm1.14-1.37c.08.03.16.1.15.19-.02.2-.11.41-.24.59s-.31.33-.49.41c-.07.03-.17-.02-.22-.09s-.13-.28-.12-.34c0-.06.05-.13.08-.16s.16-.12.22-.2c.06-.08.1-.24.12-.27.02-.04.08-.1.13-.13s.29-.02.36.01l.01-.01zm-1.31.4c-.28 0-.51-.23-.51-.51s.23-.51.51-.51.51.23.51.51-.23.51-.51.51zm1.22-1.4c.13.18.22.39.24.59.01.08-.07.16-.15.18-.08.03-.31.04-.36.01-.05-.03-.11-.09-.13-.13s-.06-.19-.12-.27c-.06-.08-.19-.17-.22-.2s-.07-.1-.08-.16.07-.28.12-.34c.05-.07.15-.12.22-.09.18.08.36.23.49.41h-.01zm-.92-.39c0 .08-.06.31-.1.35s-.12.08-.16.08c-.04 0-.2 0-.3.03-.1.03-.22.13-.26.15s-.12.04-.18.03-.24-.15-.29-.22c-.05-.07-.07-.18-.02-.24.13-.15.33-.27.54-.34.21-.07.44-.09.64-.05.08.02.13.12.13.2v.01z"/><path class="st3" d="M5.72 31.064c0 .09.08.17.17.17s.17-.08.17-.17-.08-.17-.17-.17-.17.08-.17.17z"/><path class="st3" d="M4.01 31.064c0 1.04.84 1.88 1.88 1.88s1.88-.84 1.88-1.88-.84-1.88-1.88-1.88-1.88.84-1.88 1.88zm.52.62c-.1-.17-.15-.4-.15-.62 0-.22.05-.45.15-.62.04-.07.15-.08.23-.06s.27.15.3.21c.03.05.03.14.03.18s-.06.19-.06.29c0 .1.05.25.06.29 0 .04 0 .13-.03.18s-.22.18-.3.21c-.08.02-.19.01-.23-.06zm1.53.86c-.19.04-.43.02-.64-.05a1.25 1.25 0 0 1-.54-.34c-.06-.06-.03-.17.02-.24s.23-.21.29-.22c.06 0 .14 0 .18.03.04.02.16.12.26.15s.26.03.3.03.12.04.16.08.1.27.1.35-.05.19-.13.2v.01zm1.14-1.37c.08.03.16.1.15.19-.02.2-.11.41-.24.59s-.31.33-.49.41c-.07.03-.17-.02-.22-.09-.05-.07-.13-.28-.12-.34 0-.06.05-.13.08-.16s.16-.12.22-.2c.06-.08.1-.24.12-.27s.08-.1.13-.13.29-.02.36.01l.01-.01zm-1.31.4c-.28 0-.51-.23-.51-.51s.23-.51.51-.51.51.23.51.51-.23.51-.51.51zm1.22-1.4c.13.18.22.39.24.59.01.08-.07.16-.15.18-.08.03-.31.04-.36.01s-.11-.09-.13-.13-.06-.19-.12-.27c-.06-.08-.19-.17-.22-.2s-.07-.1-.08-.16.07-.28.12-.34c.05-.07.15-.12.22-.09.18.08.36.23.49.41h-.01zm-.92-.39c0 .08-.06.31-.1.35s-.12.08-.16.08-.2 0-.3.03c-.1.03-.22.13-.26.15s-.12.04-.18.03c-.06 0-.24-.15-.29-.22-.05-.07-.07-.18-.02-.24.13-.15.33-.27.54-.34.21-.07.44-.09.64-.05.08.02.13.12.13.2v.01z"/><path class="st3" d="M2.98 25.904c0 1.13.65 2.09 1.59 2.58-.94.48-1.59 1.45-1.59 2.58 0 1.6 1.3 2.9 2.9 2.9s2.9-1.3 2.9-2.9c0-1.13-.65-2.09-1.59-2.58.94-.48 1.59-1.45 1.59-2.58 0-1.6-1.3-2.9-2.9-2.9s-2.9 1.3-2.9 2.9zm5.3 5.15a2.39 2.39 0 1 1-4.78 0 2.39 2.39 0 0 1 4.78 0zm0-5.15a2.39 2.39 0 1 1-4.78 0 2.39 2.39 0 0 1 4.78 0z"/><path class="st3" d="M5.89 26.084c.09 0 .17-.08.17-.17s-.08-.17-.17-.17-.17.08-.17.17.08.17.17.17z"/><path class="st3" d="M4.01 25.904c0 1.04.84 1.88 1.88 1.88s1.88-.84 1.88-1.88-.84-1.88-1.88-1.88-1.88.84-1.88 1.88zm.52.62c-.1-.17-.15-.4-.15-.62 0-.22.05-.45.15-.62.04-.07.15-.08.23-.06s.27.15.3.21c.03.05.03.14.03.18s-.06.19-.06.29c0 .1.05.25.06.29 0 .04 0 .13-.03.18s-.22.18-.3.21c-.08.02-.19.01-.23-.06zm1.53.86c-.19.04-.43.02-.64-.05a1.25 1.25 0 0 1-.54-.34c-.06-.06-.03-.17.02-.24s.23-.21.29-.22c.06 0 .14 0 .18.03s.16.12.26.15.26.03.3.03.12.04.16.08.1.27.1.35-.05.19-.13.2v.01zm1.14-1.37c.08.03.16.1.15.19-.02.2-.11.41-.24.59s-.31.33-.49.41c-.07.03-.17-.02-.22-.09-.05-.07-.13-.28-.12-.34 0-.06.05-.13.08-.16s.16-.12.22-.2c.06-.08.1-.24.12-.27s.08-.1.13-.13.29-.02.36.01l.01-.01zm-1.31.4c-.28 0-.51-.23-.51-.51s.23-.51.51-.51.51.23.51.51-.23.51-.51.51zm1.22-1.4c.13.18.22.39.24.59.01.08-.07.16-.15.18-.08.03-.31.04-.36.01s-.11-.09-.13-.13-.06-.19-.12-.27c-.06-.08-.19-.17-.22-.2a.345.345 0 0 1-.08-.16c0-.06.07-.28.12-.34.05-.07.15-.12.22-.09.18.08.36.23.49.41h-.01zm-.92-.39c0 .08-.06.31-.1.35s-.12.08-.16.08-.2 0-.3.03c-.1.03-.22.13-.26.15s-.12.04-.18.03c-.06 0-.24-.15-.29-.22-.05-.07-.07-.18-.02-.24.13-.15.33-.27.54-.34.21-.07.44-.09.64-.05.08.02.13.12.13.2v.01z"/><rect class="st0" x=".12" y=".119" width="25.75" height="18.75" rx="1.88" ry="1.88"/><path class="st1" d="M.25 1.999c0-.96.79-1.75 1.75-1.75h22c.96 0 1.75.79 1.75 1.75v15c0 .96-.79 1.75-1.75 1.75H2c-.96 0-1.75-.79-1.75-1.75v-15m-.25 0v15c0 1.1.9 2 2 2h22c1.1 0 2-.9 2-2v-15c0-1.1-.9-2-2-2H2c-1.1 0-2 .9-2 2z"/><g><path class="st2" d="M19.94 12.079c0 .09.08.17.17.17s.17-.08.17-.17-.08-.17-.17-.17-.17.08-.17.17z"/><path class="st2" d="M18.23 12.079c0 1.04.84 1.88 1.88 1.88s1.88-.84 1.88-1.88-.84-1.88-1.88-1.88-1.88.84-1.88 1.88zm.52.62c-.1-.17-.15-.4-.15-.62 0-.22.05-.45.15-.62.04-.07.15-.08.23-.06s.27.15.3.21c.03.05.03.14.03.18s-.06.19-.06.29c0 .1.05.25.06.29s0 .13-.03.18-.22.18-.3.21c-.08.02-.19.01-.23-.06zm1.53.86c-.19.04-.43.02-.64-.05a1.25 1.25 0 0 1-.54-.34c-.06-.06-.03-.17.02-.24.05-.07.23-.21.29-.22.06 0 .14 0 .18.03.04.02.16.12.26.15s.26.03.3.03c.04 0 .12.04.16.08.04.04.1.27.1.35s-.05.19-.13.2v.01zm1.14-1.37c.08.03.16.1.15.19-.02.2-.11.41-.24.59s-.31.33-.49.41c-.07.03-.17-.02-.22-.09s-.13-.28-.12-.34c0-.06.05-.13.08-.16s.16-.12.22-.2c.06-.08.1-.24.12-.27.02-.04.08-.1.13-.13s.29-.02.36.01l.01-.01zm-1.31.4c-.28 0-.51-.23-.51-.51s.23-.51.51-.51.51.23.51.51-.23.51-.51.51zm1.22-1.4c.13.18.22.39.24.59.01.08-.07.16-.15.18-.08.03-.31.04-.36.01s-.11-.09-.13-.13c-.02-.04-.06-.19-.12-.27-.06-.08-.19-.17-.22-.2s-.07-.1-.08-.16.07-.28.12-.34c.05-.07.15-.12.22-.09.18.08.36.23.49.41h-.01zm-.92-.39c0 .08-.06.31-.1.35s-.12.08-.16.08c-.04 0-.2 0-.3.03-.1.03-.22.13-.26.15s-.12.04-.18.03c-.06 0-.24-.15-.29-.22-.05-.07-.07-.18-.02-.24.13-.15.33-.27.54-.34.21-.07.44-.09.64-.05.08.02.13.12.13.2v.01z"/></g><g><path class="st2" d="M14.79 12.079c0 .09.08.17.17.17s.17-.08.17-.17-.08-.17-.17-.17-.17.08-.17.17z"/><path class="st2" d="M13.08 12.079c0 1.04.84 1.88 1.88 1.88s1.88-.84 1.88-1.88-.84-1.88-1.88-1.88-1.88.84-1.88 1.88zm.52.62c-.1-.17-.15-.4-.15-.62 0-.22.05-.45.15-.62.04-.07.15-.08.23-.06s.27.15.3.21c.03.05.03.14.03.18s-.06.19-.06.29c0 .1.05.25.06.29s0 .13-.03.18-.22.18-.3.21c-.08.02-.19.01-.23-.06zm1.53.86c-.19.04-.43.02-.64-.05a1.25 1.25 0 0 1-.54-.34c-.06-.06-.03-.17.02-.24s.23-.21.29-.22c.06 0 .14 0 .18.03.04.02.16.12.26.15s.26.03.3.03.12.04.16.08.1.27.1.35-.05.19-.13.2v.01zm1.14-1.37c.08.03.16.1.15.19-.02.2-.11.41-.24.59s-.31.33-.49.41c-.07.03-.17-.02-.22-.09s-.13-.28-.12-.34c0-.06.05-.13.08-.16s.16-.12.22-.2c.06-.08.1-.24.12-.27.02-.04.08-.1.13-.13s.29-.02.36.01l.01-.01zm-1.31.4c-.28 0-.51-.23-.51-.51s.23-.51.51-.51.51.23.51.51-.23.51-.51.51zm1.22-1.4c.13.18.22.39.24.59.01.08-.07.16-.15.18-.08.03-.31.04-.36.01s-.11-.09-.13-.13-.06-.19-.12-.27c-.06-.08-.19-.17-.22-.2s-.07-.1-.08-.16.07-.28.12-.34c.05-.07.15-.12.22-.09.18.08.36.23.49.41h-.01zm-.92-.39c0 .08-.06.31-.1.35s-.12.08-.16.08-.2 0-.3.03c-.1.03-.22.13-.26.15s-.12.04-.18.03c-.06 0-.24-.15-.29-.22-.05-.07-.07-.18-.02-.24.13-.15.33-.27.54-.34.21-.07.44-.09.64-.05.08.02.13.12.13.2v.01z"/></g><path class="st2" d="M14.96 7.099c.09 0 .17-.08.17-.17s-.08-.17-.17-.17-.17.08-.17.17.08.17.17.17z"/><path class="st2" d="M13.08 6.919c0 1.04.84 1.88 1.88 1.88s1.88-.84 1.88-1.88-.84-1.88-1.88-1.88-1.88.84-1.88 1.88zm.52.62c-.1-.17-.15-.4-.15-.62 0-.22.05-.45.15-.62.04-.07.15-.08.23-.06s.27.15.3.21c.03.05.03.14.03.18s-.06.19-.06.29c0 .1.05.25.06.29 0 .04 0 .13-.03.18s-.22.18-.3.21c-.08.02-.19.01-.23-.06zm1.53.86c-.19.04-.43.02-.64-.05a1.25 1.25 0 0 1-.54-.34c-.06-.06-.03-.17.02-.24s.23-.21.29-.22c.06 0 .14 0 .18.03.04.02.16.12.26.15s.26.03.3.03.12.04.16.08.1.27.1.35-.05.19-.13.2v.01zm1.14-1.37c.08.03.16.1.15.19-.02.2-.11.41-.24.59s-.31.33-.49.41c-.07.03-.17-.02-.22-.09s-.13-.28-.12-.34c0-.06.05-.13.08-.16s.16-.12.22-.2c.06-.08.1-.24.12-.27s.08-.1.13-.13.29-.02.36.01l.01-.01zm-1.31.4c-.28 0-.51-.23-.51-.51s.23-.51.51-.51.51.23.51.51-.23.51-.51.51zm1.22-1.4c.13.18.22.39.24.59.01.08-.07.16-.15.18-.08.03-.31.04-.36.01-.05-.03-.11-.09-.13-.13s-.06-.19-.12-.27c-.06-.08-.19-.17-.22-.2s-.07-.1-.08-.16.07-.28.12-.34c.05-.07.15-.12.22-.09.18.08.36.23.49.41h-.01zm-.92-.39c0 .08-.06.31-.1.35s-.12.08-.16.08-.2 0-.3.03c-.1.03-.22.13-.26.15s-.12.04-.18.03c-.06 0-.24-.15-.29-.22-.05-.07-.07-.18-.02-.24.13-.15.33-.27.54-.34.21-.07.44-.09.64-.05.08.02.13.12.13.2v.01z"/><path class="st3" d="M17.54 5.609a2.896 2.896 0 0 0-2.58-1.59c-1.6 0-2.9 1.3-2.9 2.9 0 1.13.65 2.09 1.59 2.58-.94.48-1.59 1.45-1.59 2.58 0 1.6 1.3 2.9 2.9 2.9 1.13 0 2.09-.65 2.58-1.59.48.94 1.45 1.59 2.58 1.59 1.6 0 2.9-1.3 2.9-2.9 0-1.13-.65-2.09-1.59-2.58.94-.48 1.59-1.45 1.59-2.58 0-1.6-1.3-2.9-2.9-2.9-1.13 0-2.09.65-2.58 1.59zm-4.97 1.31a2.39 2.39 0 1 1 4.78 0 2.39 2.39 0 0 1-4.78 0zm2.39 7.54a2.39 2.39 0 1 1 0-4.78 2.39 2.39 0 0 1 0 4.78zm7.54-2.39a2.39 2.39 0 1 1-4.78 0 2.39 2.39 0 0 1 4.78 0zm-4.97-1.31c-.28-.54-.72-.98-1.26-1.26.54-.28.98-.72 1.26-1.26.28.54.72.98 1.26 1.26-.54.28-.98.72-1.26 1.26zm4.97-3.84a2.39 2.39 0 1 1-4.78 0 2.39 2.39 0 0 1 4.78 0z"/><path class="st2" d="M20.11 7.099c.09 0 .17-.08.17-.17s-.08-.17-.17-.17-.17.08-.17.17.08.17.17.17z"/><path class="st2" d="M18.23 6.919c0 1.04.84 1.88 1.88 1.88s1.88-.84 1.88-1.88-.84-1.88-1.88-1.88-1.88.84-1.88 1.88zm.52.62c-.1-.17-.15-.4-.15-.62 0-.22.05-.45.15-.62.04-.07.15-.08.23-.06s.27.15.3.21c.03.05.03.14.03.18s-.06.19-.06.29c0 .1.05.25.06.29 0 .04 0 .13-.03.18s-.22.18-.3.21c-.08.02-.19.01-.23-.06zm1.53.86c-.19.04-.43.02-.64-.05a1.25 1.25 0 0 1-.54-.34c-.06-.06-.03-.17.02-.24.05-.07.23-.21.29-.22.06 0 .14 0 .18.03.04.02.16.12.26.15s.26.03.3.03c.04 0 .12.04.16.08.04.04.1.27.1.35s-.05.19-.13.2v.01zm1.14-1.37c.08.03.16.1.15.19-.02.2-.11.41-.24.59s-.31.33-.49.41c-.07.03-.17-.02-.22-.09s-.13-.28-.12-.34c0-.06.05-.13.08-.16s.16-.12.22-.2c.06-.08.1-.24.12-.27.02-.04.08-.1.13-.13s.29-.02.36.01l.01-.01zm-1.31.4c-.28 0-.51-.23-.51-.51s.23-.51.51-.51.51.23.51.51-.23.51-.51.51zm1.22-1.4c.13.18.22.39.24.59.01.08-.07.16-.15.18-.08.03-.31.04-.36.01-.05-.03-.11-.09-.13-.13s-.06-.19-.12-.27c-.06-.08-.19-.17-.22-.2s-.07-.1-.08-.16.07-.28.12-.34c.05-.07.15-.12.22-.09.18.08.36.23.49.41h-.01zm-.92-.39c0 .08-.06.31-.1.35s-.12.08-.16.08c-.04 0-.2 0-.3.03-.1.03-.22.13-.26.15s-.12.04-.18.03-.24-.15-.29-.22c-.05-.07-.07-.18-.02-.24.13-.15.33-.27.54-.34.21-.07.44-.09.64-.05.08.02.13.12.13.2v.01z"/><g><path class="st3" d="M5.72 12.079c0 .09.08.17.17.17s.17-.08.17-.17-.08-.17-.17-.17-.17.08-.17.17z"/><path class="st3" d="M4.01 12.079c0 1.04.84 1.88 1.88 1.88s1.88-.84 1.88-1.88-.84-1.88-1.88-1.88-1.88.84-1.88 1.88zm.52.62c-.1-.17-.15-.4-.15-.62 0-.22.05-.45.15-.62.04-.07.15-.08.23-.06s.27.15.3.21c.03.05.03.14.03.18s-.06.19-.06.29c0 .1.05.25.06.29 0 .04 0 .13-.03.18s-.22.18-.3.21c-.08.02-.19.01-.23-.06zm1.53.86c-.19.04-.43.02-.64-.05a1.25 1.25 0 0 1-.54-.34c-.06-.06-.03-.17.02-.24s.23-.21.29-.22c.06 0 .14 0 .18.03.04.02.16.12.26.15s.26.03.3.03.12.04.16.08.1.27.1.35-.05.19-.13.2v.01zm1.14-1.37c.08.03.16.1.15.19-.02.2-.11.41-.24.59s-.31.33-.49.41c-.07.03-.17-.02-.22-.09-.05-.07-.13-.28-.12-.34 0-.06.05-.13.08-.16s.16-.12.22-.2c.06-.08.1-.24.12-.27s.08-.1.13-.13.29-.02.36.01l.01-.01zm-1.31.4c-.28 0-.51-.23-.51-.51s.23-.51.51-.51.51.23.51.51-.23.51-.51.51zm1.22-1.4c.13.18.22.39.24.59.01.08-.07.16-.15.18-.08.03-.31.04-.36.01s-.11-.09-.13-.13-.06-.19-.12-.27c-.06-.08-.19-.17-.22-.2s-.07-.1-.08-.16.07-.28.12-.34c.05-.07.15-.12.22-.09.18.08.36.23.49.41h-.01zm-.92-.39c0 .08-.06.31-.1.35s-.12.08-.16.08-.2 0-.3.03c-.1.03-.22.13-.26.15s-.12.04-.18.03c-.06 0-.24-.15-.29-.22-.05-.07-.07-.18-.02-.24.13-.15.33-.27.54-.34.21-.07.44-.09.64-.05.08.02.13.12.13.2v.01z"/><path class="st3" d="M2.98 6.919c0 1.13.65 2.09 1.59 2.58-.94.48-1.59 1.45-1.59 2.58 0 1.6 1.3 2.9 2.9 2.9s2.9-1.3 2.9-2.9c0-1.13-.65-2.09-1.59-2.58.94-.48 1.59-1.45 1.59-2.58 0-1.6-1.3-2.9-2.9-2.9s-2.9 1.3-2.9 2.9zm5.3 5.15a2.39 2.39 0 1 1-4.78 0 2.39 2.39 0 0 1 4.78 0zm0-5.15a2.39 2.39 0 1 1-4.78 0 2.39 2.39 0 0 1 4.78 0z"/><path class="st3" d="M5.89 7.099c.09 0 .17-.08.17-.17s-.08-.17-.17-.17-.17.08-.17.17.08.17.17.17z"/><path class="st3" d="M4.01 6.919c0 1.04.84 1.88 1.88 1.88s1.88-.84 1.88-1.88-.84-1.88-1.88-1.88-1.88.84-1.88 1.88zm.52.62c-.1-.17-.15-.4-.15-.62 0-.22.05-.45.15-.62.04-.07.15-.08.23-.06s.27.15.3.21c.03.05.03.14.03.18s-.06.19-.06.29c0 .1.05.25.06.29 0 .04 0 .13-.03.18s-.22.18-.3.21c-.08.02-.19.01-.23-.06zm1.53.86c-.19.04-.43.02-.64-.05a1.25 1.25 0 0 1-.54-.34c-.06-.06-.03-.17.02-.24s.23-.21.29-.22c.06 0 .14 0 .18.03s.16.12.26.15.26.03.3.03.12.04.16.08.1.27.1.35-.05.19-.13.2v.01zm1.14-1.37c.08.03.16.1.15.19-.02.2-.11.41-.24.59s-.31.33-.49.41c-.07.03-.17-.02-.22-.09-.05-.07-.13-.28-.12-.34 0-.06.05-.13.08-.16s.16-.12.22-.2c.06-.08.1-.24.12-.27s.08-.1.13-.13.29-.02.36.01l.01-.01zm-1.31.4c-.28 0-.51-.23-.51-.51s.23-.51.51-.51.51.23.51.51-.23.51-.51.51zm1.22-1.4c.13.18.22.39.24.59.01.08-.07.16-.15.18-.08.03-.31.04-.36.01s-.11-.09-.13-.13-.06-.19-.12-.27c-.06-.08-.19-.17-.22-.2a.345.345 0 0 1-.08-.16c0-.06.07-.28.12-.34.05-.07.15-.12.22-.09.18.08.36.23.49.41h-.01zm-.92-.39c0 .08-.06.31-.1.35s-.12.08-.16.08-.2 0-.3.03c-.1.03-.22.13-.26.15s-.12.04-.18.03c-.06 0-.24-.15-.29-.22-.05-.07-.07-.18-.02-.24.13-.15.33-.27.54-.34.21-.07.44-.09.64-.05.08.02.13.12.13.2v.01z"/></g></svg>