<svg id="_图层_1" xmlns="http://www.w3.org/2000/svg" version="1.1" viewBox="0 0 26 19"><defs><style>.st4{fill:#881c21}</style></defs><rect x="3.63" y="-3.38" width="18.75" height="25.75" rx="1.88" ry="1.88" transform="rotate(-90 13.005 9.495)" style="fill:#f5f6f7"/><path d="M.25 2C.25 1.04 1.04.25 2 .25h22c.96 0 1.75.79 1.75 1.75v15c0 .96-.79 1.75-1.75 1.75H2c-.96 0-1.75-.79-1.75-1.75V2M0 2v15c0 1.1.9 2 2 2h22c1.1 0 2-.9 2-2V2c0-1.1-.9-2-2-2H2C.9 0 0 .9 0 2z" style="fill:#93989c"/><g><path class="st4" d="M14.76 14.06s.07.02.07.07c0 .1-.24.44-.73 1.03-.15.2-.29.43-.42.71s-.24.51-.31.68c-.07.17-.12.26-.15.26-.05 0-.07-.1-.07-.29.02-.39.16-.79.4-1.19.24-.4.48-.71.71-.93.23-.22.4-.33.5-.33v-.01zm-3.12 2.24c0-.15.06-.39.18-.73s.38-.78.77-1.3c.39-.53.88-.95 1.47-1.26.24-.1.38-.15.4-.15.07 0 .11.02.11.07l-.4.4c-1.34 1.37-2.14 2.37-2.38 3.01-.02.07-.06.11-.11.11-.02 0-.04-.05-.04-.15zm3.7-1.61c0 .2-.06.53-.17 1.01s-.23.71-.35.71c-.05 0-.07-.13-.07-.4 0-.12.04-.3.13-.53s.17-.43.26-.61c.09-.17.14-.26.16-.26s.04.02.04.07v.01zm-.92-.95s-.04-.02-.04-.07c0-.07.16-.27.48-.59s.56-.48.73-.48.26.07.26.22c0 .2-.06.44-.18.73s-.22.44-.29.44c-.02 0-.04-.04-.04-.11s.02-.2.07-.38.07-.29.07-.31-.02-.07-.07-.07c-.1 0-.28.1-.53.31-.26.21-.41.31-.46.31zM23.19 10.36c.07 0 .11.05.11.15 0 .05-.03.12-.09.2-.06.09-.08.15-.06.2 0 .02.14.24.42.66s.42.68.42.81c0 .07-.04.11-.11.11-.02 0-.15-.12-.37-.35-.22-.23-.34-.35-.37-.35s-.04.02-.04.07c0 .15.02.32.06.53.04.21.05.32.05.35 0 .07-.02.11-.07.11-.17 0-.31-.45-.4-1.36-.02-.17-.09-.28-.18-.33-.1-.05-.35-.07-.77-.07-.17 0-.35.02-.53.06s-.29.05-.31.05c-.05 0-.07-.04-.07-.11 0-.27.1-.46.29-.59.05-.02.15-.04.29-.04.51 0 .95.06 1.32.18.15-.2.28-.29.4-.29l.01.01zM22.28 8.49c.34 0 .57-.03.68-.09s.18-.21.22-.44c.04-.23.1-.43.2-.6.02 0 .05-.02.07-.06s.05-.05.07-.05c.05 0 .07.06.07.18 0 .05-.02.23-.07.53-.05.31-.07.51-.07.61 0 .02.09.15.28.38.18.23.28.41.28.53 0 .05-.04.07-.11.07-.02 0-.09-.05-.18-.15-.24-.2-.37-.26-.37-.18 0 .02.06.18.18.46s.18.47.18.57c0 .07-.02.11-.07.11-.07 0-.25-.22-.53-.66s-.61-.66-.97-.66c-.1 0-.21 0-.35.02-.13.01-.28.03-.44.05s-.29.04-.38.04c-.07.02-.11 0-.11-.07v-.04c0-.42.12-.62.37-.62.1 0 .28.01.53.04.26.02.43.04.53.04l-.01-.01z"/><path d="M7.9 13.37s-.13.05-.26.16c-.12.11-.27.24-.44.39s-.29.26-.37.33c-1.37 1-2.22 1.5-2.57 1.5-.07 0-.11-.04-.11-.11 0-.05.04-.11.11-.18 2.13-1.42 3.19-2.2 3.19-2.35 0-.05-.02-.07-.07-.07-.07 0-.54.32-1.39.97-.86.65-1.42.97-1.69.97-.07 0-.11-.04-.11-.11 0-.05.46-.39 1.39-1.03.93-.64 1.39-1 1.39-1.1 0-.05-.01-.07-.04-.07-.1 0-.56.29-1.38.86s-1.29.86-1.41.86c-.07 0-.11-.04-.11-.11 0-.1.39-.38 1.17-.84.78-.46 1.17-.73 1.17-.81 0-.05-.02-.07-.07-.07s-.32.13-.81.4-.81.4-.95.4c-.1 0-.15-.02-.15-.07s.36-.28 1.08-.62c.72-.34 1.08-.53 1.08-.55 0-.05-.05-.07-.15-.07s-.48.15-1.14.44-1.04.44-1.14.44c-.07 0-.11-.04-.11-.11 0-.05.35-.23 1.06-.55l1.06-.51c.2-.15.26-.24.18-.29-.02 0-.56.15-1.6.46s-1.73.46-2.07.46c-.15 0-.22-.04-.22-.11 0-.1.57-.29 1.7-.57 1.14-.28 1.71-.46 1.71-.53 0-.1-.06-.15-.18-.15-.1 0-.52.11-1.26.33-.75.22-1.36.33-1.85.33-.24 0-.37-.02-.37-.07 0-.17.52-.35 1.56-.55 1.04-.2 1.56-.32 1.56-.37s-.12-.11-.37-.11c-.1 0-.46.04-1.1.13s-1.06.13-1.28.13c-.39 0-.59-.04-.59-.11 0-.1.3-.2.9-.29.6-.1 1.18-.15 1.74-.15.37 0 .55-.06.55-.18 0-.07-.2-.11-.59-.11-.22 0-.57.02-1.06.05-.49.04-.82.06-.99.06-.29 0-.44-.04-.44-.11 0-.12.49-.21 1.47-.28C4.51 9.67 5 9.6 5 9.53c0-.12-.37-.18-1.1-.18s-1.14-.02-1.14-.07c0-.17.39-.26 1.17-.26.1 0 .26 0 .48.02.22.01.38.02.48.02.22 0 .28-.06.18-.18-.02-.05-.06-.07-.11-.07-.05-.02-.24-.07-.59-.15-.34-.07-.64-.15-.88-.24s-.37-.18-.37-.28c0-.07.09-.11.26-.11.12 0 .39.06.79.18s.68.18.82.18c.05 0 .07-.04.07-.11S4.55 8 3.52 7.66C2.49 7.32 1.98 7.1 1.98 7c0-.07.18-.11.55-.11.2.02.49.1.88.24.39.13.74.26 1.05.37.31.11.47.16.5.16.07 0 .11-.04.11-.11s-.5-.31-1.49-.72c-.99-.4-1.48-.67-1.48-.79 0-.05.05-.07.15-.07.27 0 .77.17 1.5.49.73.32 1.15.5 1.25.5.02-.02.04-.05.04-.07 0-.07-.41-.34-1.23-.79-.82-.45-1.23-.7-1.23-.75s.05-.11.15-.11c.12 0 .42.11.88.33.27.15.53.3.79.46s.45.27.57.35c.12.07.2.11.22.11.05 0 .07-.04.07-.11 0-.1-.31-.33-.94-.7-.62-.37-.93-.57-.93-.62 0-.07.05-.11.15-.11.2 0 .55.17 1.06.51l.77.55c.07 0 .11-.02.11-.07s-.24-.25-.73-.6-.73-.58-.73-.68c0-.05.05-.07.15-.07.15 0 .47.23.97.68.5.45.78.68.82.68l.07-.07c0-.17-.4-.66-1.21-1.47-.81-.73-1.21-1.14-1.21-1.21 0-.05.05-.07.15-.07.27 0 .76.4 1.47 1.19.71.79 1.08 1.19 1.1 1.19.05 0 .07-.02.07-.07 0-.2-.39-.73-1.17-1.6-.78-.87-1.17-1.35-1.17-1.45 0-.05.04-.07.11-.07.17 0 .64.46 1.41 1.39.77.93 1.18 1.39 1.23 1.39.07 0 .11 0 .11-.02v-.09c0-.07-.29-.5-.86-1.28S5.2 2.48 5.2 2.35c0-.05.02-.07.07-.07.1 0 .21.07.33.22.54.73.99 1.39 1.36 1.98.15.22.26.33.33.33s.11-.02.11-.07c0-.02-.2-.35-.59-.97-.39-.62-.59-1.03-.59-1.23 0-.12.06-.15.18-.07.07.02.19.18.35.48.16.29.33.61.51.95.18.34.31.56.39.66.12.12.18.09.18-.11 0-.05-.13-.32-.4-.81-.27-.49-.4-.82-.4-.99 0-.12.05-.18.15-.18.05 0 .21.3.48.9s.45.9.55.9c.07 0 .11-.05.11-.15 0-.02-.07-.3-.2-.83-.13-.52-.2-.82-.2-.9 0-.2.05-.29.15-.29s.23.38.4 1.14c.17.76.29 1.14.37 1.14.1 0 .15-.04.15-.11 0-.12-.07-.45-.2-.99s-.2-.87-.2-.99.04-.18.11-.18.13.06.16.16c.04.11.09.34.15.68s.14.67.24.99c.02.07.06.13.11.17.05.04.09.04.13 0s.05-.09.05-.17c0-.12-.05-.39-.15-.81-.1-.42-.15-.66-.15-.73 0-.12.04-.18.11-.18.15 0 .31.55.48 1.65 0 .05.02.09.07.13.05.04.1.04.15 0 .05-.04.07-.1.07-.2 0-.07-.04-.27-.11-.6s-.11-.56-.11-.68c0-.07.01-.11.04-.11.12 0 .24.27.35.81.11.54.2.81.27.81s.11-.09.11-.26c0-.12-.04-.32-.11-.59l-.07-.4c0-.12.04-.18.11-.18.12 0 .23.35.33 1.04.1.7.23 1.04.4 1.04a.16.16 0 0 0 .04-.11c0-.05-.02-.18-.07-.39-.05-.21-.07-.36-.07-.46 0-.15.05-.22.15-.22.07 0 .13.17.18.51s.07.56.07.66c0 .12.04.18.11.18.05 0 .07-.04.07-.11 0-.1-.01-.23-.04-.4-.02-.17-.04-.27-.04-.29 0-.1.04-.15.11-.15.17 0 .26.34.26 1.03.02.07.11.11.26.11 0-.05 0-.13-.02-.26a1.55 1.55 0 0 0-.04-.28c-.01-.06 0-.1.02-.13.07 0 .13.06.17.17s.08.26.13.44.12.34.22.46c.22.24.35.51.38.79.04.28.07.47.09.57 0 .02.18.24.53.64.35.4.53.8.53 1.19 0 .1-.04.27-.13.51s-.13.43-.13.55c0 .07.04.22.11.44s.11.4.11.55c0 .27-.1.51-.31.73s-.32.34-.35.37c0 .02-.03.14-.09.35s-.12.38-.18.51-.13.2-.2.2c-.05 0-.07-.02-.07-.07 0-.07.03-.18.09-.33s.09-.24.09-.29c0-.05-.02-.07-.07-.07-.07 0-.16.21-.26.62-.1.42-.2.62-.29.62-.05 0-.07-.04-.07-.11 0-.1.02-.26.07-.48l.11-.33c0-.12-.01-.18-.04-.18-.15 0-.22.09-.22.26-.17 1-.35 1.5-.55 1.5-.07 0-.11-.04-.11-.11s.07-.3.22-.68c.15-.38.22-.62.22-.72 0-.07-.02-.11-.07-.11-.07 0-.15.09-.22.27-.07.18-.16.42-.26.7-.1.28-.2.51-.29.68-.29.46-.67.93-1.14 1.39-.46.46-.76.7-.88.7-.1 0-.15-.04-.15-.11s.21-.31.64-.77.64-.77.64-.92c0-.05-.04-.07-.11-.07-.05 0-.13.08-.26.24-.12.16-.29.36-.51.6-.22.24-.45.45-.7.62-.1.07-.18.12-.26.13-.07.01-.13.01-.18 0s-.07-.03-.07-.06.25-.3.75-.75.75-.75.75-.9c0-.05-.02-.07-.07-.07s-.38.27-.99.81-1 .81-1.17.81c-.07 0-.11-.02-.11-.07s.29-.32.86-.82c.57-.5.86-.84.86-1.01l-.07-.04s-.37.29-1.03.88c-.66.59-1.12.88-1.39.88-.05 0-.07-.01-.07-.04 0-.07.35-.38 1.05-.92.7-.54 1.04-.87 1.04-.99 0-.07-.02-.11-.07-.11-.07 0-.29.14-.64.42-.35.28-.73.59-1.14.92-.4.33-.68.54-.82.64-.24.15-.37.13-.37-.04 0-.05.34-.34 1.03-.88.68-.54 1.03-.88 1.03-1.03 0-.05-.01-.07-.04-.07l.01-.01zm1.91-.81c0 .2.08.4.24.62s.43.33.82.33c.1 0 .2-.02.29-.05.1-.04.2-.13.31-.29.11-.16.17-.36.17-.6 0-.68-.28-1.03-.84-1.03-.27 0-.5.1-.7.31s-.29.45-.29.71zm.55-.04c0-.24.15-.37.44-.37.2 0 .29.13.29.4 0 .24-.1.37-.29.37-.29 0-.44-.13-.44-.4zm-1.94-1.8c-.27 0-.51.1-.72.29-.21.2-.31.42-.31.66 0 .32.09.59.27.81s.43.33.75.33c.64 0 .95-.35.95-1.06 0-.27-.1-.51-.29-.71-.2-.21-.42-.31-.66-.31l.01-.01zm0 1.43c-.1 0-.2-.05-.29-.15-.1-.1-.15-.2-.15-.29 0-.09.05-.19.15-.27.1-.09.2-.13.29-.13.22 0 .33.15.33.44s-.11.4-.33.4zm4.55-2.35c-.64 0-.95.31-.95.92s.26.88.77.88c.24 0 .46-.09.66-.28.2-.18.29-.43.29-.75 0-.51-.26-.77-.77-.77zm-3.3.4c0 .27.1.49.31.66s.45.26.71.26c.61 0 .92-.39.92-1.17 0-.29-.11-.52-.33-.68-.22-.16-.43-.24-.62-.24-.66 0-.99.39-.99 1.17zm3.23.84c-.24 0-.37-.12-.37-.37s.13-.37.4-.37c.2 0 .29.11.29.33 0 .27-.11.4-.33.4l.01.01zM6.41 8.91c-.17 0-.34.08-.51.24s-.26.36-.26.61c0 .71.34 1.06 1.03 1.06.2 0 .35-.09.46-.28.11-.18.17-.36.17-.53 0-.27-.1-.52-.29-.75-.2-.23-.39-.35-.59-.35h-.01zm4.29.81c.2 0 .29.11.29.33 0 .27-.1.4-.29.4-.27 0-.4-.12-.4-.37s.13-.37.4-.37v.01zm-3.89.15c0 .27-.12.4-.37.4s-.37-.16-.37-.48c0-.22.11-.33.33-.33.27 0 .4.13.4.4l.01.01zm2.68-.88c0-.07-.02-.18-.05-.31-.04-.13-.15-.29-.33-.46s-.42-.26-.72-.26c-.32 0-.54.09-.68.27-.13.18-.2.36-.2.53 0 .22.07.48.22.77.15.29.39.44.73.44.27 0 .51-.1.72-.29.21-.2.31-.43.31-.7v.01zm-1.32-.07c0-.27.12-.4.37-.4s.37.13.37.4-.12.4-.37.4-.37-.13-.37-.4zm4.69-1.47c-.27 0-.46.12-.59.35-.12.23-.18.46-.18.68 0 .54.34.81 1.03.81.54 0 .81-.27.81-.81 0-.12-.02-.24-.06-.37-.04-.12-.14-.26-.31-.42s-.4-.24-.7-.24zm-.15.88c0-.22.1-.33.29-.33.29 0 .44.12.44.37 0 .22-.13.33-.4.33-.22 0-.33-.12-.33-.37zm-2.31.33c.27 0 .48-.1.62-.29.15-.2.22-.42.22-.66 0-.61-.28-.92-.84-.92-.22 0-.42.08-.61.24a.77.77 0 0 0-.27.6c0 .32.09.57.26.75s.38.28.62.28zM7.28 7.45c0-.17-.07-.37-.22-.61-.15-.23-.38-.35-.7-.35-.51 0-.77.27-.77.81 0 .66.28.99.84.99.27 0 .48-.08.62-.24a.84.84 0 0 0 .22-.6h.01zm2.75.22c0-.24.15-.37.44-.37.22 0 .33.13.33.4 0 .22-.12.33-.37.33-.27 0-.4-.12-.4-.37v.01zM6.8 7.41c0 .22-.11.33-.33.33-.27 0-.4-.12-.4-.37S6.18 7 6.4 7c.27 0 .4.13.4.4v.01zm5.28-.26c.17 0 .33-.11.48-.33s.22-.4.22-.55c0-.22-.08-.42-.24-.6s-.32-.27-.49-.27c-.22 0-.42.09-.61.27-.18.18-.28.4-.28.64 0 .22.1.42.29.59.2.17.4.26.62.26l.01-.01zm-4.03-.18c.56 0 .84-.29.84-.88 0-.24-.08-.47-.24-.68s-.36-.31-.6-.31c-.59 0-.88.28-.88.84 0 .29.09.54.28.73.18.2.38.29.6.29v.01zm3.92-1.03c.07 0 .15.04.22.11s.11.13.11.18c0 .24-.09.37-.26.37-.27 0-.4-.11-.4-.33s.11-.33.33-.33zm-3.89.37c-.27 0-.4-.12-.4-.37 0-.22.12-.33.37-.33s.37.13.37.4c0 .2-.11.29-.33.29l-.01.01zm2.86-.88c0-.66-.27-.99-.81-.99a.98.98 0 0 0-.62.22c-.2.15-.29.35-.29.62 0 .2.07.4.22.62.15.22.37.33.66.33.22 0 .42-.07.59-.22.17-.15.26-.34.26-.59l-.01.01zm-.44-.15c0 .29-.11.44-.33.44-.12 0-.23-.05-.31-.15-.09-.1-.13-.2-.13-.29 0-.2.13-.29.4-.29.24 0 .37.1.37.29z" style="fill:#231815"/><path d="M20.11 8.24c0 .2-.04.49-.11.88s-.11.67-.11.84c0 .12.07.37.22.73.15.37.22.66.22.88 0 .12-.03.38-.09.77s-.09.67-.09.84c0 1.44.21 2.71.62 3.81-.1.05-.24.07-.44.07-1.03 0-1.91-.34-2.66-1.03-.75-.68-1.12-1.37-1.12-2.05 0-.2.04-.42.11-.66s.11-.38.11-.4c0-.1-.04-.15-.11-.15-.02 0-.08.03-.17.09s-.14.09-.16.09c-.12 0-.18-.02-.18-.07s.05-.11.15-.18c.1-.07.26-.14.49-.2s.48-.09.75-.09c.12 0 .34 0 .66.02.32.01.51.02.59.02.83 0 1.25-.26 1.25-.77 0-.17-.08-.46-.24-.88-.16-.41-.24-.76-.24-1.03 0-.07 0-.16.02-.26.01-.1.02-.17.02-.22 0-.39-.27-.59-.81-.59-.17 0-.34.1-.5.31s-.24.41-.24.6c0 .24.21.53.62.86.42.33.62.6.62.83 0 .39-.29.59-.88.59-.24 0-.59-.07-1.03-.2-.44-.13-.77-.2-.99-.2-.29 0-.51.07-.64.2s-.21.28-.24.42c-.02.15-.05.22-.07.22-.05 0-.07-.07-.07-.22 0-.24.13-.46.39-.66s.39-.32.39-.37-.11-.15-.33-.29c-.22-.15-.43-.37-.64-.66s-.31-.65-.31-1.06c0-.49.23-.89.68-1.21s.68-.49.68-.51l-.15-.55c-.12-.37-.18-.82-.18-1.36 0-.73.38-1.5 1.14-2.31.76-.81 1.7-1.21 2.82-1.21l.62.11s-.07.5-.22 1.36-.22 1.55-.22 2.09c0 .86.01 1.49.04 1.91.02.42.04.7.04.84l-.01.01zm-.29 6.89c-.1 0-.15.15-.15.44 0 .22.02.41.07.57.05.16.11.27.18.33s.13.09.18.09c.1 0 .15-.05.15-.15 0-.12-.05-.37-.17-.73-.11-.37-.2-.55-.27-.55h.01zm-.62 1.21c.1 0 .15-.12.15-.37 0-.17-.04-.37-.11-.6s-.13-.35-.18-.35c-.12 0-.18.15-.18.44 0 .59.11.88.33.88h-.01zm-1.1-1.06c0 .44.07.66.22.66.12 0 .18-.22.18-.66 0-.39-.06-.59-.18-.59-.15 0-.22.2-.22.59zm-.48.11c.15 0 .22-.27.22-.81 0-.17-.04-.26-.11-.26-.2 0-.29.21-.29.62 0 .29.06.44.18.44v.01zm-.55-.55c.12 0 .18-.23.18-.7 0-.15-.04-.22-.11-.22-.15 0-.22.18-.22.55 0 .24.05.37.15.37zm2.49-1.98c0 1.25.06 1.87.18 1.87.1 0 .15-.16.15-.48 0-.1 0-.28-.02-.55-.01-.27-.02-.48-.02-.62 0-.32-.05-.48-.15-.48s-.15.09-.15.26h.01zm-.4-.11c-.19 0-.29.48-.29 1.43 0 .29.06.44.18.44.05 0 .08-.01.09-.04.01-.02.02-.08.04-.16.01-.09.02-.17.02-.26v-.42c0-.2.01-.38.04-.55.02-.29 0-.44-.07-.44h-.01zm-.59.04c-.2 0-.29.33-.29.99 0 .32.06.48.18.48s.18-.38.18-1.14c0-.22-.02-.33-.07-.33zm-.66 1.17s.07-.16.13-.48.09-.5.09-.55c0-.1-.01-.15-.04-.15-.05 0-.1.04-.15.11s-.1.18-.15.33-.07.29-.07.44c0 .2.06.29.18.29l.01.01zm-.55-.26c.07 0 .15-.13.22-.38.07-.26.11-.45.11-.57 0-.05-.02-.07-.07-.07s-.12.09-.22.28c-.1.18-.15.36-.15.53 0 .15.04.22.11.22v-.01zm-.22-.99c-.17 0-.26.17-.26.51 0 .15.02.22.07.22.07 0 .13-.09.18-.26.05-.17.07-.29.07-.37s-.02-.11-.07-.11l.01.01zm-.7-.77c.07 0 .11.04.11.11s-.07.16-.22.26-.27.15-.37.15c-.05 0-.07-.02-.07-.07s.07-.2.2-.29c.13-.1.25-.15.35-.15v-.01zm1.61-.84c-.15 0-.22.09-.22.26 0 .2.18.29.55.29.15 0 .22-.05.22-.15 0-.05-.07-.13-.2-.24-.13-.11-.25-.17-.35-.17v.01zm.37-.44c-.12 0-.18.04-.18.11 0 .1.08.21.24.35.16.13.29.2.39.2s.15-.05.15-.15c0-.07-.07-.18-.22-.31s-.27-.2-.37-.2h-.01zm-.66.18s-.05-.1-.15-.17c-.1-.06-.17-.09-.22-.09-.2 0-.29.09-.29.26 0 .29.12.44.37.44.2 0 .29-.15.29-.44zm-1.94-.77c-.1 0-.15.07-.15.22 0 .24.11.37.33.37.12 0 .18-.07.18-.22 0-.24-.12-.37-.37-.37h.01zm1.25.29c0-.17-.1-.26-.29-.26-.17 0-.26.09-.26.26 0 .2.1.29.29.29.17 0 .26-.1.26-.29zm.48-.07s.04.1.11.16.13.09.18.09c.17 0 .26-.09.26-.26s-.11-.26-.33-.26c-.15 0-.22.09-.22.26v.01zm-2.35-.48c0 .2.07.29.22.29s.22-.1.22-.29a.14.14 0 0 0-.02-.15c-.04-.05-.09-.07-.16-.07-.17 0-.26.07-.26.22zm1.36 0c0-.17-.09-.26-.26-.26s-.26.09-.26.26.09.26.26.26.26-.09.26-.26zm.73-.33c-.2 0-.29.09-.29.26 0 .22.09.33.26.33.2 0 .29-.1.29-.29s-.09-.29-.26-.29v-.01zm-.84-.18c0 .2.1.29.29.29.07.02.14 0 .2-.09s.09-.15.09-.2c0-.2-.09-.29-.26-.29-.22 0-.33.1-.33.29h.01zm-.37.04c0-.22-.1-.33-.29-.33-.15 0-.22.09-.22.26 0 .2.1.29.29.29.15 0 .22-.07.22-.22zm-1.06-.07c0 .17.06.26.18.26s.18-.09.18-.26c0-.15-.06-.22-.18-.22s-.18.07-.18.22zm4.84-1.06c0-.15-.06-.59-.17-1.34s-.16-1.44-.16-2.07c0-.34-.05-.51-.15-.51-.2 0-.29.23-.29.7 0 .27.05.68.15 1.25.1.56.15.9.15 1.03 0 .1-.01.15-.04.15-.12 0-.25-.32-.39-.95-.13-.64-.2-1.09-.2-1.36s-.06-.4-.18-.4-.18.12-.18.37.06.62.18 1.12.18.81.18.93c0 .07-.02.11-.07.11-.17 0-.34-.56-.51-1.69-.02-.27-.1-.4-.22-.4-.07 0-.11.07-.11.22s.07.48.2.93c.13.45.2.71.2.79 0 .15-.06.13-.18-.04a.479.479 0 0 1-.11-.15c-.05-.15-.1-.31-.17-.48-.06-.17-.1-.3-.13-.38-.02-.09-.05-.17-.07-.26s-.06-.14-.09-.16c-.04-.02-.07-.04-.09-.04-.07 0-.11.06-.11.18s.07.4.2.75.2.56.2.6c0 .07-.01.11-.04.11-.07 0-.21-.23-.42-.68-.21-.45-.34-.68-.38-.68-.07 0-.11.05-.11.15 0 .07.09.28.27.62s.28.56.28.66c0 .05-.02.07-.07.07-.1 0-.25-.2-.46-.6-.21-.4-.35-.6-.42-.6-.05 0-.07.05-.07.15 0 .17.07.39.2.64.13.26.26.47.39.64l.18.29c0 .1-.05.15-.15.15-.02 0-.1-.04-.24-.13-.13-.09-.23-.13-.28-.13-.1 0-.15.07-.15.22s.22.42.66.81.7.59.77.59c.02 0 .14-.17.35-.49.21-.33.51-.5.9-.5.37 0 .66.11.88.33.05-.2.07-.37.07-.51v-.01zm-3.67.22c-.15 0-.22.11-.22.33 0 .05.04.11.11.18.07.07.15.11.22.11.15 0 .22-.1.22-.29 0-.07-.04-.15-.11-.22s-.15-.11-.22-.11zm-1.06.22c0 .17.1.26.29.26.12 0 .18-.07.18-.22 0-.22-.09-.33-.26-.33-.15 0-.22.1-.22.29h.01zm.66-.66c-.12 0-.18.06-.18.18 0 .15.06.22.18.22.15 0 .22-.06.22-.18s-.07-.22-.22-.22zm-.7-1.17c-.76-.68-1.37-1.39-1.83-2.13-.46-.73-.7-1.3-.7-1.69 0-.15.05-.22.15-.22.05 0 .09.02.11.07.1.12.24.38.42.77s.31.65.39.77c.32.49.62.93.92 1.34.29.4.5.68.6.84.11.16.16.26.16.31 0 .1-.07.07-.22-.07v.01zm1.54-1.25c.1 0 .15-.05.15-.15 0-.64-.09-.95-.26-.95-.1 0-.15.1-.15.29 0 .12.03.29.09.5s.12.31.16.31h.01zm-1.58-.04s-.14-.14-.35-.42-.42-.62-.62-1.03c-.21-.4-.31-.71-.31-.94 0-.23.04-.33.11-.33s.45.82 1.14 2.46c.1.2.11.28.04.26h-.01zm1.91-1.39c0 .56.1.84.29.84.07 0 .11-.07.11-.22 0-.07 0-.21-.02-.4-.01-.2-.02-.32-.02-.37 0-.15-.05-.22-.15-.22-.15 0-.22.12-.22.37h.01zm-1.54.73s-.08-.08-.17-.24-.16-.36-.24-.6a2.32 2.32 0 0 1-.11-.62c0-.22.07-.37.22-.44.05-.02.08-.01.09.04s.02.16.02.33c.02.27.05.52.09.75.04.23.07.4.09.5s.04.16.04.18c0 .07-.01.11-.04.11l.01-.01zm2.49-.37c.1 0 .15-.32.15-.95 0-.22-.04-.33-.11-.33-.15 0-.22.2-.22.59 0 .46.06.7.18.7V4.5zm.84-1.83c-.22 0-.33.32-.33.95 0 .2.01.33.04.4.02.07.07.1.15.07.07 0 .14-.18.2-.53.06-.35.09-.58.09-.68 0-.15-.05-.22-.15-.22v.01zm.59.22c-.05.2-.07.4-.07.62 0 .22.04.33.11.33.22 0 .37-.38.44-1.14.02-.12-.01-.18-.11-.18-.2 0-.32.12-.37.37z" style="fill:#005529"/></g></svg>