<svg id="_图层_1" xmlns="http://www.w3.org/2000/svg" version="1.1" viewBox="0 0 26 37.984"><defs><style>.st0{fill:#f5f6f7}.st1{fill:#005529}.st2{fill:#93989c}.st3{fill:#881c21}</style></defs><rect class="st0" x=".13" y="19.114" width="25.75" height="18.75" rx="1.88" ry="1.88"/><path class="st2" d="M.25 20.984c0-.96.79-1.75 1.75-1.75h22c.96 0 1.75.79 1.75 1.75v15c0 .96-.79 1.75-1.75 1.75H2c-.96 0-1.75-.79-1.75-1.75v-15m-.25 0v15c0 1.1.9 2 2 2h22c1.1 0 2-.9 2-2v-15c0-1.1-.9-2-2-2H2c-1.1 0-2 .9-2 2z"/><path class="st1" d="M21.7 32.294h-.12s-.19.02-.28-.05c-.14-.1-.34-.55-.82-.55s-.67.44-.82.55c-.1.07-.28.05-.28.05h-.13s-.32.02-.43-.07c-.17-.14-.32-.49-.68-.47-.3.01-.5.25-.57.63-.04.22-.33.33-.33.91s.3.7.33.91c.06.38.26.62.57.63.36.01.51-.33.68-.47.11-.09.43-.07.43-.07h.13s.19-.02.28.05c.14.1.34.55.82.55s.67-.44.82-.55c.1-.07.28-.05.28-.05h.12s.32-.02.43.07c.23.2.43.58.75.47.33-.12.54-.34.48-.72-.05-.34-.25-.43-.25-.82s.19-.49.25-.82c.06-.38-.15-.6-.48-.72-.32-.12-.51.26-.75.47-.11.1-.43.07-.43.07zm.88.67c.1 0 .18.1.18.23v.19c0 .13-.08.23-.18.23H21.1c-.1 0-.18-.1-.18-.23v-.19c0-.13.08-.23.18-.23h1.48zm-2.01 0c.08 0 .15.09.15.19v.27c0 .11-.07.19-.15.19h-.33c-.08 0-.15-.09-.15-.19v-.27c0-.11.07-.19.15-.19h.33zm-.87 0c.1 0 .18.1.18.23v.19c0 .13-.08.23-.18.23h-1.48c-.1 0-.18-.1-.18-.23v-.19c0-.13.08-.23.18-.23h1.48zM21.7 22.674h-.12s-.19.02-.28-.05c-.14-.1-.34-.55-.82-.55s-.67.44-.82.55c-.1.07-.28.05-.28.05h-.13s-.32.02-.43-.07c-.17-.14-.32-.49-.68-.47-.3.01-.5.25-.57.63-.04.22-.33.33-.33.91s.3.7.33.91c.06.38.26.62.57.63.36.01.51-.33.68-.47.11-.09.43-.07.43-.07h.13s.19-.02.28.05c.14.1.34.55.82.55s.67-.44.82-.55c.1-.07.28-.05.28-.05h.12s.32-.02.43.07c.23.2.43.58.75.47.33-.12.54-.34.48-.72-.05-.34-.25-.43-.25-.82s.19-.49.25-.82c.06-.38-.15-.6-.48-.72-.32-.12-.51.26-.75.47-.11.1-.43.07-.43.07zm.88.67c.1 0 .18.1.18.23v.19c0 .13-.08.23-.18.23H21.1c-.1 0-.18-.1-.18-.23v-.19c0-.13.08-.23.18-.23h1.48zm-2.01 0c.08 0 .15.09.15.19v.27c0 .11-.07.19-.15.19h-.33c-.08 0-.15-.09-.15-.19v-.27c0-.11.07-.19.15-.19h.33zm-.87 0c.1 0 .18.1.18.23v.19c0 .13-.08.23-.18.23h-1.48c-.1 0-.18-.1-.18-.23v-.19c0-.13.08-.23.18-.23h1.48zM21.7 27.484h-.12s-.19.02-.28-.05c-.14-.1-.34-.55-.82-.55s-.67.44-.82.55c-.1.07-.28.05-.28.05h-.13s-.32.02-.43-.07c-.17-.14-.32-.49-.68-.47-.3.01-.5.25-.57.63-.04.22-.33.33-.33.91s.3.7.33.91c.06.38.26.62.57.63.36.01.51-.33.68-.47.11-.09.43-.07.43-.07h.13s.19-.02.28.05c.14.1.34.55.82.55s.67-.44.82-.55c.1-.07.28-.05.28-.05h.12s.32-.02.43.07c.23.2.43.58.75.47.33-.12.54-.34.48-.72-.05-.34-.25-.43-.25-.82s.19-.49.25-.82c.06-.38-.15-.6-.48-.72-.32-.12-.51.26-.75.47-.11.1-.43.07-.43.07zm.88.67c.1 0 .18.1.18.23v.19c0 .13-.08.23-.18.23H21.1c-.1 0-.18-.1-.18-.23v-.19c0-.13.08-.23.18-.23h1.48zm-2.01 0c.08 0 .15.09.15.19v.27c0 .11-.07.19-.15.19h-.33c-.08 0-.15-.09-.15-.19v-.27c0-.11.07-.19.15-.19h.33zm-.87 0c.1 0 .18.1.18.23v.19c0 .13-.08.23-.18.23h-1.48c-.1 0-.18-.1-.18-.23v-.19c0-.13.08-.23.18-.23h1.48z"/><path class="st3" d="M7.08 27.484h-.12s-.19.02-.28-.05c-.14-.1-.34-.55-.82-.55s-.67.44-.82.55c-.1.07-.28.05-.28.05h-.13s-.32.02-.43-.07c-.17-.14-.32-.49-.68-.47-.3.01-.5.25-.56.63-.04.22-.33.33-.33.91s.3.7.33.91c.06.38.26.62.56.63.36.01.51-.33.68-.47.11-.09.43-.07.43-.07h.13s.19-.02.28.05c.14.1.34.55.82.55s.67-.44.82-.55c.1-.07.28-.05.28-.05h.12s.32-.02.43.07c.23.2.43.58.75.47.33-.12.54-.34.48-.72-.05-.34-.25-.43-.25-.82s.19-.49.25-.82c.06-.38-.15-.6-.48-.72-.32-.12-.51.26-.75.47-.11.1-.43.07-.43.07zm.88.67c.1 0 .18.1.18.23v.19c0 .13-.08.23-.18.23H6.48c-.1 0-.18-.1-.18-.23v-.19c0-.13.08-.23.18-.23h1.48zm-2.01 0c.08 0 .15.09.15.19v.27c0 .11-.07.19-.15.19h-.33c-.08 0-.15-.09-.15-.19v-.27c0-.11.07-.19.15-.19h.33zm-.87 0c.1 0 .18.1.18.23v.19c0 .13-.08.23-.18.23H3.6c-.1 0-.18-.1-.18-.23v-.19c0-.13.08-.23.18-.23h1.48z"/><path class="st1" d="M14.39 32.294h-.12s-.19.02-.28-.05c-.14-.1-.34-.55-.82-.55s-.67.44-.82.55c-.1.07-.28.05-.28.05h-.13s-.32.02-.43-.07c-.17-.14-.32-.49-.68-.47-.3.01-.5.25-.57.63-.04.22-.33.33-.33.91s.3.7.33.91c.06.38.26.62.57.63.36.01.51-.33.68-.47.11-.09.43-.07.43-.07h.13s.19-.02.28.05c.14.1.34.55.82.55s.67-.44.82-.55c.1-.07.28-.05.28-.05h.12s.32-.02.43.07c.23.2.43.58.75.47.33-.12.54-.34.48-.72-.05-.34-.25-.43-.25-.82s.19-.49.25-.82c.06-.38-.15-.6-.48-.72-.32-.12-.51.26-.75.47-.11.1-.43.07-.43.07zm.88.67c.1 0 .18.1.18.23v.19c0 .13-.08.23-.18.23h-1.48c-.1 0-.18-.1-.18-.23v-.19c0-.13.08-.23.18-.23h1.48zm-2.01 0c.08 0 .15.09.15.19v.27c0 .11-.07.19-.15.19h-.33c-.08 0-.15-.09-.15-.19v-.27c0-.11.07-.19.15-.19h.33zm-.87 0c.1 0 .18.1.18.23v.19c0 .13-.08.23-.18.23h-1.48c-.1 0-.18-.1-.18-.23v-.19c0-.13.08-.23.18-.23h1.48zM14.39 22.674h-.12s-.19.02-.28-.05c-.14-.1-.34-.55-.82-.55s-.67.44-.82.55c-.1.07-.28.05-.28.05h-.13s-.32.02-.43-.07c-.17-.14-.32-.49-.68-.47-.3.01-.5.25-.57.63-.04.22-.33.33-.33.91s.3.7.33.91c.06.38.26.62.57.63.36.01.51-.33.68-.47.11-.09.43-.07.43-.07h.13s.19-.02.28.05c.14.1.34.55.82.55s.67-.44.82-.55c.1-.07.28-.05.28-.05h.12s.32-.02.43.07c.23.2.43.58.75.47.33-.12.54-.34.48-.72-.05-.34-.25-.43-.25-.82s.19-.49.25-.82c.06-.38-.15-.6-.48-.72-.32-.12-.51.26-.75.47-.11.1-.43.07-.43.07zm.88.67c.1 0 .18.1.18.23v.19c0 .13-.08.23-.18.23h-1.48c-.1 0-.18-.1-.18-.23v-.19c0-.13.08-.23.18-.23h1.48zm-2.01 0c.08 0 .15.09.15.19v.27c0 .11-.07.19-.15.19h-.33c-.08 0-.15-.09-.15-.19v-.27c0-.11.07-.19.15-.19h.33zm-.87 0c.1 0 .18.1.18.23v.19c0 .13-.08.23-.18.23h-1.48c-.1 0-.18-.1-.18-.23v-.19c0-.13.08-.23.18-.23h1.48zM14.39 27.484h-.12s-.19.02-.28-.05c-.14-.1-.34-.55-.82-.55s-.67.44-.82.55c-.1.07-.28.05-.28.05h-.13s-.32.02-.43-.07c-.17-.14-.32-.49-.68-.47-.3.01-.5.25-.57.63-.04.22-.33.33-.33.91s.3.7.33.91c.06.38.26.62.57.63.36.01.51-.33.68-.47.11-.09.43-.07.43-.07h.13s.19-.02.28.05c.14.1.34.55.82.55s.67-.44.82-.55c.1-.07.28-.05.28-.05h.12s.32-.02.43.07c.23.2.43.58.75.47.33-.12.54-.34.48-.72-.05-.34-.25-.43-.25-.82s.19-.49.25-.82c.06-.38-.15-.6-.48-.72-.32-.12-.51.26-.75.47-.11.1-.43.07-.43.07zm.88.67c.1 0 .18.1.18.23v.19c0 .13-.08.23-.18.23h-1.48c-.1 0-.18-.1-.18-.23v-.19c0-.13.08-.23.18-.23h1.48zm-2.01 0c.08 0 .15.09.15.19v.27c0 .11-.07.19-.15.19h-.33c-.08 0-.15-.09-.15-.19v-.27c0-.11.07-.19.15-.19h.33zm-.87 0c.1 0 .18.1.18.23v.19c0 .13-.08.23-.18.23h-1.48c-.1 0-.18-.1-.18-.23v-.19c0-.13.08-.23.18-.23h1.48z"/><g><rect class="st0" x=".13" y=".129" width="25.75" height="18.75" rx="1.88" ry="1.88"/><path class="st2" d="M.25 1.999c0-.96.79-1.75 1.75-1.75h22c.96 0 1.75.79 1.75 1.75v15c0 .96-.79 1.75-1.75 1.75H2c-.96 0-1.75-.79-1.75-1.75v-15m-.25 0v15c0 1.1.9 2 2 2h22c1.1 0 2-.9 2-2v-15c0-1.1-.9-2-2-2H2c-1.1 0-2 .9-2 2z"/></g><g><path class="st1" d="M21.7 13.309h-.12s-.19.02-.28-.05c-.14-.1-.34-.55-.82-.55s-.67.44-.82.55c-.1.07-.28.05-.28.05h-.13s-.32.02-.43-.07c-.17-.14-.32-.49-.68-.47-.3.01-.5.25-.57.63-.04.22-.33.33-.33.91s.3.7.33.91c.06.38.26.62.57.63.36.01.51-.33.68-.47.11-.09.43-.07.43-.07h.13s.19-.02.28.05c.14.1.34.55.82.55s.67-.44.82-.55c.1-.07.28-.05.28-.05h.12s.32-.02.43.07c.23.2.43.58.75.47.33-.12.54-.34.48-.72-.05-.34-.25-.43-.25-.82s.19-.49.25-.82c.06-.38-.15-.6-.48-.72-.32-.12-.51.26-.75.47-.11.1-.43.07-.43.07zm.88.67c.1 0 .18.1.18.23v.19c0 .13-.08.23-.18.23H21.1c-.1 0-.18-.1-.18-.23v-.19c0-.13.08-.23.18-.23h1.48zm-2.01 0c.08 0 .15.09.15.19v.27c0 .11-.07.19-.15.19h-.33c-.08 0-.15-.09-.15-.19v-.27c0-.11.07-.19.15-.19h.33zm-.87 0c.1 0 .18.1.18.23v.19c0 .13-.08.23-.18.23h-1.48c-.1 0-.18-.1-.18-.23v-.19c0-.13.08-.23.18-.23h1.48zM21.7 3.689h-.12s-.19.02-.28-.05c-.14-.1-.34-.55-.82-.55s-.67.44-.82.55c-.1.07-.28.05-.28.05h-.13s-.32.02-.43-.07c-.17-.14-.32-.49-.68-.47-.3.01-.5.25-.57.63-.04.22-.33.33-.33.91s.3.7.33.91c.06.38.26.62.57.63.36.01.51-.33.68-.47.11-.09.43-.07.43-.07h.13s.19-.02.28.05c.14.1.34.55.82.55s.67-.44.82-.55c.1-.07.28-.05.28-.05h.12s.32-.02.43.07c.23.2.43.58.75.47.33-.12.54-.34.48-.72-.05-.34-.25-.43-.25-.82s.19-.49.25-.82c.06-.38-.15-.6-.48-.72-.32-.12-.51.26-.75.47-.11.1-.43.07-.43.07zm.88.67c.1 0 .18.1.18.23v.19c0 .13-.08.23-.18.23H21.1c-.1 0-.18-.1-.18-.23v-.19c0-.13.08-.23.18-.23h1.48zm-2.01 0c.08 0 .15.09.15.19v.27c0 .11-.07.19-.15.19h-.33c-.08 0-.15-.09-.15-.19v-.27c0-.11.07-.19.15-.19h.33zm-.87 0c.1 0 .18.1.18.23v.19c0 .13-.08.23-.18.23h-1.48c-.1 0-.18-.1-.18-.23v-.19c0-.13.08-.23.18-.23h1.48zM21.7 8.499h-.12s-.19.02-.28-.05c-.14-.1-.34-.55-.82-.55s-.67.44-.82.55c-.1.07-.28.05-.28.05h-.13s-.32.02-.43-.07c-.17-.14-.32-.49-.68-.47-.3.01-.5.25-.57.63-.04.22-.33.33-.33.91s.3.7.33.91c.06.38.26.62.57.63.36.01.51-.33.68-.47.11-.09.43-.07.43-.07h.13s.19-.02.28.05c.14.1.34.55.82.55s.67-.44.82-.55c.1-.07.28-.05.28-.05h.12s.32-.02.43.07c.23.2.43.58.75.47.33-.12.54-.34.48-.72-.05-.34-.25-.43-.25-.82s.19-.49.25-.82c.06-.38-.15-.6-.48-.72-.32-.12-.51.26-.75.47-.11.1-.43.07-.43.07zm.88.67c.1 0 .18.1.18.23v.19c0 .13-.08.23-.18.23H21.1c-.1 0-.18-.1-.18-.23v-.19c0-.13.08-.23.18-.23h1.48zm-2.01 0c.08 0 .15.09.15.19v.27c0 .11-.07.19-.15.19h-.33c-.08 0-.15-.09-.15-.19v-.27c0-.11.07-.19.15-.19h.33zm-.87 0c.1 0 .18.1.18.23v.19c0 .13-.08.23-.18.23h-1.48c-.1 0-.18-.1-.18-.23v-.19c0-.13.08-.23.18-.23h1.48z"/><path class="st3" d="M7.08 8.499h-.12s-.19.02-.28-.05c-.14-.1-.34-.55-.82-.55s-.67.44-.82.55c-.1.07-.28.05-.28.05h-.13s-.32.02-.43-.07c-.17-.14-.32-.49-.68-.47-.3.01-.5.25-.56.63-.04.22-.33.33-.33.91s.3.7.33.91c.06.38.26.62.56.63.36.01.51-.33.68-.47.11-.09.43-.07.43-.07h.13s.19-.02.28.05c.14.1.34.55.82.55s.67-.44.82-.55c.1-.07.28-.05.28-.05h.12s.32-.02.43.07c.23.2.43.58.75.47.33-.12.54-.34.48-.72-.05-.34-.25-.43-.25-.82s.19-.49.25-.82c.06-.38-.15-.6-.48-.72-.32-.12-.51.26-.75.47-.11.1-.43.07-.43.07zm.88.67c.1 0 .18.1.18.23v.19c0 .13-.08.23-.18.23H6.48c-.1 0-.18-.1-.18-.23v-.19c0-.13.08-.23.18-.23h1.48zm-2.01 0c.08 0 .15.09.15.19v.27c0 .11-.07.19-.15.19h-.33c-.08 0-.15-.09-.15-.19v-.27c0-.11.07-.19.15-.19h.33zm-.87 0c.1 0 .18.1.18.23v.19c0 .13-.08.23-.18.23H3.6c-.1 0-.18-.1-.18-.23v-.19c0-.13.08-.23.18-.23h1.48z"/><path class="st1" d="M14.39 13.309h-.12s-.19.02-.28-.05c-.14-.1-.34-.55-.82-.55s-.67.44-.82.55c-.1.07-.28.05-.28.05h-.13s-.32.02-.43-.07c-.17-.14-.32-.49-.68-.47-.3.01-.5.25-.57.63-.04.22-.33.33-.33.91s.3.7.33.91c.06.38.26.62.57.63.36.01.51-.33.68-.47.11-.09.43-.07.43-.07h.13s.19-.02.28.05c.14.1.34.55.82.55s.67-.44.82-.55c.1-.07.28-.05.28-.05h.12s.32-.02.43.07c.23.2.43.58.75.47.33-.12.54-.34.48-.72-.05-.34-.25-.43-.25-.82s.19-.49.25-.82c.06-.38-.15-.6-.48-.72-.32-.12-.51.26-.75.47-.11.1-.43.07-.43.07zm.88.67c.1 0 .18.1.18.23v.19c0 .13-.08.23-.18.23h-1.48c-.1 0-.18-.1-.18-.23v-.19c0-.13.08-.23.18-.23h1.48zm-2.01 0c.08 0 .15.09.15.19v.27c0 .11-.07.19-.15.19h-.33c-.08 0-.15-.09-.15-.19v-.27c0-.11.07-.19.15-.19h.33zm-.87 0c.1 0 .18.1.18.23v.19c0 .13-.08.23-.18.23h-1.48c-.1 0-.18-.1-.18-.23v-.19c0-.13.08-.23.18-.23h1.48zM14.39 3.689h-.12s-.19.02-.28-.05c-.14-.1-.34-.55-.82-.55s-.67.44-.82.55c-.1.07-.28.05-.28.05h-.13s-.32.02-.43-.07c-.17-.14-.32-.49-.68-.47-.3.01-.5.25-.57.63-.04.22-.33.33-.33.91s.3.7.33.91c.06.38.26.62.57.63.36.01.51-.33.68-.47.11-.09.43-.07.43-.07h.13s.19-.02.28.05c.14.1.34.55.82.55s.67-.44.82-.55c.1-.07.28-.05.28-.05h.12s.32-.02.43.07c.23.2.43.58.75.47.33-.12.54-.34.48-.72-.05-.34-.25-.43-.25-.82s.19-.49.25-.82c.06-.38-.15-.6-.48-.72-.32-.12-.51.26-.75.47-.11.1-.43.07-.43.07zm.88.67c.1 0 .18.1.18.23v.19c0 .13-.08.23-.18.23h-1.48c-.1 0-.18-.1-.18-.23v-.19c0-.13.08-.23.18-.23h1.48zm-2.01 0c.08 0 .15.09.15.19v.27c0 .11-.07.19-.15.19h-.33c-.08 0-.15-.09-.15-.19v-.27c0-.11.07-.19.15-.19h.33zm-.87 0c.1 0 .18.1.18.23v.19c0 .13-.08.23-.18.23h-1.48c-.1 0-.18-.1-.18-.23v-.19c0-.13.08-.23.18-.23h1.48zM14.39 8.499h-.12s-.19.02-.28-.05c-.14-.1-.34-.55-.82-.55s-.67.44-.82.55c-.1.07-.28.05-.28.05h-.13s-.32.02-.43-.07c-.17-.14-.32-.49-.68-.47-.3.01-.5.25-.57.63-.04.22-.33.33-.33.91s.3.7.33.91c.06.38.26.62.57.63.36.01.51-.33.68-.47.11-.09.43-.07.43-.07h.13s.19-.02.28.05c.14.1.34.55.82.55s.67-.44.82-.55c.1-.07.28-.05.28-.05h.12s.32-.02.43.07c.23.2.43.58.75.47.33-.12.54-.34.48-.72-.05-.34-.25-.43-.25-.82s.19-.49.25-.82c.06-.38-.15-.6-.48-.72-.32-.12-.51.26-.75.47-.11.1-.43.07-.43.07zm.88.67c.1 0 .18.1.18.23v.19c0 .13-.08.23-.18.23h-1.48c-.1 0-.18-.1-.18-.23v-.19c0-.13.08-.23.18-.23h1.48zm-2.01 0c.08 0 .15.09.15.19v.27c0 .11-.07.19-.15.19h-.33c-.08 0-.15-.09-.15-.19v-.27c0-.11.07-.19.15-.19h.33zm-.87 0c.1 0 .18.1.18.23v.19c0 .13-.08.23-.18.23h-1.48c-.1 0-.18-.1-.18-.23v-.19c0-.13.08-.23.18-.23h1.48z"/></g></svg>