<svg id="_图层_1" xmlns="http://www.w3.org/2000/svg" version="1.1" viewBox="0 0 26 37.984"><defs><style>.st0{fill:#f5f6f7}.st1{fill:#231815}.st2{fill:#93989c}.st3{fill:#881c21}</style></defs><rect class="st0" x=".13" y="19.114" width="25.75" height="18.75" rx="1.88" ry="1.88"/><path class="st2" d="M.25 20.984c0-.96.79-1.75 1.75-1.75h22c.96 0 1.75.79 1.75 1.75v15c0 .96-.79 1.75-1.75 1.75H2c-.96 0-1.75-.79-1.75-1.75v-15m-.25 0v15c0 1.1.9 2 2 2h22c1.1 0 2-.9 2-2v-15c0-1.1-.9-2-2-2H2c-1.1 0-2 .9-2 2z"/><path class="st1" d="M7.14 28.234c.55 0 .88-.05.97-.14.24-.17.47-.47.7-.92.23-.44.34-.82.34-1.13 0-.36-.08-.66-.25-.9-.14-.02-.37-.04-.68-.04-.24 0-.58.02-1.03.07-.44.05-.79.07-1.03.07 0-.19.35-.43 1.06-.7.71-.28 1.07-.44 1.1-.49.1-.34.25-.66.47-.97s.46-.47.72-.47c.38 0 .71.31.99.94.28.62.41 1.24.41 1.83 0 1.1-.25 1.98-.76 2.63-.55.7-1.15 1.04-1.8 1.04-1.01 0-1.78-.07-2.32-.2s-.83-.2-.88-.2-.17.02-.36.07c0 .17.04.28.13.32.08.05.34.1.77.14.77.07 1.62.8 2.55 2.18.94 1.38 1.4 2.34 1.4 2.9 0 .12-.05.23-.14.32-.07-.05-.22-.3-.43-.76-.22-.46-.56-1-1.03-1.64a6.358 6.358 0 0 0-1.71-1.6c-.1.05-.23.2-.41.45s-.34.38-.49.38c-.1 0-.21-.12-.34-.36s-.28-.4-.45-.47c-.17 0-.39.03-.67.09s-.47.09-.59.09c-.31 0-.53-.08-.65-.25 0-.81.29-1.37.86-1.65 0-.02 0-.07.02-.14.01-.07.02-.13.02-.18-.34-.17-.5-.28-.5-.32 0-.07.01-.15.04-.23.02-.08.04-.16.04-.23 0-.26-.16-.65-.47-1.17s-.47-.86-.47-1.03c0-.31.29-.47.86-.47.19 0 .47.23.83.68.05.02.05.11.02.25-.04.14-.05.24-.05.29 0 .55.08 1.03.25 1.44 1.18.31 2.16.47 2.95.47l.01.01z"/><path class="st3" d="M19.76 29.964c0 .1.06.29.18.58l.29.14c.19.12.34.23.43.32-.22.36-.91.54-2.09.54-.91 0-1.57-.05-1.98-.14-.14-.89-.36-1.86-.65-2.93-.29-1.07-.43-1.73-.43-2 0-.5.17-.76.5-.76l.94.25c.62.17 1.27.25 1.94.25.38 0 .79-.02 1.22-.07.02-.46.1-.95.22-1.48s.36-1.07.72-1.64c.36-.56.78-.85 1.26-.85.41 0 .72.16.94.47.22.31.32.71.32 1.19 0 .12.08.39.23.81.16.42.23.74.23.95 0 .31-.16.88-.49 1.71-.32.83-.59 1.41-.81 1.74.05.12.13.25.23.38.11.13.16.23.16.31 0 .12-.1.5-.29 1.15.02 0 .1 0 .22.02.12.01.21.02.27.04.06.01.13.02.22.04.08.01.15.04.2.09.05.05.07.11.07.18 0 .07-.05.15-.14.23-.1.08-.22.16-.38.22s-.31.12-.45.18-.3.11-.47.16-.28.08-.32.11v.43c0 .46-.07.88-.22 1.26-.14.38-.35.58-.61.58-.02 0-.06 0-.11-.02a.784.784 0 0 0-.14-.02c0-.22.02-.52.07-.9s.07-.68.07-.9v-.14c-.19.02-.46.07-.81.14-.35.07-.64.13-.86.18-.23.05-.4.07-.52.07-.05 0-.12-.05-.22-.14.05-.29.19-.5.41-.63.23-.13.55-.25.95-.34.41-.1.74-.22 1.01-.36 0-.34-.1-.79-.29-1.37-.07 0-.24 0-.5-.02-.26-.01-.44-.02-.54-.02l.02.01zm-4.93-4.5c0 .72.21 1.79.63 3.2.42 1.42.63 2.35.63 2.81 0 1.44-.26 2.37-.79 2.81-.26-.43-.4-.76-.4-.97 0-.24.06-.6.18-1.1.12-.49.18-.9.18-1.24 0-.48-.05-.8-.14-.97-.1-.17-.31-.25-.65-.25-.07 0-.13.07-.16.2-.04.13-.09.22-.16.27a.42.42 0 0 1-.22-.05c-.05-.04-.11-.1-.2-.18-.08-.08-.17-.15-.27-.2-.07-.05-.22-.14-.45-.27s-.38-.24-.47-.32a.439.439 0 0 1-.13-.31c0-.17.12-.25.36-.25.19 0 .39.02.59.05.2.04.43.1.68.18s.45.14.59.16c.12-.05.18-.13.18-.25s-.28-.35-.83-.63-.95-.41-1.19-.41c-.14 0-.28.08-.41.23-.13.16-.23.26-.31.31-.43-.19-.77-.61-1.01-1.26.17-.48.61-.72 1.33-.72.24 0 .53.1.86.31.34.2.65.32.94.34-.02-.19-.07-.46-.14-.79a9.321 9.321 0 0 1-.21-2.09c0-.77.08-1.21.25-1.33.34.17.59.43.76.79-.02.31-.04.96-.04 1.94l.02-.01zm7.01 5.76c.24-.1.43-.18.58-.25-.07-.34-.2-.72-.4-1.15-.14.12-.34.18-.58.18l.4 1.22zm-4.75-.54h.65v-.07l.04-.07-.11-.65c-.19 0-.43-.02-.72-.07l.14.86zm1.19-.72c.02.14.05.3.07.47 0 .14.01.22.04.23.02.01.07.02.14.02h.14s.13 0 .25-.02c.12-.01.2-.02.25-.02 0-.12-.02-.35-.07-.68h-.83.01zm-1.51-.9c.12 0 .25.02.4.05.14.04.26.05.36.05-.05-.24-.1-.52-.16-.83-.06-.31-.1-.54-.13-.68-.12 0-.26 0-.43-.02-.17-.01-.3-.02-.4-.02.05.22.11.47.2.76.08.29.14.52.16.68v.01zm1.37.11h.79c-.02-.34-.13-.81-.32-1.44-.36 0-.64-.01-.83-.04.17.53.29 1.02.36 1.47v.01zm1.44-.07h.97c-.1-.53-.23-.99-.4-1.4-.41 0-.72.01-.94.04.05.12.11.33.18.63s.13.55.18.74l.01-.01zm1.62-.04c.38 0 .58-.06.58-.18s-.02-.2-.05-.31c-.04-.11-.09-.25-.16-.43s-.13-.35-.18-.52c-.26.05-.46.06-.58.04.02.14.16.61.4 1.4h-.01zm-.43-3.02s.16-.02.32-.05c.17-.04.31-.05.43-.05s.25.04.4.11c.31.46.47.9.47 1.33-.02.02-.1.06-.22.11s-.2.08-.25.11c.05.14.13.31.25.49s.2.33.25.45c.14-.1.29-.34.45-.72s.23-.68.23-.9c0-.14-.03-.28-.09-.41s-.15-.28-.27-.43c-.12-.16-.2-.28-.25-.38-.05-.12-.08-.35-.11-.7-.02-.35-.09-.61-.2-.79s-.29-.27-.56-.27c-.19 0-.38.25-.56.76-.18.5-.28.96-.31 1.37l.02-.03z"/><rect class="st0" x=".13" y=".129" width="25.75" height="18.75" rx="1.88" ry="1.88"/><path class="st2" d="M.25 1.999c0-.96.79-1.75 1.75-1.75h22c.96 0 1.75.79 1.75 1.75v15c0 .96-.79 1.75-1.75 1.75H2c-.96 0-1.75-.79-1.75-1.75v-15m-.25 0v15c0 1.1.9 2 2 2h22c1.1 0 2-.9 2-2v-15c0-1.1-.9-2-2-2H2c-1.1 0-2 .9-2 2z"/><path class="st1" d="M7.14 9.249c.55 0 .88-.05.97-.14.24-.17.47-.47.7-.92.23-.44.34-.82.34-1.13 0-.36-.08-.66-.25-.9-.14-.02-.37-.04-.68-.04-.24 0-.58.02-1.03.07-.44.05-.79.07-1.03.07 0-.19.35-.43 1.06-.7.71-.28 1.07-.44 1.1-.49.1-.34.25-.66.47-.97s.46-.47.72-.47c.38 0 .71.31.99.94.28.62.41 1.24.41 1.83 0 1.1-.25 1.98-.76 2.63-.55.7-1.15 1.04-1.8 1.04-1.01 0-1.78-.07-2.32-.2s-.83-.2-.88-.2-.17.02-.36.07c0 .17.04.28.13.32.08.05.34.1.77.14.77.07 1.62.8 2.55 2.18.94 1.38 1.4 2.34 1.4 2.9 0 .12-.05.23-.14.32-.07-.05-.22-.3-.43-.76-.22-.46-.56-1-1.03-1.64a6.358 6.358 0 0 0-1.71-1.6c-.1.05-.23.2-.41.45s-.34.38-.49.38c-.1 0-.21-.12-.34-.36s-.28-.4-.45-.47c-.17 0-.39.03-.67.09s-.47.09-.59.09c-.31 0-.53-.08-.65-.25 0-.81.29-1.37.86-1.65 0-.02 0-.07.02-.14.01-.07.02-.13.02-.18-.34-.17-.5-.28-.5-.32 0-.07.01-.15.04-.23.02-.08.04-.16.04-.23 0-.26-.16-.65-.47-1.17s-.47-.86-.47-1.03c0-.31.29-.47.86-.47.19 0 .47.23.83.68.05.02.05.11.02.25-.04.14-.05.24-.05.29 0 .55.08 1.03.25 1.44 1.18.31 2.16.47 2.95.47l.01.01z"/><path class="st3" d="M19.76 10.979c0 .1.06.29.18.58l.29.14c.19.12.34.23.43.32-.22.36-.91.54-2.09.54-.91 0-1.57-.05-1.98-.14-.14-.89-.36-1.86-.65-2.93-.29-1.07-.43-1.73-.43-2 0-.5.17-.76.5-.76l.94.25c.62.17 1.27.25 1.94.25.38 0 .79-.02 1.22-.07.02-.46.1-.95.22-1.48s.36-1.07.72-1.64c.36-.56.78-.85 1.26-.85.41 0 .72.16.94.47.22.31.32.71.32 1.19 0 .12.08.39.23.81.16.42.23.74.23.95 0 .31-.16.88-.49 1.71-.32.83-.59 1.41-.81 1.74.05.12.13.25.23.38.11.13.16.23.16.31 0 .12-.1.5-.29 1.15.02 0 .1 0 .22.02.12.01.21.02.27.04.06.01.13.02.22.04.08.01.15.04.2.09.05.05.07.11.07.18 0 .07-.05.15-.14.23-.1.08-.22.16-.38.22s-.31.12-.45.18-.3.11-.47.16-.28.08-.32.11v.43c0 .46-.07.88-.22 1.26-.14.38-.35.58-.61.58-.02 0-.06 0-.11-.02a.784.784 0 0 0-.14-.02c0-.22.02-.52.07-.9s.07-.68.07-.9v-.14c-.19.02-.46.07-.81.14-.35.07-.64.13-.86.18-.23.05-.4.07-.52.07-.05 0-.12-.05-.22-.14.05-.29.19-.5.41-.63.23-.13.55-.25.95-.34.41-.1.74-.22 1.01-.36 0-.34-.1-.79-.29-1.37-.07 0-.24 0-.5-.02-.26-.01-.44-.02-.54-.02l.02.01zm-4.93-4.5c0 .72.21 1.79.63 3.2.42 1.42.63 2.35.63 2.81 0 1.44-.26 2.37-.79 2.81-.26-.43-.4-.76-.4-.97 0-.24.06-.6.18-1.1.12-.49.18-.9.18-1.24 0-.48-.05-.8-.14-.97-.1-.17-.31-.25-.65-.25-.07 0-.13.07-.16.2-.04.13-.09.22-.16.27a.42.42 0 0 1-.22-.05c-.05-.04-.11-.1-.2-.18-.08-.08-.17-.15-.27-.2-.07-.05-.22-.14-.45-.27s-.38-.24-.47-.32a.439.439 0 0 1-.13-.31c0-.17.12-.25.36-.25.19 0 .39.02.59.05.2.04.43.1.68.18s.45.14.59.16c.12-.05.18-.13.18-.25s-.28-.35-.83-.63-.95-.41-1.19-.41c-.14 0-.28.08-.41.23-.13.16-.23.26-.31.31-.43-.19-.77-.61-1.01-1.26.17-.48.61-.72 1.33-.72.24 0 .53.1.86.31.34.2.65.32.94.34-.02-.19-.07-.46-.14-.79a9.321 9.321 0 0 1-.21-2.09c0-.77.08-1.21.25-1.33.34.17.59.43.76.79-.02.31-.04.96-.04 1.94l.02-.01zm7.01 5.76c.24-.1.43-.18.58-.25-.07-.34-.2-.72-.4-1.15-.14.12-.34.18-.58.18l.4 1.22zm-4.75-.54h.65v-.07l.04-.07-.11-.65c-.19 0-.43-.02-.72-.07l.14.86zm1.19-.72c.02.14.05.3.07.47 0 .14.01.22.04.23.02.01.07.02.14.02h.14s.13 0 .25-.02c.12-.01.2-.02.25-.02 0-.12-.02-.35-.07-.68h-.83.01zm-1.51-.9c.12 0 .25.02.4.05.14.04.26.05.36.05-.05-.24-.1-.52-.16-.83-.06-.31-.1-.54-.13-.68-.12 0-.26 0-.43-.02-.17-.01-.3-.02-.4-.02.05.22.11.47.2.76.08.29.14.52.16.68v.01zm1.37.11h.79c-.02-.34-.13-.81-.32-1.44-.36 0-.64-.01-.83-.04.17.53.29 1.02.36 1.47v.01zm1.44-.07h.97c-.1-.53-.23-.99-.4-1.4-.41 0-.72.01-.94.04.05.12.11.33.18.63s.13.55.18.74l.01-.01zm1.62-.04c.38 0 .58-.06.58-.18s-.02-.2-.05-.31c-.04-.11-.09-.25-.16-.43s-.13-.35-.18-.52c-.26.05-.46.06-.58.04.02.14.16.61.4 1.4h-.01zm-.43-3.02s.16-.02.32-.05c.17-.04.31-.05.43-.05s.25.04.4.11c.31.46.47.9.47 1.33-.02.02-.1.06-.22.11s-.2.08-.25.11c.05.14.13.31.25.49s.2.33.25.45c.14-.1.29-.34.45-.72s.23-.68.23-.9c0-.14-.03-.28-.09-.41s-.15-.28-.27-.43c-.12-.16-.2-.28-.25-.38-.05-.12-.08-.35-.11-.7-.02-.35-.09-.61-.2-.79s-.29-.27-.56-.27c-.19 0-.38.25-.56.76-.18.5-.28.96-.31 1.37l.02-.03z"/></svg>