<svg id="_图层_1" xmlns="http://www.w3.org/2000/svg" version="1.1" viewBox="0 0 26 37.984"><defs><style>.st0{fill:#f5f6f7}.st1{fill:#005529}.st2{fill:#93989c}</style></defs><rect class="st0" x=".13" y="19.114" width="25.75" height="18.75" rx="1.88" ry="1.88"/><path class="st2" d="M.25 20.984c0-.96.79-1.75 1.75-1.75h22c.96 0 1.75.79 1.75 1.75v15c0 .96-.79 1.75-1.75 1.75H2c-.96 0-1.75-.79-1.75-1.75v-15m-.25 0v15c0 1.1.9 2 2 2h22c1.1 0 2-.9 2-2v-15c0-1.1-.9-2-2-2H2c-1.1 0-2 .9-2 2z"/><path class="st1" d="M10.03 22.154H8.77s-.23.02-.34-.06c-.17-.11-.4-.61-.98-.61s-.81.49-.98.61c-.12.08-.34.06-.34.06H5.06s-.38.02-.52-.08c-.2-.16-.38-.54-.82-.53-.36.01-.61.28-.68.7-.04.24-.4.36-.4 1.02s.36.78.4 1.02c.07.42.32.69.68.7.43.02.61-.37.82-.53.14-.11.52-.08.52-.08h1.07s.23-.02.34.06c.17.11.4.61.98.61s.81-.49.98-.61c.12-.08.34-.06.34-.06h.46c.07.07.12.18.04.34l-.49.59s-.13.18-.36.22c-.2.04-.77-.41-1.18 0-.36.36-.07.92-.05 1.07.03.18.03.34-.15.51-.05.05-.2.07-.29.03-.11-.06-.2-.34-.7-.34-.38 0-.55.6-.55.91 0 .28.13.24.13.77s-.13.49-.13.77c0 .31.17.91.55.91.5 0 .59-.27.7-.34.09-.05.24-.03.29.03.17.18.18.34.15.51-.02.15-.32.71.05 1.07.41.41.98-.04 1.18 0 .23.04.36.22.36.22l.49.59c.08.16.03.27-.04.34h-.46s-.23.02-.34-.06c-.17-.11-.4-.61-.98-.61s-.81.49-.98.61c-.12.08-.34.06-.34.06H5.06s-.38.02-.52-.08c-.2-.16-.38-.54-.82-.53-.36.01-.61.28-.68.7-.04.24-.4.36-.4 1.02s.36.78.4 1.02c.07.42.32.69.68.7.43.02.61-.37.82-.53.14-.11.52-.08.52-.08h1.07s.23-.02.34.06c.17.11.4.61.98.61s.81-.49.98-.61c.12-.08.34-.06.34-.06h1.26s.38-.03.52.08c.28.23.52.65.9.52.4-.14.65-.38.58-.8-.07-.38-.3-.48-.3-.92s.23-.54.3-.92c.07-.42-.18-.66-.58-.8-.03-.01-.06 0-.09 0v-.02s-.49.04-.75-.22l-.88-1.03s-.06-.07-.11-.2c-.12-.3.17-.52.19-.88.04-.86-.82-.69-1.08-.62-.45.11-.65-.3-.65-.52s.2-.67.65-.52c.26.08 1.12.23 1.08-.62-.02-.36-.31-.58-.19-.88.05-.13.11-.2.11-.2l.88-1.03c.25-.26.76-.22.76-.22v-.02h.08c.4-.14.65-.38.58-.8-.07-.38-.3-.48-.3-.92s.23-.54.3-.92c.07-.42-.18-.66-.58-.8-.38-.13-.62.29-.9.52-.13.11-.52.08-.52.08v.02zm-6.32 12.05c-.35-.04-.5-.22-.5-.51s.16-.47.5-.51c.34-.04.47.09.56.13s.27.04.27.04h1.82c.15 0 .26.09.26.19v.27c0 .1-.12.19-.26.19H4.54s-.17 0-.27.04c-.09.04-.22.17-.56.13v.03zm7.34-.83c.12 0 .22.1.22.22v.22c0 .12-.1.22-.22.22H8.5c-.12 0-.22-.1-.22-.22v-.22c0-.12.1-.22.22-.22h2.55zm-3.26-.36c.13 0 .24.11.24.24v.9c0 .13-.11.24-.24.24h-.02c-.13 0-.24-.11-.24-.24v-.9c0-.13.11-.24.24-.24h.02zm-.67 0c.13 0 .24.11.24.24v.9c0 .13-.11.24-.24.24H7.1c-.13 0-.24-.11-.24-.24v-.9c0-.13.11-.24.24-.24h.02zm2.03-2.24 1.39 1.63c.08.09.07.22-.02.3l-.03.02c-.09.08-.22.07-.29-.02l-1.39-1.63a.209.209 0 0 1 .02-.3l.03-.02c.09-.08.22-.07.29.02zm-.21-.92v.01c.1.1.09.26-.02.35l-.66.58a.23.23 0 0 1-.34-.03v-.01c-.1-.1-.09-.26.02-.35l.66-.58c.1-.09.26-.08.34.03zm-.95-2.47-.96 1.11.96 1.11c.06.07.06.18-.01.25l-.08.08c-.07.06-.18.06-.24-.01l-.99-1.14s-.02-.03-.03-.03h-.62c-.07 0-.12-.07-.12-.14v-.2c0-.07.05-.14.12-.14h.62s.01-.02.03-.03l.99-1.14c.06-.07.17-.08.24-.02l.08.08c.07.06.08.17.01.25v-.03zm.93-.61c.1.09.11.25.03.35v.01c-.1.1-.25.12-.35.03l-.66-.58a.262.262 0 0 1-.03-.35v-.01c.1-.1.25-.12.35-.03l.66.58zm1.58-2.52.03.02c.09.08.1.21.02.3l-1.39 1.63c-.08.09-.21.1-.29.02l-.03-.02a.209.209 0 0 1-.02-.3l1.39-1.63c.08-.09.21-.1.29-.02zm-6.79-.47c-.35-.04-.5-.22-.5-.51s.16-.47.5-.51c.34-.04.47.09.56.13s.27.04.27.04h1.82c.15 0 .26.09.26.19v.27c0 .1-.12.19-.26.19H4.54s-.17 0-.27.04c-.09.04-.22.17-.56.13v.03zm7.34-.83c.12 0 .22.1.22.22v.22c0 .12-.1.22-.22.22H8.5c-.12 0-.22-.1-.22-.22v-.22c0-.12.1-.22.22-.22h2.55zm-3.26-.36c.13 0 .24.11.24.24v.9c0 .13-.11.24-.24.24h-.02c-.13 0-.24-.11-.24-.24v-.9c0-.13.11-.24.24-.24h.02zm-.67 0c.13 0 .24.11.24.24v.9c0 .13-.11.24-.24.24H7.1c-.13 0-.24-.11-.24-.24v-.9c0-.13.11-.24.24-.24h.02zM21.36 22.154H20.1s-.23.02-.34-.06c-.17-.11-.4-.61-.98-.61s-.81.49-.98.61c-.12.08-.34.06-.34.06h-1.07s-.38.02-.52-.08c-.2-.16-.38-.54-.82-.53-.36.01-.61.28-.68.7-.04.24-.4.36-.4 1.02s.36.78.4 1.02c.07.42.32.69.68.7 0 0 .48-.02.74.24l.88 1.03s.06.07.11.2c.12.3-.17.52-.19.88-.04.86.82.71 1.08.62.45-.14.65.3.65.52s-.2.64-.65.52c-.26-.07-1.12-.23-1.08.62.02.36.31.58.19.88-.05.13-.11.2-.11.2l-.88 1.03c-.25.26-.74.24-.74.24-.36.01-.61.28-.68.7-.04.24-.4.36-.4 1.02s.36.78.4 1.02c.07.42.32.69.68.7.43.02.61-.37.82-.53.14-.11.52-.08.52-.08h1.07s.23-.02.34.06c.17.11.4.61.98.61s.81-.49.98-.61c.12-.08.34-.06.34-.06h1.26s.38-.03.52.08c.28.23.52.65.9.52.4-.14.65-.38.58-.8-.07-.38-.3-.48-.3-.92s.23-.54.3-.92c.07-.42-.18-.66-.58-.8-.38-.13-.62.29-.9.52-.13.11-.52.08-.52.08H20.1s-.23.02-.34-.06c-.17-.11-.4-.61-.98-.61s-.81.49-.98.61c-.12.08-.34.06-.34.06h-.28c-.07-.07-.12-.18-.04-.34l.49-.59s.13-.18.36-.22c.2-.04.77.41 1.18 0 .36-.36.07-.92.05-1.07-.03-.18-.03-.34.15-.51.05-.05.2-.07.29-.03.11.06.2.34.7.34.38 0 .54-.6.54-.91 0-.28-.13-.24-.13-.77s.13-.49.13-.77-.17-.91-.54-.91c-.5 0-.59.27-.7.34-.09.05-.24.03-.29-.03a.53.53 0 0 1-.15-.51c.02-.15.32-.71-.05-1.07-.41-.41-.98.04-1.18 0-.23-.04-.36-.22-.36-.22l-.49-.59c-.08-.16-.03-.27.04-.34h.28s.23-.02.34.06c.17.11.4.61.98.61s.81-.49.98-.61c.12-.08.34-.06.34-.06h1.26s.38-.03.52.08c.28.23.52.65.9.52.4-.14.65-.38.58-.8-.07-.38-.3-.48-.3-.92s.23-.54.3-.92c.07-.42-.18-.66-.58-.8-.38-.13-.62.29-.9.52-.13.11-.52.08-.52.08v.04zm-6.32 12.05c-.35-.04-.5-.22-.5-.51s.16-.47.5-.51.47.09.56.13.27.04.27.04h1.82c.15 0 .26.09.26.19v.27c0 .1-.12.19-.26.19h-1.82s-.17 0-.27.04c-.09.04-.22.17-.56.13v.03zm7.31-.83c.12 0 .22.1.22.22v.22c0 .12-.1.22-.22.22h-2.53c-.12 0-.22-.1-.22-.22v-.22c0-.12.1-.22.22-.22h2.53zm-3.23-.36c.13 0 .24.11.24.24v.9c0 .13-.11.24-.24.24h-.02c-.13 0-.24-.11-.24-.24v-.9c0-.13.11-.24.24-.24h.02zm-.67 0c.13 0 .24.11.24.24v.9c0 .13-.11.24-.24.24h-.02c-.13 0-.24-.11-.24-.24v-.9c0-.13.11-.24.24-.24h.02zm-.86-1.94-1.39 1.63c-.08.09-.21.1-.29.02l-.03-.02a.209.209 0 0 1-.02-.3l1.39-1.63c.08-.09.21-.1.29-.02l.03.02c.09.08.1.21.02.3zm.88-.67c.1.09.11.25.03.35v.01c-.1.1-.25.12-.35.03l-.66-.58a.262.262 0 0 1-.03-.35v-.01c.1-.1.25-.12.35-.03l.66.58zm.28-3.33.99 1.14s.02.03.03.03h.62c.07 0 .12.07.12.14v.2c0 .07-.05.14-.12.14h-.62s-.01.02-.03.03l-.99 1.14c-.06.07-.17.08-.24.01l-.08-.08c-.07-.06-.08-.17-.01-.25l.96-1.11-.96-1.11a.185.185 0 0 1 .01-.25l.08-.08c.07-.06.18-.06.24.02v.03zm-.27-.86v.01c.1.1.09.26-.02.35l-.66.58a.23.23 0 0 1-.34-.03v-.01c-.1-.1-.09-.26.02-.35l.66-.58c.1-.09.26-.08.34.03zm-2.28-1.94 1.39 1.63c.08.09.07.22-.02.3l-.03.02c-.09.08-.22.07-.29-.02l-1.39-1.63a.209.209 0 0 1 .02-.3l.03-.02c.09-.08.22-.07.29.02zm-1.16-.49c-.35-.04-.5-.22-.5-.51s.16-.47.5-.51.47.09.56.13.27.04.27.04h1.82c.15 0 .26.09.26.19v.27c0 .1-.12.19-.26.19h-1.82s-.17 0-.27.04c-.09.04-.22.17-.56.13v.03zm7.31-.83c.12 0 .22.1.22.22v.22c0 .12-.1.22-.22.22h-2.53c-.12 0-.22-.1-.22-.22v-.22c0-.12.1-.22.22-.22h2.53zm-3.23-.36c.13 0 .24.11.24.24v.9c0 .13-.11.24-.24.24h-.02c-.13 0-.24-.11-.24-.24v-.9c0-.13.11-.24.24-.24h.02zm-.67 0c.13 0 .24.11.24.24v.9c0 .13-.11.24-.24.24h-.02c-.13 0-.24-.11-.24-.24v-.9c0-.13.11-.24.24-.24h.02z"/><rect class="st0" x=".13" y=".129" width="25.75" height="18.75" rx="1.88" ry="1.88"/><path class="st2" d="M.25 1.999c0-.96.79-1.75 1.75-1.75h22c.96 0 1.75.79 1.75 1.75v15c0 .96-.79 1.75-1.75 1.75H2c-.96 0-1.75-.79-1.75-1.75v-15m-.25 0v15c0 1.1.9 2 2 2h22c1.1 0 2-.9 2-2v-15c0-1.1-.9-2-2-2H2c-1.1 0-2 .9-2 2z"/><path class="st1" d="M10.03 3.169H8.77s-.23.02-.34-.06c-.17-.11-.4-.61-.98-.61s-.81.49-.98.61c-.12.08-.34.06-.34.06H5.06s-.38.02-.52-.08c-.2-.16-.38-.54-.82-.53-.36.01-.61.28-.68.7-.04.24-.4.36-.4 1.02s.36.78.4 1.02c.07.42.32.69.68.7.43.02.61-.37.82-.53.14-.11.52-.08.52-.08h1.07s.23-.02.34.06c.17.11.4.61.98.61s.81-.49.98-.61c.12-.08.34-.06.34-.06h.46c.07.07.12.18.04.34l-.49.59s-.13.18-.36.22c-.2.04-.77-.41-1.18 0-.36.36-.07.92-.05 1.07.03.18.03.34-.15.51-.05.05-.2.07-.29.03-.11-.06-.2-.34-.7-.34-.38 0-.55.6-.55.91 0 .28.13.24.13.77s-.13.49-.13.77c0 .31.17.91.55.91.5 0 .59-.27.7-.34.09-.05.24-.03.29.03.17.18.18.34.15.51-.02.15-.32.71.05 1.07.41.41.98-.04 1.18 0 .23.04.36.22.36.22l.49.59c.08.16.03.27-.04.34h-.46s-.23.02-.34-.06c-.17-.11-.4-.61-.98-.61s-.81.49-.98.61c-.12.08-.34.06-.34.06H5.06s-.38.02-.52-.08c-.2-.16-.38-.54-.82-.53-.36.01-.61.28-.68.7-.04.24-.4.36-.4 1.02s.36.78.4 1.02c.07.42.32.69.68.7.43.02.61-.37.82-.53.14-.11.52-.08.52-.08h1.07s.23-.02.34.06c.17.11.4.61.98.61s.81-.49.98-.61c.12-.08.34-.06.34-.06h1.26s.38-.03.52.08c.28.23.52.65.9.52.4-.14.65-.38.58-.8-.07-.38-.3-.48-.3-.92s.23-.54.3-.92c.07-.42-.18-.66-.58-.8-.03-.01-.06 0-.09 0v-.02s-.49.04-.75-.22l-.88-1.03s-.06-.07-.11-.2c-.12-.3.17-.52.19-.88.04-.86-.82-.69-1.08-.62-.45.11-.65-.3-.65-.52s.2-.67.65-.52c.26.08 1.12.23 1.08-.62-.02-.36-.31-.58-.19-.88.05-.13.11-.2.11-.2l.88-1.03c.25-.26.76-.22.76-.22v-.02h.08c.4-.14.65-.38.58-.8-.07-.38-.3-.48-.3-.92s.23-.54.3-.92c.07-.42-.18-.66-.58-.8-.38-.13-.62.29-.9.52-.13.11-.52.08-.52.08v.02zm-6.32 12.05c-.35-.04-.5-.22-.5-.51s.16-.47.5-.51c.34-.04.47.09.56.13s.27.04.27.04h1.82c.15 0 .26.09.26.19v.27c0 .1-.12.19-.26.19H4.54s-.17 0-.27.04c-.09.04-.22.17-.56.13v.03zm7.34-.83c.12 0 .22.1.22.22v.22c0 .12-.1.22-.22.22H8.5c-.12 0-.22-.1-.22-.22v-.22c0-.12.1-.22.22-.22h2.55zm-3.26-.36c.13 0 .24.11.24.24v.9c0 .13-.11.24-.24.24h-.02c-.13 0-.24-.11-.24-.24v-.9c0-.13.11-.24.24-.24h.02zm-.67 0c.13 0 .24.11.24.24v.9c0 .13-.11.24-.24.24H7.1c-.13 0-.24-.11-.24-.24v-.9c0-.13.11-.24.24-.24h.02zm2.03-2.24 1.39 1.63c.08.09.07.22-.02.3l-.03.02c-.09.08-.22.07-.29-.02l-1.39-1.63a.209.209 0 0 1 .02-.3l.03-.02c.09-.08.22-.07.29.02zm-.21-.92v.01c.1.1.09.26-.02.35l-.66.58a.23.23 0 0 1-.34-.03v-.01c-.1-.1-.09-.26.02-.35l.66-.58c.1-.09.26-.08.34.03zm-.95-2.47-.96 1.11.96 1.11c.06.07.06.18-.01.25l-.08.08c-.07.06-.18.06-.24-.01l-.99-1.14s-.02-.03-.03-.03h-.62c-.07 0-.12-.07-.12-.14v-.2c0-.07.05-.14.12-.14h.62s.01-.02.03-.03l.99-1.14c.06-.07.17-.08.24-.02l.08.08c.07.06.08.17.01.25v-.03zm.93-.61c.1.09.11.25.03.35v.01c-.1.1-.25.12-.35.03l-.66-.58a.262.262 0 0 1-.03-.35v-.01c.1-.1.25-.12.35-.03l.66.58zm1.58-2.52.03.02c.09.08.1.21.02.3l-1.39 1.63c-.08.09-.21.1-.29.02l-.03-.02a.209.209 0 0 1-.02-.3l1.39-1.63c.08-.09.21-.1.29-.02zm-6.79-.47c-.35-.04-.5-.22-.5-.51s.16-.47.5-.51c.34-.04.47.09.56.13s.27.04.27.04h1.82c.15 0 .26.09.26.19v.27c0 .1-.12.19-.26.19H4.54s-.17 0-.27.04c-.09.04-.22.17-.56.13v.03zm7.34-.83c.12 0 .22.1.22.22v.22c0 .12-.1.22-.22.22H8.5c-.12 0-.22-.1-.22-.22v-.22c0-.12.1-.22.22-.22h2.55zm-3.26-.36c.13 0 .24.11.24.24v.9c0 .13-.11.24-.24.24h-.02c-.13 0-.24-.11-.24-.24v-.9c0-.13.11-.24.24-.24h.02zm-.67 0c.13 0 .24.11.24.24v.9c0 .13-.11.24-.24.24H7.1c-.13 0-.24-.11-.24-.24v-.9c0-.13.11-.24.24-.24h.02zM21.36 3.169H20.1s-.23.02-.34-.06c-.17-.11-.4-.61-.98-.61s-.81.49-.98.61c-.12.08-.34.06-.34.06h-1.07s-.38.02-.52-.08c-.2-.16-.38-.54-.82-.53-.36.01-.61.28-.68.7-.04.24-.4.36-.4 1.02s.36.78.4 1.02c.07.42.32.69.68.7 0 0 .48-.02.74.24l.88 1.03s.06.07.11.2c.12.3-.17.52-.19.88-.04.86.82.71 1.08.62.45-.14.65.3.65.52s-.2.64-.65.52c-.26-.07-1.12-.23-1.08.62.02.36.31.58.19.88-.05.13-.11.2-.11.2l-.88 1.03c-.25.26-.74.24-.74.24-.36.01-.61.28-.68.7-.04.24-.4.36-.4 1.02s.36.78.4 1.02c.07.42.32.69.68.7.43.02.61-.37.82-.53.14-.11.52-.08.52-.08h1.07s.23-.02.34.06c.17.11.4.61.98.61s.81-.49.98-.61c.12-.08.34-.06.34-.06h1.26s.38-.03.52.08c.28.23.52.65.9.52.4-.14.65-.38.58-.8-.07-.38-.3-.48-.3-.92s.23-.54.3-.92c.07-.42-.18-.66-.58-.8-.38-.13-.62.29-.9.52-.13.11-.52.08-.52.08H20.1s-.23.02-.34-.06c-.17-.11-.4-.61-.98-.61s-.81.49-.98.61c-.12.08-.34.06-.34.06h-.28c-.07-.07-.12-.18-.04-.34l.49-.59s.13-.18.36-.22c.2-.04.77.41 1.18 0 .36-.36.07-.92.05-1.07-.03-.18-.03-.34.15-.51.05-.05.2-.07.29-.03.11.06.2.34.7.34.38 0 .54-.6.54-.91 0-.28-.13-.24-.13-.77s.13-.49.13-.77-.17-.91-.54-.91c-.5 0-.59.27-.7.34-.09.05-.24.03-.29-.03a.53.53 0 0 1-.15-.51c.02-.15.32-.71-.05-1.07-.41-.41-.98.04-1.18 0-.23-.04-.36-.22-.36-.22l-.49-.59c-.08-.16-.03-.27.04-.34h.28s.23-.02.34.06c.17.11.4.61.98.61s.81-.49.98-.61c.12-.08.34-.06.34-.06h1.26s.38-.03.52.08c.28.23.52.65.9.52.4-.14.65-.38.58-.8-.07-.38-.3-.48-.3-.92s.23-.54.3-.92c.07-.42-.18-.66-.58-.8-.38-.13-.62.29-.9.52-.13.11-.52.08-.52.08v.04zm-6.32 12.05c-.35-.04-.5-.22-.5-.51s.16-.47.5-.51.47.09.56.13.27.04.27.04h1.82c.15 0 .26.09.26.19v.27c0 .1-.12.19-.26.19h-1.82s-.17 0-.27.04c-.09.04-.22.17-.56.13v.03zm7.31-.83c.12 0 .22.1.22.22v.22c0 .12-.1.22-.22.22h-2.53c-.12 0-.22-.1-.22-.22v-.22c0-.12.1-.22.22-.22h2.53zm-3.23-.36c.13 0 .24.11.24.24v.9c0 .13-.11.24-.24.24h-.02c-.13 0-.24-.11-.24-.24v-.9c0-.13.11-.24.24-.24h.02zm-.67 0c.13 0 .24.11.24.24v.9c0 .13-.11.24-.24.24h-.02c-.13 0-.24-.11-.24-.24v-.9c0-.13.11-.24.24-.24h.02zm-.86-1.94-1.39 1.63c-.08.09-.21.1-.29.02l-.03-.02a.209.209 0 0 1-.02-.3l1.39-1.63c.08-.09.21-.1.29-.02l.03.02c.09.08.1.21.02.3zm.88-.67c.1.09.11.25.03.35v.01c-.1.1-.25.12-.35.03l-.66-.58a.262.262 0 0 1-.03-.35v-.01c.1-.1.25-.12.35-.03l.66.58zm.28-3.33.99 1.14s.02.03.03.03h.62c.07 0 .12.07.12.14v.2c0 .07-.05.14-.12.14h-.62s-.01.02-.03.03l-.99 1.14c-.06.07-.17.08-.24.01l-.08-.08c-.07-.06-.08-.17-.01-.25l.96-1.11-.96-1.11a.185.185 0 0 1 .01-.25l.08-.08c.07-.06.18-.06.24.02v.03zm-.27-.86v.01c.1.1.09.26-.02.35l-.66.58a.23.23 0 0 1-.34-.03v-.01c-.1-.1-.09-.26.02-.35l.66-.58c.1-.09.26-.08.34.03zm-2.28-1.94 1.39 1.63c.08.09.07.22-.02.3l-.03.02c-.09.08-.22.07-.29-.02l-1.39-1.63a.209.209 0 0 1 .02-.3l.03-.02c.09-.08.22-.07.29.02zm-1.16-.49c-.35-.04-.5-.22-.5-.51s.16-.47.5-.51.47.09.56.13.27.04.27.04h1.82c.15 0 .26.09.26.19v.27c0 .1-.12.19-.26.19h-1.82s-.17 0-.27.04c-.09.04-.22.17-.56.13v.03zm7.31-.83c.12 0 .22.1.22.22v.22c0 .12-.1.22-.22.22h-2.53c-.12 0-.22-.1-.22-.22v-.22c0-.12.1-.22.22-.22h2.53zm-3.23-.36c.13 0 .24.11.24.24v.9c0 .13-.11.24-.24.24h-.02c-.13 0-.24-.11-.24-.24v-.9c0-.13.11-.24.24-.24h.02zm-.67 0c.13 0 .24.11.24.24v.9c0 .13-.11.24-.24.24h-.02c-.13 0-.24-.11-.24-.24v-.9c0-.13.11-.24.24-.24h.02z"/></svg>