<svg id="_图层_1" xmlns="http://www.w3.org/2000/svg" version="1.1" viewBox="0 0 26 19"><defs><style>.st1{fill:#231815}</style></defs><rect x="3.62" y="-3.37" width="18.75" height="25.75" rx="1.88" ry="1.88" transform="rotate(-90 12.995 9.505)" style="fill:#f5f6f7"/><path d="M.25 2C.25 1.04 1.04.25 2 .25h22c.96 0 1.75.79 1.75 1.75v15c0 .96-.79 1.75-1.75 1.75H2c-.96 0-1.75-.79-1.75-1.75V2M0 2v15c0 1.1.9 2 2 2h22c1.1 0 2-.9 2-2V2c0-1.1-.9-2-2-2H2C.9 0 0 .9 0 2z" style="fill:#93989c"/><path class="st1" d="M8.22 12.52c-.07-.05-.16-.1-.25-.16-.1-.06-.18-.11-.25-.14-.07-.04-.14-.09-.22-.16-.07-.07-.13-.14-.18-.22-.1-.12-.16-.23-.18-.34s-.04-.25-.05-.41a1.79 1.79 0 0 0-.05-.36c.24-.43.67-.89 1.3-1.37.12.02.22.07.31.14.08.07.21.19.38.34.17.16.34.29.5.41 0 .34.2 1.11.59 2.32.4 1.21.59 2.02.59 2.43 0 .6-.07.97-.22 1.12-.12-.12-.22-.37-.31-.76-.08-.38-.16-.66-.23-.83-.55-1.51-.95-2.27-1.19-2.27-.19 0-.37.08-.54.25v.01z"/><path class="st1" d="M5.52 7.67s.28.89.83 2.59c.55 1.7.83 2.77.83 3.2 0 .19-.08.48-.23.86-.16.38-.27.58-.34.58-.12 0-.23-.16-.34-.49-.11-.32-.16-.57-.16-.74 0-.05 0-.15.02-.31.01-.16.02-.27.02-.34 0-.6-.13-1.25-.4-1.94-.26-.07-.41-.1-.43-.07-.22.12-.52.4-.9.83-.6 0-1.04.06-1.33.18-.1-.1-.26-.22-.49-.36-.23-.14-.37-.25-.41-.32a.484.484 0 0 1-.14-.22c-.02-.07-.04-.19-.04-.36 0-.17-.01-.3-.04-.4.7-.65 1.24-.97 1.62-.97.31 0 .62.11.94.32.31.22.53.32.65.32.05 0 .1-.02.16-.05.06-.04.1-.05.13-.05-.22-.62-.44-1.22-.68-1.8s-.41-1-.52-1.26-.16-.47-.16-.61c0-.12.04-.28.11-.49.07-.2.17-.46.29-.77s.22-.56.29-.76c.02-.05.07-.14.13-.27s.1-.22.13-.27c.02-.05.06-.13.11-.23.05-.11.09-.18.13-.22s.08-.08.13-.14.1-.1.14-.13c.05-.02.1-.05.16-.07s.13-.04.2-.04c.29 0 .54.08.76.25.22.17.32.37.32.61 0 .14-.24.73-.72 1.76s-.72 1.75-.72 2.16l-.05.02zM7.28 9.36c0-.89.31-1.83.92-2.82s1.15-1.49 1.6-1.49c.26 0 .53.07.79.22.26.14.42.28.47.4-.31.58-.88 1.27-1.69 2.09-.81.82-1.51 1.36-2.09 1.62v-.02z"/><path d="M19.76 10.96c0 .1.06.29.18.58l.29.14c.19.12.34.23.43.32-.22.36-.91.54-2.09.54-.91 0-1.57-.05-1.98-.14-.14-.89-.36-1.86-.65-2.93-.29-1.07-.43-1.73-.43-2 0-.5.17-.76.5-.76l.94.25c.62.17 1.27.25 1.94.25.38 0 .79-.02 1.22-.07.02-.46.1-.95.22-1.47.12-.53.36-1.07.72-1.64.36-.56.78-.85 1.26-.85.41 0 .72.16.94.47.22.31.32.71.32 1.19 0 .12.08.39.23.81.16.42.23.74.23.95 0 .31-.16.88-.49 1.71-.32.83-.59 1.41-.81 1.74.05.12.13.25.23.38.11.13.16.23.16.31 0 .12-.1.5-.29 1.15.02 0 .1 0 .22.02.12.01.21.02.27.04.06.01.13.02.22.04.08.01.15.04.2.09.05.05.07.11.07.18s-.05.15-.14.23c-.1.08-.22.16-.38.22s-.31.12-.45.18-.3.11-.47.16c-.17.05-.28.08-.32.11v.43c0 .46-.07.88-.22 1.26-.14.38-.35.58-.61.58-.02 0-.06 0-.11-.02a.784.784 0 0 0-.14-.02c0-.22.02-.52.07-.9s.07-.68.07-.9v-.14c-.19.02-.46.07-.81.14-.35.07-.64.13-.86.18-.23.05-.4.07-.52.07-.05 0-.12-.05-.22-.14.05-.29.19-.5.41-.63.23-.13.55-.25.95-.34.41-.1.74-.22 1.01-.36 0-.34-.1-.79-.29-1.37-.07 0-.24 0-.5-.02-.26-.01-.44-.02-.54-.02h.02zm-4.93-4.5c0 .72.21 1.79.63 3.2.42 1.42.63 2.35.63 2.81 0 1.44-.26 2.37-.79 2.81-.26-.43-.4-.76-.4-.97 0-.24.06-.61.18-1.1.12-.49.18-.9.18-1.24 0-.48-.05-.8-.14-.97-.1-.17-.31-.25-.65-.25-.07 0-.13.07-.16.2-.04.13-.09.22-.16.27a.42.42 0 0 1-.22-.05c-.05-.04-.11-.1-.2-.18-.08-.08-.17-.15-.27-.2-.07-.05-.22-.14-.45-.27s-.38-.24-.47-.32a.439.439 0 0 1-.13-.31c0-.17.12-.25.36-.25.19 0 .39.02.59.05.2.04.43.1.68.18s.45.14.59.16c.12-.05.18-.13.18-.25s-.28-.35-.83-.63-.95-.41-1.19-.41c-.14 0-.28.08-.41.23-.13.16-.23.26-.31.31-.43-.19-.77-.61-1.01-1.26.17-.48.61-.72 1.33-.72.24 0 .53.1.86.31.34.2.65.32.94.34-.02-.19-.07-.46-.14-.79a9.321 9.321 0 0 1-.21-2.09c0-.77.08-1.21.25-1.33.34.17.59.43.76.79-.02.31-.04.96-.04 1.94l.02-.01zm7.01 5.76c.24-.1.43-.18.58-.25-.07-.34-.2-.72-.4-1.15-.14.12-.34.18-.58.18l.4 1.22zm-4.75-.54h.65v-.07l.04-.07-.11-.65c-.19 0-.43-.02-.72-.07l.14.86zm1.19-.72c.02.14.05.3.07.47 0 .14.01.22.04.23.02.01.07.02.14.02h.14s.13 0 .25-.02c.12-.01.2-.02.25-.02 0-.12-.02-.35-.07-.68h-.83.01zm-1.51-.9c.12 0 .25.02.4.05.14.04.26.05.36.05-.05-.24-.1-.52-.16-.83s-.1-.54-.13-.68c-.12 0-.26 0-.43-.02-.17-.01-.3-.02-.4-.02.05.22.11.47.2.76.08.29.14.52.16.68v.01zm1.37.11h.79c-.02-.34-.13-.81-.32-1.44-.36 0-.64-.01-.83-.04.17.53.29 1.02.36 1.47v.01zm1.44-.07h.97c-.1-.53-.23-.99-.4-1.4-.41 0-.72.01-.94.04.05.12.11.33.18.63s.13.55.18.74l.01-.01zm1.62-.04c.38 0 .58-.06.58-.18 0-.1-.02-.2-.05-.31-.04-.11-.09-.25-.16-.43s-.13-.35-.18-.52c-.26.05-.46.06-.58.04.02.14.16.61.4 1.4h-.01zm-.43-3.02s.16-.02.32-.05c.17-.04.31-.05.43-.05s.25.04.4.11c.31.46.47.9.47 1.33-.02.02-.1.06-.22.11s-.2.08-.25.11c.05.14.13.31.25.49s.2.33.25.45c.14-.1.29-.34.45-.72s.23-.68.23-.9c0-.14-.03-.28-.09-.41s-.15-.28-.27-.43c-.12-.16-.2-.28-.25-.38-.05-.12-.08-.35-.11-.7-.02-.35-.09-.61-.2-.79s-.29-.27-.56-.27c-.19 0-.38.25-.56.76-.18.5-.28.96-.31 1.37l.02-.03z" style="fill:#881c21"/></svg>