<svg xmlns="http://www.w3.org/2000/svg" viewBox="0 0 26 19"><rect x="3.62" y="-3.37" width="18.75" height="25.75" rx="1.88" ry="1.88" transform="rotate(-90 12.995 9.505)" style="fill:#f5f6f7"/><path d="M.25 2C.25 1.04 1.04.25 2 .25h22c.96 0 1.75.79 1.75 1.75v15c0 .96-.79 1.75-1.75 1.75H2c-.96 0-1.75-.79-1.75-1.75V2M0 2v15c0 1.1.9 2 2 2h22c1.1 0 2-.9 2-2V2c0-1.1-.9-2-2-2H2C.9 0 0 .9 0 2z" style="fill:#93989c"/><path d="M9.22 2.95c-.24.36-.52.95-.83 1.76-.31.82-.55 1.39-.72 1.73-.74.1-1.23.14-1.47.14-.07 0-.25-.04-.54-.11s-.47-.06-.54.04c-.34.14-.53.46-.58.94.31.05.54.16.68.32.14.17.34.64.58 1.4-.84-.12-1.45-.56-1.83-1.33-.48-1.01-.72-1.69-.72-2.05 0-.22.06-.53.18-.94.12-.41.18-.71.18-.9 0-.46-.31-.68-.94-.68-.48 0-.72.86-.72 2.59 0 .02.29.69.86 2 .58 1.31.86 2.24.86 2.79-.19.12-.37.31-.54.56-.17.25-.28.4-.32.45.07.07.16.2.27.38.11.18.21.32.31.41.1.07.25.15.45.23.2.08.38.2.52.34.05-.02.14-.08.27-.18s.25-.16.34-.2c.1-.04.2-.05.32-.05.72 0 1.56.52 2.52 1.55S9.5 16.2 10 17.23c.1-.07.14-.2.14-.4 0-.38-.25-.99-.76-1.83-.5-.84-1.05-1.56-1.65-2.16.07-.17.22-.25.43-.25.17 0 .38.06.65.18.26.12.48.18.65.18.38 0 .71-.12.97-.36s.4-.56.4-.97c0-.14-.02-.23-.07-.25-.14 0-.27-.05-.38-.14-.11-.1-.22-.26-.32-.49-.11-.23-.2-.46-.29-.7-.08-.24-.2-.59-.36-1.06s-.32-.9-.49-1.31c.17 0 .31.01.43.04.12.02.19.04.22.04.1 0 .14-.08.14-.25 0-.05-.02-.16-.05-.32-.04-.17-.05-.32-.05-.47 0-.7.23-1.41.7-2.16.47-.74.7-1.19.7-1.33 0-.22-.09-.4-.27-.56s-.39-.23-.63-.23c-.36 0-.66.18-.9.54l.01-.02zm-3.67 7.84c-.29-.07-.61-.11-.95-.13-.35-.01-.55-.02-.59-.02 0-.24.05-.47.16-.7.11-.23.26-.34.45-.34.17 0 .68.18 1.55.54.17.29.25.54.25.76 0 .1-.11.17-.32.22-.07-.14-.25-.25-.54-.32l-.01-.01zm3.35.5c.05.14.02.28-.07.4-.02 0-.05 0-.09-.02-.04-.01-.07-.02-.09-.02-.1 0-.29.04-.59.13-.3.08-.55.13-.74.13-.14 0-.25-.01-.32-.04.17-.12.25-.43.25-.94 0-.05 0-.11-.02-.18-.01-.07-.02-.12-.02-.14.86.19 1.43.42 1.69.68zm-.86-3.63c.58 1.1.86 1.93.86 2.48-.55 0-1.2-.2-1.94-.61-.07-.17-.18-.37-.32-.59-.14-.23-.26-.42-.36-.58s-.14-.27-.14-.34c0-.24.23-.36.68-.36.05 0 .16 0 .34.02.18.01.32.02.41.02.22 0 .37-.01.47-.04z" style="fill:#231815"/><path d="M19.76 10.96c0 .1.06.29.18.58l.29.14c.19.12.34.23.43.32-.22.36-.91.54-2.09.54-.91 0-1.57-.05-1.98-.14-.14-.89-.36-1.86-.65-2.93-.29-1.07-.43-1.73-.43-2 0-.5.17-.76.5-.76l.94.25c.62.17 1.27.25 1.94.25.38 0 .79-.02 1.22-.07.02-.46.1-.95.22-1.47.12-.53.36-1.07.72-1.64.36-.56.78-.85 1.26-.85.41 0 .72.16.94.47.22.31.32.71.32 1.19 0 .12.08.39.23.81.16.42.23.74.23.95 0 .31-.16.88-.49 1.71-.32.83-.59 1.41-.81 1.74.05.12.13.25.23.38.11.13.16.23.16.31 0 .12-.1.5-.29 1.15.02 0 .1 0 .22.02.12.01.21.02.27.04.06.01.13.02.22.04.08.01.15.04.2.09.05.05.07.11.07.18s-.05.15-.14.23c-.1.08-.22.16-.38.22s-.31.12-.45.18-.3.11-.47.16c-.17.05-.28.08-.32.11v.43c0 .46-.07.88-.22 1.26-.14.38-.35.58-.61.58-.02 0-.06 0-.11-.02a.784.784 0 0 0-.14-.02c0-.22.02-.52.07-.9s.07-.68.07-.9v-.14c-.19.02-.46.07-.81.14-.35.07-.64.13-.86.18-.23.05-.4.07-.52.07-.05 0-.12-.05-.22-.14.05-.29.19-.5.41-.63.23-.13.55-.25.95-.34.41-.1.74-.22 1.01-.36 0-.34-.1-.79-.29-1.37-.07 0-.24 0-.5-.02-.26-.01-.44-.02-.54-.02h.02zm-4.93-4.5c0 .72.21 1.79.63 3.2.42 1.42.63 2.35.63 2.81 0 1.44-.26 2.37-.79 2.81-.26-.43-.4-.76-.4-.97 0-.24.06-.61.18-1.1.12-.49.18-.9.18-1.24 0-.48-.05-.8-.14-.97-.1-.17-.31-.25-.65-.25-.07 0-.13.07-.16.2-.04.13-.09.22-.16.27a.42.42 0 0 1-.22-.05c-.05-.04-.11-.1-.2-.18-.08-.08-.17-.15-.27-.2-.07-.05-.22-.14-.45-.27s-.38-.24-.47-.32a.439.439 0 0 1-.13-.31c0-.17.12-.25.36-.25.19 0 .39.02.59.05.2.04.43.1.68.18s.45.14.59.16c.12-.05.18-.13.18-.25s-.28-.35-.83-.63-.95-.41-1.19-.41c-.14 0-.28.08-.41.23-.13.16-.23.26-.31.31-.43-.19-.77-.61-1.01-1.26.17-.48.61-.72 1.33-.72.24 0 .53.1.86.31.34.2.65.32.94.34-.02-.19-.07-.46-.14-.79a9.321 9.321 0 0 1-.21-2.09c0-.77.08-1.21.25-1.33.34.17.59.43.76.79-.02.31-.04.96-.04 1.94l.02-.01zm7.01 5.76c.24-.1.43-.18.58-.25-.07-.34-.2-.72-.4-1.15-.14.12-.34.18-.58.18l.4 1.22zm-4.75-.54h.65v-.07l.04-.07-.11-.65c-.19 0-.43-.02-.72-.07l.14.86zm1.19-.72c.02.14.05.3.07.47 0 .14.01.22.04.23.02.01.07.02.14.02h.14s.13 0 .25-.02c.12-.01.2-.02.25-.02 0-.12-.02-.35-.07-.68h-.83.01zm-1.51-.9c.12 0 .25.02.4.05.14.04.26.05.36.05-.05-.24-.1-.52-.16-.83s-.1-.54-.13-.68c-.12 0-.26 0-.43-.02-.17-.01-.3-.02-.4-.02.05.22.11.47.2.76.08.29.14.52.16.68v.01zm1.37.11h.79c-.02-.34-.13-.81-.32-1.44-.36 0-.64-.01-.83-.04.17.53.29 1.02.36 1.47v.01zm1.44-.07h.97c-.1-.53-.23-.99-.4-1.4-.41 0-.72.01-.94.04.05.12.11.33.18.63s.13.55.18.74l.01-.01zm1.62-.04c.38 0 .58-.06.58-.18 0-.1-.02-.2-.05-.31-.04-.11-.09-.25-.16-.43s-.13-.35-.18-.52c-.26.05-.46.06-.58.04.02.14.16.61.4 1.4h-.01zm-.43-3.02s.16-.02.32-.05c.17-.04.31-.05.43-.05s.25.04.4.11c.31.46.47.9.47 1.33-.02.02-.1.06-.22.11s-.2.08-.25.11c.05.14.13.31.25.49s.2.33.25.45c.14-.1.29-.34.45-.72s.23-.68.23-.9c0-.14-.03-.28-.09-.41s-.15-.28-.27-.43c-.12-.16-.2-.28-.25-.38-.05-.12-.08-.35-.11-.7-.02-.35-.09-.61-.2-.79s-.29-.27-.56-.27c-.19 0-.38.25-.56.76-.18.5-.28.96-.31 1.37l.02-.03z" style="fill:#881c21"/></svg>