<svg id="_图层_1" xmlns="http://www.w3.org/2000/svg" version="1.1" viewBox="0 0 26 37.984"><defs><style>.st0{fill:#f5f6f7}.st1{fill:#93989c}.st2{fill:#881c21}.st3{fill:#011833}</style></defs><rect class="st0" x=".12" y="19.104" width="25.75" height="18.75" rx="1.88" ry="1.88"/><path class="st1" d="M.25 20.984c0-.96.79-1.75 1.75-1.75h22c.96 0 1.75.79 1.75 1.75v15c0 .96-.79 1.75-1.75 1.75H2c-.96 0-1.75-.79-1.75-1.75v-15m-.25 0v15c0 1.1.9 2 2 2h22c1.1 0 2-.9 2-2v-15c0-1.1-.9-2-2-2H2c-1.1 0-2 .9-2 2z"/><path class="st2" d="M9.5 28.484c0 1.93 1.57 3.5 3.5 3.5s3.5-1.57 3.5-3.5-1.57-3.5-3.5-3.5-3.5 1.57-3.5 3.5zm.29 0c0-1.08.33-1.35.91-1.28.58.07 1.22.7 1.22.86v.11l-.85-.23v.03l.84.23c0 .08-.03.15-.03.27h-1.15v.03h1.15c0 .12.03.19.03.27l-.85.23v.03l.85-.23v.11c0 .16-.64.79-1.22.86s-.91-.21-.91-1.28l.01-.01zm2.21 3.05c-1.02-.33-1.18-.73-.94-1.26s1.04-.94 1.19-.89c.04.01.07.03.1.04l-.48.73h.03l.48-.72c.07.03.13.08.25.12l-.36 1.09h.03l.36-1.08c.12.04.19.04.27.05l-.04.88h.03l.04-.87c.03 0 .07.02.11.03.15.05.55.85.44 1.42-.12.57-.48.8-1.5.47l-.01-.01zm3.6-2.74c.51.29.61.7-.02 1.57-.63.87-1.06.9-1.49.51-.43-.39-.57-1.28-.48-1.41.02-.03.05-.06.07-.08l.55.68.02-.02-.55-.68c.05-.06.12-.1.19-.2l.93.68.02-.03-.93-.68c.07-.1.09-.17.13-.24l.82.31.02-.03-.82-.31.06-.09c.09-.13.98-.26 1.49.02h-.01zm-2.61.56a.87.87 0 1 1 .001-1.741.87.87 0 0 1-.001 1.741zm2.59-2.76c.63.87.53 1.29.02 1.57-.51.29-1.4.15-1.49.02l-.06-.09.82-.31-.02-.03-.82.31c-.04-.07-.06-.14-.13-.24l.93-.68-.02-.03-.93.68c-.07-.1-.14-.14-.19-.2l.55-.69-.02-.02-.55.68s-.04-.05-.07-.08c-.09-.13.05-1.01.48-1.41.43-.39.86-.37 1.49.51l.01.01zm-2.08-.7c.12.57-.29 1.37-.44 1.42l-.11.03-.04-.88h-.03l.04.88c-.08.02-.15.01-.27.05l-.36-1.09h-.03l.36 1.1c-.11.04-.18.09-.25.12l-.48-.74h-.03l.48.75c-.03.01-.06.03-.1.04-.15.05-.95-.36-1.19-.89s-.08-.93.94-1.26 1.39-.1 1.5.47h.01z"/><path class="st2" d="M12.55 28.484c0 .25.2.45.45.45s.45-.2.45-.45-.2-.45-.45-.45-.45.2-.45.45z"/><path class="st3" d="M6.15 28.484c0 3.78 3.07 6.85 6.85 6.85s6.85-3.07 6.85-6.85-3.07-6.85-6.85-6.85-6.85 3.07-6.85 6.85zm4.99-6.34c.21-.06.64.29.74.65.09.32.3 1.48.32 1.55.01.06-.03.11-.13.14-.11.03-.17 0-.18-.05s-.36-1.23-.39-1.33c-.03-.1-.1-.18-.12-.17-.03 0-.04.11-.01.21s.38 1.28.39 1.33-.02.1-.13.14c-.1.03-.16.01-.19-.04s-.47-1.15-.57-1.47c-.11-.36.06-.89.27-.95v-.01zm-1.71.78c.19-.12.7.1.9.41.18.28.71 1.34.74 1.39.03.06 0 .11-.09.17-.1.06-.16.05-.19 0s-.69-1.08-.75-1.17-.15-.15-.17-.13 0 .12.05.21.72 1.12.75 1.17c.03.04.01.1-.08.17-.09.06-.15.06-.19 0-.04-.05-.78-.97-.96-1.25-.21-.32-.19-.87 0-.99l-.01.02zm-1.42 1.23c.15-.17.69-.1.98.14.25.22 1.06 1.08 1.1 1.13.04.05.03.11-.04.19-.08.09-.14.09-.18.06s-.97-.84-1.05-.91-.18-.1-.2-.08c-.02.02.03.12.11.19s1.01.87 1.05.91c.04.03.04.1-.03.18s-.13.1-.18.06-1.02-.71-1.28-.93c-.29-.24-.43-.78-.28-.95v.01zm-.48 2.41c-.34-.15-.63-.63-.54-.83s.64-.3.98-.14c.3.14 1.32.74 1.37.77.06.03.06.09.02.19-.05.11-.11.13-.15.11-.05-.02-1.17-.53-1.26-.58-.1-.04-.2-.04-.21-.02s.06.1.15.15 1.22.56 1.26.58c.05.02.07.08.02.19-.04.1-.1.13-.16.11-.06-.02-1.18-.39-1.49-.53h.01zm-.32 1.62c-.37-.05-.78-.42-.75-.64.03-.22.53-.46.9-.41.33.05 1.48.34 1.54.36.06.01.09.07.07.18-.02.11-.07.15-.12.15s-1.27-.18-1.37-.2c-.1-.01-.2.01-.21.04 0 .03.08.08.19.1s1.32.19 1.37.2.09.06.07.17c-.02.1-.05.15-.12.15-.06 0-1.24-.05-1.57-.09v-.01zm-.75 1.24c-.03-.22.38-.59.75-.64.33-.05 1.51-.09 1.57-.09.06 0 .1.05.12.15.02.11-.02.17-.07.17s-1.27.18-1.37.2c-.1.01-.19.07-.19.1s.1.06.21.04c.1-.01 1.32-.19 1.37-.2s.1.03.12.15c.02.1 0 .16-.07.18-.06.01-1.21.31-1.54.36-.37.06-.87-.19-.9-.41v-.01zm.53 1.8c-.09-.2.19-.67.54-.83.31-.14 1.43-.51 1.49-.53.06-.02.11.02.16.11.05.11.03.16-.02.19-.05.02-1.17.53-1.26.58-.1.04-.16.12-.15.15.01.03.12.03.21-.02.1-.04 1.22-.55 1.26-.58.05-.02.11 0 .15.11.04.1.04.16-.02.19s-1.07.63-1.37.77c-.34.16-.89.07-.98-.14h-.01zm1.02 1.58c-.15-.17 0-.7.28-.95.25-.22 1.22-.89 1.28-.93.05-.04.11-.02.18.06.08.09.07.15.03.18-.04.03-.97.84-1.05.91s-.12.16-.11.19c.02.02.12 0 .2-.08.08-.07 1.01-.87 1.05-.91.04-.03.1-.03.18.06.07.08.08.14.04.19s-.85.91-1.1 1.13c-.28.25-.83.31-.98.14v.01zm1.42 1.23c-.19-.12-.2-.67 0-.99.18-.28.92-1.2.96-1.25s.1-.05.19 0c.1.06.11.12.08.17-.03.04-.69 1.08-.75 1.17s-.07.19-.05.21c.02.01.11-.04.17-.13s.72-1.12.75-1.17c.03-.04.09-.06.19 0 .09.06.12.11.09.17s-.56 1.11-.74 1.39c-.2.32-.71.53-.9.41l.01.02zm1.43-.17c.1-.32.55-1.41.57-1.47.02-.06.08-.07.19-.04s.14.09.13.14-.36 1.23-.39 1.33c-.03.1-.01.2.01.21.03 0 .1-.07.12-.17.03-.1.38-1.28.39-1.33s.07-.08.18-.05c.1.03.15.08.13.14-.01.06-.22 1.22-.32 1.55-.1.36-.53.71-.74.65s-.38-.59-.27-.95v-.01zm2.14 1.22c-.22 0-.53-.46-.53-.83 0-.33.13-1.51.13-1.57s.06-.1.17-.1c.12 0 .16.04.16.1v1.39c0 .11.04.2.07.2s.07-.1.07-.2v-1.39c0-.05.04-.1.16-.1.11 0 .16.03.17.1 0 .06.13 1.24.13 1.57 0 .38-.31.83-.53.83zm1.86-.27c-.21.06-.64-.29-.74-.65-.09-.32-.3-1.48-.32-1.55-.01-.06.03-.11.13-.14.11-.03.17 0 .18.05s.36 1.23.39 1.33c.03.1.1.18.12.17s.04-.11.01-.21-.38-1.28-.39-1.33.02-.1.13-.14c.1-.03.16-.01.19.04.02.06.47 1.15.57 1.47.11.36-.06.89-.27.95v.01zm1.71-.78c-.19.12-.7-.1-.9-.41-.18-.28-.71-1.34-.74-1.39-.03-.06 0-.11.09-.17.1-.06.16-.05.19 0 .03.04.69 1.08.75 1.17s.15.15.17.13c.02-.01 0-.12-.05-.21-.06-.09-.72-1.12-.75-1.17-.03-.04-.01-.1.08-.17.09-.06.15-.06.19 0 .04.05.78.97.96 1.25.21.32.19.87 0 .99l.01-.02zm1.42-1.23c-.15.17-.69.1-.98-.14-.25-.22-1.06-1.08-1.1-1.13-.04-.05-.03-.11.04-.19.08-.09.14-.09.18-.06.04.03.97.84 1.05.91s.18.1.2.08-.03-.12-.11-.19-1.01-.87-1.05-.91c-.04-.03-.04-.1.03-.18.07-.08.13-.1.18-.06.05.04 1.02.71 1.28.93.29.24.43.78.28.95v-.01zm.48-2.41c.34.15.63.63.54.83-.09.2-.64.3-.98.14-.3-.14-1.32-.74-1.37-.77-.06-.03-.06-.09-.02-.19.05-.11.11-.13.15-.11.05.02 1.17.53 1.26.58s.2.04.21.02c.01-.03-.06-.1-.15-.15-.1-.04-1.22-.56-1.26-.58-.05-.02-.07-.08-.02-.19.04-.1.1-.13.16-.11s1.18.39 1.49.53h-.01zm.32-1.62c.37.05.78.42.75.64s-.53.46-.9.41c-.33-.05-1.48-.34-1.54-.36-.06-.01-.09-.07-.07-.18.02-.11.07-.15.12-.15.05 0 1.27.18 1.37.2.1.01.2-.01.21-.04 0-.03-.08-.08-.19-.1-.1-.01-1.32-.19-1.37-.2s-.09-.06-.07-.17c.01-.1.05-.15.12-.15.06 0 1.24.05 1.58.09l-.01.01zm-5.79 3.4c-2.04 0-3.7-1.66-3.7-3.7s1.66-3.7 3.7-3.7 3.7 1.66 3.7 3.7-1.66 3.7-3.7 3.7zm6.54-4.64c.03.22-.38.59-.75.64-.33.05-1.51.09-1.58.09-.06 0-.1-.05-.12-.15-.02-.11.02-.17.07-.17s1.27-.18 1.37-.2.19-.07.19-.1-.1-.06-.21-.04c-.1.02-1.32.19-1.37.2-.05 0-.1-.03-.12-.15-.02-.1 0-.16.07-.18.06-.01 1.21-.31 1.54-.36.37-.06.87.19.9.41l.01.01zm-.53-1.8c.09.2-.19.67-.54.83-.31.14-1.43.51-1.49.53-.06.02-.11-.02-.16-.11-.05-.11-.03-.16.02-.19.05-.02 1.17-.53 1.26-.58.1-.04.16-.12.15-.15s-.12-.03-.21.02c-.1.04-1.22.55-1.26.58-.05.02-.11 0-.15-.11-.04-.1-.04-.16.02-.19s1.07-.63 1.37-.77c.34-.16.89-.07.98.14h.01zm-1.02-1.58c.15.17 0 .7-.28.95-.25.22-1.22.89-1.28.93-.05.04-.11.02-.18-.06-.08-.09-.07-.15-.03-.18.04-.03.97-.84 1.05-.91s.12-.16.11-.19c-.02-.02-.12 0-.2.08-.08.07-1.01.87-1.05.91s-.1.03-.18-.06c-.07-.08-.08-.14-.04-.19s.85-.91 1.1-1.13c.28-.25.83-.31.98-.14v-.01zm-1.42-1.23c.19.12.2.67 0 .99-.18.28-.92 1.2-.96 1.25s-.1.05-.19 0c-.1-.06-.11-.12-.08-.17.03-.04.69-1.08.75-1.17s.07-.19.05-.21-.11.04-.17.13-.72 1.12-.75 1.17c-.03.04-.09.06-.19 0-.09-.06-.12-.11-.09-.17s.56-1.11.74-1.39c.2-.32.71-.53.9-.41l-.01-.02zm-1.43.17c-.1.32-.55 1.41-.57 1.47s-.08.07-.19.04-.14-.09-.13-.14.36-1.23.39-1.33c.03-.1.01-.2-.01-.21-.03 0-.1.07-.12.17s-.38 1.28-.39 1.33-.07.08-.18.05c-.1-.03-.15-.08-.13-.14.01-.06.22-1.22.32-1.55.1-.36.53-.71.74-.65s.38.59.27.95v.01zm-1.6-.38c0 .34-.13 1.51-.13 1.57s-.06.1-.17.1c-.12 0-.16-.04-.16-.1v-1.39c0-.11-.04-.2-.07-.2s-.07.1-.07.2v1.39c0 .05-.04.1-.16.1-.11 0-.16-.03-.17-.1s-.13-1.24-.13-1.57c0-.38.31-.83.53-.83s.53.46.53.83z"/><path class="st3" d="M5.5 28.484c0 4.14 3.36 7.5 7.5 7.5s7.5-3.36 7.5-7.5-3.36-7.5-7.5-7.5-7.5 3.36-7.5 7.5zm14.6 0c0 3.91-3.18 7.1-7.1 7.1s-7.1-3.19-7.1-7.1 3.18-7.1 7.1-7.1 7.1 3.18 7.1 7.1z"/><g><rect class="st0" x=".12" y=".119" width="25.75" height="18.75" rx="1.88" ry="1.88"/><path class="st1" d="M.25 1.999c0-.96.79-1.75 1.75-1.75h22c.96 0 1.75.79 1.75 1.75v15c0 .96-.79 1.75-1.75 1.75H2c-.96 0-1.75-.79-1.75-1.75v-15m-.25 0v15c0 1.1.9 2 2 2h22c1.1 0 2-.9 2-2v-15c0-1.1-.9-2-2-2H2c-1.1 0-2 .9-2 2z"/></g><g><path class="st2" d="M9.5 9.499c0 1.93 1.57 3.5 3.5 3.5s3.5-1.57 3.5-3.5-1.57-3.5-3.5-3.5-3.5 1.57-3.5 3.5zm.29 0c0-1.08.33-1.35.91-1.28.58.07 1.22.7 1.22.86v.11l-.85-.23v.03l.84.23c0 .08-.03.15-.03.27h-1.15v.03h1.15c0 .12.03.19.03.27l-.85.23v.03l.85-.23v.11c0 .16-.64.79-1.22.86s-.91-.21-.91-1.28l.01-.01zm2.21 3.05c-1.02-.33-1.18-.73-.94-1.26s1.04-.94 1.19-.89c.04.01.07.03.1.04l-.48.73h.03l.48-.72c.07.03.13.08.25.12l-.36 1.09h.03l.36-1.08c.12.04.19.04.27.05l-.04.88h.03l.04-.87c.03 0 .07.02.11.03.15.05.55.85.44 1.42-.12.57-.48.8-1.5.47l-.01-.01zm3.6-2.74c.51.29.61.7-.02 1.57-.63.87-1.06.9-1.49.51-.43-.39-.57-1.28-.48-1.41.02-.03.05-.06.07-.08l.55.68.02-.02-.55-.68c.05-.06.12-.1.19-.2l.93.68.02-.03-.93-.68c.07-.1.09-.17.13-.24l.82.31.02-.03-.82-.31.06-.09c.09-.13.98-.26 1.49.02h-.01zm-2.61.56a.87.87 0 1 1 0-1.741.87.87 0 0 1 0 1.74zm2.59-2.76c.63.87.53 1.29.02 1.57-.51.29-1.4.15-1.49.02l-.06-.09.82-.31-.02-.03-.82.31c-.04-.07-.06-.14-.13-.24l.93-.68-.02-.03-.93.68c-.07-.1-.14-.14-.19-.2l.55-.69-.02-.02-.55.68s-.04-.05-.07-.08c-.09-.13.05-1.01.48-1.41.43-.39.86-.37 1.49.51l.01.01zm-2.08-.7c.12.57-.29 1.37-.44 1.42l-.11.03-.04-.88h-.03l.04.88c-.08.02-.15.01-.27.05l-.36-1.09h-.03l.36 1.1c-.11.04-.18.09-.25.12l-.48-.74h-.03l.48.75c-.03.01-.06.03-.1.04-.15.05-.95-.36-1.19-.89s-.08-.93.94-1.26 1.39-.1 1.5.47h.01z"/><path class="st2" d="M12.55 9.499c0 .25.2.45.45.45s.45-.2.45-.45-.2-.45-.45-.45-.45.2-.45.45z"/><path class="st3" d="M6.15 9.499c0 3.78 3.07 6.85 6.85 6.85s6.85-3.07 6.85-6.85-3.07-6.85-6.85-6.85-6.85 3.07-6.85 6.85zm4.99-6.34c.21-.06.64.29.74.65.09.32.3 1.48.32 1.55.01.06-.03.11-.13.14-.11.03-.17 0-.18-.05s-.36-1.23-.39-1.33c-.03-.1-.1-.18-.12-.17-.03 0-.04.11-.01.21s.38 1.28.39 1.33-.02.1-.13.14c-.1.03-.16.01-.19-.04s-.47-1.15-.57-1.47c-.11-.36.06-.89.27-.95v-.01zm-1.71.78c.19-.12.7.1.9.41.18.28.71 1.34.74 1.39.03.06 0 .11-.09.17-.1.06-.16.05-.19 0s-.69-1.08-.75-1.17-.15-.15-.17-.13 0 .12.05.21.72 1.12.75 1.17c.03.04.01.1-.08.17-.09.06-.15.06-.19 0-.04-.05-.78-.97-.96-1.25-.21-.32-.19-.87 0-.99l-.01.02zm-1.42 1.23c.15-.17.69-.1.98.14.25.22 1.06 1.08 1.1 1.13.04.05.03.11-.04.19-.08.09-.14.09-.18.06s-.97-.84-1.05-.91-.18-.1-.2-.08c-.02.02.03.12.11.19s1.01.87 1.05.91c.04.03.04.1-.03.18s-.13.1-.18.06-1.02-.71-1.28-.93c-.29-.24-.43-.78-.28-.95v.01zm-.48 2.41c-.34-.15-.63-.63-.54-.83s.64-.3.98-.14c.3.14 1.32.74 1.37.77.06.03.06.09.02.19-.05.11-.11.13-.15.11-.05-.02-1.17-.53-1.26-.58-.1-.04-.2-.04-.21-.02s.06.1.15.15 1.22.56 1.26.58c.05.02.07.08.02.19-.04.1-.1.13-.16.11-.06-.02-1.18-.39-1.49-.53h.01zm-.32 1.62c-.37-.05-.78-.42-.75-.64.03-.22.53-.46.9-.41.33.05 1.48.34 1.54.36.06.01.09.07.07.18-.02.11-.07.15-.12.15s-1.27-.18-1.37-.2c-.1-.01-.2.01-.21.04 0 .03.08.08.19.1s1.32.19 1.37.2.09.06.07.17c-.02.1-.05.15-.12.15-.06 0-1.24-.05-1.57-.09v-.01zm-.75 1.24c-.03-.22.38-.59.75-.64.33-.05 1.51-.09 1.57-.09.06 0 .1.05.12.15.02.11-.02.17-.07.17s-1.27.18-1.37.2c-.1.01-.19.07-.19.1s.1.06.21.04c.1-.01 1.32-.19 1.37-.2s.1.03.12.15c.02.1 0 .16-.07.18-.06.01-1.21.31-1.54.36-.37.06-.87-.19-.9-.41v-.01zm.53 1.8c-.09-.2.19-.67.54-.83.31-.14 1.43-.51 1.49-.53.06-.02.11.02.16.11.05.11.03.16-.02.19-.05.02-1.17.53-1.26.58-.1.04-.16.12-.15.15.01.03.12.03.21-.02.1-.04 1.22-.55 1.26-.58.05-.02.11 0 .15.11.04.1.04.16-.02.19s-1.07.63-1.37.77c-.34.16-.89.07-.98-.14h-.01zm1.02 1.58c-.15-.17 0-.7.28-.95.25-.22 1.22-.89 1.28-.93.05-.04.11-.02.18.06.08.09.07.15.03.18-.04.03-.97.84-1.05.91s-.12.16-.11.19c.02.02.12 0 .2-.08.08-.07 1.01-.87 1.05-.91.04-.03.1-.03.18.06.07.08.08.14.04.19s-.85.91-1.1 1.13c-.28.25-.83.31-.98.14v.01zm1.42 1.23c-.19-.12-.2-.67 0-.99.18-.28.92-1.2.96-1.25s.1-.05.19 0c.1.06.11.12.08.17-.03.04-.69 1.08-.75 1.17s-.07.19-.05.21c.02.01.11-.04.17-.13s.72-1.12.75-1.17c.03-.04.09-.06.19 0 .09.06.12.11.09.17s-.56 1.11-.74 1.39c-.2.32-.71.53-.9.41l.01.02zm1.43-.17c.1-.32.55-1.41.57-1.47.02-.06.08-.07.19-.04s.14.09.13.14-.36 1.23-.39 1.33c-.03.1-.01.2.01.21.03 0 .1-.07.12-.17.03-.1.38-1.28.39-1.33s.07-.08.18-.05c.1.03.15.08.13.14-.01.06-.22 1.22-.32 1.55-.1.36-.53.71-.74.65s-.38-.59-.27-.95v-.01zm2.14 1.22c-.22 0-.53-.46-.53-.83 0-.33.13-1.51.13-1.57s.06-.1.17-.1c.12 0 .16.04.16.1v1.39c0 .11.04.2.07.2s.07-.1.07-.2v-1.39c0-.05.04-.1.16-.1.11 0 .16.03.17.1 0 .06.13 1.24.13 1.57 0 .38-.31.83-.53.83zm1.86-.27c-.21.06-.64-.29-.74-.65-.09-.32-.3-1.48-.32-1.55-.01-.06.03-.11.13-.14.11-.03.17 0 .18.05s.36 1.23.39 1.33c.03.1.1.18.12.17s.04-.11.01-.21-.38-1.28-.39-1.33.02-.1.13-.14c.1-.03.16-.01.19.04.02.06.47 1.15.57 1.47.11.36-.06.89-.27.95v.01zm1.71-.78c-.19.12-.7-.1-.9-.41-.18-.28-.71-1.34-.74-1.39-.03-.06 0-.11.09-.17.1-.06.16-.05.19 0 .03.04.69 1.08.75 1.17s.15.15.17.13c.02-.01 0-.12-.05-.21-.06-.09-.72-1.12-.75-1.17-.03-.04-.01-.1.08-.17.09-.06.15-.06.19 0 .04.05.78.97.96 1.25.21.32.19.87 0 .99l.01-.02zm1.42-1.23c-.15.17-.69.1-.98-.14-.25-.22-1.06-1.08-1.1-1.13-.04-.05-.03-.11.04-.19.08-.09.14-.09.18-.06.04.03.97.84 1.05.91s.18.1.2.08-.03-.12-.11-.19-1.01-.87-1.05-.91c-.04-.03-.04-.1.03-.18.07-.08.13-.1.18-.06.05.04 1.02.71 1.28.93.29.24.43.78.28.95v-.01zm.48-2.41c.34.15.63.63.54.83-.09.2-.64.3-.98.14-.3-.14-1.32-.74-1.37-.77-.06-.03-.06-.09-.02-.19.05-.11.11-.13.15-.11.05.02 1.17.53 1.26.58s.2.04.21.02c.01-.03-.06-.1-.15-.15-.1-.04-1.22-.56-1.26-.58-.05-.02-.07-.08-.02-.19.04-.1.1-.13.16-.11s1.18.39 1.49.53h-.01zm.32-1.62c.37.05.78.42.75.64s-.53.46-.9.41c-.33-.05-1.48-.34-1.54-.36-.06-.01-.09-.07-.07-.18.02-.11.07-.15.12-.15.05 0 1.27.18 1.37.2.1.01.2-.01.21-.04 0-.03-.08-.08-.19-.1-.1-.01-1.32-.19-1.37-.2s-.09-.06-.07-.17c.01-.1.05-.15.12-.15.06 0 1.24.05 1.58.09l-.01.01zm-5.79 3.4c-2.04 0-3.7-1.66-3.7-3.7s1.66-3.7 3.7-3.7 3.7 1.66 3.7 3.7-1.66 3.7-3.7 3.7zm6.54-4.64c.03.22-.38.59-.75.64-.33.05-1.51.09-1.58.09-.06 0-.1-.05-.12-.15-.02-.11.02-.17.07-.17s1.27-.18 1.37-.2.19-.07.19-.1-.1-.06-.21-.04c-.1.02-1.32.19-1.37.2-.05 0-.1-.03-.12-.15-.02-.1 0-.16.07-.18.06-.01 1.21-.31 1.54-.36.37-.06.87.19.9.41l.01.01zm-.53-1.8c.09.2-.19.67-.54.83-.31.14-1.43.51-1.49.53-.06.02-.11-.02-.16-.11-.05-.11-.03-.16.02-.19.05-.02 1.17-.53 1.26-.58.1-.04.16-.12.15-.15s-.12-.03-.21.02c-.1.04-1.22.55-1.26.58-.05.02-.11 0-.15-.11-.04-.1-.04-.16.02-.19s1.07-.63 1.37-.77c.34-.16.89-.07.98.14h.01zm-1.02-1.58c.15.17 0 .7-.28.95-.25.22-1.22.89-1.28.93-.05.04-.11.02-.18-.06-.08-.09-.07-.15-.03-.18.04-.03.97-.84 1.05-.91s.12-.16.11-.19c-.02-.02-.12 0-.2.08-.08.07-1.01.87-1.05.91s-.1.03-.18-.06c-.07-.08-.08-.14-.04-.19s.85-.91 1.1-1.13c.28-.25.83-.31.98-.14v-.01zm-1.42-1.23c.19.12.2.67 0 .99-.18.28-.92 1.2-.96 1.25s-.1.05-.19 0c-.1-.06-.11-.12-.08-.17.03-.04.69-1.08.75-1.17s.07-.19.05-.21-.11.04-.17.13-.72 1.12-.75 1.17c-.03.04-.09.06-.19 0-.09-.06-.12-.11-.09-.17s.56-1.11.74-1.39c.2-.32.71-.53.9-.41l-.01-.02zm-1.43.17c-.1.32-.55 1.41-.57 1.47s-.08.07-.19.04-.14-.09-.13-.14.36-1.23.39-1.33c.03-.1.01-.2-.01-.21-.03 0-.1.07-.12.17s-.38 1.28-.39 1.33-.07.08-.18.05c-.1-.03-.15-.08-.13-.14.01-.06.22-1.22.32-1.55.1-.36.53-.71.74-.65s.38.59.27.95v.01zm-1.6-.38c0 .34-.13 1.51-.13 1.57s-.06.1-.17.1c-.12 0-.16-.04-.16-.1v-1.39c0-.11-.04-.2-.07-.2s-.07.1-.07.2v1.39c0 .05-.04.1-.16.1-.11 0-.16-.03-.17-.1s-.13-1.24-.13-1.57c0-.38.31-.83.53-.83s.53.46.53.83z"/><path class="st3" d="M5.5 9.499c0 4.14 3.36 7.5 7.5 7.5s7.5-3.36 7.5-7.5-3.36-7.5-7.5-7.5-7.5 3.36-7.5 7.5zm14.6 0c0 3.91-3.18 7.1-7.1 7.1s-7.1-3.19-7.1-7.1 3.18-7.1 7.1-7.1 7.1 3.18 7.1 7.1z"/></g></svg>