<svg id="_图层_1" xmlns="http://www.w3.org/2000/svg" version="1.1" viewBox="0 0 26 19"><defs><style>.st1{fill:#005529}.st3{fill:#881c21}</style></defs><rect x="3.63" y="-3.37" width="18.75" height="25.75" rx="1.88" ry="1.88" transform="rotate(-90 13.005 9.505)" style="fill:#f5f6f7"/><path d="M.25 2C.25 1.04 1.04.25 2 .25h22c.96 0 1.75.79 1.75 1.75v15c0 .96-.79 1.75-1.75 1.75H2c-.96 0-1.75-.79-1.75-1.75V2M0 2v15c0 1.1.9 2 2 2h22c1.1 0 2-.9 2-2V2c0-1.1-.9-2-2-2H2C.9 0 0 .9 0 2z" style="fill:#93989c"/><g><path class="st1" d="M21.7 13.31h-.12s-.19.02-.28-.05c-.14-.1-.34-.55-.82-.55s-.67.44-.82.55c-.1.07-.28.05-.28.05h-.13s-.32.02-.43-.07c-.17-.14-.32-.49-.68-.47-.3.01-.5.25-.57.63-.04.22-.33.33-.33.91 0 .58.3.7.33.91.06.38.26.62.57.63.36.01.51-.33.68-.47.11-.09.43-.07.43-.07h.13s.19-.02.28.05c.14.1.34.55.82.55s.67-.44.82-.55c.1-.07.28-.05.28-.05h.12s.32-.02.43.07c.23.2.43.58.75.47.33-.12.54-.34.48-.72-.05-.34-.25-.43-.25-.82 0-.39.19-.49.25-.82.06-.38-.15-.6-.48-.72-.32-.12-.51.26-.75.47-.11.1-.43.07-.43.07zm.88.67c.1 0 .18.1.18.23v.19c0 .13-.08.23-.18.23H21.1c-.1 0-.18-.1-.18-.23v-.19c0-.13.08-.23.18-.23h1.48zm-2.01 0c.08 0 .15.09.15.19v.27c0 .11-.07.19-.15.19h-.33c-.08 0-.15-.09-.15-.19v-.27c0-.11.07-.19.15-.19h.33zm-.87 0c.1 0 .18.1.18.23v.19c0 .13-.08.23-.18.23h-1.48c-.1 0-.18-.1-.18-.23v-.19c0-.13.08-.23.18-.23h1.48zM21.7 3.69h-.12s-.19.02-.28-.05c-.14-.1-.34-.55-.82-.55s-.67.44-.82.55c-.1.07-.28.05-.28.05h-.13s-.32.02-.43-.07c-.17-.14-.32-.49-.68-.47-.3.01-.5.25-.57.63-.04.22-.33.33-.33.91 0 .58.3.7.33.91.06.38.26.62.57.63.36.01.51-.33.68-.47.11-.09.43-.07.43-.07h.13s.19-.02.28.05c.14.1.34.55.82.55s.67-.44.82-.55c.1-.07.28-.05.28-.05h.12s.32-.02.43.07c.23.2.43.58.75.47.33-.12.54-.34.48-.72-.05-.34-.25-.43-.25-.82 0-.39.19-.49.25-.82.06-.38-.15-.6-.48-.72-.32-.12-.51.26-.75.47-.11.1-.43.07-.43.07zm.88.67c.1 0 .18.1.18.23v.19c0 .13-.08.23-.18.23H21.1c-.1 0-.18-.1-.18-.23v-.19c0-.13.08-.23.18-.23h1.48zm-2.01 0c.08 0 .15.09.15.19v.27c0 .11-.07.19-.15.19h-.33c-.08 0-.15-.09-.15-.19v-.27c0-.11.07-.19.15-.19h.33zm-.87 0c.1 0 .18.1.18.23v.19c0 .13-.08.23-.18.23h-1.48c-.1 0-.18-.1-.18-.23v-.19c0-.13.08-.23.18-.23h1.48z"/><path class="st3" d="M21.7 8.5h-.12s-.19.02-.28-.05c-.14-.1-.34-.55-.82-.55s-.67.44-.82.55c-.1.07-.28.05-.28.05h-.13s-.32.02-.43-.07c-.17-.14-.32-.49-.68-.47-.3.01-.5.25-.57.63-.04.22-.33.33-.33.91s.3.7.33.91c.06.38.26.62.57.63.36.01.51-.33.68-.47.11-.09.43-.07.43-.07h.13s.19-.02.28.05c.14.1.34.55.82.55s.67-.44.82-.55c.1-.07.28-.05.28-.05h.12s.32-.02.43.07c.23.2.43.58.75.47.33-.12.54-.34.48-.72-.05-.34-.25-.43-.25-.82s.19-.49.25-.82c.06-.38-.15-.6-.48-.72-.32-.12-.51.26-.75.47-.11.1-.43.07-.43.07zm.88.67c.1 0 .18.1.18.23v.19c0 .13-.08.23-.18.23H21.1c-.1 0-.18-.1-.18-.23V9.4c0-.13.08-.23.18-.23h1.48zm-2.01 0c.08 0 .15.09.15.19v.27c0 .11-.07.19-.15.19h-.33c-.08 0-.15-.09-.15-.19v-.27c0-.11.07-.19.15-.19h.33zm-.87 0c.1 0 .18.1.18.23v.19c0 .13-.08.23-.18.23h-1.48c-.1 0-.18-.1-.18-.23V9.4c0-.13.08-.23.18-.23h1.48z"/><path class="st1" d="M7.08 13.31h-.12s-.19.02-.28-.05c-.14-.1-.34-.55-.82-.55s-.67.44-.82.55c-.1.07-.28.05-.28.05h-.13s-.32.02-.43-.07c-.17-.14-.32-.49-.68-.47-.3.01-.5.25-.56.63-.04.22-.33.33-.33.91 0 .58.3.7.33.91.06.38.26.62.56.63.36.01.51-.33.68-.47.11-.09.43-.07.43-.07h.13s.19-.02.28.05c.14.1.34.55.82.55s.67-.44.82-.55c.1-.07.28-.05.28-.05h.12s.32-.02.43.07c.23.2.43.58.75.47.33-.12.54-.34.48-.72-.05-.34-.25-.43-.25-.82 0-.39.19-.49.25-.82.06-.38-.15-.6-.48-.72-.32-.12-.51.26-.75.47-.11.1-.43.07-.43.07zm.88.67c.1 0 .18.1.18.23v.19c0 .13-.08.23-.18.23H6.48c-.1 0-.18-.1-.18-.23v-.19c0-.13.08-.23.18-.23h1.48zm-2.01 0c.08 0 .15.09.15.19v.27c0 .11-.07.19-.15.19h-.33c-.08 0-.15-.09-.15-.19v-.27c0-.11.07-.19.15-.19h.33zm-.87 0c.1 0 .18.1.18.23v.19c0 .13-.08.23-.18.23H3.6c-.1 0-.18-.1-.18-.23v-.19c0-.13.08-.23.18-.23h1.48zM7.08 3.69h-.12s-.19.02-.28-.05c-.14-.1-.34-.55-.82-.55s-.67.44-.82.55c-.1.07-.28.05-.28.05h-.13s-.32.02-.43-.07c-.17-.14-.32-.49-.68-.47-.3.01-.5.25-.56.63-.04.22-.33.33-.33.91 0 .58.3.7.33.91.06.38.26.62.56.63.36.01.51-.33.68-.47.11-.09.43-.07.43-.07h.13s.19-.02.28.05c.14.1.34.55.82.55s.67-.44.82-.55c.1-.07.28-.05.28-.05h.12s.32-.02.43.07c.23.2.43.58.75.47.33-.12.54-.34.48-.72-.05-.34-.25-.43-.25-.82 0-.39.19-.49.25-.82.06-.38-.15-.6-.48-.72-.32-.12-.51.26-.75.47-.11.1-.43.07-.43.07zm.88.67c.1 0 .18.1.18.23v.19c0 .13-.08.23-.18.23H6.48c-.1 0-.18-.1-.18-.23v-.19c0-.13.08-.23.18-.23h1.48zm-2.01 0c.08 0 .15.09.15.19v.27c0 .11-.07.19-.15.19h-.33c-.08 0-.15-.09-.15-.19v-.27c0-.11.07-.19.15-.19h.33zm-.87 0c.1 0 .18.1.18.23v.19c0 .13-.08.23-.18.23H3.6c-.1 0-.18-.1-.18-.23v-.19c0-.13.08-.23.18-.23h1.48z"/><path class="st3" d="M7.08 8.5h-.12s-.19.02-.28-.05c-.14-.1-.34-.55-.82-.55s-.67.44-.82.55c-.1.07-.28.05-.28.05h-.13s-.32.02-.43-.07c-.17-.14-.32-.49-.68-.47-.3.01-.5.25-.56.63-.04.22-.33.33-.33.91s.3.7.33.91c.06.38.26.62.56.63.36.01.51-.33.68-.47.11-.09.43-.07.43-.07h.13s.19-.02.28.05c.14.1.34.55.82.55s.67-.44.82-.55c.1-.07.28-.05.28-.05h.12s.32-.02.43.07c.23.2.43.58.75.47.33-.12.54-.34.48-.72-.05-.34-.25-.43-.25-.82s.19-.49.25-.82c.06-.38-.15-.6-.48-.72-.32-.12-.51.26-.75.47-.11.1-.43.07-.43.07zm.88.67c.1 0 .18.1.18.23v.19c0 .13-.08.23-.18.23H6.48c-.1 0-.18-.1-.18-.23V9.4c0-.13.08-.23.18-.23h1.48zm-2.01 0c.08 0 .15.09.15.19v.27c0 .11-.07.19-.15.19h-.33c-.08 0-.15-.09-.15-.19v-.27c0-.11.07-.19.15-.19h.33zm-.87 0c.1 0 .18.1.18.23v.19c0 .13-.08.23-.18.23H3.6c-.1 0-.18-.1-.18-.23V9.4c0-.13.08-.23.18-.23h1.48z"/><path class="st1" d="M14.39 13.31h-.12s-.19.02-.28-.05c-.14-.1-.34-.55-.82-.55s-.67.44-.82.55c-.1.07-.28.05-.28.05h-.13s-.32.02-.43-.07c-.17-.14-.32-.49-.68-.47-.3.01-.5.25-.57.63-.04.22-.33.33-.33.91 0 .58.3.7.33.91.06.38.26.62.57.63.36.01.51-.33.68-.47.11-.09.43-.07.43-.07h.13s.19-.02.28.05c.14.1.34.55.82.55s.67-.44.82-.55c.1-.07.28-.05.28-.05h.12s.32-.02.43.07c.23.2.43.58.75.47.33-.12.54-.34.48-.72-.05-.34-.25-.43-.25-.82 0-.39.19-.49.25-.82.06-.38-.15-.6-.48-.72-.32-.12-.51.26-.75.47-.11.1-.43.07-.43.07zm.88.67c.1 0 .18.1.18.23v.19c0 .13-.08.23-.18.23h-1.48c-.1 0-.18-.1-.18-.23v-.19c0-.13.08-.23.18-.23h1.48zm-2.01 0c.08 0 .15.09.15.19v.27c0 .11-.07.19-.15.19h-.33c-.08 0-.15-.09-.15-.19v-.27c0-.11.07-.19.15-.19h.33zm-.87 0c.1 0 .18.1.18.23v.19c0 .13-.08.23-.18.23h-1.48c-.1 0-.18-.1-.18-.23v-.19c0-.13.08-.23.18-.23h1.48zM14.39 3.69h-.12s-.19.02-.28-.05c-.14-.1-.34-.55-.82-.55s-.67.44-.82.55c-.1.07-.28.05-.28.05h-.13s-.32.02-.43-.07c-.17-.14-.32-.49-.68-.47-.3.01-.5.25-.57.63-.04.22-.33.33-.33.91 0 .58.3.7.33.91.06.38.26.62.57.63.36.01.51-.33.68-.47.11-.09.43-.07.43-.07h.13s.19-.02.28.05c.14.1.34.55.82.55s.67-.44.82-.55c.1-.07.28-.05.28-.05h.12s.32-.02.43.07c.23.2.43.58.75.47.33-.12.54-.34.48-.72-.05-.34-.25-.43-.25-.82 0-.39.19-.49.25-.82.06-.38-.15-.6-.48-.72-.32-.12-.51.26-.75.47-.11.1-.43.07-.43.07zm.88.67c.1 0 .18.1.18.23v.19c0 .13-.08.23-.18.23h-1.48c-.1 0-.18-.1-.18-.23v-.19c0-.13.08-.23.18-.23h1.48zm-2.01 0c.08 0 .15.09.15.19v.27c0 .11-.07.19-.15.19h-.33c-.08 0-.15-.09-.15-.19v-.27c0-.11.07-.19.15-.19h.33zm-.87 0c.1 0 .18.1.18.23v.19c0 .13-.08.23-.18.23h-1.48c-.1 0-.18-.1-.18-.23v-.19c0-.13.08-.23.18-.23h1.48z"/><path class="st3" d="M14.39 8.5h-.12s-.19.02-.28-.05c-.14-.1-.34-.55-.82-.55s-.67.44-.82.55c-.1.07-.28.05-.28.05h-.13s-.32.02-.43-.07c-.17-.14-.32-.49-.68-.47-.3.01-.5.25-.57.63-.04.22-.33.33-.33.91s.3.7.33.91c.06.38.26.62.57.63.36.01.51-.33.68-.47.11-.09.43-.07.43-.07h.13s.19-.02.28.05c.14.1.34.55.82.55s.67-.44.82-.55c.1-.07.28-.05.28-.05h.12s.32-.02.43.07c.23.2.43.58.75.47.33-.12.54-.34.48-.72-.05-.34-.25-.43-.25-.82s.19-.49.25-.82c.06-.38-.15-.6-.48-.72-.32-.12-.51.26-.75.47-.11.1-.43.07-.43.07zm.88.67c.1 0 .18.1.18.23v.19c0 .13-.08.23-.18.23h-1.48c-.1 0-.18-.1-.18-.23V9.4c0-.13.08-.23.18-.23h1.48zm-2.01 0c.08 0 .15.09.15.19v.27c0 .11-.07.19-.15.19h-.33c-.08 0-.15-.09-.15-.19v-.27c0-.11.07-.19.15-.19h.33zm-.87 0c.1 0 .18.1.18.23v.19c0 .13-.08.23-.18.23h-1.48c-.1 0-.18-.1-.18-.23V9.4c0-.13.08-.23.18-.23h1.48z"/></g></svg>