<svg xmlns="http://www.w3.org/2000/svg" viewBox="0 0 26 19"><rect x="3.62" y="-3.37" width="18.75" height="25.75" rx="1.88" ry="1.88" transform="rotate(-90 12.995 9.505)" style="fill:#f5f6f7"/><path d="M.25 2C.25 1.04 1.04.25 2 .25h22c.96 0 1.75.79 1.75 1.75v15c0 .96-.79 1.75-1.75 1.75H2c-.96 0-1.75-.79-1.75-1.75V2M0 2v15c0 1.1.9 2 2 2h22c1.1 0 2-.9 2-2V2c0-1.1-.9-2-2-2H2C.9 0 0 .9 0 2z" style="fill:#93989c"/><path d="M10.73 14.84c-.12-.05-.18-.14-.18-.28 0-.09.12-.4.36-.93-.24-1.16-.5-2.22-.78-3.17-.14.02-.4.04-.78.04 0 .07.04.25.11.53s.11.52.11.71c0 .45-.17.75-.5.89a9.7 9.7 0 0 1-.12-.87c-.06-.49-.15-.88-.27-1.19h-.11c-.83 0-1.55.21-2.17.64s-1.26.64-1.92.64c.31-.66.55-1.34.73-2.03s.32-1.13.41-1.32c.1-.19.29-.28.57-.28.14 0 .25.07.32.2s.14.27.2.43c.06.15.23.31.52.46.28.15.68.26 1.18.3-.09-.36-.23-.63-.41-.82-.18-.19-.27-.33-.27-.43 0-.21.08-.44.23-.69.15-.25.29-.37.41-.37s.21.1.28.3.15.52.23.96c.08.44.17.8.27 1.09.09 0 .24.01.43.04.19.02.32.04.39.04L9.44 6.7c0-.21.21-.51.62-.89.42-.38.77-.57 1.05-.57.24 0 .39.26.46.78.45.17.9.43 1.35.78.45.36.78.53 1 .53.38 0 .57.11.57.32 0 .14-.08.32-.25.53.02.31.07.55.14.71.81-.64 1.44-1.43 1.89-2.37s.83-1.8 1.14-2.58.7-1.33 1.18-1.64c-.05.36-.15.72-.32 1.09s-.25.62-.25.77.11.33.34.71.34.7.34.96c0 .33-.17.67-.52 1-.34.33-.95.78-1.82 1.34-.87.56-1.5.99-1.91 1.3.02.05.04.14.04.28.26 0 .59.01 1 .04.4.02.71.04.93.04.67 0 1.53-.09 2.58-.27 1.06-.18 1.64-.27 1.76-.27 1.09 0 1.64.23 1.64.68 0 .26-.33.51-1 .75-.66.24-1.26.36-1.78.36-.24 0-1.15.58-2.74 1.75 1.05 1.28 1.57 2.29 1.57 3.03 0 .4-.04.69-.11.85-.81-1.59-1.52-2.75-2.14-3.49l-.46.14.25-.32c-.36-.43-.87-.81-1.53-1.14-.02.24-.17.46-.43.68-.02.02-.07.02-.12-.02-.06-.04-.1-.05-.12-.05-.05 0-.27.17-.68.52-.4.34-.85.71-1.34 1.1s-.83.64-1.02.73l-.02-.02zm-.14-4.38c.19.97.46 1.86.82 2.67.4-.4.67-.64.78-.71-.12-.21-.21-.55-.27-1.01s-.11-.79-.16-.98c-.12 0-.31 0-.57.02-.26.01-.46.02-.61.02l.01-.01zm3.92-.07s0 .14-.02.27c-.01.13-.02.23-.02.3.5.28 1.2.8 2.1 1.53.12-.12.32-.29.61-.52.28-.23.5-.43.66-.61.15-.18.23-.33.23-.44 0-.21-1.19-.39-3.56-.53zm-2.07.04c.05.81.14 1.34.29 1.6.38-.17.69-.37.93-.61.02-.12.04-.3.05-.53.01-.24.02-.4.02-.5-.17 0-.39 0-.68.02-.28.01-.49.02-.61.02zm-1.92-3.42c-.19 0-.28.28-.28.85s.08 1.19.25 1.85c.17.02.39.04.66.05.27.01.46.02.55.02-.05-.33-.14-.6-.28-.8-.14-.2-.21-.43-.21-.69 0-.09.02-.18.07-.27.05-.08.12-.18.21-.28.09-.11.17-.2.21-.27-.55-.31-.94-.46-1.18-.46zm1.67.71c-.09.19-.14.32-.14.39 0 .12.05.38.14.78s.15.69.18.85c.12.02.32.04.61.04s.51-.01.68-.04c0-.36-.06-.8-.18-1.32-.09-.07-.3-.19-.62-.36s-.54-.28-.66-.36l-.01.02z" style="fill:#231815"/></svg>