<svg xmlns="http://www.w3.org/2000/svg" viewBox="0 0 26 19"><rect x="3.62" y="-3.37" width="18.75" height="25.75" rx="1.88" ry="1.88" transform="rotate(-90 12.995 9.505)" style="fill:#f5f6f7"/><path d="M.25 2C.25 1.04 1.04.25 2 .25h22c.96 0 1.75.79 1.75 1.75v15c0 .96-.79 1.75-1.75 1.75H2c-.96 0-1.75-.79-1.75-1.75V2M0 2v15c0 1.1.9 2 2 2h22c1.1 0 2-.9 2-2V2c0-1.1-.9-2-2-2H2C.9 0 0 .9 0 2z" style="fill:#93989c"/><path d="M4.47 10.07c.19-.47.58-.94 1.18-1.39C6.24 8.23 6.71 8 7.04 8c.14 0 .27.04.37.12.11.08.21.18.3.28.1.11.31.22.64.34s.76.2 1.28.25c-.09-.31-.24-.71-.44-1.21s-.36-.91-.48-1.25c-.12-.33-.18-.58-.18-.75s.21-.45.64-.78c.1-.07.26-.23.5-.46.24-.24.41-.4.52-.48.11-.08.25-.17.43-.27.18-.09.34-.14.48-.14.21 0 .32.1.32.29 0 .45.08.78.25 1 .26.17.57.39.93.66.36.27.64.49.85.66s.37.25.46.25c.43 0 .64.17.64.5 0 .12-.04.36-.11.73s-.12.84-.14 1.41c.21 0 .72.01 1.51.04.8.02 1.24.04 1.34.04.17 0 .62-.02 1.35-.07.74-.05 1.23-.07 1.5-.07.62 0 1.23.08 1.85.25s1.02.34 1.21.53c-.24.28-1.15.43-2.74.43-.17 0-.52-.01-1.07-.04-.55-.02-1.04-.04-1.5-.04-.26 0-.8.01-1.62.04-.82.02-1.42.04-1.8.04 0 .19.08.51.23.96s.23.82.23 1.1c0 .19-.18.29-.53.29-.21 0-.71.45-1.5 1.35-.78.9-1.38 1.35-1.78 1.35-.59 0-1-.09-1.21-.28.12-.19.3-.42.53-.69.24-.27.43-.51.57-.71s.21-.37.21-.52c0-.15-.15-.63-.46-1.46-.31-.83-.51-1.29-.61-1.39h-.53c-.28 0-.49 0-.62.02-.13.01-.32.03-.57.05s-.44.06-.57.11c-.13.05-.27.1-.43.16-.15.06-.27.15-.36.27a.69.69 0 0 0-.12.39c-.05 0-.14.02-.27.07s-.23.07-.3.07c-.55 0-1.14-.45-1.78-1.35l.01-.02zm7.16 2.64c.74-.52 1.45-.95 2.14-1.28-.05-.38-.12-.76-.21-1.14h-2.67c.07.21.18.48.34.8.15.32.27.59.36.82.08.23.12.4.12.52 0 .1-.02.19-.07.28h-.01zm-1.17-3.7c1.14.09 2.14.14 2.99.14 0-.09 0-.26.02-.5.01-.24.02-.45.02-.64-.09-.07-.29-.21-.59-.43-.3-.21-.53-.38-.71-.5s-.39-.25-.64-.41c-.25-.15-.48-.27-.68-.34-.2-.07-.37-.11-.52-.11-.28 0-.43.19-.43.57 0 .52.18 1.26.53 2.21l.01.01z" style="fill:#881c21"/></svg>