<svg id="_图层_1" xmlns="http://www.w3.org/2000/svg" version="1.1" viewBox="0 0 26 37.984"><defs><style>.st0{fill:#f5f6f7}.st1{fill:#231815}.st2{fill:#93989c}</style></defs><rect class="st0" x=".12" y="19.114" width="25.75" height="18.75" rx="1.88" ry="1.88"/><path class="st2" d="M.25 20.984c0-.96.79-1.75 1.75-1.75h22c.96 0 1.75.79 1.75 1.75v15c0 .96-.79 1.75-1.75 1.75H2c-.96 0-1.75-.79-1.75-1.75v-15m-.25 0v15c0 1.1.9 2 2 2h22c1.1 0 2-.9 2-2v-15c0-1.1-.9-2-2-2H2c-1.1 0-2 .9-2 2z"/><path class="st1" d="M17.61 29.194c.05.14.1.3.14.46.05.17.09.3.12.41.04.11.05.2.05.27 0 .17-.12.31-.36.43-.07-.12-.15-.34-.25-.68-.09-.33-.19-.63-.29-.89-.12.02-.28.05-.5.07-.21.02-.38.05-.5.07.05.21.11.4.18.57s.13.29.18.37c.05.08.07.15.07.2 0 .19-.11.37-.32.53-.14-.17-.33-.59-.57-1.28-.48.05-.96.3-1.46.75.1.33.27.72.52 1.17.25.45.45.68.59.68.36 0 1.03-.25 2.03-.75s1.69-.75 2.07-.75c.17 0 .32.07.45.21.13.14.2.28.2.43 0 .15-.07.28-.2.43-.13.14-.33.29-.61.45-.27.15-.53.29-.77.41s-.55.27-.94.45c-.39.18-.69.31-.91.41-.9.48-1.79.85-2.67 1.14l-.11-.21c0-.17.04-.34.12-.53s.2-.41.36-.66c.15-.25.27-.46.34-.62-.43-1.14-.68-1.78-.75-1.92-.38.38-.68.79-.89 1.23s-.36.77-.43 1c-.07.23-.15.34-.25.34s-.17-.03-.23-.09-.08-.11-.05-.16c.74-1.73 1.27-2.69 1.6-2.88a4.85 4.85 0 0 1-.25-.61c-.85-.17-1.67-.28-2.46-.36.14.57.21 1.14.21 1.71 0 .14-.07.27-.21.39-.07-.07-.18-.38-.34-.93-.15-.55-.34-1-.55-1.35-1.23-.12-2.04-.18-2.42-.18-.74 0-1.1.13-1.1.39v.11c-.71-.33-1.33-.78-1.85-1.35.1-.24.47-.58 1.12-1.01.65-.44 1.19-.66 1.62-.66.02 0 .07 0 .14.02.07.01.12.02.14.02.02.07.04.17.04.28 0 .31-.11.59-.32.85.17.05.5.12 1 .23.5.11.87.2 1.1.27-.09-.19-.3-.46-.62-.82s-.48-.59-.48-.71c0-.14.15-.3.46-.48s.56-.28.75-.3c.33.62.66 1.51 1 2.67.55.21 1.16.43 1.85.64-.07-.4-.43-1.03-1.07-1.89-.64-.85-1.04-1.44-1.21-1.74.43-.47.72-.71.89-.71.14 0 .26.03.34.09s.18.15.28.27c.11.12.21.21.3.29 0-.43.02-.73.05-.91.04-.18.14-.37.32-.59.18-.21.48-.45.91-.71.19-.12.4-.27.62-.45.23-.18.41-.3.55-.37s.31-.11.5-.11c.4 0 1.4.45 2.99 1.35.36.21.76.44 1.21.68s.79.42 1.02.53c.23.12.45.26.68.41s.38.3.46.43.12.28.12.45c0 .21-.04.42-.12.61s-.2.38-.36.57c-.15.19-.4.53-.75 1.03-.34.5-.71 1.06-1.09 1.67 0-.24.04-.46.11-.68-.28-.05-.81-.07-1.57-.07l.03-.03zm-4.38-1.92c.14 1.14.37 2.05.68 2.74.52-.33 1.03-.57 1.53-.71-.09-.47-.23-.88-.39-1.21-.66-.36-1.27-.63-1.82-.82zm-.64 1.85c.1.05.32.11.68.18-.31-1.14-.62-1.93-.93-2.39-.14-.05-.25-.07-.32-.07-.14 0-.21.1-.21.28 0 .07.05.2.14.39.09.19.21.44.34.75s.23.59.3.85v.01zm2.85-2.96c0 .74.08 1.39.25 1.96.07.02.42.06 1.03.11-.07-.33-.15-.62-.25-.87-.09-.25-.16-.43-.2-.53a.674.674 0 0 1-.05-.23c0-.31.19-.46.57-.46.17 0 .25.07.25.21 0 .59.08 1.22.25 1.89 1.04.05 1.76.13 2.14.25.36-.83.53-1.29.53-1.39s-.08-.18-.25-.34a6.27 6.27 0 0 0-.86-.61c-.4-.25-.87-.49-1.39-.73-.21-.09-.47-.22-.77-.37-.3-.15-.5-.26-.62-.3-.12-.05-.27-.11-.45-.18-.18-.07-.33-.12-.45-.14s-.25-.04-.39-.04c-.21 0-.77.42-1.67 1.25-.05.24-.05.46 0 .68.09.07.24.18.45.32.2.14.41.28.62.41.21.13.43.24.64.34-.09-.5-.14-.84-.14-1.03s.05-.27.16-.39.23-.18.37-.18.21.13.21.39l.02-.02z"/><rect class="st0" x=".12" y=".129" width="25.75" height="18.75" rx="1.88" ry="1.88"/><path class="st2" d="M.25 1.999c0-.96.79-1.75 1.75-1.75h22c.96 0 1.75.79 1.75 1.75v15c0 .96-.79 1.75-1.75 1.75H2c-.96 0-1.75-.79-1.75-1.75v-15m-.25 0v15c0 1.1.9 2 2 2h22c1.1 0 2-.9 2-2v-15c0-1.1-.9-2-2-2H2c-1.1 0-2 .9-2 2z"/><path class="st1" d="M17.61 10.209c.05.14.1.3.14.46.05.17.09.3.12.41.04.11.05.2.05.27 0 .17-.12.31-.36.43-.07-.12-.15-.34-.25-.68-.09-.33-.19-.63-.29-.89-.12.02-.28.05-.5.07-.21.02-.38.05-.5.07.05.21.11.4.18.57s.13.29.18.37c.05.08.07.15.07.2 0 .19-.11.37-.32.53-.14-.17-.33-.59-.57-1.28-.48.05-.96.3-1.46.75.1.33.27.72.52 1.17.25.45.45.68.59.68.36 0 1.03-.25 2.03-.75s1.69-.75 2.07-.75c.17 0 .32.07.45.21.13.14.2.28.2.43 0 .15-.07.28-.2.43-.13.14-.33.29-.61.45-.27.15-.53.29-.77.41s-.55.27-.94.45c-.39.18-.69.31-.91.41-.9.48-1.79.85-2.67 1.14l-.11-.21c0-.17.04-.34.12-.53s.2-.41.36-.66c.15-.25.27-.46.34-.62-.43-1.14-.68-1.78-.75-1.92-.38.38-.68.79-.89 1.23s-.36.77-.43 1c-.07.23-.15.34-.25.34s-.17-.03-.23-.09-.08-.11-.05-.16c.74-1.73 1.27-2.69 1.6-2.88a4.85 4.85 0 0 1-.25-.61c-.85-.17-1.67-.28-2.46-.36.14.57.21 1.14.21 1.71 0 .14-.07.27-.21.39-.07-.07-.18-.38-.34-.93-.15-.55-.34-1-.55-1.35-1.23-.12-2.04-.18-2.42-.18-.74 0-1.1.13-1.1.39v.11c-.71-.33-1.33-.78-1.85-1.35.1-.24.47-.58 1.12-1.01.65-.44 1.19-.66 1.62-.66.02 0 .07 0 .14.02.07.01.12.02.14.02.02.07.04.17.04.28 0 .31-.11.59-.32.85.17.05.5.12 1 .23.5.11.87.2 1.1.27-.09-.19-.3-.46-.62-.82s-.48-.59-.48-.71c0-.14.15-.3.46-.48s.56-.28.75-.3c.33.62.66 1.51 1 2.67.55.21 1.16.43 1.85.64-.07-.4-.43-1.03-1.07-1.89-.64-.85-1.04-1.44-1.21-1.74.43-.47.72-.71.89-.71.14 0 .26.03.34.09s.18.15.28.27c.11.12.21.21.3.29 0-.43.02-.73.05-.91.04-.18.14-.37.32-.59.18-.21.48-.45.91-.71.19-.12.4-.27.62-.45.23-.18.41-.3.55-.37s.31-.11.5-.11c.4 0 1.4.45 2.99 1.35.36.21.76.44 1.21.68s.79.42 1.02.53c.23.12.45.26.68.41s.38.3.46.43.12.28.12.45c0 .21-.04.42-.12.61s-.2.38-.36.57c-.15.19-.4.53-.75 1.03-.34.5-.71 1.06-1.09 1.67 0-.24.04-.46.11-.68-.28-.05-.81-.07-1.57-.07l.03-.03zm-4.38-1.92c.14 1.14.37 2.05.68 2.74.52-.33 1.03-.57 1.53-.71-.09-.47-.23-.88-.39-1.21-.66-.36-1.27-.63-1.82-.82zm-.64 1.85c.1.05.32.11.68.18-.31-1.14-.62-1.93-.93-2.39-.14-.05-.25-.07-.32-.07-.14 0-.21.1-.21.28 0 .07.05.2.14.39.09.19.21.44.34.75s.23.59.3.85v.01zm2.85-2.96c0 .74.08 1.39.25 1.96.07.02.42.06 1.03.11-.07-.33-.15-.62-.25-.87-.09-.25-.16-.43-.2-.53a.674.674 0 0 1-.05-.23c0-.31.19-.46.57-.46.17 0 .25.07.25.21 0 .59.08 1.22.25 1.89 1.04.05 1.76.13 2.14.25.36-.83.53-1.29.53-1.39s-.08-.18-.25-.34a6.27 6.27 0 0 0-.86-.61c-.4-.25-.87-.49-1.39-.73-.21-.09-.47-.22-.77-.37-.3-.15-.5-.26-.62-.3-.12-.05-.27-.11-.45-.18-.18-.07-.33-.12-.45-.14s-.25-.04-.39-.04c-.21 0-.77.42-1.67 1.25-.05.24-.05.46 0 .68.09.07.24.18.45.32.2.14.41.28.62.41.21.13.43.24.64.34-.09-.5-.14-.84-.14-1.03s.05-.27.16-.39.23-.18.37-.18.21.13.21.39l.02-.02z"/></svg>