<svg id="_图层_1" xmlns="http://www.w3.org/2000/svg" version="1.1" viewBox="0 0 26 37.984"><defs><style>.st0{fill:#f5f6f7}.st1{fill:#231815}.st2{fill:#93989c}</style></defs><rect class="st0" x=".12" y="19.114" width="25.75" height="18.75" rx="1.88" ry="1.88"/><path class="st2" d="M.25 20.984c0-.96.79-1.75 1.75-1.75h22c.96 0 1.75.79 1.75 1.75v15c0 .96-.79 1.75-1.75 1.75H2c-.96 0-1.75-.79-1.75-1.75v-15m-.25 0v15c0 1.1.9 2 2 2h22c1.1 0 2-.9 2-2v-15c0-1.1-.9-2-2-2H2c-1.1 0-2 .9-2 2z"/><path class="st1" d="M19.5 31.084c0 .9-.24 1.35-.71 1.35-.12 0-.28-.18-.5-.53-1.09.4-2.14.8-3.15 1.19s-1.72.67-2.14.84-.69.26-.84.28l-.09-.09-.07-.07c-.01-.01 0-.04.02-.09.48-.71.89-1.16 1.25-1.35-.26-.81-.52-1.45-.78-1.92-1.28.14-1.95.21-1.99.21-.38 0-.57-.07-.57-.21 0-.19.25-.33.75-.43.5-.09.94-.14 1.32-.14-.81-.78-1.45-1.34-1.92-1.67-.31-.07-.5-.12-.57-.14l-.18-.53c-.31-.4-.59-.65-.85-.75-.14.12-.21.52-.21 1.21 0 .78.07 1.63.21 2.55.14.91.29 1.68.43 2.3s.21.95.21 1c0 .5-.14.76-.43.78-.09-.47-.34-1.58-.73-3.31s-.72-3.2-.98-4.4-.39-1.92-.39-2.15c0-.19.03-.34.09-.46s.15-.27.28-.45.23-.33.3-.45c.57-1.02 1.09-1.53 1.57-1.53.31 0 .46.17.46.5 0 .36-.05.94-.16 1.75s-.16 1.38-.16 1.71c0 .1.02.28.07.57.12.19.25.3.39.32.24-.43.48-.64.71-.64.17 0 .28.05.34.16s.11.27.14.5c.04.23.08.4.12.52.24.12.53.2.89.25-.07-.38-.18-.7-.32-.96s-.21-.5-.21-.71c0-.38.33-.98.98-1.82.65-.83 1.19-1.25 1.62-1.25.19 0 .38.08.57.25s.4.39.62.66c.23.27.69.64 1.39 1.1.7.46 1.56.92 2.58 1.37.43.17.64.61.64 1.32 0 .19-.02.46-.07.82s-.07.64-.07.85c0 .24.02.53.07.89s.07.63.07.82v-.02zm-5.73 1.32c1.64-.71 3.11-1.22 4.42-1.53v-.61c-.24.02-.68.08-1.32.18s-1.2.14-1.67.14c-.07 0-.22 0-.45.02-.23.01-.51.03-.85.05s-.62.04-.84.04c.12.43.36 1 .71 1.71zm-.96-2.39c.21-.02.93-.07 2.15-.14 1.22-.07 2.31-.13 3.26-.18 0-.05 0-.14.02-.28.01-.14.02-.24.02-.28-.74-.05-1.47-.1-2.21-.16s-1.45-.12-2.14-.18c-.69-.06-1.18-.1-1.46-.12.02.12.08.34.16.66s.15.55.2.69v-.01zm-1.71-1.5c-.05.14-.01.33.11.57.24.14.51.24.82.28-.02-.14-.06-.3-.11-.46-.05-.17-.08-.28-.11-.36-.05 0-.14 0-.29-.02-.14-.01-.25-.02-.32-.02h-.11l.01.01zm1.17-.64c3.06.38 5.08.61 6.05.68.02-.21.01-.4-.04-.57-.45-.33-1.31-.82-2.58-1.46s-2.04-.96-2.3-.96c-.31 0-.59.17-.85.52-.26.34-.39.64-.39.87s.04.57.11.93v-.01z"/><rect class="st0" x=".12" y=".129" width="25.75" height="18.75" rx="1.88" ry="1.88"/><path class="st2" d="M.25 1.999c0-.96.79-1.75 1.75-1.75h22c.96 0 1.75.79 1.75 1.75v15c0 .96-.79 1.75-1.75 1.75H2c-.96 0-1.75-.79-1.75-1.75v-15m-.25 0v15c0 1.1.9 2 2 2h22c1.1 0 2-.9 2-2v-15c0-1.1-.9-2-2-2H2c-1.1 0-2 .9-2 2z"/><path class="st1" d="M19.5 12.099c0 .9-.24 1.35-.71 1.35-.12 0-.28-.18-.5-.53-1.09.4-2.14.8-3.15 1.19s-1.72.67-2.14.84-.69.26-.84.28l-.09-.09-.07-.07c-.01-.01 0-.04.02-.09.48-.71.89-1.16 1.25-1.35-.26-.81-.52-1.45-.78-1.92-1.28.14-1.95.21-1.99.21-.38 0-.57-.07-.57-.21 0-.19.25-.33.75-.43.5-.09.94-.14 1.32-.14-.81-.78-1.45-1.34-1.92-1.67-.31-.07-.5-.12-.57-.14l-.18-.53c-.31-.4-.59-.65-.85-.75-.14.12-.21.52-.21 1.21 0 .78.07 1.63.21 2.55.14.91.29 1.68.43 2.3s.21.95.21 1c0 .5-.14.76-.43.78-.09-.47-.34-1.58-.73-3.31s-.72-3.2-.98-4.4-.39-1.92-.39-2.15c0-.19.03-.34.09-.46s.15-.27.28-.45.23-.33.3-.45c.57-1.02 1.09-1.53 1.57-1.53.31 0 .46.17.46.5 0 .36-.05.94-.16 1.75s-.16 1.38-.16 1.71c0 .1.02.28.07.57.12.19.25.3.39.32.24-.43.48-.64.71-.64.17 0 .28.05.34.16s.11.27.14.5c.04.23.08.4.12.52.24.12.53.2.89.25-.07-.38-.18-.7-.32-.96s-.21-.5-.21-.71c0-.38.33-.98.98-1.82.65-.83 1.19-1.25 1.62-1.25.19 0 .38.08.57.25s.4.39.62.66c.23.27.69.64 1.39 1.1.7.46 1.56.92 2.58 1.37.43.17.64.61.64 1.32 0 .19-.02.46-.07.82s-.07.64-.07.85c0 .24.02.53.07.89s.07.63.07.82v-.02zm-5.73 1.32c1.64-.71 3.11-1.22 4.42-1.53v-.61c-.24.02-.68.08-1.32.18s-1.2.14-1.67.14c-.07 0-.22 0-.45.02-.23.01-.51.03-.85.05s-.62.04-.84.04c.12.43.36 1 .71 1.71zm-.96-2.39c.21-.02.93-.07 2.15-.14 1.22-.07 2.31-.13 3.26-.18 0-.05 0-.14.02-.28.01-.14.02-.24.02-.28-.74-.05-1.47-.1-2.21-.16s-1.45-.12-2.14-.18c-.69-.06-1.18-.1-1.46-.12.02.12.08.34.16.66s.15.55.2.69v-.01zm-1.71-1.5c-.05.14-.01.33.11.57.24.14.51.24.82.28-.02-.14-.06-.3-.11-.46-.05-.17-.08-.28-.11-.36-.05 0-.14 0-.29-.02-.14-.01-.25-.02-.32-.02h-.11l.01.01zm1.17-.64c3.06.38 5.08.61 6.05.68.02-.21.01-.4-.04-.57-.45-.33-1.31-.82-2.58-1.46s-2.04-.96-2.3-.96c-.31 0-.59.17-.85.52-.26.34-.39.64-.39.87s.04.57.11.93v-.01z"/></svg>