<svg id="_图层_1" xmlns="http://www.w3.org/2000/svg" version="1.1" viewBox="0 0 26 37.984"><defs><style>.st0{fill:#f5f6f7}.st1{fill:#005529}.st2{fill:#93989c}</style></defs><rect class="st0" x=".12" y="19.114" width="25.75" height="18.75" rx="1.88" ry="1.88"/><path class="st2" d="M.25 20.984c0-.96.79-1.75 1.75-1.75h22c.96 0 1.75.79 1.75 1.75v15c0 .96-.79 1.75-1.75 1.75H2c-.96 0-1.75-.79-1.75-1.75v-15m-.25 0v15c0 1.1.9 2 2 2h22c1.1 0 2-.9 2-2v-15c0-1.1-.9-2-2-2H2c-1.1 0-2 .9-2 2z"/><path class="st1" d="M15.68 23.994c.24.09.36.56.36 1.39 0 .12 0 .3-.02.55-.01.25-.02.45-.02.59 0 .05 0 .14.02.27.01.13.02.23.02.3 1.31.14 2.02.25 2.14.32.24.17.54.56.91 1.19.37.63.55 1.05.55 1.26 0 .12-.05.23-.14.34s-.2.16-.32.16c-.14 0-.33-.17-.57-.52-.24-.34-.56-.71-.98-1.1s-.91-.62-1.48-.69c.02.1.05.34.09.75.04.4.08.7.12.89.29.14.62.3 1.01.48s.69.31.89.41c.2.1.41.21.62.34.21.13.37.27.46.41.09.14.14.31.14.5 0 .17-.06.34-.18.53s-.24.34-.37.46-.33.28-.59.5c-.26.21-.44.37-.53.46.05.12.07.38.07.78s-.42.69-1.25.93c.26-.62.39-1.03.39-1.25 0-.19-.26-.87-.78-2.03s-.84-1.8-.96-1.92c-.19.02-.42.23-.68.61.05.24.24.55.59.93.34.38.52.68.52.89 0 .28-.09.49-.28.61-.09-.17-.36-.55-.78-1.14-.43-.59-.71-1.07-.85-1.42-.24-.19-.52-.28-.85-.28a.77.77 0 0 0-.07.36c0 .21.12.51.36.89.9.76 1.55 1.42 1.94 1.99.39.57.67 1.31.84 2.21-1.54-1.92-2.92-3.35-4.13-4.27-.14.07-.49.4-1.05.98s-1 .88-1.34.91c.05-.38.27-.83.66-1.35.39-.52.72-.9.98-1.14-.81-.66-1.58-1.13-2.32-1.39.02.26.15.63.39 1.1.24.48.36.84.36 1.1 0 .19-.05.33-.14.43-.02-.02-.14-.18-.36-.48-.21-.3-.45-.63-.71-1s-.49-.66-.68-.87c-.14-.14-.33-.3-.57-.48-.24-.18-.43-.34-.57-.48-.14-.14-.21-.28-.21-.43s.05-.28.16-.43c.11-.14.23-.21.37-.21.02 0 .26.08.71.25.12-.07.39-.3.82-.68-.28-.21-.88-.47-1.78-.78-.9-.31-1.41-.52-1.53-.64.05-.12.21-.27.48-.46s.5-.28.69-.28c.07 0 .15.05.25.16s.19.18.28.23c.74.28 1.51.71 2.31 1.28.62-.4.97-.65 1.07-.75-.5-.5-1-.82-1.5-.96.02-.21.13-.42.32-.61s.37-.29.53-.29.25.06.25.18c0 .14.05.28.14.43.09.14.23.29.39.45.17.15.28.28.36.37.95-.71 1.67-1.32 2.17-1.82s.79-.84.87-1.03.34-.44.77-.75 1.13-.7 2.1-1.18c0 .24-.09.54-.28.91-.19.37-.45.83-.78 1.37-.33.55-.59 1.02-.78 1.42-.21.14-.62.32-1.23.53s-1.37.61-2.3 1.17c.1.19.14.39.14.61-.4-.24-.62-.36-.64-.36-1.23.64-2.12 1.22-2.67 1.75.66.33 1.91 1.08 3.74 2.24.14-.14.21-.31.21-.5 0-.09-.05-.23-.16-.39-.11-.17-.16-.3-.16-.39 0-.28.1-.47.29-.57.09.05.18.12.25.21.07.1.14.2.2.32s.11.21.16.28c.24.14.49.19.75.14-.07-.4-.23-.8-.46-1.18-1.12-.31-2.07-.46-2.85-.46-.19 0-.37.01-.53.04.38-.59.81-.89 1.28-.89.17 0 .3.02.39.05.09.04.19.08.28.14.1.06.32.15.66.28s.79.28 1.34.45c.14-.12.21-.21.21-.28 0-.17-.09-.43-.28-.8s-.28-.68-.28-.94.18-.4.53-.5c.05.05.11.22.18.52.07.3.15.52.25.66.43.07.88.12 1.35.14 0-.24-.01-.5-.04-.78-.02-.28-.04-.45-.04-.5s-.04-.21-.12-.34-.11-.24-.09-.34c.12-.5.32-.85.61-1.07h-.01zm1.96 9.51c.38-.38.57-.88.57-1.5 0-.24-.25-.53-.75-.89s-.84-.53-1.03-.53c-.14 0-.26.07-.36.21.55 1.19 1.07 2.09 1.57 2.71zm-2.99-4.35c-.07 0-.15-.02-.25-.05-.09-.04-.23-.08-.41-.14s-.33-.1-.45-.12c.1.62.34 1.13.75 1.53.21-.05.37-.15.48-.32s.18-.26.23-.28c.4-.19.64-.3.71-.32-.02-.12-.11-.64-.25-1.57-.47-.09-.91-.14-1.32-.14 0 .31-.04.56-.11.75.38.33.58.56.61.68l.01-.02zm2.67-2.88c-.14-.14-.21-.44-.21-.89 0-.55.14-1.07.43-1.57.28-.5.61-.75.96-.75s.65.18.87.55c.23.37.34.75.34 1.16 0 .02 0 .05-.02.09-.01.04-.02.07-.02.09-.17.12-.45.26-.85.43s-.9.46-1.5.89z"/><rect class="st0" x=".12" y=".129" width="25.75" height="18.75" rx="1.88" ry="1.88"/><path class="st2" d="M.25 1.999c0-.96.79-1.75 1.75-1.75h22c.96 0 1.75.79 1.75 1.75v15c0 .96-.79 1.75-1.75 1.75H2c-.96 0-1.75-.79-1.75-1.75v-15m-.25 0v15c0 1.1.9 2 2 2h22c1.1 0 2-.9 2-2v-15c0-1.1-.9-2-2-2H2c-1.1 0-2 .9-2 2z"/><path class="st1" d="M15.68 5.009c.24.09.36.56.36 1.39 0 .12 0 .3-.02.55-.01.25-.02.45-.02.59 0 .05 0 .14.02.27.01.13.02.23.02.3 1.31.14 2.02.25 2.14.32.24.17.54.56.91 1.19.37.63.55 1.05.55 1.26 0 .12-.05.23-.14.34s-.2.16-.32.16c-.14 0-.33-.17-.57-.52-.24-.34-.56-.71-.98-1.1s-.91-.62-1.48-.69c.02.1.05.34.09.75.04.4.08.7.12.89.29.14.62.3 1.01.48s.69.31.89.41c.2.1.41.21.62.34.21.13.37.27.46.41.09.14.14.31.14.5 0 .17-.06.34-.18.53s-.24.34-.37.46-.33.28-.59.5c-.26.21-.44.37-.53.46.05.12.07.38.07.78s-.42.69-1.25.93c.26-.62.39-1.03.39-1.25 0-.19-.26-.87-.78-2.03s-.84-1.8-.96-1.92c-.19.02-.42.23-.68.61.05.24.24.55.59.93.34.38.52.68.52.89 0 .28-.09.49-.28.61-.09-.17-.36-.55-.78-1.14-.43-.59-.71-1.07-.85-1.42-.24-.19-.52-.28-.85-.28a.77.77 0 0 0-.07.36c0 .21.12.51.36.89.9.76 1.55 1.42 1.94 1.99.39.57.67 1.31.84 2.21-1.54-1.92-2.92-3.35-4.13-4.27-.14.07-.49.4-1.05.98s-1 .88-1.34.91c.05-.38.27-.83.66-1.35.39-.52.72-.9.98-1.14-.81-.66-1.58-1.13-2.32-1.39.02.26.15.63.39 1.1.24.48.36.84.36 1.1 0 .19-.05.33-.14.43-.02-.02-.14-.18-.36-.48-.21-.3-.45-.63-.71-1s-.49-.66-.68-.87c-.14-.14-.33-.3-.57-.48-.24-.18-.43-.34-.57-.48-.14-.14-.21-.28-.21-.43s.05-.28.16-.43c.11-.14.23-.21.37-.21.02 0 .26.08.71.25.12-.07.39-.3.82-.68-.28-.21-.88-.47-1.78-.78-.9-.31-1.41-.52-1.53-.64.05-.12.21-.27.48-.46s.5-.28.69-.28c.07 0 .15.05.25.16s.19.18.28.23c.74.28 1.51.71 2.31 1.28.62-.4.97-.65 1.07-.75-.5-.5-1-.82-1.5-.96.02-.21.13-.42.32-.61s.37-.29.53-.29.25.06.25.18c0 .14.05.28.14.43.09.14.23.29.39.45.17.15.28.28.36.37.95-.71 1.67-1.32 2.17-1.82s.79-.84.87-1.03.34-.44.77-.75 1.13-.7 2.1-1.18c0 .24-.09.54-.28.91-.19.37-.45.83-.78 1.37-.33.55-.59 1.02-.78 1.42-.21.14-.62.32-1.23.53s-1.37.61-2.3 1.17c.1.19.14.39.14.61-.4-.24-.62-.36-.64-.36-1.23.64-2.12 1.22-2.67 1.75.66.33 1.91 1.08 3.74 2.24.14-.14.21-.31.21-.5 0-.09-.05-.23-.16-.39-.11-.17-.16-.3-.16-.39 0-.28.1-.47.29-.57.09.05.18.12.25.21.07.1.14.2.2.32s.11.21.16.28c.24.14.49.19.75.14-.07-.4-.23-.8-.46-1.18-1.12-.31-2.07-.46-2.85-.46-.19 0-.37.01-.53.04.38-.59.81-.89 1.28-.89.17 0 .3.02.39.05.09.04.19.08.28.14.1.06.32.15.66.28s.79.28 1.34.45c.14-.12.21-.21.21-.28 0-.17-.09-.43-.28-.8s-.28-.68-.28-.94.18-.4.53-.5c.05.05.11.22.18.52.07.3.15.52.25.66.43.07.88.12 1.35.14 0-.24-.01-.5-.04-.78-.02-.28-.04-.45-.04-.5s-.04-.21-.12-.34-.11-.24-.09-.34c.12-.5.32-.85.61-1.07h-.01zm1.96 9.51c.38-.38.57-.88.57-1.5 0-.24-.25-.53-.75-.89s-.84-.53-1.03-.53c-.14 0-.26.07-.36.21.55 1.19 1.07 2.09 1.57 2.71zm-2.99-4.35c-.07 0-.15-.02-.25-.05-.09-.04-.23-.08-.41-.14s-.33-.1-.45-.12c.1.62.34 1.13.75 1.53.21-.05.37-.15.48-.32s.18-.26.23-.28c.4-.19.64-.3.71-.32-.02-.12-.11-.64-.25-1.57-.47-.09-.91-.14-1.32-.14 0 .31-.04.56-.11.75.38.33.58.56.61.68l.01-.02zm2.67-2.88c-.14-.14-.21-.44-.21-.89 0-.55.14-1.07.43-1.57.28-.5.61-.75.96-.75s.65.18.87.55c.23.37.34.75.34 1.16 0 .02 0 .05-.02.09-.01.04-.02.07-.02.09-.17.12-.45.26-.85.43s-.9.46-1.5.89z"/></svg>