<svg id="_图层_1" xmlns="http://www.w3.org/2000/svg" version="1.1" viewBox="0 0 26 37.984"><defs><style>.st0{fill:#f5f6f7}.st1{fill:#231815}.st2{fill:#93989c}</style></defs><rect class="st0" x=".12" y="19.114" width="25.75" height="18.75" rx="1.88" ry="1.88"/><path class="st2" d="M.25 20.984c0-.96.79-1.75 1.75-1.75h22c.96 0 1.75.79 1.75 1.75v15c0 .96-.79 1.75-1.75 1.75H2c-.96 0-1.75-.79-1.75-1.75v-15m-.25 0v15c0 1.1.9 2 2 2h22c1.1 0 2-.9 2-2v-15c0-1.1-.9-2-2-2H2c-1.1 0-2 .9-2 2z"/><path class="st1" d="M18.89 35.504c-.19 0-.46-.15-.8-.45s-.93-.68-1.74-1.14c-.82-.46-1.82-.85-3.01-1.16-.55.83-1.12 1.28-1.71 1.35.21-.47.36-1.01.43-1.6-.24-.02-.46-.09-.68-.21.17-.07.44-.12.82-.14.21-.66.48-1 .78-1 .33 0 .5.38.5 1.14.76.14 1.44.28 2.05.43.61.14 1.03.24 1.26.3.24.06.4.09.5.09.19 0 .32-.02.39-.07-.02-.24-.23-.67-.62-1.3s-.73-1.12-1.02-1.48c-.24-.14-.75-.21-1.53-.21-.17 0-.45 0-.85.02-.4.01-.7.02-.89.02-.66 0-1.2.06-1.62.18s-.69.26-.84.41c-.14.15-.3.29-.46.41-.17.12-.36.18-.57.18-.26 0-.49-.09-.68-.28.14-.38.27-.78.37-1.19.11-.42.19-.69.25-.82s.17-.27.34-.41c.17-.14.42-.26.75-.36.26.4.66.65 1.21.75s1.78.17 3.7.21c-.14-.24-.34-.52-.61-.84-.26-.32-.43-.54-.5-.66-.57 0-1.28-.05-2.12-.14s-1.42-.14-1.73-.14c-.19 0-.36.01-.52.04-.15.02-.29.06-.39.11-.11.05-.2.09-.28.12-.08.04-.16.1-.23.18s-.12.14-.16.18-.08.11-.14.21c-.06.11-.1.17-.12.2-.28-.09-.53-.22-.73-.37-.2-.15-.42-.36-.64-.62-.23-.26-.42-.46-.59-.61.17-.21.49-.5.98-.87s.87-.55 1.16-.55c.1 0 .2.07.3.2.11.13.21.27.32.41s.34.28.71.41.84.2 1.41.2h2.07c-.12-.17-.26-.39-.43-.68-.17-.28-.29-.49-.37-.62s-.21-.25-.39-.36-.39-.16-.62-.16c-.05 0-.09 0-.14.02-.05.01-.09.02-.14.02-.14-.14-.21-.39-.21-.75 0-.33.11-.68.34-1.03.23-.36.49-.53.8-.53.14 0 .25.15.32.45.07.3.22.8.44 1.5.23.7.55 1.4.98 2.08h.28c1.47 0 2.41-.13 2.81-.39s.61-.85.61-1.78c0-.47-.05-.96-.16-1.44-.11-.49-.16-.81-.16-.98 0-.31.12-.46.36-.46 1 0 1.5 1.34 1.5 4.02 0 .62-.13 1.12-.39 1.51-.26.39-.62.59-1.07.59-.17 0-.37 0-.62-.02-.25-.01-.45-.02-.59-.02-.26 0-.6.02-1.01.05-.42.04-.72.05-.91.05.33.45.74.95 1.21 1.5.1 0 .21-.01.36-.04.14-.02.26-.04.36-.04.31 0 .58.1.8.3.23.2.35.37.37.52 0 .07-.04.15-.12.25s-.17.14-.27.14c-.12 0-.29.08-.5.25.31.45.72.96 1.25 1.51.52.56.91 1.04 1.18 1.46.26.42.39.86.39 1.34 0 .43-.25.64-.75.64l-.03-.03z"/><rect class="st0" x=".12" y=".129" width="25.75" height="18.75" rx="1.88" ry="1.88"/><path class="st2" d="M.25 1.999c0-.96.79-1.75 1.75-1.75h22c.96 0 1.75.79 1.75 1.75v15c0 .96-.79 1.75-1.75 1.75H2c-.96 0-1.75-.79-1.75-1.75v-15m-.25 0v15c0 1.1.9 2 2 2h22c1.1 0 2-.9 2-2v-15c0-1.1-.9-2-2-2H2c-1.1 0-2 .9-2 2z"/><path class="st1" d="M18.89 16.519c-.19 0-.46-.15-.8-.45s-.93-.68-1.74-1.14c-.82-.46-1.82-.85-3.01-1.16-.55.83-1.12 1.28-1.71 1.35.21-.47.36-1.01.43-1.6-.24-.02-.46-.09-.68-.21.17-.07.44-.12.82-.14.21-.66.48-1 .78-1 .33 0 .5.38.5 1.14.76.14 1.44.28 2.05.43.61.14 1.03.24 1.26.3.24.06.4.09.5.09.19 0 .32-.02.39-.07-.02-.24-.23-.67-.62-1.3s-.73-1.12-1.02-1.48c-.24-.14-.75-.21-1.53-.21-.17 0-.45 0-.85.02-.4.01-.7.02-.89.02-.66 0-1.2.06-1.62.18s-.69.26-.84.41c-.14.15-.3.29-.46.41-.17.12-.36.18-.57.18-.26 0-.49-.09-.68-.28.14-.38.27-.78.37-1.19.11-.42.19-.69.25-.82s.17-.27.34-.41c.17-.14.42-.26.75-.36.26.4.66.65 1.21.75s1.78.17 3.7.21c-.14-.24-.34-.52-.61-.84-.26-.32-.43-.54-.5-.66-.57 0-1.28-.05-2.12-.14s-1.42-.14-1.73-.14c-.19 0-.36.01-.52.04-.15.02-.29.06-.39.11-.11.05-.2.09-.28.12-.08.04-.16.1-.23.18s-.12.14-.16.18-.08.11-.14.21c-.06.11-.1.17-.12.2-.28-.09-.53-.22-.73-.37-.2-.15-.42-.36-.64-.62-.23-.26-.42-.46-.59-.61.17-.21.49-.5.98-.87s.87-.55 1.16-.55c.1 0 .2.07.3.2.11.13.21.27.32.41s.34.28.71.41.84.2 1.41.2h2.07c-.12-.17-.26-.39-.43-.68-.17-.28-.29-.49-.37-.62s-.21-.25-.39-.36-.39-.16-.62-.16c-.05 0-.09 0-.14.02-.05.01-.09.02-.14.02-.14-.14-.21-.39-.21-.75 0-.33.11-.68.34-1.03.23-.36.49-.53.8-.53.14 0 .25.15.32.45.07.3.22.8.44 1.5.23.7.55 1.4.98 2.08h.28c1.47 0 2.41-.13 2.81-.39s.61-.85.61-1.78c0-.47-.05-.96-.16-1.44-.11-.49-.16-.81-.16-.98 0-.31.12-.46.36-.46 1 0 1.5 1.34 1.5 4.02 0 .62-.13 1.12-.39 1.51-.26.39-.62.59-1.07.59-.17 0-.37 0-.62-.02-.25-.01-.45-.02-.59-.02-.26 0-.6.02-1.01.05-.42.04-.72.05-.91.05.33.45.74.95 1.21 1.5.1 0 .21-.01.36-.04.14-.02.26-.04.36-.04.31 0 .58.1.8.3.23.2.35.37.37.52 0 .07-.04.15-.12.25s-.17.14-.27.14c-.12 0-.29.08-.5.25.31.45.72.96 1.25 1.51.52.56.91 1.04 1.18 1.46.26.42.39.86.39 1.34 0 .43-.25.64-.75.64l-.03-.03z"/></svg>