<?xml version="1.0" encoding="UTF-8"?>
<svg id="_图层_1" xmlns="http://www.w3.org/2000/svg" version="1.1" viewBox="0 0 17 19.8">
  <!-- Generator: Adobe Illustrator 29.1.0, SVG Export Plug-In . SVG Version: 2.1.0 Build 142)  -->
  <path d="M1.5,15.8c0-.2.2-.5.5-.8s.7-.9,1.1-1.7c.5-.8.8-1.8,1.2-3-.8-.6-1.3-1.1-1.3-1.7.5.2,1,.4,1.6.4,0-.2,0-.5.2-.7,0,.2,0,.4,0,.8.7.2,1,.5,1,.8s-.4.5-1.1.5c0,.8-.3,1.4-.4,2.1,0,.6-.2,1-.3,1.3v.9c.2,0,.7-.2,1.3-.6.6-.4,1.1-.7,1.5-1,0-.2.2-.8.2-1.5v-1.8c0-.7,0-1.2-.2-1.6s-.3-.7-.4-.8c-.2,0-.3-.3-.4-.5s-.2-.4-.2-.6,0-.5.3-.7c.4,0,.8.3,1.2.4.4,0,.7.2.8.2s.3.2.4.3c.1.2.3.4.4.8-.4.3-.6.7-.8,1.2s-.2,1.8-.2,3.7c.2-.1.5-.3.8-.6s.5-.4.7-.5c0-.6,0-1.3.1-2.1s.1-1.4.1-1.7v-.5c0,0,0-.3-.1-.4,0,0,0-.2-.1-.3,0,0-.1-.2-.2-.2s-.1,0-.2-.2-.1,0-.2,0c-.1,0-.2,0-.2,0,0-.3.2-.5.4-.7.1-.2.4-.4.6-.6.3-.2.5-.4.6-.6.2.2.5.5.9,1s.6.9.6,1.2,0,.2-.2.3c-.1,0-.3.2-.4.3s-.3.3-.4.7-.2.8-.2,1.4v2.1c.2-.1.4-.3.7-.4.3-.2.5-.3.6-.4s.2-.2.4-.4.2-.4.2-.6,0,0,0-.1h0c.1-.2.4-.3.8-.3s.7.1,1,.3c.4.2.5.5.5.8s-.1.2-.4.3-.8.2-1.5.4-1.4.6-2.1,1v.3c0,1.5.1,2.4.4,2.8s.9.6,1.8.6,1,0,1.4-.2c.5-.1.8-.2,1-.2.3,0,.5.1.5.4,0,1-1.3,1.5-4,1.5s-1.1-.1-1.5-.4-.6-.6-.6-1.1v-3.1c-.4.3-.9.7-1.5,1.2v.8c0,.3-.1.6-.3.8s-.4.4-.5.4c0,0-.2,0-.2-.1s0-.2,0-.3,0-.3-.2-.5c-.4.3-1,.7-1.5,1.2-.6.5-1,.9-1.5,1.2-.4.3-.9.4-1.3.4s-.6-.2-.6-.8h0l-.6-.3Z"/>
</svg>