<?xml version="1.0" encoding="UTF-8"?>
<svg id="_图层_1" xmlns="http://www.w3.org/2000/svg" version="1.1" viewBox="0 0 17 19.8">
  <!-- Generator: Adobe Illustrator 29.1.0, SVG Export Plug-In . SVG Version: 2.1.0 Build 142)  -->
  <path d="M3.2,7.7c0,0,0-.2.3-.2s.4,0,.9.4c1.2-.2,2.2-.5,3.2-.8v-.8s-.2,0-.5,0c-.3,0-.5,0-.7,0-.4,0-.8-.2-.9-.5,0,0,.4,0,.9,0,.5,0,.9,0,1.2-.3h0c0-.9-.2-1.7-.6-2.3s-.6-1.3-.6-1.9c.7.3,1.3.6,2,.7s1.1.3,1.3.4c.2,0,.3.3.3.6s0,.2-.2.3-.3,0-.4.2c-.1,0-.3.2-.5.5-.1.3-.3.7-.3,1.2.4,0,.6-.2.8-.4.2-.2.3-.3.4-.3.2,0,.4,0,.7.2.2,0,.4.3.4.4s-.1.2-.3.3-.5,0-1,.2c-.4,0-.8.2-1.1.3v.8l3-.5c.2,0,.5.2.9.6s.6.8.6,1.1-.3.4-.8.5c-.2.4-.4.9-.8,1.4-.4.4-.5.8-.5,1,0,.4-.1.6-.3.6s-.3,0-.5-.2c-.3,0-.6,0-.7.1.6.8,1.4,1.4,2.4,1.9s1.8.8,2.6,1.1,1.3.7,1.6,1.2c-.4,0-.7-.1-1.1-.3s-.6-.2-.8-.2-.3.1-.7.3-.7.3-1,.3-.7-.2-1-.5-.8-1-1.3-1.8c-.6-.9-1-1.5-1.3-1.9h-.3v1.9c0,.7,0,1.5.3,2.6.2,1.1.3,1.6.3,1.8,0,1.1-.2,1.6-.7,1.6s-.5-.3-.8-1c-.2-.7-.4-1.3-.4-1.8s-.6-1.1-1.8-2.7c-1.3,1-2.3,1.6-3,1.6s-.7,0-.9-.1c1.6-.8,2.8-1.5,3.5-2.1v-.5c0,0,.2.2.2.2.4-.4.8-.9,1.1-1.5-.2,0-.5-.2-.7-.4h0v-.2s-.2-.3-.5-.7-.7-.9-1.1-1.3-.6-.8-.7-1h0v-.2ZM7.5,7.5c-1,.2-1.9.5-2.7.8.4.4.6.7.7.8.2-.1.6-.2,1-.3s.8-.1,1-.2v-1.2h0ZM7.6,11.4h-.6c-.3.5-.8,1.2-1.5,2.1,0,.1.3.3.5.6s.4.5.6.7c.2.1.3.2.4.2.2,0,.4-1.2.5-3.6h.1ZM7.6,9.4c-.8,0-1.3.1-1.6.3.2.4.4.7.6.9h1v-1.3h0ZM11,7.4c0-.2-.3-.3-.9-.3s-1.2,0-1.9.2v1.3c.3,0,.6-.1.8-.3.2-.1.4-.2.7-.2h.3s.2.1.3.2c.1,0,.2.2.3.2.3-.6.5-.9.5-1.2h-.1ZM10.3,9.1c-.2,0-.3-.1-.4-.1s-.4,0-.8.1-.7.1-.9.2v1.3c.4,0,.8,0,1.3-.2l.4-.6c.2-.3.3-.5.4-.7h0Z"/>
</svg>