<?xml version="1.0" encoding="UTF-8"?>
<svg id="_图层_1" xmlns="http://www.w3.org/2000/svg" version="1.1" viewBox="0 0 17 19.8">
  <!-- Generator: Adobe Illustrator 29.1.0, SVG Export Plug-In . SVG Version: 2.1.0 Build 142)  -->
  <path d="M7.8,14.5c0,0-.3.1-.5.1s-.3,0-.4.1h-.3c-.2,0-.3-.1-.4-.4,0,0,.3-.1.7-.2.3,0,.6-.2.9-.3v-1c-.2,0-.4.1-.6.2s-.3.1-.4.2h-.2c-.2,0-.4-.1-.5-.3.2-.1.6-.3,1.3-.6,0-.5-.3-1-.8-1.5-.3.1-.7.3-1.2.5-.4.2-.7.4-.7.6,0,.4.2,1,.8,2s.8,1.7.8,2.1,0,.3-.2.5-.3.2-.4.2-.3,0-.4-.2c0-.1-.3-.3-.4-.6-.2-.3-.3-.5-.4-.8s-.3-.5-.4-.9c-.2-.4-.3-.7-.4-.9-.5-.9-.8-1.8-1.1-2.7h.2c.2-.1.3,0,.5,0s.4.2.7.4c.2.1.5.3.6.3,1.1-.4,1.8-.7,1.9-.8-.4-.4-.8-.7-1.2-.9s-.8-.4-1-.4-.3-.1-.3-.2v-.2h.2c1.7.7,2.7,1.3,2.9,1.6.2,0,.4-.2.6-.2.2-.9.3-1.7.4-2.5-.6,0-1.1.2-1.7.2s-.3,0-.4-.2c0,0,.4-.2.9-.3.6,0,1-.3,1.4-.6.1-1.2.2-2,.2-2.4,0-.7-.1-1.1-.4-1.1h0c.3-.7.8-1.3,1.4-1.8.2,0,.6.5,1,1.1.4.7.7,1.2.7,1.6s0,0,0,0h0c0,0-.2,0-.3,0-.3,0-.6,0-.9-.3,0,.2-.1.5-.2,1-.1.5-.2.9-.3,1.1.2,0,.5-.3.8-.6s.6-.5.7-.5.3,0,.5.5c.2.3.3.6.3.8-.6.3-1.5.7-2.7,1-.2.6-.4,1.2-.6,1.9.4,0,1-.4,1.9-1.1.9-.6,1.4-1,1.7-1.2.5.4.7.7.7.9v.3s-.1.2-.3.3l-.3.3h.9c.2,0,.4.1.6.3.2.2.4.5.7.9.1.2.3.4.4.6.2.2.3.4.4.6s.1.3.1.5c0,.4-.4,1.4-1.4,3-.2.4-.4.8-.7,1.2-.2.5-.4.8-.5,1s-.3.5-.4.7-.3.4-.4.5-.3.1-.4.1-.4,0-.6-.1-.4-.2-.6-.4c-.2-.1-.5-.4-1-.8-.5-.3-1.1-.7-1.7-1.1.2,0,.5,0,.7.1v-1.6h0l-.4.2ZM9.7,10.2c-1.1.1-2.1.4-2.7.7.3.5.6,1,.7,1.5.5,0,.9-.2,1.2-.4.4-.7.6-1.3.8-1.8ZM7.9,9.5c0,.1,0,.3-.2.7,1.1-.3,1.9-.6,2.4-.9v-.3c0-.1-.1-.2-.3-.2s-.2,0-.4.1c-.2,0-.4.2-.8.3s-.6.2-.9.3h.2ZM10.8,12.4c-.7,0-1.4,0-2,.2,0,0,0,.4-.1,1,.3,0,.6-.1.9-.2.2,0,.4-.2.5-.2h.2c.3,0,.5.2.5.6s0,.2-.2.2c-.6,0-1.2,0-1.9.2,0,1-.1,1.8-.2,2.1.8.4,1.3.5,1.4.5s.2,0,.3-.2.4-.5.6-.9c.2-.4.5-.9.7-1.4,0-.2.2-.5.4-.8.1-.3.3-.5.3-.6s.1-.3.2-.4c0-.2.1-.3.1-.4v-.4c0-.2-.4-.8-1.2-1.7h-.7s-.2.2-.3.4-.3.4-.4.6-.2.4-.3.6c.5,0,.8-.1,1-.1s.3,0,.4.2.2.2.2.4-.1.2-.4.2h0Z"/>
</svg>