<svg xmlns="http://www.w3.org/2000/svg" viewBox="0 0 512 512"><g data-name="Old Woman"><circle cx="341.333" cy="213.333" r="85.333" style="fill:#e0e5e8"/><circle cx="170.667" cy="106.667" r="85.333" style="fill:#e0e5e8"/><circle cx="170.667" cy="213.333" r="85.333" style="fill:#e0e5e8"/><circle cx="362.667" cy="149.333" r="64" style="fill:#e0e5e8"/><circle cx="277.333" cy="106.667" r="85.333" style="fill:#e0e5e8"/><rect x="341.333" y="192" width="42.667" height="64" rx="21.333" ry="21.333" style="fill:#cb7956"/><rect x="128" y="192" width="42.667" height="64" rx="21.333" ry="21.333" style="fill:#e29971"/><path d="M192 277.333v64a21.333 21.333 0 0 1-21.333 21.334h-64A85.333 85.333 0 0 0 21.333 448v42.667h469.334V448a85.333 85.333 0 0 0-85.334-85.333h-64A21.333 21.333 0 0 1 320 341.333v-64z" style="fill:#e29971"/><path d="M341.333 362.667A21.334 21.334 0 0 1 320 341.333v-64h-85.333v128a21.333 21.333 0 1 0 42.666 0h85.334v-42.666z" style="fill:#cb7956"/><rect x="149.333" y="42.667" width="213.333" height="298.667" rx="106.667" ry="106.667" style="fill:#edbda4"/><path d="M320 64.483v84.85h-42.667v21.334H320v42.666a21.333 21.333 0 0 1 21.333 21.334A21.333 21.333 0 0 1 320 256h-64v64h21.333v19.184a106.69 106.69 0 0 0 85.334-104.517v-85.334c0-34.784-16.901-65.379-42.667-84.85z" style="fill:#e29971"/><path style="fill:#cb7956" d="M234.667 234.667V256h42.666v-64H320v-21.333h-64v64h-21.333z"/><path style="fill:#4c2c1a" d="M298.667 192H320v21.333h-21.333zM192 192h21.333v21.333H192z"/><path style="fill:#ce464d" d="M234.667 277.333h42.667v21.333h-42.667z"/><path style="fill:#e29971" d="M192 149.333h64v21.333h-64zM213.333 106.667h85.333V128h-85.333z"/><path style="fill:#f5d9cb" d="M192 128h128v21.333H192z"/><rect x="170.667" y="213.333" width="64" height="42.667" rx="21.333" ry="21.333" style="fill:#c4eaf5"/><rect x="277.333" y="213.333" width="64" height="42.667" rx="21.333" ry="21.333" style="fill:#c4eaf5"/><path style="fill:#e29971" d="M213.333 277.333h21.333V320h-21.333z"/><path style="fill:#cb7956" d="M277.333 277.333h21.333V320h-21.333z"/><rect x="149.333" y="405.333" width="85.333" height="42.667" rx="21.333" ry="21.333" style="fill:#edbda4"/><path d="M362.667 362.667h42.666A85.333 85.333 0 0 1 490.667 448v42.667h-128v-128z" style="fill:#ce464d"/><path d="M362.667 362.667C384 362.667 384 384 384 384s0 21.333 21.333 21.333 21.334 21.334 21.334 21.334C426.667 448 448 448 448 448c21.333 0 21.333-21.333 21.333-21.333s0-21.334-21.333-21.334S426.667 384 426.667 384s0-21.333-21.334-21.333z" style="fill:#c6262d"/><path d="M21.333 362.667h128v42.666A85.333 85.333 0 0 1 64 490.667H21.333v-128z" transform="rotate(-180 85.333 426.667)" style="fill:#ce464d"/><path d="M64 469.333c21.333 0 21.333-21.333 21.333-21.333 0-21.333 21.334-21.333 21.334-21.333C128 426.667 128 405.333 128 405.333 128 384 106.667 384 106.667 384s-21.334 0-21.334 21.333S64 426.667 64 426.667C42.667 426.667 42.667 448 42.667 448c0 21.333-21.334 21.396-21.334 21.396v21.27h21.334c0-21.333 21.333-21.333 21.333-21.333z" style="fill:#c6262d"/><path style="fill:#d7686d" d="M106.667 362.667h42.667v128h-42.667zM362.667 362.667h42.667v128h-42.667z"/><circle cx="213.333" cy="426.667" r="21.333" style="fill:#f5d9cb"/><path d="m106.667 192 42.666 21.333v-42.666l21.334-21.334v-64H256A42.667 42.667 0 0 0 298.667 128h42.666v21.333l21.334 21.334v42.666L405.333 192A149.333 149.333 0 0 0 256 42.667 149.333 149.333 0 0 0 106.667 192z" style="fill:#e0e5e8"/><path d="M170.667 85.333a42.667 42.667 0 0 1 85.333 0z" style="fill:#a2b2ba"/><path style="fill:#f2f4f5" d="M106.667 170.667h42.667V192h-42.667zM341.333 106.667H320A42.709 42.709 0 0 0 277.333 64V42.667a64.07 64.07 0 0 1 64 64zM405.333 149.333H384A21.361 21.361 0 0 0 362.667 128v-21.333a42.709 42.709 0 0 1 42.666 42.666zM128 106.667h-21.333a64.07 64.07 0 0 1 64-64V64A42.709 42.709 0 0 0 128 106.667z"/><path d="M128 469.333a21.334 21.334 0 0 0 21.333 21.334V448A21.333 21.333 0 0 0 128 469.333zM106.667 362.667C128 362.667 128 384 128 384c0 21.333 21.333 21.333 21.333 21.333v-42.666zM362.667 405.333c0 21.334 21.333 21.334 21.333 21.334 21.333 0 21.333 21.333 21.333 21.333s0 21.333-21.333 21.333S362.667 448 362.667 448z" style="fill:#cb393f"/><path d="M448 469.333a21.333 21.333 0 0 0-21.333 21.334h42.666A21.333 21.333 0 0 0 448 469.333z" style="fill:#c6262d"/><path style="fill:#e7f6fa" d="M192 234.667h21.333V256H192zM298.667 234.667H320V256h-21.333z"/></g></svg>