<svg xmlns="http://www.w3.org/2000/svg" viewBox="0 0 512 512"><g data-name="Young Man"><rect x="341.333" y="192" width="42.667" height="64" rx="21.333" ry="21.333" style="fill:#cb7956"/><rect x="128" y="192" width="42.667" height="64" rx="21.333" ry="21.333" style="fill:#e29971"/><path d="M192 277.333v64a21.333 21.333 0 0 1-21.333 21.334h-64A85.333 85.333 0 0 0 21.333 448v42.667h469.334V448a85.333 85.333 0 0 0-85.334-85.333h-64A21.333 21.333 0 0 1 320 341.333v-64z" style="fill:#e29971"/><rect x="149.333" y="405.333" width="85.333" height="42.667" rx="21.333" ry="21.333" style="fill:#edbda4"/><circle cx="213.333" cy="426.667" r="21.333" style="fill:#f5d9cb"/><path d="M341.333 362.667A21.334 21.334 0 0 1 320 341.333v-64h-64v85.334h21.333V384h-42.666v21.333a21.333 21.333 0 1 0 42.666 0h85.334v-42.666z" style="fill:#cb7956"/><rect x="149.333" y="42.667" width="213.333" height="298.667" rx="106.667" ry="106.667" style="fill:#edbda4"/><path d="M320 64.483v84.85h-42.667v21.334H320v42.666a21.333 21.333 0 0 1 21.333 21.334A21.333 21.333 0 0 1 320 256h-64v64h21.333v19.184a106.69 106.69 0 0 0 85.334-104.517v-85.334c0-34.784-16.901-65.379-42.667-84.85z" style="fill:#e29971"/><path style="fill:#cb7956" d="M234.667 234.667V256h42.666v-64H320v-21.333h-64v64h-21.333z"/><path style="fill:#4c2c1a" d="M298.667 192H320v21.333h-21.333zM192 192h21.333v21.333H192z"/><path style="fill:#ce464d" d="M234.667 277.333h42.667v21.333h-42.667z"/><path d="M405.333 362.667h-64a85.333 85.333 0 1 1-170.666 0h-64A85.333 85.333 0 0 0 21.333 448v42.667h469.334V448a85.333 85.333 0 0 0-85.334-85.333z" style="fill:#224552"/><path d="M64 490.667H42.667V448a64.07 64.07 0 0 1 64-64v21.333A42.716 42.716 0 0 0 64 448z" style="fill:#4c6a74"/><path d="M192 85.333S192 128 256 128c0 0 0-21.333 21.333-21.333s21.334 21.333 64 21.333v85.333h21.334V192S384 192 384 170.667V128c0-85.333-85.333-106.667-128-106.667-21.333 0-85.333 0-85.333 42.667 0 0-42.667 0-42.667 42.667v64C128 192 149.333 192 149.333 192v21.333h21.334V106.667s0-21.334 21.333-21.334z" style="fill:#552a1f"/><path d="M128 106.667v64C128 192 149.333 192 149.333 192v21.333h21.334V106.667s0-21.334 21.333-21.334L170.667 64S128 64 128 106.667z" style="fill:#8f492b"/><path d="M256 490.667v-21.334a106.792 106.792 0 0 0 106.667-106.666H384a128.14 128.14 0 0 1-128 128z" style="fill:#062d3c"/><path style="fill:#cb7956" d="M149.333 149.333h21.333v21.333h-21.333z"/><path style="fill:#8f492b" d="M341.333 149.333h21.333v21.333h-21.333z"/><path style="fill:#cb7956" d="M149.333 106.667h21.333V128h-21.333z"/><path d="M252.354 106.98h-6.708c-28.792 0-40.833-21.418-42.708-38.293l-7.813-7.812 15.083-15.083L224 59.583V64c.063 4.49 1.52 18.302 16.042 21.135 5.791-8.156 17.979-20.979 37.291-20.979 12.438 0 21.646 5.292 30.521 10.406 9.625 5.542 18.709 10.771 33.48 10.771h21.333v21.334h-21.334c-20.458 0-33.583-7.542-44.104-13.615-7.354-4.219-13.166-7.562-19.896-7.562-14.229 0-22 15.302-22.083 15.448z" style="fill:#8f492b"/></g></svg>