<svg xmlns="http://www.w3.org/2000/svg" viewBox="0 0 512 512"><g data-name="Asian Young Woman"><path style="fill:#062d3c" d="M106.667 170.667h298.667v256H106.667z"/><path style="fill:#224552" d="M320 298.667h21.333v42.667H320z"/><path style="fill:#012334" d="M341.333 256h21.333v106.667h-21.333z"/><path style="fill:#224552" d="M362.667 213.333H384v149.333h-21.333z"/><path style="fill:#062d3c" d="M106.667 170.667H256V384H106.667z"/><path style="fill:#224552" d="M149.333 256h21.333v64h-21.333zM149.333 341.333h21.333v64h-21.333z"/><rect x="341.333" y="192" width="42.667" height="64" rx="21.333" ry="21.333" style="fill:#cb7956"/><rect x="128" y="192" width="42.667" height="64" rx="21.333" ry="21.333" style="fill:#e29971"/><path d="M192 277.333v64a21.333 21.333 0 0 1-21.333 21.334h-64A85.333 85.333 0 0 0 21.333 448v42.667h469.334V448a85.333 85.333 0 0 0-85.334-85.333h-64A21.333 21.333 0 0 1 320 341.333v-64z" style="fill:#e29971"/><path d="M341.333 362.667A21.334 21.334 0 0 1 320 341.333v-64h-85.333v128a21.333 21.333 0 1 0 42.666 0h85.334v-42.666z" style="fill:#cb7956"/><path d="M405.333 362.667H106.667A85.333 85.333 0 0 0 21.333 448v42.667h469.334V448a85.333 85.333 0 0 0-85.334-85.333z" style="fill:#088156"/><circle cx="362.667" cy="469.333" r="21.333" style="fill:#57a98c"/><circle cx="234.667" cy="426.667" r="21.333" style="fill:#57a98c"/><path d="M426.667 490.667a21.333 21.333 0 1 1 42.666 0zM64 490.667H42.667V448a64.07 64.07 0 0 1 64-64v21.333A42.709 42.709 0 0 0 64 448z" style="fill:#57a98c"/><path style="fill:#00593b" d="M170.667 362.667h170.667v42.667H170.667z"/><path style="fill:#004c33" d="M256 362.667h85.333v42.667H256z"/><path style="fill:#086b47" d="M170.667 362.667h64V384h-64z"/><rect x="149.333" y="42.667" width="213.333" height="298.667" rx="106.667" ry="106.667" style="fill:#edbda4"/><path d="M320 64.483v84.85h-42.667v21.334H320v42.666a21.333 21.333 0 0 1 21.333 21.334A21.333 21.333 0 0 1 320 256h-64v64h21.333v19.184a106.69 106.69 0 0 0 85.334-104.517v-85.334c0-34.784-16.901-65.379-42.667-84.85z" style="fill:#e29971"/><path style="fill:#cb7956" d="M234.667 234.667V256h42.666v-64H320v-21.333h-64v64h-21.333z"/><path style="fill:#4c2c1a" d="M298.667 192H320v21.333h-21.333zM192 192h21.333v21.333H192z"/><path style="fill:#ce464d" d="M234.667 277.333h42.667v21.333h-42.667z"/><path d="M405.333 405.333v-64h-42.666v21.334h-21.334v-21.334H320v85.334A21.333 21.333 0 0 1 298.667 448h-21.334a42.696 42.696 0 0 0 49.833 42.083c20.978-3.413 35.5-23.113 35.5-44.367v-19.05a42.667 42.667 0 0 0 85.334 0h-21.333a21.333 21.333 0 0 1-21.334-21.333z" style="fill:#062d3c"/><path style="fill:#224552" d="M362.667 277.333H384v149.333h-21.333z"/><path d="M106.667 176.93c-.001-81.768 63.007-153.073 144.738-155.527a149.335 149.335 0 0 1 153.928 149.264V192l-42.666 21.333v-42.666h-64a64 64 0 0 1-64-64h-21.334a64 64 0 0 1-64 64v42.666L106.667 192z" style="fill:#062d3c"/><path style="fill:#cb7956" d="M213.333 85.333h21.333v21.333h-21.333z"/><path d="M384 149.333h-64a64.07 64.07 0 0 1-64-64V64h21.333v21.333A42.709 42.709 0 0 0 320 128h64zM106.667 176.927V192l42.666 21.333v-42.666a64 64 0 0 0 64-64V27.962c-62.388 19.495-106.666 80.475-106.666 148.965z" style="fill:#224552"/><circle cx="266.667" cy="394.667" r="10.667" style="fill:#088156"/><path style="fill:#224552" d="M106.667 170.667H128v192h-21.333z"/><path style="fill:#4c6a74" d="M106.667 192H128v64h-21.333z"/><circle cx="149.333" cy="469.333" r="21.333" style="fill:#57a98c"/><circle cx="448" cy="405.333" r="21.333" style="fill:#57a98c"/><circle cx="64" cy="469.333" r="21.333" style="fill:#57a98c"/><path style="fill:#80bea8" d="M42.667 448H64v42.667H42.667z"/><path d="M149.333 362.667a21.333 21.333 0 1 1-42.666 0z" style="fill:#57a98c"/><path style="fill:#224552" d="M320 320h21.333v85.333H320zM405.333 469.333a42.709 42.709 0 0 1-42.666-42.666H384a21.333 21.333 0 0 0 42.667 0H448a42.709 42.709 0 0 1-42.667 42.666z"/><path d="M298.667 469.333V448A21.361 21.361 0 0 0 320 426.667v-32h21.333v32a42.709 42.709 0 0 1-42.666 42.666z" style="fill:#224552"/><path d="M149.333 170.667H128a127.638 127.638 0 0 1 69.781-113.98l9.73 18.98a106.4 106.4 0 0 0-58.178 95z" style="fill:#4c6a74"/></g></svg>