<svg xmlns="http://www.w3.org/2000/svg" viewBox="0 0 512 512"><title>Artboard 1</title><g id="Old_Woman" data-name="Old Woman"><circle cx="341.33333" cy="213.33333" r="85.33333" style="fill:#e0e5e8"/><circle cx="170.66667" cy="106.66667" r="85.33333" style="fill:#e0e5e8"/><circle cx="170.66667" cy="213.33333" r="85.33333" style="fill:#e0e5e8"/><circle cx="362.66667" cy="149.33333" r="64" style="fill:#e0e5e8"/><circle cx="277.33333" cy="106.66667" r="85.33333" style="fill:#e0e5e8"/><rect x="341.33333" y="192" width="42.66667" height="64" rx="21.33331" ry="21.33331" style="fill:#cb7956"/><rect x="128" y="192" width="42.66667" height="64" rx="21.33331" ry="21.33331" style="fill:#e29971"/><path d="M192,277.33333v64a21.33334,21.33334,0,0,1-21.33333,21.33334h-64A85.33333,85.33333,0,0,0,21.33333,448v42.66667H490.66667V448a85.33333,85.33333,0,0,0-85.33334-85.33333h-64A21.33334,21.33334,0,0,1,320,341.33333v-64Z" style="fill:#e29971"/><path d="M341.33333,362.66667A21.33356,21.33356,0,0,1,320,341.33333v-64H234.66667v128a21.33333,21.33333,0,1,0,42.66666,0h85.33334V362.66667Z" style="fill:#cb7956"/><rect x="149.33333" y="42.66667" width="213.33333" height="298.66656" rx="106.66656" ry="106.66656" style="fill:#edbda4"/><path d="M320,64.48307v84.85026H277.33333v21.33334H320v42.66659a21.33333,21.33333,0,0,1,21.33333,21.33333v.00008A21.33333,21.33333,0,0,1,320,256H256v64h21.33333v19.18359a106.69065,106.69065,0,0,0,85.33334-104.51692V149.33333C362.66667,114.54948,345.76562,83.95443,320,64.48307Z" style="fill:#e29971"/><polygon points="234.667 234.667 234.667 256 277.333 256 277.333 192 320 192 320 170.667 256 170.667 256 234.667 234.667 234.667" style="fill:#cb7956"/><rect x="298.66667" y="192" width="21.33333" height="21.33333" style="fill:#4c2c1a"/><rect x="192" y="192" width="21.33333" height="21.33333" style="fill:#4c2c1a"/><rect x="234.66667" y="277.33333" width="42.66667" height="21.33333" style="fill:#ce464d"/><rect x="192" y="149.33333" width="64" height="21.33333" style="fill:#e29971"/><rect x="213.33333" y="106.66667" width="85.33333" height="21.33333" style="fill:#e29971"/><rect x="192" y="128" width="128" height="21.33333" style="fill:#f5d9cb"/><rect x="170.66667" y="213.33333" width="64" height="42.66667" rx="21.33331" ry="21.33331" style="fill:#c4eaf5"/><rect x="277.33333" y="213.33333" width="64" height="42.66667" rx="21.33331" ry="21.33331" style="fill:#c4eaf5"/><rect x="213.33333" y="277.33333" width="21.33333" height="42.66667" style="fill:#e29971"/><rect x="277.33333" y="277.33333" width="21.33333" height="42.66667" style="fill:#cb7956"/><rect x="149.33333" y="405.33333" width="85.33333" height="42.66667" rx="21.33331" ry="21.33331" style="fill:#edbda4"/><path d="M362.66667,362.66667h42.66667A85.33333,85.33333,0,0,1,490.66667,448v42.66667a0,0,0,0,1,0,0h-128a0,0,0,0,1,0,0v-128A0,0,0,0,1,362.66667,362.66667Z" style="fill:#ce464d"/><path d="M362.66667,362.66667C384,362.66667,384,384,384,384s0,21.33333,21.33333,21.33333,21.33334,21.33334,21.33334,21.33334C426.66667,448,448,448,448,448c21.33333,0,21.33333-21.33333,21.33333-21.33333s0-21.33334-21.33333-21.33334S426.66667,384,426.66667,384s0-21.33333-21.33334-21.33333Z" style="fill:#c6262d"/><path d="M21.33333,362.66667h128a0,0,0,0,1,0,0v42.66667A85.33333,85.33333,0,0,1,64,490.66667H21.33333a0,0,0,0,1,0,0v-128a0,0,0,0,1,0,0Z" transform="translate(170.66667 853.33333) rotate(-180)" style="fill:#ce464d"/><path d="M64,469.33333C85.33333,469.33333,85.33333,448,85.33333,448c0-21.33333,21.33334-21.33333,21.33334-21.33333C128,426.66667,128,405.33333,128,405.33333,128,384,106.66667,384,106.66667,384s-21.33334,0-21.33334,21.33333S64,426.66667,64,426.66667C42.66667,426.66667,42.66667,448,42.66667,448c0,21.33333-21.33334,21.39583-21.33334,21.39583v21.27084H42.66667C42.66667,469.33333,64,469.33333,64,469.33333Z" style="fill:#c6262d"/><rect x="106.66667" y="362.66667" width="42.66667" height="128" style="fill:#d7686d"/><rect x="362.66667" y="362.66667" width="42.66667" height="128" style="fill:#d7686d"/><circle cx="213.33333" cy="426.66667" r="21.33333" style="fill:#f5d9cb"/><path d="M106.66667,192l42.66666,21.33333V170.66656l21.33328-21.33328V85.33333H256v.00005A42.66665,42.66665,0,0,0,298.66662,128h42.66671v21.33333l21.33334,21.33334v42.66666L405.33333,192v-.00015a149.333,149.333,0,0,0-149.333-149.333h-.0006a149.333,149.333,0,0,0-149.333,149.333Z" style="fill:#e0e5e8"/><path d="M170.66667,85.33333a42.66667,42.66667,0,0,1,85.33333,0Z" style="fill:#a2b2ba"/><rect x="106.66667" y="170.66667" width="42.66667" height="21.33333" style="fill:#f2f4f5"/><path d="M341.33333,106.66667H320A42.70887,42.70887,0,0,0,277.33333,64V42.66667A64.07,64.07,0,0,1,341.33333,106.66667Z" style="fill:#f2f4f5"/><path d="M405.33333,149.33333H384A21.36113,21.36113,0,0,0,362.66667,128V106.66667A42.70885,42.70885,0,0,1,405.33333,149.33333Z" style="fill:#f2f4f5"/><path d="M128,106.66667H106.66667a64.07,64.07,0,0,1,64-64V64A42.70887,42.70887,0,0,0,128,106.66667Z" style="fill:#f2f4f5"/><path d="M128,469.33333a21.33356,21.33356,0,0,0,21.33333,21.33334V448A21.33272,21.33272,0,0,0,128,469.33333Z" style="fill:#cb393f"/><path d="M106.66667,362.66667C128,362.66667,128,384,128,384c0,21.33333,21.33333,21.33333,21.33333,21.33333V362.66667Z" style="fill:#cb393f"/><path d="M362.66667,405.33333c0,21.33334,21.33333,21.33334,21.33333,21.33334,21.33333,0,21.33333,21.33333,21.33333,21.33333s0,21.33333-21.33333,21.33333S362.66667,448,362.66667,448Z" style="fill:#cb393f"/><path d="M448,469.33333a21.33272,21.33272,0,0,0-21.33333,21.33334h42.66666A21.33272,21.33272,0,0,0,448,469.33333Z" style="fill:#c6262d"/><rect x="192" y="234.66667" width="21.33333" height="21.33333" style="fill:#e7f6fa"/><rect x="298.66667" y="234.66667" width="21.33333" height="21.33333" style="fill:#e7f6fa"/></g></svg>