<svg xmlns="http://www.w3.org/2000/svg" viewBox="0 0 512 512"><g data-name="Asian Young Man"><rect x="341.333" y="192" width="42.667" height="64" rx="21.333" ry="21.333" style="fill:#cb7956"/><rect x="128" y="192" width="42.667" height="64" rx="21.333" ry="21.333" style="fill:#e29971"/><path d="M192 277.333v64a21.333 21.333 0 0 1-21.333 21.334h-64A85.333 85.333 0 0 0 21.333 448v42.667h469.334V448a85.333 85.333 0 0 0-85.334-85.333h-64A21.333 21.333 0 0 1 320 341.333v-64z" style="fill:#e29971"/><rect x="149.333" y="405.333" width="85.333" height="42.667" rx="21.333" ry="21.333" style="fill:#edbda4"/><circle cx="213.333" cy="426.667" r="21.333" style="fill:#f5d9cb"/><path d="M341.333 362.667A21.334 21.334 0 0 1 320 341.333v-64h-64v85.334h21.333V384h-42.666v21.333a21.333 21.333 0 1 0 42.666 0h85.334v-42.666z" style="fill:#cb7956"/><rect x="149.333" y="42.667" width="213.333" height="298.667" rx="106.667" ry="106.667" style="fill:#edbda4"/><path d="M320 64.483v84.85h-42.667v21.334H320v42.666a21.333 21.333 0 0 1 21.333 21.334A21.333 21.333 0 0 1 320 256h-64v64h21.333v19.184a106.69 106.69 0 0 0 85.334-104.517v-85.334c0-34.784-16.901-65.379-42.667-84.85z" style="fill:#e29971"/><path style="fill:#cb7956" d="M234.667 234.667V256h42.666v-64H320v-21.333h-64v64h-21.333z"/><path style="fill:#4c2c1a" d="M298.667 192H320v21.333h-21.333zM192 192h21.333v21.333H192z"/><path style="fill:#ce464d" d="M234.667 277.333h42.667v21.333h-42.667zM405.333 362.667h-64a85.333 85.333 0 1 1-170.666 0h-64A85.333 85.333 0 0 0 21.333 448v42.667h469.334V448a85.333 85.333 0 0 0-85.334-85.333z"/><path d="M64 490.667H42.667V448a64.07 64.07 0 0 1 64-64v21.333A42.709 42.709 0 0 0 64 448z" style="fill:#e08a8e"/><path d="M256 490.667v-21.334a106.792 106.792 0 0 0 106.667-106.666H384a128.14 128.14 0 0 1-128 128z" style="fill:#ab0008"/><path d="M213.333 106.667S192 128 192 170.667h-21.333v42.666h-21.334V192c-21.333 0-42.666-21.333-42.666-21.333A149.333 149.333 0 0 1 256 21.333a149.333 149.333 0 0 1 149.333 149.334S384 192 362.667 192l-21.334 21.333v-42.666H320c-85.333 0-85.333-64-85.333-64z" style="fill:#224552"/><path d="M362.667 192c21.333 0 42.666-21.333 42.666-21.333A148.279 148.279 0 0 0 234.667 23.03v83.637a64 64 0 0 0 64 64h42.666v42.666h21.334z" style="fill:#062d3c"/><path style="fill:#cb7956" d="M213.333 85.333h21.333v21.333h-21.333z"/><path d="M149.333 170.667H128a128.488 128.488 0 0 1 74.688-116.365l8.916 19.375a107.113 107.113 0 0 0-62.27 96.99z" style="fill:#4c6a74"/><path d="M362.667 170.667h-21.334v-21.334h-32A53.396 53.396 0 0 1 256 96V64h21.333v32a32.035 32.035 0 0 0 32 32h53.334z" style="fill:#224552"/></g></svg>