<?xml version="1.0" encoding="UTF-8"?>
<svg id="_图层_1" xmlns="http://www.w3.org/2000/svg" version="1.1" viewBox="0 0 17 19.8">
  <!-- Generator: Adobe Illustrator 29.1.0, SVG Export Plug-In . SVG Version: 2.1.0 Build 142)  -->
  <path d="M5.9,16.4c-.9,0-1.3-.2-1.3-.7s.2-.3.5-.5c-.4-1.1-.8-2.1-1.2-3.1s-.7-1.7-.8-2.1-.3-.7-.3-.8h0c.7.5,1.2.9,1.3,1.2.8-.3,1.5-.5,1.9-.8,0-1.3-.2-1.9-.2-2,0-.4,0-.6.2-.6s.3.2.4.8c0,.5,0,.9,0,1.3.8-.8,1.3-1.4,1.7-1.9,0-.3.1-.5.1-.6l.5-.2c.4-.3.6-.6.8-.9-.1,0-.5-.2-1.2-.2s-1.6,0-2.6.2c-.9,0-1.7.3-2.3.4-.6,0-1,.2-1,.2-.5,0-.8,0-.8-.4.5,0,1.6-.3,3.3-.7s3.2-.7,4.4-1,1.9-.4,2.1-.4h.5c.2,0,.3.2.4.3.2,0,.3.2.4.3,1,.6,1.5,1.1,1.5,1.6s-.2.5-.5.5-.9,0-1.8-.2-1.4-.2-1.7-.2h-.6c-.2,0-.3.2-.3.4.4.2.6.5.6.7s0,.3-.2.3-.3,0-.5,0-.4,0-.5,0c-.1.2-.2.5-.2.9.4,0,.7-.2,1-.3.3,0,.5-.2.7-.2.4,0,1,.3,1.8,1,.8.6,1.2,1.2,1.2,1.6s0,.4-.2.6-.4.4-.7.6c-.3.2-.6.7-1.1,1.4s-.9,1.6-1.4,2.6-.6.6-1.3.6h-3.4.7ZM4.6,10.7c.7,1.6,1.2,3.1,1.5,4.4h.6c0-.2,0-.7-.2-1.3s0-1.2,0-1.7,0-.2,0-.4v-1.7c-.4.1-1,.4-1.7.7h0ZM7,9.7c0,.2,0,.9,0,2.2,0,1.2,0,2.3.2,3.3h.6c0-.7,0-1.5.2-2.2,0-.7.1-1.4.2-2.1,0-.7.1-1.2.1-1.5-.1,0-.3,0-.7.2s-.6.1-.7.2h0ZM8.5,8c-.1,0-.3,0-.6.1,0,.2-.2.5-.3.8,0,0,.3,0,.5-.1.2,0,.3,0,.4-.1v-.6h0q0,0,0,0ZM9.1,9.2c-.4,3.1-.6,5.1-.7,6h.6c.3-.5.8-1.3,1.5-2.6s1-2,1-2.3-.2-.6-.5-.9c-.3-.3-.6-.4-.9-.4s-.6,0-.9.1h-.1Z"/>
</svg>